<?xml version="1.0" encoding="UTF-8"?>
<svg xmlns="http://www.w3.org/2000/svg" xmlns:xlink="http://www.w3.org/1999/xlink" version="1.2" >
<font id="Proto Mono Light Shadow">
<font-face  font-family="Proto Mono" units-per-em="1000" ascent="900" descent="-200" font-style="normal" font-weight="300" font-stretch="normal" cap-height="700" x-height="500" underline-position="-100" underline-thickness="50" />
<missing-glyph  horiz-adv-x="500" d="" />
<glyph glyph-name="null" d="" />
<glyph glyph-name="uni000D" unicode="&#xd;" horiz-adv-x="250" d="" />
<glyph glyph-name="space" unicode="&#x20;" horiz-adv-x="640" d="" />
<glyph glyph-name="A" unicode="A" horiz-adv-x="640" d="M586 6 Q586 -15 571 -30 Q556 -45 535 -45 Q518 -45 504.5 -34.5 Q491 -24 486 -8 Q470 -3 459.5 10.5 Q449 24 449 41 L449 240 Q447 241 443 241 L266 241 Q249 241 237.5 229 Q226 217 226 200 L226 6 Q226 -15 211 -30 Q196 -45 175 -45 Q158 -45 144.5 -34.5 Q131 -24 126 -8 Q110 -3 99.5 10.5 Q89 24 89 41 L89 553 Q89 562 93 572.5 Q97 583 104 589 L210 695 Q225 710 246 710 L394 710 Q402 710 412.5 706.5 Q423 703 430 696 L461 664 Q463 663 465 661 L571 553 Q579 545 582.5 537 Q586 529 586 518 L586 6 Z M541 553 Q541 571 529 581 L423 689 Q410 700 394 700 L246 700 Q228 700 217 688 L111 582 Q99 568 99 553 L99 41 Q99 24 111 12 Q123 0 140 0 Q157 0 169 12 Q181 24 181 41 L181 235 Q181 257 195.5 271.5 Q210 286 231 286 L408 286 Q429 286 444 271.5 Q459 257 459 235 L459 41 Q459 24 471 12 Q483 0 500 0 Q517 0 529 12 Q541 24 541 41 L541 553 Z M459 419 Q459 398 444 383 Q429 368 408 368 L231 368 Q210 368 195.5 383 Q181 398 181 419 L181 518 Q181 537 193 547 L252 606 Q257 611 264.5 614.5 Q272 618 280 618 L359 618 Q376 618 388 606 L446 547 Q451 542 455 534 Q459 526 459 518 L459 419 Z M413 567 Q409 569 404 571 Q399 573 394 573 L315 573 Q305 573 294 564 L235 505 Q226 494 226 483 L226 384 Q226 380 227 378 L408 378 Q425 378 437 390 Q449 402 449 419 L449 518 Q449 528 439 540 L413 567 Z " />
<glyph glyph-name="B" unicode="B" horiz-adv-x="640" d="M432 259 Q424 264 415 264 L266 264 Q249 264 237.5 252 Q226 240 226 223 L226 98 Q226 94 227 92 L231 92 L380 92 Q393 92 402 101 L439 139 Q449 149 449 160 L449 230 Q449 240 439 252 L432 259 Z M432 568 Q425 573 415 573 L266 573 Q249 573 237.5 561 Q226 549 226 532 L226 407 Q226 403 227 401 L231 401 L380 401 Q394 401 403 410 L440 448 Q449 457 449 470 L449 540 Q449 551 439 561 L432 568 Z M560 278 Q563 276 569 270 Q574 265 577 259 Q586 247 586 230 L586 92 Q586 84 582.5 72 Q579 60 572 53 L485 -31 Q471 -45 449 -45 L175 -45 Q158 -45 144.5 -34.5 Q131 -24 126 -8 Q110 -3 99.5 10.5 Q89 24 89 41 L89 659 Q89 680 104 695 Q119 710 140 710 L414 710 Q434 710 450 695 L537 611 Q540 608 541 606 L572 576 Q579 570 582.5 558.5 Q586 547 586 539 L586 400 Q586 382 577 370 Q575 367 573 364.5 Q571 362 569 359 Q566 357 560 351 Q551 343 545 335.5 Q539 328 539 315 Q539 302 545 294 Q551 286 560 278 Z M409 94 Q399 82 380 82 L231 82 Q210 82 195.5 97 Q181 112 181 133 L181 258 Q181 279 195.5 294 Q210 309 231 309 L380 309 Q398 309 410 297 L446 259 Q451 254 455 246 Q459 238 459 230 L459 160 Q459 152 455 144.5 Q451 137 446 132 L409 94 Z M410 403 Q398 391 380 391 L231 391 Q210 391 195.5 406 Q181 421 181 442 L181 567 Q181 588 195.5 603 Q210 618 231 618 L380 618 Q399 618 409 606 L446 568 Q451 563 455 555.5 Q459 548 459 540 L459 470 Q459 462 455.5 454 Q452 446 447 441 L410 403 Z M530 406 Q541 417 541 435 L541 574 Q541 590 530 604 L443 688 Q433 700 414 700 L140 700 Q123 700 111 688 Q99 676 99 659 L99 41 Q99 24 111 12 Q123 0 140 0 L414 0 Q433 0 443 12 L530 96 Q541 110 541 127 L541 265 Q541 283 530 294 L509 314 Q494 331 494 350 Q494 370 509 386 L530 406 Z " />
<glyph glyph-name="C" unicode="C" horiz-adv-x="640" d="M226 147 Q226 136 235 125 L259 101 Q268 92 280 92 L358 92 Q371 92 380 101 L438 160 Q443 165 445 170.5 Q447 176 448 181 Q449 189 448.5 196.5 Q448 204 448 212 Q448 232 463 248 Q478 264 499 264 Q516 264 529.5 253 Q543 242 548 227 Q564 222 574.5 208 Q585 194 585 177 L585 112 Q585 100 581.5 92.5 Q578 85 570 77 L464 -31 Q458 -39 447.5 -42 Q437 -45 428 -45 L281 -45 Q272 -45 261.5 -41.5 Q251 -38 243 -30 L104 111 Q89 126 89 147 L89 553 Q89 574 104 589 L208 695 Q216 703 226 706.5 Q236 710 246 710 L393 710 Q401 710 411.5 706.5 Q422 703 429 696 L460 664 Q462 663 464 661 L570 553 Q578 545 581.5 537 Q585 529 585 518 L585 453 Q585 433 570 417 Q555 401 534 401 Q517 401 504 411.5 Q491 422 486 438 Q469 443 458.5 457 Q448 471 448 488 Q448 496 448.5 503.5 Q449 511 448 519 Q447 524 445 529.5 Q443 535 438 540 L412 567 Q408 569 403 571 Q398 573 393 573 L315 573 Q305 573 294 564 L235 505 Q226 494 226 483 L226 147 Z M181 518 Q181 537 193 547 L252 606 Q257 611 264.5 614.5 Q272 618 280 618 L358 618 Q375 618 387 606 L445 547 Q450 542 454 534 Q458 526 458 518 L458 488 Q458 471 470 458.5 Q482 446 499 446 Q516 446 528 458.5 Q540 471 540 488 L540 553 Q540 571 528 581 L422 689 Q409 700 393 700 L246 700 Q229 700 215 688 L111 582 Q99 570 99 553 L99 147 Q99 130 111 118 L215 12 Q229 0 246 0 L393 0 Q409 0 422 11 L528 119 Q540 130 540 147 L540 212 Q540 229 528 241.5 Q516 254 499 254 Q482 254 470 241.5 Q458 229 458 212 L458 182 Q458 174 454 166 Q450 158 445 153 L387 94 Q375 82 358 82 L280 82 Q272 82 264.5 85.5 Q257 89 252 94 L193 153 Q181 163 181 182 L181 518 Z " />
<glyph glyph-name="D" unicode="D" horiz-adv-x="640" d="M413 567 Q409 569 404 571 Q399 573 394 573 L266 573 Q249 573 237.5 561 Q226 549 226 532 L226 98 Q226 94 227 92 L231 92 L359 92 Q372 92 381 101 L439 160 Q449 172 449 182 L449 518 Q449 528 439 540 L413 567 Z M586 112 Q586 100 582.5 92.5 Q579 85 571 77 L465 -31 Q459 -39 448.5 -42 Q438 -45 429 -45 L175 -45 Q158 -45 144.5 -34.5 Q131 -24 126 -8 Q110 -3 99.5 10.5 Q89 24 89 41 L89 659 Q89 680 104 695 Q119 710 140 710 L394 710 Q402 710 412.5 706.5 Q423 703 430 696 L461 664 Q463 663 465 661 L571 553 Q586 538 586 518 L586 112 Z M388 94 Q376 82 359 82 L231 82 Q210 82 195.5 97 Q181 112 181 133 L181 567 Q181 588 195.5 603 Q210 618 231 618 L359 618 Q376 618 388 606 L446 547 Q451 542 455 534 Q459 526 459 518 L459 182 Q459 174 455 166 Q451 158 446 153 L388 94 Z M423 689 Q410 700 394 700 L140 700 Q123 700 111 688 Q99 676 99 659 L99 41 Q99 24 111 12 Q123 0 140 0 L394 0 Q410 0 423 11 L529 119 Q541 130 541 147 L541 553 Q541 571 529 581 L423 689 Z " />
<glyph glyph-name="E" unicode="E" horiz-adv-x="640" d="M548 673 Q564 668 574.5 654.5 Q585 641 585 624 Q585 603 570 588 Q555 573 534 573 L266 573 Q249 573 237.5 561 Q226 549 226 532 L226 407 Q226 403 227 401 L430 401 Q447 401 461 390.5 Q475 380 480 363 Q496 358 506.5 345 Q517 332 517 315 Q517 294 501 279 Q485 264 465 264 L266 264 Q249 264 237.5 252 Q226 240 226 223 L226 98 Q226 94 227 92 L499 92 Q516 92 529.5 81.5 Q543 71 548 55 Q564 50 574.5 36.5 Q585 23 585 6 Q585 -15 570 -30 Q555 -45 534 -45 L175 -45 Q158 -45 144.5 -34.5 Q131 -24 126 -8 Q110 -3 99.5 10.5 Q89 24 89 41 L89 659 Q89 680 104 695 Q119 710 140 710 L499 710 Q516 710 529.5 699.5 Q543 689 548 673 Z M99 41 Q99 24 111 12 Q123 0 140 0 L499 0 Q516 0 528 12 Q540 24 540 41 Q540 58 528 70 Q516 82 499 82 L231 82 Q210 82 195.5 97 Q181 112 181 133 L181 258 Q181 279 195.5 294 Q210 309 231 309 L430 309 Q447 309 459.5 321 Q472 333 472 350 Q472 367 459.5 379 Q447 391 430 391 L231 391 Q210 391 195.5 406 Q181 421 181 442 L181 567 Q181 588 195.5 603 Q210 618 231 618 L499 618 Q516 618 528 630 Q540 642 540 659 Q540 676 528 688 Q516 700 499 700 L140 700 Q123 700 111 688 Q99 676 99 659 L99 41 Z " />
<glyph glyph-name="F" unicode="F" horiz-adv-x="640" d="M548 673 Q564 668 574.5 654.5 Q585 641 585 624 Q585 603 570 588 Q555 573 534 573 L266 573 Q249 573 237.5 561 Q226 549 226 532 L226 407 Q226 403 227 401 L231 401 L430 401 Q447 401 460.5 390.5 Q474 380 479 364 Q495 359 505.5 345.5 Q516 332 516 315 Q516 294 501 279 Q486 264 465 264 L266 264 Q249 264 237.5 252 Q226 240 226 223 L226 6 Q226 -15 211 -30 Q196 -45 175 -45 Q158 -45 144.5 -34.5 Q131 -24 126 -8 Q110 -3 99.5 10.5 Q89 24 89 41 L89 659 Q89 680 104 695 Q119 710 140 710 L499 710 Q516 710 529.5 699.5 Q543 689 548 673 Z M181 258 Q181 279 195.5 294 Q210 309 231 309 L430 309 Q447 309 459 321 Q471 333 471 350 Q471 367 459 379 Q447 391 430 391 L231 391 Q210 391 195.5 406 Q181 421 181 442 L181 567 Q181 588 195.5 603 Q210 618 231 618 L499 618 Q516 618 528 630 Q540 642 540 659 Q540 676 528 688 Q516 700 499 700 L140 700 Q123 700 111 688 Q99 676 99 659 L99 41 Q99 24 111 12 Q123 0 140 0 Q157 0 169 12 Q181 24 181 41 L181 258 Z " />
<glyph glyph-name="G" unicode="G" horiz-adv-x="640" d="M295 573 Q282 573 273 564 L236 526 Q226 516 226 505 L226 125 Q226 114 236 104 L241 98 Q250 92 260 92 L380 92 Q393 92 402 101 L439 139 Q449 149 449 160 L449 263 Q447 264 443 264 L382 264 Q365 264 351 274.5 Q337 285 332 301 Q317 306 306 319.5 Q295 333 295 350 Q295 371 311 386 Q327 401 347 401 L500 401 Q517 401 530.5 390.5 Q544 380 549 364 Q565 359 575.5 345.5 Q586 332 586 315 L586 92 Q586 84 582.5 72 Q579 60 572 53 L485 -31 Q471 -45 449 -45 L259 -45 Q239 -45 224 -30 L139 54 Q137 54 137 57 L104 89 Q97 95 93 107 Q89 119 89 127 L89 574 Q89 582 93.5 593.5 Q98 605 104 611 L189 695 Q204 710 224 710 L414 710 Q434 710 450 695 L537 611 Q538 610 538 610 L541 607 Q541 606 541.5 606 Q542 606 542 605 L572 576 Q580 568 583 555.5 Q586 543 587 532 Q588 521 587 510 Q586 499 586 493 Q586 472 571 457 Q556 442 535 442 Q518 442 504.5 452.5 Q491 463 486 479 Q470 484 459.5 497.5 Q449 511 449 528 L449 540 Q449 551 439 561 L432 568 Q425 573 415 573 L295 573 Z M459 528 Q459 511 471 499 Q483 487 500 487 Q517 487 529 499 Q541 511 541 528 L541 574 Q541 590 530 604 L443 688 Q433 700 414 700 L224 700 Q207 700 196 688 L111 604 Q99 589 99 574 L99 127 Q99 111 111 96 L196 12 Q207 0 224 0 L414 0 Q433 0 443 12 L530 96 Q541 110 541 127 L541 350 Q541 367 529 379 Q517 391 500 391 L347 391 Q330 391 317.5 379 Q305 367 305 350 Q305 333 317.5 321 Q330 309 347 309 L408 309 Q429 309 444 294.5 Q459 280 459 259 L459 160 Q459 152 455 144.5 Q451 137 446 132 L409 94 Q399 82 380 82 L260 82 Q252 82 243.5 85.5 Q235 89 230 94 L193 132 Q188 137 184.5 144.5 Q181 152 181 160 L181 540 Q181 548 184.5 555.5 Q188 563 193 568 L230 606 Q235 611 243.5 614.5 Q252 618 260 618 L380 618 Q399 618 409 606 L446 568 Q451 563 455 555.5 Q459 548 459 540 L459 528 Z " />
<glyph glyph-name="H" unicode="H" horiz-adv-x="640" d="M586 6 Q586 -15 571 -30 Q556 -45 535 -45 Q518 -45 504.5 -35 Q491 -25 486 -8 Q470 -3 459.5 10 Q449 23 449 41 L449 263 Q447 264 443 264 L266 264 Q249 264 237.5 252 Q226 240 226 223 L226 6 Q226 -15 211 -30 Q196 -45 175 -45 Q158 -45 144.5 -34.5 Q131 -24 126 -8 Q110 -3 99.5 10.5 Q89 24 89 41 L89 659 Q89 680 104 695 Q119 710 140 710 Q157 710 170.5 699.5 Q184 689 189 673 Q205 668 215.5 654.5 Q226 641 226 624 L226 407 Q226 403 227 401 L408 401 Q425 401 437 413 Q449 425 449 442 L449 659 Q449 680 464 695 Q479 710 500 710 Q517 710 530.5 699.5 Q544 689 549 673 Q565 668 575.5 654.5 Q586 641 586 624 L586 6 Z M541 659 Q541 676 529 688 Q517 700 500 700 Q483 700 471 688 Q459 676 459 659 L459 442 Q459 421 444 406 Q429 391 408 391 L231 391 Q210 391 195.5 406 Q181 421 181 442 L181 659 Q181 676 169 688 Q157 700 140 700 Q123 700 111 688 Q99 676 99 659 L99 41 Q99 24 111 12 Q123 0 140 0 Q157 0 169 12 Q181 24 181 41 L181 258 Q181 279 195.5 294 Q210 309 231 309 L408 309 Q429 309 444 294 Q459 279 459 258 L459 41 Q459 24 471 12 Q483 0 500 0 Q517 0 529 12 Q541 24 541 41 L541 659 Z " />
<glyph glyph-name="I" unicode="I" horiz-adv-x="640" d="M221 -45 Q204 -45 190.5 -35 Q177 -25 172 -8 Q156 -3 145.5 10 Q135 23 135 41 Q135 62 150 77 Q165 92 186 92 L228 92 Q245 92 257 104 Q269 116 269 133 L269 572 Q267 573 263 573 L221 573 Q204 573 190.5 583.5 Q177 594 172 610 Q156 615 145.5 628.5 Q135 642 135 659 Q135 680 150 695 Q165 710 186 710 L454 710 Q472 710 485 699.5 Q498 689 503 673 Q520 668 530 654.5 Q540 641 540 624 Q540 603 525 588 Q510 573 489 573 L447 573 Q430 573 418 561 Q406 549 406 532 L406 98 Q406 94 407 92 L454 92 Q471 92 484.5 81.5 Q498 71 503 55 Q519 50 529.5 36.5 Q540 23 540 6 Q540 -16 525.5 -30.5 Q511 -45 489 -45 L221 -45 Z M454 0 Q471 0 483 12 Q495 24 495 41 Q495 58 483 70 Q471 82 454 82 L412 82 Q390 82 375.5 97 Q361 112 361 133 L361 567 Q361 588 375.5 603 Q390 618 412 618 L454 618 Q471 618 483 630 Q495 642 495 659 Q495 676 483 688 Q471 700 454 700 L186 700 Q169 700 157 688 Q145 676 145 659 Q145 642 157 630 Q169 618 186 618 L228 618 Q250 618 264.5 603 Q279 588 279 567 L279 133 Q279 112 264.5 97 Q250 82 228 82 L186 82 Q169 82 157 70 Q145 58 145 41 Q145 24 157 12 Q169 0 186 0 L454 0 Z " />
<glyph glyph-name="J" unicode="J" horiz-adv-x="640" d="M449 572 Q447 573 443 573 L354 573 Q337 573 323.5 583.5 Q310 594 305 610 Q289 615 278.5 628.5 Q268 642 268 659 Q268 680 283 695 Q298 710 319 710 L500 710 Q517 710 530.5 699.5 Q544 689 549 673 Q565 668 575.5 654.5 Q586 641 586 624 L586 92 Q586 84 582.5 72 Q579 60 572 53 L485 -31 Q477 -38 469 -41.5 Q461 -45 450 -45 L259 -45 Q239 -45 224 -30 L139 54 Q137 54 137 57 L104 89 Q97 95 93 107 Q89 119 89 127 L89 212 Q89 232 104 248 Q119 264 140 264 Q157 264 170.5 253 Q184 242 189 227 Q205 222 215.5 208 Q226 194 226 177 L226 125 Q226 114 236 104 L242 97 Q250 92 259 92 L380 92 Q393 92 402 101 L439 139 Q449 149 449 160 L449 567 L449 572 Z M459 160 Q459 152 455 144.5 Q451 137 446 132 L409 94 Q399 82 380 82 L259 82 Q251 82 243 85.5 Q235 89 230 94 L193 132 Q188 137 184.5 144.5 Q181 152 181 160 L181 212 Q181 229 169 241.5 Q157 254 140 254 Q123 254 111 241.5 Q99 229 99 212 L99 127 Q99 111 111 96 L196 12 Q207 0 224 0 L415 0 Q433 0 443 12 L530 96 Q541 110 541 127 L541 659 Q541 676 529 688 Q517 700 500 700 L319 700 Q302 700 290 688 Q278 676 278 659 Q278 642 290 630 Q302 618 319 618 L408 618 Q429 618 444 603 Q459 588 459 567 L459 160 Z " />
<glyph glyph-name="K" unicode="K" horiz-adv-x="640" d="M266 264 Q249 264 237.5 252 Q226 240 226 223 L226 6 Q226 -15 211 -30 Q196 -45 175 -45 Q158 -45 144.5 -34.5 Q131 -24 126 -8 Q110 -3 99.5 10.5 Q89 24 89 41 L89 659 Q89 680 104 695 Q119 710 140 710 Q157 710 170.5 699.5 Q184 689 189 673 Q205 668 215.5 654.5 Q226 641 226 624 L226 407 Q226 403 227 401 L279 401 Q291 401 300 410 L439 548 Q449 558 449 569 L449 659 Q449 680 464 695 Q479 710 500 710 Q517 710 530.5 699.5 Q544 689 549 673 Q565 668 575.5 654.5 Q586 641 586 624 L586 500 Q586 492 583 481 Q580 470 572 462 L450 343 Q446 339 442.5 330 Q439 321 439 315 Q439 309 441.5 302 Q444 295 448 290 L537 202 Q539 200 540 198 L572 167 Q580 160 583 149 Q586 138 586 130 L586 6 Q586 -15 571 -30 Q556 -45 535 -45 Q518 -45 504.5 -34.5 Q491 -24 486 -8 Q470 -3 459.5 10.5 Q449 24 449 41 L449 131 Q449 139 442 149 L335 255 Q326 264 314 264 L266 264 Z M279 309 Q287 309 294.5 305.5 Q302 302 307 297 L446 159 Q451 154 455 146.5 Q459 139 459 131 L459 41 Q459 24 471 12 Q483 0 500 0 Q517 0 529 12 Q541 24 541 41 L541 165 Q541 182 530 195 L408 315 Q402 323 398 331.5 Q394 340 394 350 Q394 360 398 369 Q402 378 408 386 L530 505 Q541 518 541 535 L541 659 Q541 676 529 688 Q517 700 500 700 Q483 700 471 688 Q459 676 459 659 L459 569 Q459 561 455 553.5 Q451 546 446 541 L307 403 Q302 398 294.5 394.5 Q287 391 279 391 L231 391 Q210 391 195.5 406 Q181 421 181 442 L181 659 Q181 676 169 688 Q157 700 140 700 Q123 700 111 688 Q99 676 99 659 L99 41 Q99 24 111 12 Q123 0 140 0 Q157 0 169 12 Q181 24 181 41 L181 258 Q181 279 195.5 294 Q210 309 231 309 L279 309 Z " />
<glyph glyph-name="L" unicode="L" horiz-adv-x="640" d="M534 -45 L175 -45 Q158 -45 144.5 -34.5 Q131 -24 126 -8 Q110 -3 99.5 10.5 Q89 24 89 41 L89 659 Q89 680 104 695 Q119 710 140 710 Q157 710 170.5 699.5 Q184 689 189 673 Q205 668 215.5 654.5 Q226 641 226 624 L226 98 Q226 94 227 92 L499 92 Q516 92 529.5 81.5 Q543 71 548 55 Q564 50 574.5 36.5 Q585 23 585 6 Q585 -15 570 -30 Q555 -45 534 -45 Z M181 659 Q181 676 169 688 Q157 700 140 700 Q123 700 111 688 Q99 676 99 659 L99 41 Q99 24 111 12 Q123 0 140 0 L499 0 Q516 0 528 12 Q540 24 540 41 Q540 58 528 70 Q516 82 499 82 L231 82 Q210 82 195.5 97 Q181 112 181 133 L181 659 Z " />
<glyph glyph-name="M" unicode="M" horiz-adv-x="640" d="M449 465 L415 432 Q406 421 406 410 L406 315 Q406 295 391.5 279.5 Q377 264 356 264 Q339 264 325 274 Q311 284 306 301 Q290 306 279.5 319 Q269 332 269 350 L269 445 Q269 455 263 464 L227 499 L226 499 L226 498 L226 6 Q226 -15 211 -30 Q196 -45 175 -45 Q158 -45 144.5 -34.5 Q131 -24 126 -8 Q110 -3 99.5 10.5 Q89 24 89 41 L89 659 Q89 680 104 695 Q119 710 140 710 Q148 710 158.5 706.5 Q169 703 176 696 L209 663 Q211 661 211 661 L293 578 Q298 574 306.5 571.5 Q315 569 321 569 Q337 569 349 581 L463 696 Q470 703 481 706.5 Q492 710 500 710 Q517 710 530.5 699.5 Q544 689 549 673 Q565 668 575.5 654.5 Q586 641 586 624 L586 6 Q586 -15 571 -30 Q556 -45 535 -45 Q518 -45 504.5 -34.5 Q491 -24 486 -8 Q470 -3 459.5 10.5 Q449 24 449 41 L449 465 Z M459 41 Q459 24 471 12 Q483 0 500 0 Q517 0 529 12 Q541 24 541 41 L541 659 Q541 676 529 688 Q517 700 500 700 Q483 700 470 689 L356 574 Q343 559 321 559 Q310 559 301 563 Q292 567 284 573 L169 689 Q156 700 140 700 Q123 700 111 688 Q99 676 99 659 L99 41 Q99 24 111 12 Q123 0 140 0 Q157 0 169 12 Q181 24 181 41 L181 533 Q181 546 190 546 Q196 546 199 541 L267 474 Q272 469 275.5 461 Q279 453 279 445 L279 350 Q279 333 291 321 Q303 309 321 309 Q338 309 349.5 321 Q361 333 361 350 L361 445 Q361 453 364.5 461 Q368 469 373 474 L440 541 Q443 546 449 546 Q459 546 459 533 L459 41 Z " />
<glyph glyph-name="N" unicode="N" horiz-adv-x="640" d="M226 408 L226 6 Q226 -15 211 -30 Q196 -45 175 -45 Q158 -45 144.5 -34.5 Q131 -24 126 -8 Q110 -3 99.5 10.5 Q89 24 89 41 L89 659 Q89 680 104 695 Q119 710 140 710 Q153 710 165.5 703 Q178 696 185 685 L192 672 Q211 666 220 650 L449 256 L449 659 Q449 680 464 695 Q479 710 500 710 Q517 710 530.5 699.5 Q544 689 549 673 Q565 668 575.5 654.5 Q586 641 586 624 L586 6 Q586 -15 571 -30 Q556 -45 535 -45 Q522 -45 510 -38.5 Q498 -32 491 -20 L483 -7 Q465 0 455 15 L226 408 Z M176 680 Q163 700 140 700 Q123 700 111 688 Q99 676 99 659 L99 41 Q99 24 111 12 Q123 0 140 0 Q157 0 169 12 Q181 24 181 41 L181 474 Q181 486 188 486 Q193 486 197 478 L464 20 Q476 0 500 0 Q517 0 529 12 Q541 24 541 41 L541 659 Q541 676 529 688 Q517 700 500 700 Q483 700 471 688 Q459 676 459 659 L459 227 Q459 220 456 217.5 Q453 215 451 215 Q446 215 442 223 L176 680 Z " />
<glyph glyph-name="O" unicode="O" horiz-adv-x="640" d="M586 91 Q586 83 582.5 71.5 Q579 60 572 53 L485 -31 Q471 -45 449 -45 L259 -45 Q239 -45 224 -30 L139 54 Q139 54 137 57 L104 89 Q98 95 93.5 106.5 Q89 118 89 126 L89 574 Q89 582 93.5 593.5 Q98 605 104 611 L189 695 Q204 710 224 710 L414 710 Q434 710 450 695 L537 611 Q540 608 541 606 L572 576 Q579 570 582.5 558.5 Q586 547 586 539 L586 91 Z M443 688 Q433 700 414 700 L224 700 Q207 700 196 688 L111 604 Q99 589 99 574 L99 126 Q99 111 111 96 L196 12 Q207 0 224 0 L414 0 Q433 0 443 12 L530 96 Q541 110 541 126 L541 574 Q541 590 530 604 L443 688 Z M409 94 Q399 82 380 82 L259 82 Q251 82 243 85.5 Q235 89 230 94 L193 132 Q188 137 184.5 144.5 Q181 152 181 160 L181 540 Q181 548 184.5 555.5 Q188 563 193 568 L230 606 Q235 611 243 614.5 Q251 618 259 618 L380 618 Q399 618 409 606 L446 568 Q451 563 455 555.5 Q459 548 459 540 L459 160 Q459 152 455 144.5 Q451 137 446 132 L409 94 Z M432 568 Q425 573 415 573 L294 573 Q282 573 273 564 L236 526 Q226 516 226 505 L226 125 Q226 114 236 104 L242 97 Q250 92 259 92 L380 92 Q393 92 402 101 L439 139 Q449 149 449 160 L449 540 Q449 551 439 561 L432 568 Z " />
<glyph glyph-name="P" unicode="P" horiz-adv-x="640" d="M432 568 Q425 573 415 573 L266 573 Q249 573 237.5 561 Q226 549 226 532 L226 384 Q226 380 227 378 L231 378 L380 378 Q393 378 402 387 L439 425 Q449 435 449 446 L449 540 Q449 551 439 561 L432 568 Z M541 606 L572 576 Q579 570 582.5 558.5 Q586 547 586 539 L586 378 Q586 370 582.5 358 Q579 346 572 339 L485 255 Q471 241 449 241 L266 241 Q249 241 237.5 229 Q226 217 226 200 L226 6 Q226 -15 211 -30 Q196 -45 175 -45 Q158 -45 144.5 -34.5 Q131 -24 126 -8 Q110 -3 99.5 10.5 Q89 24 89 41 L89 659 Q89 680 104 695 Q119 710 140 710 L414 710 Q434 710 450 695 L537 611 Q540 608 541 606 Z M181 235 Q181 257 195.5 271.5 Q210 286 231 286 L414 286 Q433 286 443 298 L530 382 Q541 396 541 413 L541 574 Q541 590 530 604 L443 688 Q433 700 414 700 L140 700 Q123 700 111 688 Q99 676 99 659 L99 41 Q99 24 111 12 Q123 0 140 0 Q157 0 169 12 Q181 24 181 41 L181 235 Z M231 368 Q210 368 195.5 383 Q181 398 181 419 L181 567 Q181 588 195.5 603 Q210 618 231 618 L380 618 Q399 618 409 606 L446 568 Q451 563 455 555.5 Q459 548 459 540 L459 446 Q459 438 455 430.5 Q451 423 446 418 L409 380 Q399 368 380 368 L231 368 Z " />
<glyph glyph-name="Q" unicode="Q" horiz-adv-x="640" d="M432 568 Q425 573 415 573 L294 573 Q282 573 273 564 L236 526 Q226 516 226 505 L226 125 Q226 114 236 104 L242 97 Q250 92 259 92 L380 92 Q393 92 402 101 L439 139 Q449 149 449 160 L449 540 Q449 551 439 561 L432 568 Z M541 606 L572 576 Q579 570 582.5 558.5 Q586 547 586 539 L586 92 Q586 74 577 62 Q574 56 569 51 Q563 45 560 43 Q551 35 545 27 Q539 19 539 6 Q539 -8 545 -15.5 Q551 -23 560 -31 L569 -40 Q575 -46 577 -50 Q586 -62 586 -80 Q586 -101 570.5 -115.5 Q555 -130 535 -130 Q527 -130 516 -127 Q505 -124 498 -116 L468 -86 Q466 -84 465 -83.5 Q464 -83 463 -81 L433 -51 Q426 -45 415 -45 L260 -45 Q239 -45 224 -30 L139 54 Q137 54 137 57 L104 89 Q97 95 93 107 Q89 119 89 127 L89 574 Q89 582 93.5 593.5 Q98 605 104 611 L189 695 Q204 710 225 710 L415 710 Q435 710 450 695 L537 611 Q540 608 541 606 Z M409 94 Q399 82 380 82 L259 82 Q251 82 243 85.5 Q235 89 230 94 L193 132 Q188 137 184.5 144.5 Q181 152 181 160 L181 540 Q181 548 184.5 555.5 Q188 563 193 568 L230 606 Q235 611 243 614.5 Q251 618 259 618 L380 618 Q399 618 409 606 L446 568 Q451 563 455 555.5 Q459 548 459 540 L459 160 Q459 152 455 144.5 Q451 137 446 132 L409 94 Z M380 0 Q398 0 410 -12 L470 -74 Q483 -85 500 -85 Q517 -85 529 -73.5 Q541 -62 541 -45 Q541 -26 530 -15 L509 4 Q494 21 494 41 Q494 62 509 78 L530 97 Q541 110 541 127 L541 574 Q541 590 530 604 L443 688 Q433 700 415 700 L225 700 Q207 700 196 688 L111 604 Q99 589 99 574 L99 127 Q99 111 111 96 L196 12 Q207 0 225 0 L380 0 Z " />
<glyph glyph-name="R" unicode="R" horiz-adv-x="640" d="M413 567 Q409 569 404 571 Q399 573 394 573 L266 573 Q249 573 237.5 561 Q226 549 226 532 L226 384 Q226 380 227 378 L231 378 L359 378 Q372 378 381 387 L439 446 Q449 456 449 468 L449 518 Q449 528 439 540 L413 567 Z M266 241 Q249 241 237.5 229 Q226 217 226 200 L226 6 Q226 -15 211 -30 Q196 -45 175 -45 Q158 -45 144.5 -34.5 Q131 -24 126 -8 Q110 -3 99.5 10.5 Q89 24 89 41 L89 659 Q89 680 104 695 Q119 710 140 710 L394 710 Q416 710 431 695 L466 660 L537 589 L572 554 Q580 546 583 536.5 Q586 527 586 518 L586 398 Q586 379 574 364 Q571 360 568 357 Q565 354 562 351 Q559 348 555.5 345 Q552 342 549 339 Q535 327 526.5 317 Q518 307 518 293 Q518 286 520 281 Q522 276 524 271 Q526 269 526 269 Q529 266 532.5 263 Q536 260 538 256 Q541 253 542 251 Q544 249 545.5 248 Q547 247 549 245 Q554 240 562 234 Q565 231 568 228 Q571 225 574 221 Q579 213 582.5 205 Q586 197 586 186 L586 6 Q586 -15 571 -30 Q556 -45 535 -45 Q518 -45 504.5 -34.5 Q491 -24 486 -8 Q470 -3 459.5 10.5 Q449 24 449 41 L449 187 Q449 198 439 208 L413 235 Q409 237 404 239 Q399 241 394 241 L266 241 Z M388 380 Q376 368 359 368 L231 368 Q210 368 195.5 383 Q181 398 181 419 L181 567 Q181 588 195.5 603 Q210 618 231 618 L359 618 Q376 618 388 606 L446 547 Q451 542 455 534 Q459 526 459 518 L459 468 Q459 460 455 452 Q451 444 446 439 L388 380 Z M359 286 Q376 286 388 274 L446 215 Q451 210 455 202.5 Q459 195 459 187 L459 41 Q459 24 471 12 Q483 0 500 0 Q517 0 529 12 Q541 24 541 41 L541 221 Q541 237 530 251 L487 291 Q481 299 477 308.5 Q473 318 473 328 Q473 348 488 363 L529 404 Q535 411 538 417.5 Q541 424 541 433 L541 553 Q541 571 530 582 L424 688 Q411 700 394 700 L140 700 Q123 700 111 688 Q99 676 99 659 L99 41 Q99 24 111 12 Q123 0 140 0 Q157 0 169 12 Q181 24 181 41 L181 235 Q181 257 195.5 271.5 Q210 286 231 286 L359 286 Z " />
<glyph glyph-name="S" unicode="S" horiz-adv-x="640" d="M294 573 Q282 573 273 564 L236 526 Q226 516 226 505 L226 435 Q226 423 236 413 L242 406 Q250 401 259 401 L415 401 Q424 401 434 397 Q444 393 451 386 L537 301 Q539 299 540 297 L572 266 Q580 258 583 248.5 Q586 239 586 230 L586 91 Q586 83 582.5 71.5 Q579 60 572 53 L485 -31 Q477 -38 469 -41.5 Q461 -45 450 -45 L259 -45 Q239 -45 224 -30 L139 54 L136 57 L104 89 Q95 97 92 109.5 Q89 122 88 133 Q88 144 88.5 154.5 Q89 165 89 173 Q89 194 104.5 208.5 Q120 223 140 223 Q157 223 170.5 212.5 Q184 202 189 186 Q205 181 215.5 168 Q226 155 226 138 L226 126 Q227 123 227 118 Q229 110 236 104 L242 97 Q250 92 259 92 L380 92 Q393 92 402 101 L439 139 Q449 149 449 160 L449 230 Q449 240 439 252 L432 259 Q424 264 415 264 L259 264 Q250 264 240 268 Q230 272 223 279 L191 311 L188 314 L104 399 Q89 414 89 435 L89 574 Q89 582 93.5 593.5 Q98 605 104 611 L189 695 Q204 710 224 710 L415 710 Q435 710 450 695 L537 611 Q539 609 539.5 608 Q540 607 542 605 L572 576 Q581 568 583.5 555.5 Q586 543 587 532 Q588 521 587 510 Q586 499 586 493 Q586 472 571 457 Q556 442 535 442 Q518 442 504.5 452.5 Q491 463 486 479 Q470 484 459.5 497.5 Q449 511 449 528 Q449 543 448 547 Q446 554 439 561 L432 568 Q425 573 415 573 L294 573 Z M459 528 Q459 511 471 499 Q483 487 500 487 Q517 487 529 499 Q541 511 541 528 L541 574 Q541 590 530 604 L443 688 Q433 700 415 700 L224 700 Q207 700 196 688 L111 604 Q99 589 99 574 L99 435 Q99 418 111 406 L195 321 Q209 309 224 309 L380 309 Q398 309 410 297 L446 259 Q451 254 455 246 Q459 238 459 230 L459 160 Q459 152 455 144.5 Q451 137 446 132 L409 94 Q399 82 380 82 L259 82 Q251 82 243 85.5 Q235 89 230 94 L193 132 Q188 137 184.5 144.5 Q181 152 181 160 L181 173 Q181 190 169 201.5 Q157 213 140 213 Q123 213 111 201.5 Q99 190 99 173 L99 126 Q99 111 111 96 L196 12 Q207 0 224 0 L415 0 Q433 0 443 12 L530 96 Q541 110 541 126 L541 265 Q541 283 530 294 L444 379 Q430 391 415 391 L259 391 Q251 391 242.5 394.5 Q234 398 229 403 L193 441 Q188 446 184.5 454 Q181 462 181 470 L181 540 Q181 548 184.5 555.5 Q188 563 193 568 L230 606 Q235 611 243 614.5 Q251 618 259 618 L380 618 Q399 618 409 606 L446 568 Q451 563 455 555.5 Q459 548 459 540 L459 528 Z " />
<glyph glyph-name="T" unicode="T" horiz-adv-x="640" d="M269 572 Q267 573 263 573 L175 573 Q158 573 144.5 583.5 Q131 594 126 610 Q110 615 99.5 628.5 Q89 642 89 659 Q89 680 104 695 Q119 710 140 710 L500 710 Q517 710 530.5 699.5 Q544 689 549 673 Q565 668 575.5 654.5 Q586 641 586 624 Q586 603 571 588 Q556 573 535 573 L447 573 Q430 573 418 561 Q406 549 406 532 L406 6 Q406 -16 391.5 -30.5 Q377 -45 355 -45 Q338 -45 324.5 -35 Q311 -25 306 -8 Q290 -3 279.5 10 Q269 23 269 41 L269 567 L269 572 Z M361 567 Q361 588 375.5 603 Q390 618 412 618 L500 618 Q517 618 529 630 Q541 642 541 659 Q541 676 529 688 Q517 700 500 700 L140 700 Q123 700 111 688 Q99 676 99 659 Q99 642 111 630 Q123 618 140 618 L228 618 Q250 618 264.5 603 Q279 588 279 567 L279 41 Q279 24 291 12 Q303 0 320 0 Q337 0 349 12 Q361 24 361 41 L361 567 Z " />
<glyph glyph-name="U" unicode="U" horiz-adv-x="640" d="M549 673 Q565 668 575.5 654.5 Q586 641 586 624 L586 91 Q586 83 582.5 71.5 Q579 60 572 53 L485 -31 Q471 -45 449 -45 L259 -45 Q239 -45 224 -30 L139 54 Q139 54 137 57 L104 89 Q98 95 93.5 106.5 Q89 118 89 126 L89 659 Q89 680 104 695 Q119 710 140 710 Q157 710 170.5 699.5 Q184 689 189 673 Q205 668 215.5 654.5 Q226 641 226 624 L226 125 Q226 114 236 104 L242 97 Q250 92 259 92 L380 92 Q393 92 402 101 L439 139 Q449 149 449 160 L449 659 Q449 680 464 695 Q479 710 500 710 Q517 710 530.5 699.5 Q544 689 549 673 Z M181 659 Q181 676 169 688 Q157 700 140 700 Q123 700 111 688 Q99 676 99 659 L99 126 Q99 111 111 96 L196 12 Q207 0 224 0 L414 0 Q433 0 443 12 L530 96 Q541 110 541 126 L541 659 Q541 676 529 688 Q517 700 500 700 Q483 700 471 688 Q459 676 459 659 L459 160 Q459 152 455 144.5 Q451 137 446 132 L409 94 Q399 82 380 82 L259 82 Q251 82 243 85.5 Q235 89 230 94 L193 132 Q188 137 184.5 144.5 Q181 152 181 160 L181 659 Z " />
<glyph glyph-name="V" unicode="V" horiz-adv-x="640" d="M586 624 L586 167 Q586 158 582 146.5 Q578 135 571 129 L410 -31 Q402 -39 392 -42 Q382 -45 371 -46 Q362 -47 352.5 -46 Q343 -45 335 -45 Q326 -45 316.5 -42 Q307 -39 299 -31 L105 164 Q98 171 93.5 181.5 Q89 192 89 202 L89 659 Q89 680 104 695 Q119 710 140 710 Q157 710 170.5 699.5 Q184 689 189 673 Q205 668 215.5 654.5 Q226 641 226 624 L226 201 Q226 191 235 180 L293 121 Q305 112 321 112 Q335 112 349 124 L440 215 Q449 224 449 236 L449 659 Q449 680 464 695 Q479 710 500 710 Q517 710 530.5 699.5 Q544 689 549 673 Q565 668 575.5 654.5 Q586 641 586 624 Z M459 236 Q459 228 455.5 220.5 Q452 213 447 208 L356 117 Q341 102 321 102 Q298 102 283 117 L193 208 Q188 213 184.5 220.5 Q181 228 181 236 L181 659 Q181 676 169 688 Q157 700 140 700 Q123 700 111 688 Q99 676 99 659 L99 202 Q99 193 102.5 186 Q106 179 112 171 L271 11 Q282 0 300 0 L339 0 Q357 0 368 11 L529 171 Q541 186 541 202 L541 659 Q541 676 529 688 Q517 700 500 700 Q483 700 471 688 Q459 676 459 659 L459 236 Z " />
<glyph glyph-name="W" unicode="W" horiz-adv-x="640" d="M586 624 L586 96 Q586 74 572 60 L481 -31 Q467 -45 445 -45 Q437 -45 426 -41.5 Q415 -38 408 -31 L379 -1 Q377 0 373 4 L355 22 L302 -31 Q294 -39 284 -42 Q274 -45 264 -45 Q255 -45 245.5 -42 Q236 -39 228 -31 L198 -1 L193 4 L104 95 Q89 110 89 131 L89 659 Q89 680 104 695 Q119 710 140 710 Q157 710 170.5 699.5 Q184 689 189 673 Q205 668 215.5 654.5 Q226 641 226 624 L226 130 L229 130 Q245 130 257 140.5 Q269 151 269 165 L269 350 Q269 372 284.5 386.5 Q300 401 321 401 Q338 401 351 390.5 Q364 380 369 364 Q386 359 396 345.5 Q406 332 406 315 L406 130 L410 130 Q425 130 437 140.5 Q449 151 449 165 L449 659 Q449 680 464 695 Q479 710 500 710 Q517 710 530.5 699.5 Q544 689 549 673 Q565 668 575.5 654.5 Q586 641 586 624 Z M459 165 Q459 146 444 133 Q429 120 410 120 Q393 120 377 133 Q361 146 361 165 L361 350 Q361 367 349.5 379 Q338 391 321 391 Q303 391 291 379 Q279 367 279 350 L279 165 Q279 146 264 133 Q249 120 229 120 Q212 120 196.5 133 Q181 146 181 165 L181 659 Q181 676 169 688 Q157 700 140 700 Q123 700 111 688 Q99 676 99 659 L99 131 Q99 114 111 102 L200 11 Q211 0 229 0 Q237 0 245.5 2.5 Q254 5 260 11 L321 73 L380 11 Q394 0 410 0 Q428 0 439 11 L530 102 Q541 113 541 131 L541 659 Q541 676 529 688 Q517 700 500 700 Q483 700 471 688 Q459 676 459 659 L459 165 Z " />
<glyph glyph-name="X" unicode="X" horiz-adv-x="640" d="M586 624 L586 475 Q586 454 571 440 L475 344 Q470 339 466.5 330.5 Q463 322 463 315 Q463 300 476 287 L571 190 Q586 175 586 155 L586 6 Q586 -15 571 -30 Q556 -45 535 -45 Q518 -45 504.5 -34.5 Q491 -24 486 -8 Q470 -3 459.5 10.5 Q449 24 449 41 L449 155 Q449 167 439 177 L384 232 Q371 245 354 245 Q340 245 325 232 L235 142 Q226 131 226 120 L226 6 Q226 -15 211 -30 Q196 -45 175 -45 Q158 -45 144.5 -34.5 Q131 -24 126 -8 Q110 -3 99.5 10.5 Q89 24 89 41 L89 190 Q89 202 93.5 210 Q98 218 105 225 L199 322 Q211 336 211 350 Q211 366 198 379 L105 475 Q98 482 93.5 490 Q89 498 89 510 L89 659 Q89 680 104 695 Q119 710 140 710 Q157 710 170.5 699.5 Q184 689 189 673 Q205 668 215.5 654.5 Q226 641 226 624 L226 510 Q226 496 236 488 L294 428 Q299 425 306.5 422.5 Q314 420 319 420 Q326 420 335 423.5 Q344 427 349 431 L440 523 Q449 532 449 545 L449 659 Q449 680 464 695 Q479 710 500 710 Q517 710 530.5 699.5 Q544 689 549 673 Q565 668 575.5 654.5 Q586 641 586 624 Z M459 545 Q459 537 455.5 529 Q452 521 447 516 L356 424 Q348 418 338.5 414 Q329 410 319 410 Q309 410 300 414 Q291 418 283 424 L193 516 Q188 521 184.5 529 Q181 537 181 545 L181 659 Q181 676 169 688 Q157 700 140 700 Q123 700 111 688 Q99 676 99 659 L99 510 Q99 493 112 482 L205 386 Q221 370 221 350 Q221 330 206 315 L112 218 Q99 207 99 190 L99 41 Q99 24 111 12 Q123 0 140 0 Q157 0 169 12 Q181 24 181 41 L181 155 Q181 163 184.5 171 Q188 179 193 184 L283 274 Q297 290 319 290 Q329 290 339 286 Q349 282 356 274 L446 184 Q451 179 455 171 Q459 163 459 155 L459 41 Q459 24 471 12 Q483 0 500 0 Q517 0 529 12 Q541 24 541 41 L541 190 Q541 208 529 218 L434 315 Q418 329 418 350 Q418 369 433 386 L529 482 Q541 493 541 510 L541 659 Q541 676 529 688 Q517 700 500 700 Q483 700 471 688 Q459 676 459 659 L459 545 Z " />
<glyph glyph-name="Y" unicode="Y" horiz-adv-x="640" d="M189 673 Q205 668 215.5 654.5 Q226 641 226 624 L226 487 Q226 475 235 466 L291 410 Q303 398 320 398 Q337 398 349 410 L440 501 Q449 510 449 522 L449 659 Q449 680 464 695 Q479 710 500 710 Q517 710 530.5 699.5 Q544 689 549 673 Q565 668 575.5 654.5 Q586 641 586 624 L586 453 Q586 430 571 416 L415 260 Q406 249 406 239 L406 6 Q406 -16 391.5 -30.5 Q377 -45 355 -45 Q338 -45 324.5 -35 Q311 -25 306 -8 Q290 -3 279.5 10 Q269 23 269 41 L269 274 Q269 286 260 295 L105 451 Q98 458 93.5 467.5 Q89 477 89 488 L89 659 Q89 680 104 695 Q119 710 140 710 Q157 710 170.5 699.5 Q184 689 189 673 Z M267 302 Q272 297 275.5 289.5 Q279 282 279 274 L279 41 Q279 24 291 12 Q303 0 320 0 Q337 0 349 12 Q361 24 361 41 L361 274 Q361 282 364.5 289.5 Q368 297 373 302 L529 458 Q541 472 541 488 L541 659 Q541 676 529 688 Q517 700 500 700 Q483 700 471 688 Q459 676 459 659 L459 522 Q459 514 455.5 506.5 Q452 499 447 494 L356 403 Q341 388 320 388 Q299 388 284 403 L193 494 Q188 499 184.5 506.5 Q181 514 181 522 L181 659 Q181 676 169 688 Q157 700 140 700 Q123 700 111 688 Q99 676 99 659 L99 488 Q99 479 102.5 472 Q106 465 112 458 L267 302 Z " />
<glyph glyph-name="Z" unicode="Z" horiz-adv-x="640" d="M443 573 L175 573 Q158 573 144.5 583.5 Q131 594 126 610 Q110 615 99.5 628.5 Q89 642 89 659 Q89 680 104 695 Q119 710 140 710 L500 710 Q517 710 530.5 699.5 Q544 689 549 673 Q565 668 575.5 654.5 Q586 641 586 624 L586 495 Q586 485 583 475.5 Q580 466 572 458 L236 122 Q227 112 227 98 Q227 94 228 92 L232 92 L500 92 Q517 92 530.5 81.5 Q544 71 549 55 Q565 50 575.5 36.5 Q586 23 586 6 Q586 -15 571 -30 Q556 -45 535 -45 L175 -45 Q158 -45 144.5 -34.5 Q131 -24 126 -8 Q110 -3 99.5 10.5 Q89 24 89 41 L89 170 Q89 192 104 207 L439 543 Q449 553 449 567 L449 572 Q447 573 443 573 Z M111 200 Q99 188 99 170 L99 41 Q99 24 111 12 Q123 0 140 0 L500 0 Q517 0 529 12 Q541 24 541 41 Q541 58 529 70 Q517 82 500 82 L232 82 Q211 82 196.5 97 Q182 112 182 133 L182 136 Q182 144 185.5 151.5 Q189 159 194 164 L530 500 Q541 511 541 530 L541 659 Q541 676 529 688 Q517 700 500 700 L140 700 Q123 700 111 688 Q99 676 99 659 Q99 642 111 630 Q123 618 140 618 L408 618 Q429 618 444 603 Q459 588 459 567 L459 564 Q459 556 455 548.5 Q451 541 446 536 L111 200 Z " />
<glyph glyph-name="a" unicode="a" horiz-adv-x="640" d="M586 6 Q586 -15 571 -30 Q556 -45 535 -45 Q518 -45 504.5 -34.5 Q491 -24 486 -8 Q470 -3 459.5 10.5 Q449 24 449 41 L449 240 Q447 241 443 241 L266 241 Q249 241 237.5 229 Q226 217 226 200 L226 6 Q226 -15 211 -30 Q196 -45 175 -45 Q158 -45 144.5 -34.5 Q131 -24 126 -8 Q110 -3 99.5 10.5 Q89 24 89 41 L89 553 Q89 562 93 572.5 Q97 583 104 589 L210 695 Q225 710 246 710 L394 710 Q402 710 412.5 706.5 Q423 703 430 696 L461 664 Q463 663 465 661 L571 553 Q579 545 582.5 537 Q586 529 586 518 L586 6 Z M541 553 Q541 571 529 581 L423 689 Q410 700 394 700 L246 700 Q228 700 217 688 L111 582 Q99 568 99 553 L99 41 Q99 24 111 12 Q123 0 140 0 Q157 0 169 12 Q181 24 181 41 L181 235 Q181 257 195.5 271.5 Q210 286 231 286 L408 286 Q429 286 444 271.5 Q459 257 459 235 L459 41 Q459 24 471 12 Q483 0 500 0 Q517 0 529 12 Q541 24 541 41 L541 553 Z M459 419 Q459 398 444 383 Q429 368 408 368 L231 368 Q210 368 195.5 383 Q181 398 181 419 L181 518 Q181 537 193 547 L252 606 Q257 611 264.5 614.5 Q272 618 280 618 L359 618 Q376 618 388 606 L446 547 Q451 542 455 534 Q459 526 459 518 L459 419 Z M413 567 Q409 569 404 571 Q399 573 394 573 L315 573 Q305 573 294 564 L235 505 Q226 494 226 483 L226 384 Q226 380 227 378 L408 378 Q425 378 437 390 Q449 402 449 419 L449 518 Q449 528 439 540 L413 567 Z " />
<glyph glyph-name="b" unicode="b" horiz-adv-x="640" d="M432 259 Q424 264 415 264 L266 264 Q249 264 237.5 252 Q226 240 226 223 L226 98 Q226 94 227 92 L231 92 L380 92 Q393 92 402 101 L439 139 Q449 149 449 160 L449 230 Q449 240 439 252 L432 259 Z M432 568 Q425 573 415 573 L266 573 Q249 573 237.5 561 Q226 549 226 532 L226 407 Q226 403 227 401 L231 401 L380 401 Q394 401 403 410 L440 448 Q449 457 449 470 L449 540 Q449 551 439 561 L432 568 Z M560 278 Q563 276 569 270 Q574 265 577 259 Q586 247 586 230 L586 92 Q586 84 582.5 72 Q579 60 572 53 L485 -31 Q471 -45 449 -45 L175 -45 Q158 -45 144.5 -34.5 Q131 -24 126 -8 Q110 -3 99.5 10.5 Q89 24 89 41 L89 659 Q89 680 104 695 Q119 710 140 710 L414 710 Q434 710 450 695 L537 611 Q540 608 541 606 L572 576 Q579 570 582.5 558.5 Q586 547 586 539 L586 400 Q586 382 577 370 Q575 367 573 364.5 Q571 362 569 359 Q566 357 560 351 Q551 343 545 335.5 Q539 328 539 315 Q539 302 545 294 Q551 286 560 278 Z M409 94 Q399 82 380 82 L231 82 Q210 82 195.5 97 Q181 112 181 133 L181 258 Q181 279 195.5 294 Q210 309 231 309 L380 309 Q398 309 410 297 L446 259 Q451 254 455 246 Q459 238 459 230 L459 160 Q459 152 455 144.5 Q451 137 446 132 L409 94 Z M410 403 Q398 391 380 391 L231 391 Q210 391 195.5 406 Q181 421 181 442 L181 567 Q181 588 195.5 603 Q210 618 231 618 L380 618 Q399 618 409 606 L446 568 Q451 563 455 555.5 Q459 548 459 540 L459 470 Q459 462 455.5 454 Q452 446 447 441 L410 403 Z M530 406 Q541 417 541 435 L541 574 Q541 590 530 604 L443 688 Q433 700 414 700 L140 700 Q123 700 111 688 Q99 676 99 659 L99 41 Q99 24 111 12 Q123 0 140 0 L414 0 Q433 0 443 12 L530 96 Q541 110 541 127 L541 265 Q541 283 530 294 L509 314 Q494 331 494 350 Q494 370 509 386 L530 406 Z " />
<glyph glyph-name="c" unicode="c" horiz-adv-x="640" d="M226 147 Q226 136 235 125 L259 101 Q268 92 280 92 L358 92 Q371 92 380 101 L438 160 Q443 165 445 170.5 Q447 176 448 181 Q449 189 448.5 196.5 Q448 204 448 212 Q448 232 463 248 Q478 264 499 264 Q516 264 529.5 253 Q543 242 548 227 Q564 222 574.5 208 Q585 194 585 177 L585 112 Q585 100 581.5 92.5 Q578 85 570 77 L464 -31 Q458 -39 447.5 -42 Q437 -45 428 -45 L281 -45 Q272 -45 261.5 -41.5 Q251 -38 243 -30 L104 111 Q89 126 89 147 L89 553 Q89 574 104 589 L208 695 Q216 703 226 706.5 Q236 710 246 710 L393 710 Q401 710 411.5 706.5 Q422 703 429 696 L460 664 Q462 663 464 661 L570 553 Q578 545 581.5 537 Q585 529 585 518 L585 453 Q585 433 570 417 Q555 401 534 401 Q517 401 504 411.5 Q491 422 486 438 Q469 443 458.5 457 Q448 471 448 488 Q448 496 448.5 503.5 Q449 511 448 519 Q447 524 445 529.5 Q443 535 438 540 L412 567 Q408 569 403 571 Q398 573 393 573 L315 573 Q305 573 294 564 L235 505 Q226 494 226 483 L226 147 Z M181 518 Q181 537 193 547 L252 606 Q257 611 264.5 614.5 Q272 618 280 618 L358 618 Q375 618 387 606 L445 547 Q450 542 454 534 Q458 526 458 518 L458 488 Q458 471 470 458.5 Q482 446 499 446 Q516 446 528 458.5 Q540 471 540 488 L540 553 Q540 571 528 581 L422 689 Q409 700 393 700 L246 700 Q229 700 215 688 L111 582 Q99 570 99 553 L99 147 Q99 130 111 118 L215 12 Q229 0 246 0 L393 0 Q409 0 422 11 L528 119 Q540 130 540 147 L540 212 Q540 229 528 241.5 Q516 254 499 254 Q482 254 470 241.5 Q458 229 458 212 L458 182 Q458 174 454 166 Q450 158 445 153 L387 94 Q375 82 358 82 L280 82 Q272 82 264.5 85.5 Q257 89 252 94 L193 153 Q181 163 181 182 L181 518 Z " />
<glyph glyph-name="d" unicode="d" horiz-adv-x="640" d="M413 567 Q409 569 404 571 Q399 573 394 573 L266 573 Q249 573 237.5 561 Q226 549 226 532 L226 98 Q226 94 227 92 L231 92 L359 92 Q372 92 381 101 L439 160 Q449 172 449 182 L449 518 Q449 528 439 540 L413 567 Z M586 112 Q586 100 582.5 92.5 Q579 85 571 77 L465 -31 Q459 -39 448.5 -42 Q438 -45 429 -45 L175 -45 Q158 -45 144.5 -34.5 Q131 -24 126 -8 Q110 -3 99.5 10.5 Q89 24 89 41 L89 659 Q89 680 104 695 Q119 710 140 710 L394 710 Q402 710 412.5 706.5 Q423 703 430 696 L461 664 Q463 663 465 661 L571 553 Q586 538 586 518 L586 112 Z M388 94 Q376 82 359 82 L231 82 Q210 82 195.5 97 Q181 112 181 133 L181 567 Q181 588 195.5 603 Q210 618 231 618 L359 618 Q376 618 388 606 L446 547 Q451 542 455 534 Q459 526 459 518 L459 182 Q459 174 455 166 Q451 158 446 153 L388 94 Z M423 689 Q410 700 394 700 L140 700 Q123 700 111 688 Q99 676 99 659 L99 41 Q99 24 111 12 Q123 0 140 0 L394 0 Q410 0 423 11 L529 119 Q541 130 541 147 L541 553 Q541 571 529 581 L423 689 Z " />
<glyph glyph-name="e" unicode="e" horiz-adv-x="640" d="M548 673 Q564 668 574.5 654.5 Q585 641 585 624 Q585 603 570 588 Q555 573 534 573 L266 573 Q249 573 237.5 561 Q226 549 226 532 L226 407 Q226 403 227 401 L430 401 Q447 401 461 390.5 Q475 380 480 363 Q496 358 506.5 345 Q517 332 517 315 Q517 294 501 279 Q485 264 465 264 L266 264 Q249 264 237.5 252 Q226 240 226 223 L226 98 Q226 94 227 92 L499 92 Q516 92 529.5 81.5 Q543 71 548 55 Q564 50 574.5 36.5 Q585 23 585 6 Q585 -15 570 -30 Q555 -45 534 -45 L175 -45 Q158 -45 144.5 -34.5 Q131 -24 126 -8 Q110 -3 99.5 10.5 Q89 24 89 41 L89 659 Q89 680 104 695 Q119 710 140 710 L499 710 Q516 710 529.5 699.5 Q543 689 548 673 Z M99 41 Q99 24 111 12 Q123 0 140 0 L499 0 Q516 0 528 12 Q540 24 540 41 Q540 58 528 70 Q516 82 499 82 L231 82 Q210 82 195.5 97 Q181 112 181 133 L181 258 Q181 279 195.5 294 Q210 309 231 309 L430 309 Q447 309 459.5 321 Q472 333 472 350 Q472 367 459.5 379 Q447 391 430 391 L231 391 Q210 391 195.5 406 Q181 421 181 442 L181 567 Q181 588 195.5 603 Q210 618 231 618 L499 618 Q516 618 528 630 Q540 642 540 659 Q540 676 528 688 Q516 700 499 700 L140 700 Q123 700 111 688 Q99 676 99 659 L99 41 Z " />
<glyph glyph-name="f" unicode="f" horiz-adv-x="640" d="M548 673 Q564 668 574.5 654.5 Q585 641 585 624 Q585 603 570 588 Q555 573 534 573 L266 573 Q249 573 237.5 561 Q226 549 226 532 L226 407 Q226 403 227 401 L231 401 L430 401 Q447 401 460.5 390.5 Q474 380 479 364 Q495 359 505.5 345.5 Q516 332 516 315 Q516 294 501 279 Q486 264 465 264 L266 264 Q249 264 237.5 252 Q226 240 226 223 L226 6 Q226 -15 211 -30 Q196 -45 175 -45 Q158 -45 144.5 -34.5 Q131 -24 126 -8 Q110 -3 99.5 10.5 Q89 24 89 41 L89 659 Q89 680 104 695 Q119 710 140 710 L499 710 Q516 710 529.5 699.5 Q543 689 548 673 Z M181 258 Q181 279 195.5 294 Q210 309 231 309 L430 309 Q447 309 459 321 Q471 333 471 350 Q471 367 459 379 Q447 391 430 391 L231 391 Q210 391 195.5 406 Q181 421 181 442 L181 567 Q181 588 195.5 603 Q210 618 231 618 L499 618 Q516 618 528 630 Q540 642 540 659 Q540 676 528 688 Q516 700 499 700 L140 700 Q123 700 111 688 Q99 676 99 659 L99 41 Q99 24 111 12 Q123 0 140 0 Q157 0 169 12 Q181 24 181 41 L181 258 Z " />
<glyph glyph-name="g" unicode="g" horiz-adv-x="640" d="M295 573 Q282 573 273 564 L236 526 Q226 516 226 505 L226 125 Q226 114 236 104 L241 98 Q250 92 260 92 L380 92 Q393 92 402 101 L439 139 Q449 149 449 160 L449 263 Q447 264 443 264 L382 264 Q365 264 351 274.5 Q337 285 332 301 Q317 306 306 319.5 Q295 333 295 350 Q295 371 311 386 Q327 401 347 401 L500 401 Q517 401 530.5 390.5 Q544 380 549 364 Q565 359 575.5 345.5 Q586 332 586 315 L586 92 Q586 84 582.5 72 Q579 60 572 53 L485 -31 Q471 -45 449 -45 L259 -45 Q239 -45 224 -30 L139 54 Q137 54 137 57 L104 89 Q97 95 93 107 Q89 119 89 127 L89 574 Q89 582 93.5 593.5 Q98 605 104 611 L189 695 Q204 710 224 710 L414 710 Q434 710 450 695 L537 611 Q538 610 538 610 L541 607 Q541 606 541.5 606 Q542 606 542 605 L572 576 Q580 568 583 555.5 Q586 543 587 532 Q588 521 587 510 Q586 499 586 493 Q586 472 571 457 Q556 442 535 442 Q518 442 504.5 452.5 Q491 463 486 479 Q470 484 459.5 497.5 Q449 511 449 528 L449 540 Q449 551 439 561 L432 568 Q425 573 415 573 L295 573 Z M459 528 Q459 511 471 499 Q483 487 500 487 Q517 487 529 499 Q541 511 541 528 L541 574 Q541 590 530 604 L443 688 Q433 700 414 700 L224 700 Q207 700 196 688 L111 604 Q99 589 99 574 L99 127 Q99 111 111 96 L196 12 Q207 0 224 0 L414 0 Q433 0 443 12 L530 96 Q541 110 541 127 L541 350 Q541 367 529 379 Q517 391 500 391 L347 391 Q330 391 317.5 379 Q305 367 305 350 Q305 333 317.5 321 Q330 309 347 309 L408 309 Q429 309 444 294.5 Q459 280 459 259 L459 160 Q459 152 455 144.5 Q451 137 446 132 L409 94 Q399 82 380 82 L260 82 Q252 82 243.5 85.5 Q235 89 230 94 L193 132 Q188 137 184.5 144.5 Q181 152 181 160 L181 540 Q181 548 184.5 555.5 Q188 563 193 568 L230 606 Q235 611 243.5 614.5 Q252 618 260 618 L380 618 Q399 618 409 606 L446 568 Q451 563 455 555.5 Q459 548 459 540 L459 528 Z " />
<glyph glyph-name="h" unicode="h" horiz-adv-x="640" d="M586 6 Q586 -15 571 -30 Q556 -45 535 -45 Q518 -45 504.5 -35 Q491 -25 486 -8 Q470 -3 459.5 10 Q449 23 449 41 L449 258 L449 263 Q447 264 443 264 L266 264 Q249 264 237.5 252 Q226 240 226 223 L226 6 Q226 -15 211 -30 Q196 -45 175 -45 Q158 -45 144.5 -34.5 Q131 -24 126 -8 Q110 -3 99.5 10.5 Q89 24 89 41 L89 659 Q89 680 104 695 Q119 710 140 710 Q157 710 170.5 699.5 Q184 689 189 673 Q205 668 215.5 654.5 Q226 641 226 624 L226 407 Q226 403 227 401 L231 401 L408 401 Q425 401 437 413 Q449 425 449 442 L449 659 Q449 680 464 695 Q479 710 500 710 Q517 710 530.5 699.5 Q544 689 549 673 Q565 668 575.5 654.5 Q586 641 586 624 L586 6 Z M541 659 Q541 676 529 688 Q517 700 500 700 Q483 700 471 688 Q459 676 459 659 L459 442 Q459 421 444 406 Q429 391 408 391 L231 391 Q210 391 195.5 406 Q181 421 181 442 L181 659 Q181 676 169 688 Q157 700 140 700 Q123 700 111 688 Q99 676 99 659 L99 41 Q99 24 111 12 Q123 0 140 0 Q157 0 169 12 Q181 24 181 41 L181 258 Q181 279 195.5 294 Q210 309 231 309 L408 309 Q429 309 444 294 Q459 279 459 258 L459 41 Q459 24 471 12 Q483 0 500 0 Q517 0 529 12 Q541 24 541 41 L541 659 Z " />
<glyph glyph-name="i" unicode="i" horiz-adv-x="640" d="M221 -45 Q204 -45 190.5 -35 Q177 -25 172 -8 Q156 -3 145.5 10 Q135 23 135 41 Q135 62 150 77 Q165 92 186 92 L228 92 Q245 92 257 104 Q269 116 269 133 L269 567 L269 572 Q267 573 263 573 L221 573 Q204 573 190.5 583.5 Q177 594 172 610 Q156 615 145.5 628.5 Q135 642 135 659 Q135 680 150 695 Q165 710 186 710 L454 710 Q472 710 485 699.5 Q498 689 503 673 Q520 668 530 654.5 Q540 641 540 624 Q540 603 525 588 Q510 573 489 573 L447 573 Q430 573 418 561 Q406 549 406 532 L406 98 Q406 94 407 92 L412 92 L454 92 Q471 92 484.5 81.5 Q498 71 503 55 Q519 50 529.5 36.5 Q540 23 540 6 Q540 -16 525.5 -30.5 Q511 -45 489 -45 L221 -45 Z M454 0 Q471 0 483 12 Q495 24 495 41 Q495 58 483 70 Q471 82 454 82 L412 82 Q390 82 375.5 97 Q361 112 361 133 L361 567 Q361 588 375.5 603 Q390 618 412 618 L454 618 Q471 618 483 630 Q495 642 495 659 Q495 676 483 688 Q471 700 454 700 L186 700 Q169 700 157 688 Q145 676 145 659 Q145 642 157 630 Q169 618 186 618 L228 618 Q250 618 264.5 603 Q279 588 279 567 L279 133 Q279 112 264.5 97 Q250 82 228 82 L186 82 Q169 82 157 70 Q145 58 145 41 Q145 24 157 12 Q169 0 186 0 L454 0 Z " />
<glyph glyph-name="j" unicode="j" horiz-adv-x="640" d="M449 572 Q447 573 443 573 L354 573 Q337 573 323.5 583.5 Q310 594 305 610 Q289 615 278.5 628.5 Q268 642 268 659 Q268 680 283 695 Q298 710 319 710 L500 710 Q517 710 530.5 699.5 Q544 689 549 673 Q565 668 575.5 654.5 Q586 641 586 624 L586 92 Q586 84 582.5 72 Q579 60 572 53 L485 -31 Q477 -38 469 -41.5 Q461 -45 450 -45 L259 -45 Q239 -45 224 -30 L139 54 Q137 54 137 57 L104 89 Q97 95 93 107 Q89 119 89 127 L89 212 Q89 232 104 248 Q119 264 140 264 Q157 264 170.5 253 Q184 242 189 227 Q205 222 215.5 208 Q226 194 226 177 L226 125 Q226 114 236 104 L242 97 Q250 92 259 92 L380 92 Q393 92 402 101 L439 139 Q449 149 449 160 L449 567 L449 572 Z M459 160 Q459 152 455 144.5 Q451 137 446 132 L409 94 Q399 82 380 82 L259 82 Q251 82 243 85.5 Q235 89 230 94 L193 132 Q188 137 184.5 144.5 Q181 152 181 160 L181 212 Q181 229 169 241.5 Q157 254 140 254 Q123 254 111 241.5 Q99 229 99 212 L99 127 Q99 111 111 96 L196 12 Q207 0 224 0 L415 0 Q433 0 443 12 L530 96 Q541 110 541 127 L541 659 Q541 676 529 688 Q517 700 500 700 L319 700 Q302 700 290 688 Q278 676 278 659 Q278 642 290 630 Q302 618 319 618 L408 618 Q429 618 444 603 Q459 588 459 567 L459 160 Z " />
<glyph glyph-name="k" unicode="k" horiz-adv-x="640" d="M266 264 Q249 264 237.5 252 Q226 240 226 223 L226 6 Q226 -15 211 -30 Q196 -45 175 -45 Q158 -45 144.5 -34.5 Q131 -24 126 -8 Q110 -3 99.5 10.5 Q89 24 89 41 L89 659 Q89 680 104 695 Q119 710 140 710 Q157 710 170.5 699.5 Q184 689 189 673 Q205 668 215.5 654.5 Q226 641 226 624 L226 407 Q226 403 227 401 L231 401 L279 401 Q291 401 300 410 L439 548 Q449 558 449 569 L449 659 Q449 680 464 695 Q479 710 500 710 Q517 710 530.5 699.5 Q544 689 549 673 Q565 668 575.5 654.5 Q586 641 586 624 L586 500 Q586 492 583 481 Q580 470 572 462 L450 343 Q446 339 442.5 330 Q439 321 439 315 Q439 309 441.5 302 Q444 295 448 290 L537 202 Q539 200 540 198 L572 167 Q580 160 583 149 Q586 138 586 130 L586 6 Q586 -15 571 -30 Q556 -45 535 -45 Q518 -45 504.5 -34.5 Q491 -24 486 -8 Q470 -3 459.5 10.5 Q449 24 449 41 L449 131 Q449 139 442 149 L335 255 Q326 264 314 264 L266 264 Z M279 309 Q287 309 294.5 305.5 Q302 302 307 297 L446 159 Q451 154 455 146.5 Q459 139 459 131 L459 41 Q459 24 471 12 Q483 0 500 0 Q517 0 529 12 Q541 24 541 41 L541 165 Q541 182 530 195 L408 315 Q402 323 398 331.5 Q394 340 394 350 Q394 360 398 369 Q402 378 408 386 L530 505 Q541 518 541 535 L541 659 Q541 676 529 688 Q517 700 500 700 Q483 700 471 688 Q459 676 459 659 L459 569 Q459 561 455 553.5 Q451 546 446 541 L307 403 Q302 398 294.5 394.5 Q287 391 279 391 L231 391 Q210 391 195.5 406 Q181 421 181 442 L181 659 Q181 676 169 688 Q157 700 140 700 Q123 700 111 688 Q99 676 99 659 L99 41 Q99 24 111 12 Q123 0 140 0 Q157 0 169 12 Q181 24 181 41 L181 258 Q181 279 195.5 294 Q210 309 231 309 L279 309 Z " />
<glyph glyph-name="l" unicode="l" horiz-adv-x="640" d="M534 -45 L175 -45 Q158 -45 144.5 -34.5 Q131 -24 126 -8 Q110 -3 99.5 10.5 Q89 24 89 41 L89 659 Q89 680 104 695 Q119 710 140 710 Q157 710 170.5 699.5 Q184 689 189 673 Q205 668 215.5 654.5 Q226 641 226 624 L226 98 Q226 94 227 92 L231 92 L499 92 Q516 92 529.5 81.5 Q543 71 548 55 Q564 50 574.5 36.5 Q585 23 585 6 Q585 -15 570 -30 Q555 -45 534 -45 Z M181 659 Q181 676 169 688 Q157 700 140 700 Q123 700 111 688 Q99 676 99 659 L99 41 Q99 24 111 12 Q123 0 140 0 L499 0 Q516 0 528 12 Q540 24 540 41 Q540 58 528 70 Q516 82 499 82 L231 82 Q210 82 195.5 97 Q181 112 181 133 L181 659 Z " />
<glyph glyph-name="m" unicode="m" horiz-adv-x="640" d="M449 465 L415 432 Q406 421 406 410 L406 315 Q406 295 391.5 279.5 Q377 264 356 264 Q339 264 325 274 Q311 284 306 301 Q290 306 279.5 319 Q269 332 269 350 L269 445 Q269 455 263 464 L227 499 L226 499 L226 498 L226 6 Q226 -15 211 -30 Q196 -45 175 -45 Q158 -45 144.5 -34.5 Q131 -24 126 -8 Q110 -3 99.5 10.5 Q89 24 89 41 L89 659 Q89 680 104 695 Q119 710 140 710 Q148 710 158.5 706.5 Q169 703 176 696 L209 663 Q211 661 211 661 L293 578 Q298 574 306.5 571.5 Q315 569 321 569 Q337 569 349 581 L463 696 Q470 703 481 706.5 Q492 710 500 710 Q517 710 530.5 699.5 Q544 689 549 673 Q565 668 575.5 654.5 Q586 641 586 624 L586 6 Q586 -15 571 -30 Q556 -45 535 -45 Q518 -45 504.5 -34.5 Q491 -24 486 -8 Q470 -3 459.5 10.5 Q449 24 449 41 L449 465 Z M459 41 Q459 24 471 12 Q483 0 500 0 Q517 0 529 12 Q541 24 541 41 L541 659 Q541 676 529 688 Q517 700 500 700 Q483 700 470 689 L356 574 Q343 559 321 559 Q310 559 301 563 Q292 567 284 573 L169 689 Q156 700 140 700 Q123 700 111 688 Q99 676 99 659 L99 41 Q99 24 111 12 Q123 0 140 0 Q157 0 169 12 Q181 24 181 41 L181 533 Q181 546 190 546 Q196 546 199 541 L267 474 Q272 469 275.5 461 Q279 453 279 445 L279 350 Q279 333 291 321 Q303 309 321 309 Q338 309 349.5 321 Q361 333 361 350 L361 445 Q361 453 364.5 461 Q368 469 373 474 L440 541 Q443 546 449 546 Q459 546 459 533 L459 41 Z " />
<glyph glyph-name="n" unicode="n" horiz-adv-x="640" d="M226 408 L226 6 Q226 -15 211 -30 Q196 -45 175 -45 Q158 -45 144.5 -34.5 Q131 -24 126 -8 Q110 -3 99.5 10.5 Q89 24 89 41 L89 659 Q89 680 104 695 Q119 710 140 710 Q153 710 165.5 703 Q178 696 185 685 L192 672 Q211 666 220 650 L449 256 L449 659 Q449 680 464 695 Q479 710 500 710 Q517 710 530.5 699.5 Q544 689 549 673 Q565 668 575.5 654.5 Q586 641 586 624 L586 6 Q586 -15 571 -30 Q556 -45 535 -45 Q522 -45 510 -38.5 Q498 -32 491 -20 L483 -7 Q465 0 455 15 L226 408 Z M176 680 Q163 700 140 700 Q123 700 111 688 Q99 676 99 659 L99 41 Q99 24 111 12 Q123 0 140 0 Q157 0 169 12 Q181 24 181 41 L181 474 Q181 486 188 486 Q193 486 197 478 L464 20 Q476 0 500 0 Q517 0 529 12 Q541 24 541 41 L541 659 Q541 676 529 688 Q517 700 500 700 Q483 700 471 688 Q459 676 459 659 L459 227 Q459 220 456 217.5 Q453 215 451 215 Q446 215 442 223 L176 680 Z " />
<glyph glyph-name="o" unicode="o" horiz-adv-x="640" d="M586 91 Q586 83 582.5 71.5 Q579 60 572 53 L485 -31 Q471 -45 449 -45 L259 -45 Q239 -45 224 -30 L139 54 Q139 54 137 57 L104 89 Q98 95 93.5 106.5 Q89 118 89 126 L89 574 Q89 582 93.5 593.5 Q98 605 104 611 L189 695 Q204 710 224 710 L414 710 Q434 710 450 695 L537 611 Q540 608 541 606 L572 576 Q579 570 582.5 558.5 Q586 547 586 539 L586 91 Z M443 688 Q433 700 414 700 L224 700 Q207 700 196 688 L111 604 Q99 589 99 574 L99 126 Q99 111 111 96 L196 12 Q207 0 224 0 L414 0 Q433 0 443 12 L530 96 Q541 110 541 126 L541 574 Q541 590 530 604 L443 688 Z M409 94 Q399 82 380 82 L259 82 Q251 82 243 85.5 Q235 89 230 94 L193 132 Q188 137 184.5 144.5 Q181 152 181 160 L181 540 Q181 548 184.5 555.5 Q188 563 193 568 L230 606 Q235 611 243 614.5 Q251 618 259 618 L380 618 Q399 618 409 606 L446 568 Q451 563 455 555.5 Q459 548 459 540 L459 160 Q459 152 455 144.5 Q451 137 446 132 L409 94 Z M432 568 Q425 573 415 573 L294 573 Q282 573 273 564 L236 526 Q226 516 226 505 L226 125 Q226 114 236 104 L242 97 Q250 92 259 92 L380 92 Q393 92 402 101 L439 139 Q449 149 449 160 L449 540 Q449 551 439 561 L432 568 Z " />
<glyph glyph-name="p" unicode="p" horiz-adv-x="640" d="M541 606 L572 576 Q579 570 582.5 558.5 Q586 547 586 539 L586 378 Q586 370 582.5 358 Q579 346 572 339 L485 255 Q471 241 449 241 L266 241 Q249 241 237.5 229 Q226 217 226 200 L226 6 Q226 -15 211 -30 Q196 -45 175 -45 Q158 -45 144.5 -34.5 Q131 -24 126 -8 Q110 -3 99.5 10.5 Q89 24 89 41 L89 659 Q89 680 104 695 Q119 710 140 710 L414 710 Q434 710 450 695 L537 611 Q540 608 541 606 Z M181 235 Q181 257 195.5 271.5 Q210 286 231 286 L414 286 Q433 286 443 298 L530 382 Q541 396 541 413 L541 574 Q541 590 530 604 L443 688 Q433 700 414 700 L140 700 Q123 700 111 688 Q99 676 99 659 L99 41 Q99 24 111 12 Q123 0 140 0 Q157 0 169 12 Q181 24 181 41 L181 235 Z M231 368 Q210 368 195.5 383 Q181 398 181 419 L181 567 Q181 588 195.5 603 Q210 618 231 618 L380 618 Q399 618 409 606 L446 568 Q451 563 455 555.5 Q459 548 459 540 L459 446 Q459 438 455 430.5 Q451 423 446 418 L409 380 Q399 368 380 368 L231 368 Z M432 568 Q425 573 415 573 L266 573 Q249 573 237.5 561 Q226 549 226 532 L226 384 Q226 380 227 378 L380 378 Q393 378 402 387 L439 425 Q449 435 449 446 L449 540 Q449 551 439 561 L432 568 Z " />
<glyph glyph-name="q" unicode="q" horiz-adv-x="640" d="M541 606 L572 576 Q579 570 582.5 558.5 Q586 547 586 539 L586 92 Q586 74 577 62 Q575 57 570 51.5 Q565 46 560 43 Q551 35 545 27 Q539 19 539 6 Q539 -8 545 -15.5 Q551 -23 560 -31 L569 -40 Q575 -46 577 -50 Q586 -62 586 -80 Q586 -101 570.5 -115.5 Q555 -130 535 -130 Q527 -130 516 -127 Q505 -124 498 -116 L468 -86 Q466 -84 465 -83.5 Q464 -83 463 -81 L433 -51 Q426 -45 415 -45 L260 -45 Q239 -45 224 -30 L139 54 Q137 54 137 57 L104 89 Q97 95 93 107 Q89 119 89 127 L89 574 Q89 582 93.5 593.5 Q98 605 104 611 L189 695 Q204 710 225 710 L415 710 Q435 710 450 695 L537 611 Q540 608 541 606 Z M380 0 Q398 0 410 -12 L470 -74 Q483 -85 500 -85 Q517 -85 529 -73.5 Q541 -62 541 -45 Q541 -26 530 -15 L509 4 Q494 21 494 41 Q494 62 509 78 L530 97 Q541 110 541 127 L541 574 Q541 590 530 604 L443 688 Q433 700 415 700 L225 700 Q207 700 196 688 L111 604 Q99 589 99 574 L99 127 Q99 111 111 96 L196 12 Q207 0 225 0 L380 0 Z M409 94 Q399 82 380 82 L259 82 Q251 82 243 85.5 Q235 89 230 94 L193 132 Q188 137 184.5 144.5 Q181 152 181 160 L181 540 Q181 548 184.5 555.5 Q188 563 193 568 L230 606 Q235 611 243 614.5 Q251 618 259 618 L380 618 Q399 618 409 606 L446 568 Q451 563 455 555.5 Q459 548 459 540 L459 160 Q459 152 455 144.5 Q451 137 446 132 L409 94 Z M432 568 Q425 573 415 573 L294 573 Q282 573 273 564 L236 526 Q226 516 226 505 L226 125 Q226 114 236 104 L242 97 Q250 92 259 92 L380 92 Q393 92 402 101 L439 139 Q449 149 449 160 L449 540 Q449 551 439 561 L432 568 Z " />
<glyph glyph-name="r" unicode="r" horiz-adv-x="640" d="M413 567 Q409 569 404 571 Q399 573 394 573 L266 573 Q249 573 237.5 561 Q226 549 226 532 L226 384 Q226 380 227 378 L231 378 L359 378 Q372 378 381 387 L439 446 Q449 456 449 468 L449 518 Q449 528 439 540 L413 567 Z M266 241 Q249 241 237.5 229 Q226 217 226 200 L226 6 Q226 -15 211 -30 Q196 -45 175 -45 Q158 -45 144.5 -34.5 Q131 -24 126 -8 Q110 -3 99.5 10.5 Q89 24 89 41 L89 659 Q89 680 104 695 Q119 710 140 710 L394 710 Q416 710 431 695 L466 660 L537 589 L572 554 Q580 546 583 536.5 Q586 527 586 518 L586 398 Q586 379 574 364 Q571 360 568 357 Q565 354 562 351 Q559 348 555.5 345 Q552 342 549 339 Q535 327 526.5 317 Q518 307 518 293 Q518 286 520 281 Q522 276 524 271 Q526 269 526 269 Q529 266 532.5 263 Q536 260 538 256 Q541 253 542 251 Q544 249 545.5 248 Q547 247 549 245 Q554 240 562 234 Q565 231 568 228 Q571 225 574 221 Q579 213 582.5 205 Q586 197 586 186 L586 6 Q586 -15 571 -30 Q556 -45 535 -45 Q518 -45 504.5 -34.5 Q491 -24 486 -8 Q470 -3 459.5 10.5 Q449 24 449 41 L449 187 Q449 198 439 208 L413 235 Q409 237 404 239 Q399 241 394 241 L266 241 Z M388 380 Q376 368 359 368 L231 368 Q210 368 195.5 383 Q181 398 181 419 L181 567 Q181 588 195.5 603 Q210 618 231 618 L359 618 Q376 618 388 606 L446 547 Q451 542 455 534 Q459 526 459 518 L459 468 Q459 460 455 452 Q451 444 446 439 L388 380 Z M359 286 Q376 286 388 274 L446 215 Q451 210 455 202.5 Q459 195 459 187 L459 41 Q459 24 471 12 Q483 0 500 0 Q517 0 529 12 Q541 24 541 41 L541 221 Q541 237 530 251 L487 291 Q481 299 477 308.5 Q473 318 473 328 Q473 348 488 363 L529 404 Q535 411 538 417.5 Q541 424 541 433 L541 553 Q541 571 530 582 L424 688 Q411 700 394 700 L140 700 Q123 700 111 688 Q99 676 99 659 L99 41 Q99 24 111 12 Q123 0 140 0 Q157 0 169 12 Q181 24 181 41 L181 235 Q181 257 195.5 271.5 Q210 286 231 286 L359 286 Z " />
<glyph glyph-name="s" unicode="s" horiz-adv-x="640" d="M294 573 Q282 573 273 564 L236 526 Q226 516 226 505 L226 435 Q226 423 236 413 L242 406 Q250 401 259 401 L415 401 Q424 401 434 397 Q444 393 451 386 L537 301 Q539 299 540 297 L572 266 Q580 258 583 248.5 Q586 239 586 230 L586 91 Q586 83 582.5 71.5 Q579 60 572 53 L485 -31 Q477 -38 469 -41.5 Q461 -45 450 -45 L259 -45 Q239 -45 224 -30 L139 54 L136 57 L104 89 Q95 97 92 109.5 Q89 122 88 133 Q88 144 88.5 154.5 Q89 165 89 173 Q89 194 104.5 208.5 Q120 223 140 223 Q157 223 170.5 212.5 Q184 202 189 186 Q205 181 215.5 168 Q226 155 226 138 L226 126 Q227 123 227 118 Q229 110 236 104 L242 97 Q250 92 259 92 L380 92 Q393 92 402 101 L439 139 Q449 149 449 160 L449 230 Q449 240 439 252 L432 259 Q424 264 415 264 L259 264 Q250 264 240 268 Q230 272 223 279 L191 311 L188 314 L104 399 Q89 414 89 435 L89 574 Q89 582 93.5 593.5 Q98 605 104 611 L189 695 Q204 710 224 710 L415 710 Q435 710 450 695 L537 611 Q539 609 539.5 608 Q540 607 542 605 L572 576 Q581 568 583.5 555.5 Q586 543 587 532 Q588 521 587 510 Q586 499 586 493 Q586 472 571 457 Q556 442 535 442 Q518 442 504.5 452.5 Q491 463 486 479 Q470 484 459.5 497.5 Q449 511 449 528 Q449 543 448 547 Q446 554 439 561 L432 568 Q425 573 415 573 L294 573 Z M459 528 Q459 511 471 499 Q483 487 500 487 Q517 487 529 499 Q541 511 541 528 L541 574 Q541 590 530 604 L443 688 Q433 700 415 700 L224 700 Q207 700 196 688 L111 604 Q99 589 99 574 L99 435 Q99 418 111 406 L195 321 Q209 309 224 309 L380 309 Q398 309 410 297 L446 259 Q451 254 455 246 Q459 238 459 230 L459 160 Q459 152 455 144.5 Q451 137 446 132 L409 94 Q399 82 380 82 L259 82 Q251 82 243 85.5 Q235 89 230 94 L193 132 Q188 137 184.5 144.5 Q181 152 181 160 L181 173 Q181 190 169 201.5 Q157 213 140 213 Q123 213 111 201.5 Q99 190 99 173 L99 126 Q99 111 111 96 L196 12 Q207 0 224 0 L415 0 Q433 0 443 12 L530 96 Q541 110 541 126 L541 265 Q541 283 530 294 L444 379 Q430 391 415 391 L259 391 Q251 391 242.5 394.5 Q234 398 229 403 L193 441 Q188 446 184.5 454 Q181 462 181 470 L181 540 Q181 548 184.5 555.5 Q188 563 193 568 L230 606 Q235 611 243 614.5 Q251 618 259 618 L380 618 Q399 618 409 606 L446 568 Q451 563 455 555.5 Q459 548 459 540 L459 528 Z " />
<glyph glyph-name="t" unicode="t" horiz-adv-x="640" d="M269 572 Q267 573 263 573 L175 573 Q158 573 144.5 583.5 Q131 594 126 610 Q110 615 99.5 628.5 Q89 642 89 659 Q89 680 104 695 Q119 710 140 710 L500 710 Q517 710 530.5 699.5 Q544 689 549 673 Q565 668 575.5 654.5 Q586 641 586 624 Q586 603 571 588 Q556 573 535 573 L447 573 Q430 573 418 561 Q406 549 406 532 L406 6 Q406 -16 391.5 -30.5 Q377 -45 355 -45 Q338 -45 324.5 -35 Q311 -25 306 -8 Q290 -3 279.5 10 Q269 23 269 41 L269 567 L269 572 Z M361 567 Q361 588 375.5 603 Q390 618 412 618 L500 618 Q517 618 529 630 Q541 642 541 659 Q541 676 529 688 Q517 700 500 700 L140 700 Q123 700 111 688 Q99 676 99 659 Q99 642 111 630 Q123 618 140 618 L228 618 Q250 618 264.5 603 Q279 588 279 567 L279 41 Q279 24 291 12 Q303 0 320 0 Q337 0 349 12 Q361 24 361 41 L361 567 Z " />
<glyph glyph-name="u" unicode="u" horiz-adv-x="640" d="M549 673 Q565 668 575.5 654.5 Q586 641 586 624 L586 91 Q586 83 582.5 71.5 Q579 60 572 53 L485 -31 Q471 -45 449 -45 L259 -45 Q239 -45 224 -30 L139 54 Q139 54 137 57 L104 89 Q98 95 93.5 106.5 Q89 118 89 126 L89 659 Q89 680 104 695 Q119 710 140 710 Q157 710 170.5 699.5 Q184 689 189 673 Q205 668 215.5 654.5 Q226 641 226 624 L226 125 Q226 114 236 104 L242 97 Q250 92 259 92 L380 92 Q393 92 402 101 L439 139 Q449 149 449 160 L449 659 Q449 680 464 695 Q479 710 500 710 Q517 710 530.5 699.5 Q544 689 549 673 Z M181 659 Q181 676 169 688 Q157 700 140 700 Q123 700 111 688 Q99 676 99 659 L99 126 Q99 111 111 96 L196 12 Q207 0 224 0 L414 0 Q433 0 443 12 L530 96 Q541 110 541 126 L541 659 Q541 676 529 688 Q517 700 500 700 Q483 700 471 688 Q459 676 459 659 L459 160 Q459 152 455 144.5 Q451 137 446 132 L409 94 Q399 82 380 82 L259 82 Q251 82 243 85.5 Q235 89 230 94 L193 132 Q188 137 184.5 144.5 Q181 152 181 160 L181 659 Z " />
<glyph glyph-name="v" unicode="v" horiz-adv-x="640" d="M586 624 L586 167 Q586 158 582 146.5 Q578 135 571 129 L410 -31 Q402 -39 392 -42 Q382 -45 371 -46 Q362 -47 352.5 -46 Q343 -45 335 -45 Q326 -45 316.5 -42 Q307 -39 299 -31 L105 164 Q98 171 93.5 181.5 Q89 192 89 202 L89 659 Q89 680 104 695 Q119 710 140 710 Q157 710 170.5 699.5 Q184 689 189 673 Q205 668 215.5 654.5 Q226 641 226 624 L226 201 Q226 191 235 180 L293 121 Q305 112 321 112 Q335 112 349 124 L440 215 Q449 224 449 236 L449 659 Q449 680 464 695 Q479 710 500 710 Q517 710 530.5 699.5 Q544 689 549 673 Q565 668 575.5 654.5 Q586 641 586 624 Z M459 236 Q459 228 455.5 220.5 Q452 213 447 208 L356 117 Q341 102 321 102 Q298 102 283 117 L193 208 Q188 213 184.5 220.5 Q181 228 181 236 L181 659 Q181 676 169 688 Q157 700 140 700 Q123 700 111 688 Q99 676 99 659 L99 202 Q99 193 102.5 186 Q106 179 112 171 L271 11 Q282 0 300 0 L339 0 Q357 0 368 11 L529 171 Q541 186 541 202 L541 659 Q541 676 529 688 Q517 700 500 700 Q483 700 471 688 Q459 676 459 659 L459 236 Z " />
<glyph glyph-name="w" unicode="w" horiz-adv-x="640" d="M586 624 L586 96 Q586 74 572 60 L481 -31 Q467 -45 445 -45 Q437 -45 426 -41.5 Q415 -38 408 -31 L379 -1 Q377 0 373 4 L355 22 L302 -31 Q294 -39 284 -42 Q274 -45 264 -45 Q255 -45 245.5 -42 Q236 -39 228 -31 L104 95 Q89 110 89 131 L89 659 Q89 680 104 695 Q119 710 140 710 Q157 710 170.5 699.5 Q184 689 189 673 Q205 668 215.5 654.5 Q226 641 226 624 L226 130 Q241 130 255 139 Q269 148 269 165 L269 350 Q269 372 284.5 386.5 Q300 401 321 401 Q338 401 351 390.5 Q364 380 369 364 Q386 359 396 345.5 Q406 332 406 315 L406 130 Q421 130 435 139 Q449 148 449 165 L449 659 Q449 680 464 695 Q479 710 500 710 Q517 710 530.5 699.5 Q544 689 549 673 Q565 668 575.5 654.5 Q586 641 586 624 Z M459 165 Q459 146 444 133 Q429 120 410 120 Q393 120 377 133 Q361 146 361 165 L361 350 Q361 367 349.5 379 Q338 391 321 391 Q303 391 291 379 Q279 367 279 350 L279 165 Q279 146 264 133 Q249 120 229 120 Q212 120 196.5 133 Q181 146 181 165 L181 659 Q181 676 169 688 Q157 700 140 700 Q123 700 111 688 Q99 676 99 659 L99 131 Q99 114 111 102 L200 11 Q211 0 229 0 Q237 0 245.5 2.5 Q254 5 260 11 L321 73 L380 11 Q394 0 410 0 Q428 0 439 11 L530 102 Q541 113 541 131 L541 659 Q541 676 529 688 Q517 700 500 700 Q483 700 471 688 Q459 676 459 659 L459 165 Z " />
<glyph glyph-name="x" unicode="x" horiz-adv-x="640" d="M586 624 L586 475 Q586 454 571 440 L475 344 Q470 339 466.5 330.5 Q463 322 463 315 Q463 300 476 287 L571 190 Q586 175 586 155 L586 6 Q586 -15 571 -30 Q556 -45 535 -45 Q518 -45 504.5 -34.5 Q491 -24 486 -8 Q470 -3 459.5 10.5 Q449 24 449 41 L449 155 Q449 167 439 177 L384 232 Q371 245 354 245 Q340 245 325 232 L235 142 Q226 131 226 120 L226 6 Q226 -15 211 -30 Q196 -45 175 -45 Q158 -45 144.5 -34.5 Q131 -24 126 -8 Q110 -3 99.5 10.5 Q89 24 89 41 L89 190 Q89 202 93.5 210 Q98 218 105 225 L199 322 Q211 336 211 350 Q211 366 198 379 L105 475 Q98 482 93.5 490 Q89 498 89 510 L89 659 Q89 680 104 695 Q119 710 140 710 Q157 710 170.5 699.5 Q184 689 189 673 Q205 668 215.5 654.5 Q226 641 226 624 L226 510 Q226 496 236 488 L294 428 Q299 425 306.5 422.5 Q314 420 319 420 Q326 420 335 423.5 Q344 427 349 431 L440 523 Q449 532 449 545 L449 659 Q449 680 464 695 Q479 710 500 710 Q517 710 530.5 699.5 Q544 689 549 673 Q565 668 575.5 654.5 Q586 641 586 624 Z M459 545 Q459 537 455.5 529 Q452 521 447 516 L356 424 Q348 418 338.5 414 Q329 410 319 410 Q309 410 300 414 Q291 418 283 424 L193 516 Q188 521 184.5 529 Q181 537 181 545 L181 659 Q181 676 169 688 Q157 700 140 700 Q123 700 111 688 Q99 676 99 659 L99 510 Q99 493 112 482 L205 386 Q221 370 221 350 Q221 330 206 315 L112 218 Q99 207 99 190 L99 41 Q99 24 111 12 Q123 0 140 0 Q157 0 169 12 Q181 24 181 41 L181 155 Q181 163 184.5 171 Q188 179 193 184 L283 274 Q297 290 319 290 Q329 290 339 286 Q349 282 356 274 L446 184 Q451 179 455 171 Q459 163 459 155 L459 41 Q459 24 471 12 Q483 0 500 0 Q517 0 529 12 Q541 24 541 41 L541 190 Q541 208 529 218 L434 315 Q418 329 418 350 Q418 369 433 386 L529 482 Q541 493 541 510 L541 659 Q541 676 529 688 Q517 700 500 700 Q483 700 471 688 Q459 676 459 659 L459 545 Z " />
<glyph glyph-name="y" unicode="y" horiz-adv-x="640" d="M189 673 Q205 668 215.5 654.5 Q226 641 226 624 L226 487 Q226 475 235 466 L291 410 Q303 398 320 398 Q337 398 349 410 L440 501 Q449 510 449 522 L449 659 Q449 680 464 695 Q479 710 500 710 Q517 710 530.5 699.5 Q544 689 549 673 Q565 668 575.5 654.5 Q586 641 586 624 L586 453 Q586 430 571 416 L415 260 Q406 249 406 239 L406 6 Q406 -16 391.5 -30.5 Q377 -45 355 -45 Q338 -45 324.5 -35 Q311 -25 306 -8 Q290 -3 279.5 10 Q269 23 269 41 L269 274 Q269 286 260 295 L105 451 Q98 458 93.5 467.5 Q89 477 89 488 L89 659 Q89 680 104 695 Q119 710 140 710 Q157 710 170.5 699.5 Q184 689 189 673 Z M267 302 Q272 297 275.5 289.5 Q279 282 279 274 L279 41 Q279 24 291 12 Q303 0 320 0 Q337 0 349 12 Q361 24 361 41 L361 274 Q361 282 364.5 289.5 Q368 297 373 302 L529 458 Q541 472 541 488 L541 659 Q541 676 529 688 Q517 700 500 700 Q483 700 471 688 Q459 676 459 659 L459 522 Q459 514 455.5 506.5 Q452 499 447 494 L356 403 Q341 388 320 388 Q299 388 284 403 L193 494 Q188 499 184.5 506.5 Q181 514 181 522 L181 659 Q181 676 169 688 Q157 700 140 700 Q123 700 111 688 Q99 676 99 659 L99 488 Q99 479 102.5 472 Q106 465 112 458 L267 302 Z " />
<glyph glyph-name="z" unicode="z" horiz-adv-x="640" d="M443 573 L175 573 Q158 573 144.5 583.5 Q131 594 126 610 Q110 615 99.5 628.5 Q89 642 89 659 Q89 680 104 695 Q119 710 140 710 L500 710 Q517 710 530.5 699.5 Q544 689 549 673 Q565 668 575.5 654.5 Q586 641 586 624 L586 495 Q586 485 583 475.5 Q580 466 572 458 L236 122 Q227 112 227 98 Q227 94 228 92 L232 92 L500 92 Q517 92 530.5 81.5 Q544 71 549 55 Q565 50 575.5 36.5 Q586 23 586 6 Q586 -15 571 -30 Q556 -45 535 -45 L175 -45 Q158 -45 144.5 -34.5 Q131 -24 126 -8 Q110 -3 99.5 10.5 Q89 24 89 41 L89 170 Q89 192 104 207 L439 543 Q449 553 449 567 L449 572 Q447 573 443 573 Z M111 200 Q99 188 99 170 L99 41 Q99 24 111 12 Q123 0 140 0 L500 0 Q517 0 529 12 Q541 24 541 41 Q541 58 529 70 Q517 82 500 82 L232 82 Q211 82 196.5 97 Q182 112 182 133 L182 136 Q182 144 185.5 151.5 Q189 159 194 164 L530 500 Q541 511 541 530 L541 659 Q541 676 529 688 Q517 700 500 700 L140 700 Q123 700 111 688 Q99 676 99 659 Q99 642 111 630 Q123 618 140 618 L408 618 Q429 618 444 603 Q459 588 459 567 L459 564 Q459 556 455 548.5 Q451 541 446 536 L111 200 Z " />
<glyph glyph-name="one" unicode="1" horiz-adv-x="640" d="M269 463 Q260 454 248 446.5 Q236 439 221 439 Q204 439 190.5 449 Q177 459 172 476 Q156 481 145.5 494 Q135 507 135 524 Q135 534 138 544 Q141 554 149 562 L283 696 Q291 704 301 707 Q311 710 321 710 Q338 710 351 699.5 Q364 689 369 673 Q386 668 396 654.5 Q406 641 406 624 L406 98 Q406 94 407 92 L412 92 L454 92 Q471 92 484.5 81.5 Q498 71 503 55 Q519 50 529.5 36.5 Q540 23 540 6 Q540 -16 525.5 -30.5 Q511 -45 489 -45 L221 -45 Q204 -45 190.5 -35 Q177 -25 172 -8 Q156 -3 145.5 10 Q135 23 135 41 Q135 62 150 77 Q165 92 186 92 L228 92 Q245 92 257 104 Q269 116 269 133 L269 463 Z M279 133 Q279 112 264.5 97 Q250 82 228 82 L186 82 Q169 82 157 70 Q145 58 145 41 Q145 24 157 12 Q169 0 186 0 L454 0 Q471 0 483 12 Q495 24 495 41 Q495 58 483 70 Q471 82 454 82 L412 82 Q390 82 375.5 97 Q361 112 361 133 L361 659 Q361 676 349.5 688 Q338 700 321 700 Q301 700 290 689 L156 555 Q145 544 145 524 Q145 507 157 495.5 Q169 484 186 484 Q202 484 216 496 L260 541 Q265 546 270 546 Q279 546 279 533 L279 133 Z " />
<glyph glyph-name="two" unicode="2" horiz-adv-x="640" d="M540 607 L571 576 Q578 570 582 558.5 Q586 547 586 539 L586 476 Q586 466 583 456.5 Q580 447 572 440 L236 104 Q230 96 230 92 L232 92 L500 92 Q517 92 530.5 81.5 Q544 71 549 55 Q565 50 575.5 36.5 Q586 23 586 6 Q586 -15 571 -30 Q556 -45 535 -45 L175 -45 Q158 -45 144.5 -34.5 Q131 -24 126 -8 Q110 -3 99.5 10.5 Q89 24 89 41 L89 152 Q89 174 104 189 L441 526 Q449 534 449 543 Q449 551 441 559 L433 567 Q426 573 415 573 L295 573 Q283 573 274 564 L237 526 Q230 519 228 512 Q228 507 227 504 L227 493 Q227 471 211.5 456.5 Q196 442 175 442 Q158 442 144.5 452.5 Q131 463 126 479 Q110 484 99.5 497.5 Q89 511 89 528 L89 574 Q89 582 93.5 593.5 Q98 605 104 611 L190 695 Q205 710 225 710 L415 710 Q435 710 450 695 L536 611 L540 607 Z M182 540 Q182 548 185.5 555.5 Q189 563 194 568 L231 606 Q236 611 244 614.5 Q252 618 260 618 L380 618 Q399 618 409 606 L448 566 Q459 557 459 543 Q459 537 456 530 Q453 523 448 519 L111 182 Q99 170 99 152 L99 41 Q99 24 111 12 Q123 0 140 0 L500 0 Q517 0 529 12 Q541 24 541 41 Q541 58 529 70 Q517 82 500 82 L232 82 Q215 82 199.5 93.5 Q184 105 184 124 Q184 138 194 146 L530 482 Q536 488 538.5 495.5 Q541 503 541 511 L541 574 Q541 589 529 604 L443 688 Q433 700 415 700 L225 700 Q208 700 197 688 L111 604 Q99 589 99 574 L99 528 Q99 511 111 499 Q123 487 140 487 Q157 487 169.5 499 Q182 511 182 528 L182 540 Z " />
<glyph glyph-name="three" unicode="3" horiz-adv-x="640" d="M541 606 L572 576 Q579 570 582.5 558.5 Q586 547 586 539 L586 400 Q586 382 577 370 Q575 367 573 364.5 Q571 362 569 359 Q566 357 560 351 Q551 343 545 335.5 Q539 328 539 315 Q539 302 545 294 Q551 286 560 278 Q563 276 569 270 Q574 265 577 259 Q586 247 586 230 L586 91 Q586 83 582.5 71.5 Q579 60 572 53 L485 -31 Q477 -38 469 -41.5 Q461 -45 450 -45 L260 -45 Q249 -45 241 -41.5 Q233 -38 225 -31 L139 53 Q138 55 137 56 Q136 57 135 59 L104 89 Q95 97 92 109.5 Q89 122 88 133 Q88 144 88.5 154.5 Q89 165 89 173 Q89 194 104.5 208.5 Q120 223 140 223 Q157 223 171 212.5 Q185 202 190 185 Q206 180 216.5 167.5 Q227 155 227 138 L227 126 Q228 123 228 118 Q230 110 237 104 L243 97 Q251 92 260 92 L380 92 Q393 92 402 101 L439 139 Q449 149 449 160 L449 230 Q449 240 439 252 L432 259 Q424 264 415 264 L300 264 Q283 264 269 274 Q255 284 250 301 Q234 306 223.5 319 Q213 332 213 350 Q213 372 228.5 386.5 Q244 401 265 401 L380 401 Q394 401 403 410 L440 448 Q449 457 449 470 L449 540 Q449 551 439 561 L432 568 Q425 573 415 573 L295 573 Q283 573 274 564 L237 526 Q230 519 228 512 Q228 507 227 504 L227 493 Q227 471 211.5 456.5 Q196 442 175 442 Q158 442 144.5 452.5 Q131 463 126 479 Q110 484 99.5 497.5 Q89 511 89 528 L89 574 Q89 582 93.5 593.5 Q98 605 104 611 L190 695 Q205 710 225 710 L415 710 Q435 710 450 695 L537 611 Q540 608 541 606 Z M182 540 Q182 548 185.5 555.5 Q189 563 194 568 L231 606 Q236 611 244 614.5 Q252 618 260 618 L380 618 Q399 618 409 606 L446 568 Q451 563 455 555.5 Q459 548 459 540 L459 470 Q459 462 455.5 454 Q452 446 447 441 L410 403 Q398 391 380 391 L265 391 Q247 391 235 379 Q223 367 223 350 Q223 333 235 321 Q247 309 265 309 L380 309 Q398 309 410 297 L446 259 Q451 254 455 246 Q459 238 459 230 L459 160 Q459 152 455 144.5 Q451 137 446 132 L409 94 Q399 82 380 82 L260 82 Q252 82 244 85.5 Q236 89 231 94 L194 132 Q189 137 185.5 144.5 Q182 152 182 160 L182 173 Q182 190 169.5 201.5 Q157 213 140 213 Q123 213 111 201.5 Q99 190 99 173 L99 126 Q99 111 111 96 L197 12 Q208 0 225 0 L415 0 Q433 0 443 12 L530 96 Q541 110 541 126 L541 265 Q541 283 530 294 L509 314 Q494 331 494 350 Q494 370 509 386 L530 406 Q541 417 541 435 L541 574 Q541 590 530 604 L443 688 Q433 700 415 700 L225 700 Q208 700 197 688 L111 604 Q99 589 99 574 L99 528 Q99 511 111 499 Q123 487 140 487 Q157 487 169.5 499 Q182 511 182 528 L182 540 Z " />
<glyph glyph-name="four" unicode="4" horiz-adv-x="640" d="M549 673 Q565 668 575.5 654.5 Q586 641 586 624 L586 6 Q586 -15 571 -30 Q556 -45 535 -45 Q518 -45 504.5 -34.5 Q491 -24 486 -8 Q470 -3 459.5 10.5 Q449 24 449 41 L449 235 L449 240 Q447 241 443 241 L259 241 Q239 241 224 256 L139 340 Q137 340 137 343 L104 375 Q97 381 93 393 Q89 405 89 413 L89 659 Q89 680 104 695 Q119 710 140 710 Q157 710 170.5 699.5 Q184 689 189 673 Q205 668 215.5 654.5 Q226 641 226 624 L226 411 Q226 400 236 390 L242 383 Q250 378 259 378 L408 378 Q425 378 437 390 Q449 402 449 419 L449 659 Q449 680 464 695 Q479 710 500 710 Q517 710 530.5 699.5 Q544 689 549 673 Z M259 368 Q251 368 243 371.5 Q235 375 230 380 L193 418 Q188 423 184.5 430.5 Q181 438 181 446 L181 659 Q181 676 169 688 Q157 700 140 700 Q123 700 111 688 Q99 676 99 659 L99 413 Q99 397 111 382 L196 298 Q207 286 224 286 L408 286 Q429 286 444 271.5 Q459 257 459 235 L459 41 Q459 24 471 12 Q483 0 500 0 Q517 0 529 12 Q541 24 541 41 L541 659 Q541 676 529 688 Q517 700 500 700 Q483 700 471 688 Q459 676 459 659 L459 419 Q459 398 444 383 Q429 368 408 368 L259 368 Z " />
<glyph glyph-name="five" unicode="5" horiz-adv-x="640" d="M432 282 Q425 287 415 287 L259 287 Q239 287 224 302 L139 386 L136 389 L104 421 Q97 428 93 439 Q89 450 89 459 L89 659 Q89 680 104 695 Q119 710 140 710 L500 710 Q517 710 530.5 699.5 Q544 689 549 673 Q565 668 575.5 654.5 Q586 641 586 624 Q586 603 571 588 Q556 573 535 573 L266 573 Q249 573 237.5 561 Q226 549 226 532 L226 457 Q226 446 236 436 L242 429 Q250 424 259 424 L414 424 Q434 424 450 409 L537 325 Q539 324 541 320 L572 290 Q579 283 582.5 271.5 Q586 260 586 252 L586 91 Q586 83 582.5 71.5 Q579 60 572 53 L485 -31 Q471 -45 449 -45 L259 -45 Q239 -45 224 -30 L139 54 L136 57 L104 89 Q95 97 92 109.5 Q89 122 88 133 Q88 144 88.5 154.5 Q89 165 89 173 Q89 194 104.5 208.5 Q120 223 140 223 Q157 223 170.5 212.5 Q184 202 189 186 Q205 181 215.5 168 Q226 155 226 138 L226 126 Q227 123 227 118 Q229 110 236 104 L242 97 Q250 92 259 92 L380 92 Q393 92 402 101 L439 139 Q449 149 449 160 L449 254 Q449 265 439 275 L432 282 Z M181 173 Q181 190 169 201.5 Q157 213 140 213 Q123 213 111 201.5 Q99 190 99 173 L99 126 Q99 111 111 96 L196 12 Q207 0 224 0 L414 0 Q433 0 443 12 L530 96 Q541 110 541 126 L541 287 Q541 304 530 318 L443 402 Q433 414 414 414 L259 414 Q251 414 243 417.5 Q235 421 230 426 L193 464 Q188 469 184.5 476.5 Q181 484 181 492 L181 567 Q181 588 195.5 603 Q210 618 231 618 L500 618 Q517 618 529 630 Q541 642 541 659 Q541 676 529 688 Q517 700 500 700 L140 700 Q123 700 111 688 Q99 676 99 659 L99 459 Q99 442 111 428 L196 344 Q207 332 224 332 L380 332 Q399 332 409 320 L446 282 Q451 277 455 269.5 Q459 262 459 254 L459 160 Q459 152 455 144.5 Q451 137 446 132 L409 94 Q399 82 380 82 L259 82 Q251 82 243 85.5 Q235 89 230 94 L193 132 Q188 137 184.5 144.5 Q181 152 181 160 L181 173 Z " />
<glyph glyph-name="six" unicode="6" horiz-adv-x="640" d="M226 125 Q226 114 236 104 L242 97 Q250 92 259 92 L380 92 Q393 92 402 101 L439 139 Q449 149 449 160 L449 230 Q449 240 439 252 L432 259 Q424 264 415 264 L266 264 Q249 264 237.5 252 Q226 240 226 223 L226 125 Z M294 573 Q282 573 273 564 L236 526 Q226 516 226 505 L226 407 Q226 403 227 401 L231 401 L414 401 Q423 401 433.5 397 Q444 393 451 386 L537 301 Q539 299 540 297 L572 266 Q580 258 583 248.5 Q586 239 586 230 L586 91 Q586 83 582.5 71.5 Q579 60 572 53 L485 -31 Q471 -45 449 -45 L259 -45 Q239 -45 224 -30 L139 54 Q139 54 137 57 L104 89 Q98 95 93.5 106.5 Q89 118 89 126 L89 574 Q89 582 93.5 593.5 Q98 605 104 611 L189 695 Q204 710 224 710 L414 710 Q434 710 450 695 L537 611 Q539 609 539.5 608 Q540 607 542 605 L572 576 Q580 568 583 555.5 Q586 543 587 532 Q588 521 587 510 Q586 499 586 493 Q586 472 571 457 Q556 442 535 442 Q518 442 504.5 452.5 Q491 463 486 479 Q470 484 459.5 497.5 Q449 511 449 528 Q449 543 448 547 Q446 554 439 561 L432 568 Q425 573 415 573 L294 573 Z M181 258 Q181 279 195.5 294 Q210 309 231 309 L380 309 Q398 309 410 297 L446 259 Q451 254 455 246 Q459 238 459 230 L459 160 Q459 152 455 144.5 Q451 137 446 132 L409 94 Q399 82 380 82 L259 82 Q251 82 243 85.5 Q235 89 230 94 L193 132 Q188 137 184.5 144.5 Q181 152 181 160 L181 258 Z M459 528 Q459 511 471 499 Q483 487 500 487 Q517 487 529 499 Q541 511 541 528 L541 574 Q541 590 530 604 L443 688 Q433 700 414 700 L224 700 Q207 700 196 688 L111 604 Q99 589 99 574 L99 126 Q99 111 111 96 L196 12 Q207 0 224 0 L414 0 Q433 0 443 12 L530 96 Q541 110 541 126 L541 265 Q541 283 530 294 L444 379 Q430 391 414 391 L231 391 Q210 391 195.5 406 Q181 421 181 442 L181 540 Q181 548 184.5 555.5 Q188 563 193 568 L230 606 Q235 611 243 614.5 Q251 618 259 618 L380 618 Q399 618 409 606 L446 568 Q451 563 455 555.5 Q459 548 459 540 L459 528 Z " />
<glyph glyph-name="seven" unicode="7" horiz-adv-x="640" d="M449 572 Q447 573 443 573 L175 573 Q158 573 144.5 583.5 Q131 594 126 610 Q110 615 99.5 628.5 Q89 642 89 659 Q89 680 104 695 Q119 710 140 710 L500 710 Q517 710 530.5 699.5 Q544 689 549 673 Q565 668 575.5 654.5 Q586 641 586 624 L586 495 Q586 485 583 475.5 Q580 466 572 458 L415 302 Q406 291 406 281 L406 6 Q406 -15 392 -30 Q378 -45 356 -45 Q339 -45 325 -35 Q311 -25 306 -8 Q290 -3 279.5 10 Q269 23 269 41 L269 350 Q269 372 283 386 L439 543 Q449 553 449 567 L449 572 Z M361 316 Q361 324 364.5 331.5 Q368 339 373 344 L530 500 Q541 511 541 530 L541 659 Q541 676 529 688 Q517 700 500 700 L140 700 Q123 700 111 688 Q99 676 99 659 Q99 642 111 630 Q123 618 140 618 L408 618 Q429 618 444 603 Q459 588 459 567 L459 564 Q459 556 455 548.5 Q451 541 446 536 L290 379 Q279 368 279 350 L279 41 Q279 24 291 12 Q303 0 321 0 Q338 0 349.5 12 Q361 24 361 41 L361 316 Z " />
<glyph glyph-name="eight" unicode="8" horiz-adv-x="640" d="M294 264 Q289 264 282 261.5 Q275 259 272 255 L235 217 Q226 208 226 195 L226 125 Q226 114 236 104 L242 97 Q250 92 259 92 L380 92 Q393 92 402 101 L439 139 Q449 149 449 160 L449 230 Q449 240 439 252 L432 259 Q424 264 415 264 L294 264 Z M294 573 Q282 573 273 564 L236 526 Q226 516 226 505 L226 435 Q226 423 236 413 L242 406 Q250 401 259 401 L380 401 Q394 401 403 410 L440 448 Q449 457 449 470 L449 540 Q449 551 439 561 L432 568 Q425 573 415 573 L294 573 Z M259 -45 Q239 -45 224 -30 L139 54 Q139 54 137 57 L104 89 Q98 95 93.5 106.5 Q89 118 89 126 L89 265 Q89 274 91.5 281 Q94 288 98 294 Q100 296 102 299 Q104 302 106 304 Q108 306 110.5 308 Q113 310 115 312 Q123 320 129 328 Q135 336 135 350 Q135 364 129 372 Q123 380 115 388 Q113 390 110.5 392 Q108 394 106 396 Q104 398 102 401 Q100 404 98 406 Q94 412 91.5 419 Q89 426 89 435 L89 574 Q89 582 93.5 593.5 Q98 605 104 611 L189 695 Q204 710 224 710 L415 710 Q435 710 450 695 L537 611 Q540 608 541 606 L572 576 Q579 570 582.5 558.5 Q586 547 586 539 L586 400 Q586 382 577 370 Q575 367 573 364.5 Q571 362 569 359 Q566 357 560 351 Q551 343 545 335.5 Q539 328 539 315 Q539 302 545 294 Q551 286 560 278 Q563 276 569 270 Q574 265 577 259 Q586 247 586 230 L586 91 Q586 83 582.5 71.5 Q579 60 572 53 L485 -31 Q477 -38 469 -41.5 Q461 -45 450 -45 L259 -45 Z M446 259 Q451 254 455 246 Q459 238 459 230 L459 160 Q459 152 455 144.5 Q451 137 446 132 L409 94 Q399 82 380 82 L259 82 Q251 82 243 85.5 Q235 89 230 94 L193 132 Q188 137 184.5 144.5 Q181 152 181 160 L181 230 Q181 238 184 246 Q187 254 192 259 L229 297 Q234 302 242.5 305.5 Q251 309 259 309 L380 309 Q398 309 410 297 L446 259 Z M446 568 Q451 563 455 555.5 Q459 548 459 540 L459 470 Q459 462 455.5 454 Q452 446 447 441 L410 403 Q398 391 380 391 L259 391 Q251 391 242.5 394.5 Q234 398 229 403 L193 441 Q188 446 184.5 454 Q181 462 181 470 L181 540 Q181 548 184.5 555.5 Q188 563 193 568 L230 606 Q235 611 243 614.5 Q251 618 259 618 L380 618 Q399 618 409 606 L446 568 Z M415 0 Q433 0 443 12 L530 96 Q541 110 541 126 L541 265 Q541 283 530 294 L509 314 Q494 331 494 350 Q494 370 509 386 L530 406 Q541 417 541 435 L541 574 Q541 590 530 604 L443 688 Q433 700 415 700 L224 700 Q207 700 196 688 L111 604 Q99 589 99 574 L99 435 Q99 418 111 406 L131 386 Q145 371 145 350 Q145 329 131 314 L111 294 Q99 282 99 265 L99 126 Q99 111 111 96 L196 12 Q207 0 224 0 L415 0 Z " />
<glyph glyph-name="nine" unicode="9" horiz-adv-x="640" d="M432 568 Q425 573 415 573 L294 573 Q282 573 273 564 L236 526 Q226 516 226 505 L226 435 Q226 423 236 413 L242 406 Q250 401 259 401 L408 401 Q425 401 437 413 Q449 425 449 442 L449 540 Q449 551 439 561 L432 568 Z M449 263 Q447 264 443 264 L259 264 Q250 264 240 268 Q230 272 223 279 L191 311 L188 314 L104 399 Q89 414 89 435 L89 574 Q89 582 93.5 593.5 Q98 605 104 611 L189 695 Q204 710 224 710 L415 710 Q435 710 450 695 L537 611 Q540 608 541 606 L572 576 Q579 570 582.5 558.5 Q586 547 586 539 L586 91 Q586 83 582.5 71.5 Q579 60 572 53 L485 -31 Q477 -38 469 -41.5 Q461 -45 450 -45 L259 -45 Q239 -45 224 -30 L139 54 L136 57 L104 89 Q95 97 92 109.5 Q89 122 88 133 Q88 144 88.5 154.5 Q89 165 89 173 Q89 194 104.5 208.5 Q120 223 140 223 Q157 223 170.5 212.5 Q184 202 189 186 Q205 181 215.5 168 Q226 155 226 138 L226 126 Q227 123 227 118 Q229 110 236 104 L242 97 Q250 92 259 92 L380 92 Q393 92 402 101 L439 139 Q449 149 449 160 L449 258 L449 263 Z M459 442 Q459 421 444 406 Q429 391 408 391 L259 391 Q251 391 242.5 394.5 Q234 398 229 403 L193 441 Q188 446 184.5 454 Q181 462 181 470 L181 540 Q181 548 184.5 555.5 Q188 563 193 568 L230 606 Q235 611 243 614.5 Q251 618 259 618 L380 618 Q399 618 409 606 L446 568 Q451 563 455 555.5 Q459 548 459 540 L459 442 Z M181 173 Q181 190 169 201.5 Q157 213 140 213 Q123 213 111 201.5 Q99 190 99 173 L99 126 Q99 111 111 96 L196 12 Q207 0 224 0 L415 0 Q433 0 443 12 L530 96 Q541 110 541 126 L541 574 Q541 590 530 604 L443 688 Q433 700 415 700 L224 700 Q207 700 196 688 L111 604 Q99 589 99 574 L99 435 Q99 418 111 406 L195 321 Q209 309 224 309 L408 309 Q429 309 444 294 Q459 279 459 258 L459 160 Q459 152 455 144.5 Q451 137 446 132 L409 94 Q399 82 380 82 L259 82 Q251 82 243 85.5 Q235 89 230 94 L193 132 Q188 137 184.5 144.5 Q181 152 181 160 L181 173 Z " />
<glyph glyph-name="zero" unicode="0" horiz-adv-x="640" d="M449 335 L242 129 Q241 128 241 127.5 Q241 127 240 126 L239 125 Q239 124 238.5 124 Q238 124 238 123 Q238 121 240 119 L259 100 Q267 92 280 92 L359 92 Q372 92 381 101 L439 160 Q449 172 449 182 L449 335 Z M432 549 L416 565 Q413 567 406 570 Q399 573 394 573 L315 573 Q305 573 294 564 L235 505 Q226 494 226 483 L226 330 L432 536 Q435 539 435 542 Q435 546 432 549 Z M461 664 Q463 663 465 661 L571 553 Q579 545 582.5 537 Q586 529 586 518 L586 112 Q586 89 571 75 L465 -31 Q451 -45 429 -45 L281 -45 Q260 -45 245 -30 L210 5 L139 76 L104 111 Q97 117 93 127.5 Q89 138 89 147 L89 553 Q89 562 93 572.5 Q97 583 104 589 L210 695 Q225 710 246 710 L394 710 Q402 710 412.5 706.5 Q423 703 430 696 L461 664 Z M280 82 Q263 82 252 93 L200 144 Q193 151 193 158 Q193 166 200 171 L440 411 Q443 416 449 416 Q459 416 459 403 L459 182 Q459 174 455 166 Q451 158 446 153 L388 94 Q376 82 359 82 L280 82 Z M199 289 Q196 284 190 284 Q181 284 181 297 L181 518 Q181 537 193 547 L252 606 Q257 611 264.5 614.5 Q272 618 280 618 L359 618 Q367 618 375 615 Q383 612 388 607 L439 556 Q445 550 445 542 Q445 534 439 529 L199 289 Z M111 582 Q99 568 99 553 L99 147 Q99 132 111 118 L217 12 Q228 0 246 0 L394 0 Q412 0 423 11 L529 117 Q541 131 541 147 L541 553 Q541 571 529 581 L423 689 Q410 700 394 700 L246 700 Q228 700 217 688 L111 582 Z " />
<glyph glyph-name="period" unicode="&#x2e;" horiz-adv-x="640" d="M329 -45 Q312 -45 299 -34.5 Q286 -24 281 -8 Q264 -4 254 10 Q244 24 244 41 L244 91 Q244 111 258.5 126.5 Q273 142 294 142 L345 142 Q362 142 375.5 131.5 Q389 121 394 105 Q410 100 420.5 86.5 Q431 73 431 56 L431 6 Q431 -15 416 -30 Q401 -45 380 -45 L329 -45 Z M345 0 Q362 0 374 12 Q386 24 386 41 L386 91 Q386 108 374 120 Q362 132 345 132 L294 132 Q277 132 265.5 120 Q254 108 254 91 L254 41 Q254 24 265.5 12 Q277 0 294 0 L345 0 Z " />
<glyph glyph-name="comma" unicode="&#x2c;" horiz-adv-x="640" d="M290 -18 Q288 -14 286 -8 Q269 -4 259 10 Q249 24 249 41 L249 80 Q249 100 263 116 Q277 132 299 132 L339 132 Q356 132 369.5 121.5 Q383 111 388 95 Q405 90 415 76 Q425 62 425 45 L425 -53 Q425 -62 421 -73 Q417 -84 410 -91 L367 -133 Q361 -139 352.5 -141.5 Q344 -144 336 -144 Q320 -144 308.5 -134 Q297 -124 295 -109 Q279 -107 269 -95 Q259 -83 259 -67 Q259 -59 263 -50 Q267 -41 272 -36 L290 -18 Z M299 122 Q282 122 270.5 109.5 Q259 97 259 80 L259 41 Q259 24 270.5 12 Q282 0 299 0 L322 0 L279 -43 Q269 -55 269 -67 Q269 -81 278 -90 Q287 -99 301 -99 Q316 -99 325 -90 L368 -48 Q380 -33 380 -18 L380 80 Q380 97 368 109.5 Q356 122 339 122 L299 122 Z " />
<glyph glyph-name="exclam" unicode="&#x21;" horiz-adv-x="640" d="M334 -45 Q317 -45 304 -34.5 Q291 -24 286 -8 Q269 -4 259 10 Q249 24 249 41 L249 81 Q249 101 263.5 116.5 Q278 132 299 132 L340 132 Q357 132 370 121.5 Q383 111 388 95 Q405 90 415 76.5 Q425 63 425 46 L425 6 Q425 -15 411 -30 Q397 -45 375 -45 L334 -45 Z M406 209 Q406 188 391 173 Q376 158 355 158 Q338 158 324.5 168 Q311 178 306 195 Q290 200 279.5 213 Q269 226 269 244 L269 659 Q269 680 284 695 Q299 710 320 710 Q337 710 350.5 699.5 Q364 689 369 673 Q385 668 395.5 654.5 Q406 641 406 624 L406 209 Z M340 0 Q357 0 368.5 12 Q380 24 380 41 L380 81 Q380 98 368.5 110 Q357 122 340 122 L299 122 Q282 122 270.5 110 Q259 98 259 81 L259 41 Q259 24 270.5 12 Q282 0 299 0 L340 0 Z M361 659 Q361 676 349 688 Q337 700 320 700 Q303 700 291 688 Q279 676 279 659 L279 244 Q279 227 291 215 Q303 203 320 203 Q337 203 349 215 Q361 227 361 244 L361 659 Z " />
<glyph glyph-name="quotedbl" unicode="&#x22;" horiz-adv-x="640" d="M314 483 Q314 461 298 447 Q282 433 262 433 Q245 433 232 443 Q219 453 214 470 Q198 474 187.5 487.5 Q177 501 177 518 L177 659 Q177 679 191.5 694.5 Q206 710 227 710 Q244 710 258 700 Q272 690 277 673 Q293 668 303.5 654.5 Q314 641 314 624 L314 483 Z M498 483 Q498 462 482.5 447.5 Q467 433 447 433 Q430 433 416.5 443 Q403 453 398 470 Q382 475 371.5 488 Q361 501 361 518 L361 659 Q361 680 376 695 Q391 710 412 710 Q429 710 442.5 699.5 Q456 689 461 673 Q477 668 487.5 654.5 Q498 641 498 624 L498 483 Z M269 659 Q269 676 256.5 688 Q244 700 227 700 Q210 700 198.5 688 Q187 676 187 659 L187 518 Q187 501 198.5 489.5 Q210 478 227 478 Q244 478 256.5 489.5 Q269 501 269 518 L269 659 Z M453 659 Q453 676 441 688 Q429 700 412 700 Q395 700 383 688 Q371 676 371 659 L371 518 Q371 501 383 489.5 Q395 478 412 478 Q429 478 441 489.5 Q453 501 453 518 L453 659 Z " />
<glyph glyph-name="numbersign" unicode="&#x23;" horiz-adv-x="640" d="M360 370 L335 370 Q325 370 323 360 Q321 347 319 330 Q317 313 315 296 L340 296 Q350 296 352 306 Q354 319 356 336 Q358 353 360 370 Z M158 162 Q134 170 126 196 Q110 201 99.5 214.5 Q89 228 89 245 Q89 266 104 281 Q119 296 140 296 L163 296 Q174 296 176 306 Q178 320 179.5 336.5 Q181 353 183 370 L175 370 Q158 370 145 380.5 Q132 391 127 407 Q110 412 99.5 426 Q89 440 89 457 Q89 478 104.5 492.5 Q120 507 140 507 L188 507 Q198 507 200 517 L215 663 Q217 686 235 697.5 Q253 709 272 709 Q289 709 299 698 Q309 687 314 673 Q334 670 343.5 651.5 Q353 633 351 617 L340 507 L364 507 Q375 507 377 517 L392 663 Q394 686 411 697.5 Q428 709 448 709 Q465 709 476 698 Q487 687 492 673 Q511 668 521 650.5 Q531 633 529 617 L517 504 Q528 500 537 491 Q546 482 549 470 Q565 465 575.5 452 Q586 439 586 422 Q586 401 571.5 385.5 Q557 370 535 370 L512 370 Q501 370 499 360 Q498 346 496 329.5 Q494 313 492 296 L500 296 Q517 296 530.5 285.5 Q544 275 549 259 Q565 254 575.5 240.5 Q586 227 586 210 Q586 189 571 174 Q556 159 535 159 L487 159 Q477 159 475 148 L457 -1 Q454 -24 437 -35 Q420 -46 400 -46 Q383 -46 373 -35 Q363 -24 359 -10 Q339 -7 329 11.5 Q319 30 321 46 L335 159 L311 159 Q301 159 299 148 L280 -1 Q277 -24 260.5 -35 Q244 -46 224 -46 Q207 -46 196 -35 Q185 -24 180 -10 Q161 -6 151 11.5 Q141 29 143 46 L158 162 Z M286 286 Q268 286 268 304 L268 306 L278 396 Q280 415 300 415 L354 415 Q372 415 372 397 L372 395 L362 305 Q360 286 340 286 L286 286 Z M153 45 L153 40 Q153 24 163 11.5 Q173 -1 189 -1 L194 -1 Q209 -1 221 9.5 Q233 20 235 36 L254 185 Q256 204 276 204 L330 204 Q348 204 348 186 L348 184 L331 45 L331 40 Q331 24 341 11.5 Q351 -1 365 -1 L370 -1 Q386 -1 398 9.5 Q410 20 412 36 L430 185 Q432 204 452 204 L500 204 Q517 204 529 216 Q541 228 541 245 Q541 262 529 274 Q517 286 500 286 L464 286 Q445 286 445 304 L445 306 L454 396 Q455 404 461.5 409.5 Q468 415 477 415 L500 415 Q517 415 529 427.5 Q541 440 541 457 Q541 474 529 485.5 Q517 497 500 497 L487 497 Q469 497 469 515 L469 517 L484 653 L484 658 Q484 674 474 685.5 Q464 697 448 699 L443 699 Q428 699 416 688.5 Q404 678 402 662 L387 516 Q386 508 379.5 502.5 Q373 497 364 497 L310 497 Q292 497 292 515 L292 517 L306 653 L306 658 Q306 674 296 686.5 Q286 699 272 699 L267 699 Q252 699 239.5 688.5 Q227 678 225 662 L210 516 Q208 497 188 497 L140 497 Q123 497 111 485.5 Q99 474 99 457 Q99 440 111 427.5 Q123 415 140 415 L177 415 Q195 415 195 397 L195 395 L186 305 Q184 286 163 286 L140 286 Q123 286 111 274 Q99 262 99 245 Q99 228 111 216 Q123 204 140 204 L153 204 Q171 204 171 186 L171 184 L153 45 Z " />
<glyph glyph-name="dollar" unicode="&#x24;" horiz-adv-x="640" d="M432 260 Q422 264 416 264 Q406 264 406 255 L406 106 L439 139 Q449 149 449 160 L449 230 Q449 240 439 252 L432 260 Z M269 559 L235 526 Q226 515 226 505 L226 435 Q226 425 232 417 L238 411 Q247 402 259 402 Q269 402 269 411 L269 559 Z M542 605 L572 576 Q580 568 583 555.5 Q586 543 587 532 Q588 521 587 510 Q586 499 586 493 Q586 472 571 457 Q556 442 535 442 Q518 442 504.5 452.5 Q491 463 486 479 Q470 484 459.5 497.5 Q449 511 449 528 Q449 543 448 547 Q446 554 439 561 L432 568 Q424 573 416 573 Q406 573 406 564 L406 402 Q416 402 420 401 Q428 399 436 396 Q444 393 451 386 L537 301 Q539 299 540 297 L572 266 Q580 258 583 248.5 Q586 239 586 230 L586 92 Q586 84 582.5 72 Q579 60 572 53 L485 -31 Q470 -44 450 -46 Q442 -47 433.5 -46 Q425 -45 416 -45 Q411 -45 410 -46.5 Q409 -48 408 -50 Q407 -52 407 -53.5 Q407 -55 406 -58 L406 -69 Q406 -91 391.5 -105.5 Q377 -120 355 -120 Q338 -120 324.5 -110 Q311 -100 306 -83 Q292 -79 282.5 -69.5 Q273 -60 270 -46 Q266 -46 262.5 -45.5 Q259 -45 255 -45 Q247 -43 239 -40 Q231 -37 224 -30 L139 54 L136 57 L104 89 Q95 97 92 109.5 Q89 122 88 133 Q88 144 88.5 154.5 Q89 165 89 173 Q89 194 104.5 208.5 Q120 223 140 223 Q157 223 170.5 212.5 Q184 202 189 186 Q205 181 215.5 168 Q226 155 226 138 L226 126 Q227 123 227 118 Q229 111 235 104 L238 101 Q247 92 259 92 Q269 92 269 102 L269 263 Q265 263 261.5 263.5 Q258 264 254 264 Q246 266 238 268.5 Q230 271 223 279 L192 310 L188 314 L104 399 Q89 414 89 435 L89 574 Q89 582 93.5 593.5 Q98 605 104 611 L189 695 Q197 703 206 706 Q215 709 225 710 Q233 711 241.5 710.5 Q250 710 259 710 Q264 710 265.5 711 Q267 712 268 714 Q268 716 268.5 718 Q269 720 269 723 L269 734 Q269 755 284 770 Q299 785 320 785 Q338 785 351 774.5 Q364 764 369 748 Q383 744 392.5 734 Q402 724 405 710 Q415 710 420 709 Q428 708 435.5 705 Q443 702 450 695 L537 611 Q539 609 539.5 608 Q540 607 542 605 Z M361 290 Q361 309 381 309 Q398 309 410 297 L446 259 Q451 254 455 246 Q459 238 459 230 L459 160 Q459 152 455 144.5 Q451 137 446 132 L409 94 Q399 82 380 82 Q361 82 361 102 L361 290 Z M279 411 Q279 392 259 392 Q251 392 243.5 395.5 Q236 399 231 404 L193 441 Q188 446 184.5 454 Q181 462 181 470 L181 540 Q181 548 184.5 555.5 Q188 563 193 568 L231 606 Q236 611 244 614.5 Q252 618 260 618 Q279 618 279 599 L279 411 Z M224 700 Q207 700 196 688 L111 604 Q99 589 99 574 L99 435 Q99 418 111 406 L195 321 Q207 309 224 309 L259 309 Q279 309 279 289 L279 102 Q279 82 259 82 Q251 82 243.5 85.5 Q236 89 231 94 L193 132 Q188 137 184.5 144.5 Q181 152 181 160 L181 173 Q181 190 169 201.5 Q157 213 140 213 Q123 213 111 201.5 Q99 190 99 173 L99 127 Q99 111 111 96 L196 12 Q207 0 224 0 L259 0 Q279 0 279 -20 L279 -34 Q279 -51 291 -63 Q303 -75 320 -75 Q337 -75 349 -63 Q361 -51 361 -34 L361 -20 Q361 0 381 0 L415 0 Q433 0 443 12 L530 96 Q541 110 541 127 L541 265 Q541 283 530 294 L444 379 Q431 392 415 392 L381 392 Q361 392 361 412 L361 599 Q361 618 381 618 Q399 618 409 606 L446 568 Q451 563 455 555.5 Q459 548 459 540 L459 528 Q459 511 471 499 Q483 487 500 487 Q517 487 529 499 Q541 511 541 528 L541 574 Q541 590 530 604 L443 688 Q433 700 415 700 L381 700 Q361 700 361 720 L361 734 Q361 751 349 763 Q337 775 320 775 Q303 775 291 763 Q279 751 279 734 L279 720 Q279 700 259 700 L224 700 Z " />
<glyph glyph-name="percent" unicode="&#x25;" horiz-adv-x="640" d="M474 -45 Q457 -45 444 -34.5 Q431 -24 426 -8 Q409 -4 399 10 Q389 24 389 41 L389 102 Q389 122 404 137 Q419 152 439 152 L500 152 Q517 152 530.5 141.5 Q544 131 549 115 Q565 110 575.5 97 Q586 84 586 67 L586 6 Q586 -15 571 -30 Q556 -45 535 -45 L474 -45 Z M586 624 L586 495 Q586 472 571 458 L235 122 Q226 111 226 101 L226 6 Q226 -15 211 -30 Q196 -45 175 -45 Q158 -45 144.5 -34.5 Q131 -24 126 -8 Q110 -3 99.5 10.5 Q89 24 89 41 L89 170 Q89 191 105 207 L439 543 Q449 553 449 564 L449 659 Q449 680 464 695 Q479 710 500 710 Q517 710 530.5 699.5 Q544 689 549 673 Q565 668 575.5 654.5 Q586 641 586 624 Z M175 513 Q158 513 144.5 523.5 Q131 534 126 550 Q110 555 99.5 568.5 Q89 582 89 599 L89 659 Q89 680 104 695 Q119 710 140 710 L200 710 Q217 710 230 699.5 Q243 689 248 673 Q265 668 275 654.5 Q285 641 285 624 L285 564 Q285 543 271 528 Q257 513 235 513 L175 513 Z M459 564 Q459 556 455 548.5 Q451 541 446 536 L112 200 Q106 193 102.5 186.5 Q99 180 99 170 L99 41 Q99 24 111 12 Q123 0 140 0 Q157 0 169 12 Q181 24 181 41 L181 136 Q181 144 184.5 151.5 Q188 159 193 164 L529 500 Q535 507 538 513.5 Q541 520 541 530 L541 659 Q541 676 529 688 Q517 700 500 700 Q483 700 471 688 Q459 676 459 659 L459 564 Z M500 0 Q517 0 529 12 Q541 24 541 41 L541 102 Q541 119 529 130.5 Q517 142 500 142 L439 142 Q422 142 410.5 130.5 Q399 119 399 102 L399 41 Q399 24 410.5 12 Q422 0 439 0 L500 0 Z M200 558 Q217 558 228.5 570 Q240 582 240 599 L240 659 Q240 676 228.5 688 Q217 700 200 700 L140 700 Q123 700 111 688 Q99 676 99 659 L99 599 Q99 582 111 570 Q123 558 140 558 L200 558 Z " />
<glyph glyph-name="ampersand" unicode="&#x26;" horiz-adv-x="640" d="M403 264 L294 264 Q289 264 282 261.5 Q275 259 272 255 L235 217 Q226 208 226 195 L226 125 Q226 114 236 104 L242 97 Q250 92 259 92 L334 92 Q346 92 355 101 L394 138 Q403 147 403 160 L403 264 Z M259 -45 Q239 -45 224 -30 L139 54 Q137 54 137 57 L104 89 Q97 95 93 107 Q89 119 89 127 L89 265 Q89 274 91.5 281 Q94 288 98 294 Q100 296 102 299 Q104 302 106 304 Q108 306 110.5 308 Q113 310 115 312 Q123 320 129 328 Q135 336 135 350 Q135 364 129 372 Q123 380 115 388 Q113 390 110.5 392 Q108 394 106 396 Q104 398 102 401 Q100 404 98 406 Q94 412 91.5 419 Q89 426 89 435 L89 574 Q89 582 93.5 593.5 Q98 605 104 611 L189 695 Q204 710 224 710 L320 710 Q338 710 351 699.5 Q364 689 369 673 Q386 668 396 654.5 Q406 641 406 624 Q406 603 391 588 Q376 573 355 573 L294 573 Q282 573 273 564 L236 526 Q226 516 226 505 L226 435 Q226 423 236 413 L242 406 Q250 401 259 401 L393 401 Q398 401 399.5 402.5 Q401 404 403 409 L403 421 L403 435 Q403 455 417 471 Q431 487 453 487 Q470 487 484 476.5 Q498 466 503 450 Q519 445 529.5 431.5 Q540 418 540 401 Q557 400 570 389.5 Q583 379 588 364 Q604 359 614.5 345.5 Q625 332 625 315 Q625 294 610 279 Q595 264 574 264 L560 264 Q557 264 553.5 264 Q550 264 548 263 Q540 261 540 254 L540 92 Q540 82 536.5 71.5 Q533 61 525 54 L441 -30 Q433 -38 423.5 -41.5 Q414 -45 403 -45 L259 -45 Z M413 160 Q413 143 401 131 L362 94 Q357 89 349.5 85.5 Q342 82 334 82 L259 82 Q251 82 243 85.5 Q235 89 230 94 L193 132 Q188 137 184.5 144.5 Q181 152 181 160 L181 230 Q181 238 184 246 Q187 254 192 259 L229 297 Q234 302 242.5 305.5 Q251 309 259 309 L393 309 Q413 309 413 289 L413 160 Z M495 289 Q495 309 515 309 L539 309 Q556 309 568 321 Q580 333 580 350 Q580 367 568 379 Q556 391 539 391 L515 391 Q495 391 495 411 L495 435 Q495 452 482.5 464.5 Q470 477 453 477 Q436 477 424.5 464.5 Q413 452 413 435 L413 411 Q413 391 393 391 L259 391 Q251 391 242.5 394.5 Q234 398 229 403 L193 441 Q188 446 184.5 454 Q181 462 181 470 L181 540 Q181 548 184.5 555.5 Q188 563 193 568 L230 606 Q235 611 243 614.5 Q251 618 259 618 L320 618 Q337 618 349 630 Q361 642 361 659 Q361 676 349 688 Q337 700 320 700 L224 700 Q207 700 196 688 L111 604 Q99 589 99 574 L99 435 Q99 418 111 406 L131 386 Q145 371 145 350 Q145 329 131 314 L111 294 Q99 282 99 265 L99 127 Q99 111 111 96 L196 12 Q207 0 224 0 L368 0 Q386 0 399 12 L483 96 Q495 111 495 127 L495 289 Z " />
<glyph glyph-name="quotesingle" unicode="&#x27;" horiz-adv-x="640" d="M406 483 Q406 462 390.5 447.5 Q375 433 355 433 Q338 433 324.5 443 Q311 453 306 470 Q290 475 279.5 488 Q269 501 269 518 L269 659 Q269 680 284 695 Q299 710 320 710 Q337 710 350.5 699.5 Q364 689 369 673 Q385 668 395.5 654.5 Q406 641 406 624 L406 483 Z M361 659 Q361 676 349 688 Q337 700 320 700 Q303 700 291 688 Q279 676 279 659 L279 518 Q279 501 291 489.5 Q303 478 320 478 Q337 478 349 489.5 Q361 501 361 518 L361 659 Z " />
<glyph glyph-name="parenleft" unicode="&#x28;" horiz-adv-x="640" d="M431 -92 L364 -92 Q352 -92 344 -88.5 Q336 -85 328 -77 L242 7 Q241 9 238 12 L207 43 Q200 49 196.5 60 Q193 71 193 79 L193 620 Q193 628 196.5 639 Q200 650 207 656 L293 740 Q301 748 308.5 752 Q316 756 329 756 L396 756 Q413 756 426 745.5 Q439 735 444 719 Q461 714 471 700.5 Q481 687 481 670 Q481 650 467 634 Q453 618 431 618 L398 618 Q387 618 377 608 L339 571 Q330 562 330 550 L330 79 Q330 69 336 61 L342 55 Q347 50 352.5 48.5 Q358 47 365 46 Q373 45 380.5 45.5 Q388 46 396 46 Q413 46 426 35.5 Q439 25 444 9 Q461 4 471 -9.5 Q481 -23 481 -40 Q481 -60 467 -76 Q453 -92 431 -92 Z M363 36 Q355 36 347.5 39.5 Q340 43 335 48 L297 85 Q292 90 288.5 98 Q285 106 285 114 L285 585 Q285 593 288.5 601 Q292 609 297 614 L335 651 Q340 656 347.5 659.5 Q355 663 363 663 L396 663 Q413 663 424.5 675.5 Q436 688 436 705 Q436 722 424.5 734 Q413 746 396 746 L329 746 Q310 746 300 733 L214 649 Q203 636 203 620 L203 79 Q203 63 214 50 L300 -34 Q310 -47 329 -47 L396 -47 Q413 -47 424.5 -34.5 Q436 -22 436 -5 Q436 12 424.5 24 Q413 36 396 36 L363 36 Z " />
<glyph glyph-name="parenright" unicode="&#x29;" horiz-adv-x="640" d="M339 602 L332 608 Q327 613 322 615 Q317 617 310 618 Q302 619 294.5 618.5 Q287 618 279 618 Q262 618 249 628.5 Q236 639 231 655 Q214 660 203.5 674 Q193 688 193 705 Q193 726 208 741 Q223 756 244 756 L310 756 Q323 756 330.5 752 Q338 748 346 740 L432 656 L436 652 L467 621 Q474 614 477.5 603.5 Q481 593 481 585 L481 44 Q481 36 477.5 25 Q474 14 467 7 L381 -77 Q373 -85 366 -88.5 Q359 -92 345 -92 L279 -92 Q262 -92 249 -81.5 Q236 -71 231 -55 Q214 -50 203.5 -36 Q193 -22 193 -5 Q193 16 208 31 Q223 46 244 46 L276 46 Q288 46 297 55 L335 92 Q344 101 344 114 L344 585 Q344 594 339 602 Z M244 36 Q227 36 215 24 Q203 12 203 -5 Q203 -22 215 -34.5 Q227 -47 244 -47 L310 -47 Q329 -47 339 -34 L425 50 Q436 63 436 79 L436 620 Q436 636 425 649 L339 733 Q329 746 310 746 L244 746 Q227 746 215 734 Q203 722 203 705 Q203 688 215 675.5 Q227 663 244 663 L276 663 Q284 663 291.5 659.5 Q299 656 304 651 L342 614 Q347 609 350.5 601 Q354 593 354 585 L354 114 Q354 106 350.5 98 Q347 90 342 85 L304 48 Q299 43 291.5 39.5 Q284 36 276 36 L244 36 Z " />
<glyph glyph-name="asterisk" unicode="&#x2a;" horiz-adv-x="640" d="M229 546 Q219 554 216 566 Q215 566 215 567 Q204 572 191.5 583 Q179 594 179 613 Q179 629 190.5 639.5 Q202 650 217 650 Q228 650 238 645 Q248 640 256 635 Q260 633 263.5 630.5 Q267 628 270 626 Q278 623 278 623 L279 624 Q279 625 279.5 625.5 Q280 626 280 628 L280 640 L280 656 Q280 664 280.5 673.5 Q281 683 286 691 Q296 710 320 710 Q345 710 354 691 Q356 687 356.5 683 Q357 679 358 675 Q381 673 389 655 Q393 647 393 641 Q400 645 407 647.5 Q414 650 422 650 Q438 650 448.5 640 Q459 630 460 615 Q475 613 485 602.5 Q495 592 495 577 Q495 557 483 547 Q471 537 460 531 Q450 527 446 525 Q451 520 454 515.5 Q457 511 459 504 Q460 504 460 503 Q471 498 483 488 Q495 478 495 459 Q495 442 484.5 431.5 Q474 421 457 421 Q446 421 436 426 Q426 431 418 436 Q414 438 410.5 440.5 Q407 443 404 445 Q398 448 396 448 Q396 447 395.5 446 Q395 445 395 443 Q394 439 394 430 Q394 426 394 422.5 Q394 419 395 414 Q395 406 394 397 Q393 388 389 380 Q380 361 355 361 Q331 361 321 380 Q319 384 318 387.5 Q317 391 316 396 Q294 397 286 415 Q283 421 281 429 Q275 426 267.5 423.5 Q260 421 252 421 Q238 421 226.5 430.5 Q215 440 214 456 Q200 457 189.5 467 Q179 477 179 493 Q179 504 183.5 513 Q188 522 198 527 Q200 529 207.5 533 Q215 537 223 542 Q225 544 229 546 Z M232 637 Q225 640 217 640 Q206 640 197.5 632 Q189 624 189 613 Q189 605 192.5 597.5 Q196 590 203 586 L240 564 Q250 558 250 553 Q250 549 240 542 L203 519 Q196 515 192.5 508 Q189 501 189 493 Q189 482 197 474 Q205 466 217 466 Q225 466 232 469 L270 490 Q273 493 278 493 Q290 493 290 478 L290 435 Q290 423 299 414.5 Q308 406 320 406 Q332 406 340.5 414.5 Q349 423 349 435 L349 478 Q349 493 361 493 Q366 493 369 490 L407 469 Q415 466 422 466 Q435 466 442.5 474 Q450 482 450 494 Q450 502 447 508.5 Q444 515 437 519 L399 542 Q391 547 391 553 Q391 559 399 564 L437 586 Q444 590 447 597 Q450 604 450 612 Q450 624 442 632 Q434 640 422 640 Q415 640 407 637 L369 616 Q366 613 361 613 Q349 613 349 628 L349 671 Q349 683 340.5 691.5 Q332 700 320 700 Q308 700 299 691.5 Q290 683 290 671 L290 628 Q290 613 278 613 Q273 613 270 616 L232 637 Z " />
<glyph glyph-name="plus" unicode="&#x2b;" horiz-adv-x="640" d="M504 265 Q491 262 474 262 Q467 262 460.5 262.5 Q454 263 447 263 Q430 263 418 251.5 Q406 240 406 223 L406 177 Q406 156 391 141 Q376 126 355 126 Q338 126 324.5 136.5 Q311 147 306 163 Q290 168 279.5 181.5 Q269 195 269 212 L269 258 L269 262 Q267 263 263 263 Q257 263 250.5 262.5 Q244 262 236 262 Q221 262 206 265 Q192 268 182 276.5 Q172 285 169 301 Q154 305 143 316 Q132 327 132 349 Q132 370 147 385 Q162 400 183 400 L228 400 Q245 400 257 411.5 Q269 423 269 440 Q269 446 268.5 453 Q268 460 268 467 Q268 483 271 498 Q275 513 286 524.5 Q297 536 320 536 Q342 536 353 525 Q364 514 368 499 Q385 496 393 486 Q401 476 404 462 Q407 447 407 432 Q407 424 406.5 417.5 Q406 411 406 405 Q406 402 407 400 L412 400 L457 400 Q474 400 487 389.5 Q500 379 505 363 Q522 358 532 344.5 Q542 331 542 314 Q542 291 531 280 Q520 269 504 265 Z M412 390 Q390 390 375.5 404.5 Q361 419 361 440 L361 486 Q361 503 349 514.5 Q337 526 320 526 Q303 526 291 514.5 Q279 503 279 486 L279 440 Q279 419 264.5 404.5 Q250 390 228 390 L183 390 Q166 390 154 378 Q142 366 142 349 Q142 332 154 320 Q166 308 183 308 L228 308 Q250 308 264.5 293.5 Q279 279 279 258 L279 212 Q279 195 291 183 Q303 171 320 171 Q337 171 349 183 Q361 195 361 212 L361 258 Q361 279 375.5 293.5 Q390 308 412 308 L457 308 Q474 308 485.5 320 Q497 332 497 349 Q497 366 485.5 378 Q474 390 457 390 L412 390 Z " />
<glyph glyph-name="hyphen" unicode="&#x2d;" horiz-adv-x="640" d="M505 365 Q522 360 532 346.5 Q542 333 542 316 Q542 295 528 280 Q514 265 492 265 L218 265 Q201 265 187.5 275 Q174 285 169 302 Q153 307 142.5 320 Q132 333 132 351 Q132 372 147 387 Q162 402 183 402 L457 402 Q474 402 487 391.5 Q500 381 505 365 Z M183 392 Q166 392 154 380 Q142 368 142 351 Q142 334 154 322 Q166 310 183 310 L457 310 Q474 310 485.5 322 Q497 334 497 351 Q497 368 485.5 380 Q474 392 457 392 L183 392 Z " />
<glyph glyph-name="slash" unicode="&#x2f;" horiz-adv-x="640" d="M586 624 L586 495 Q586 472 571 458 L235 122 Q226 111 226 101 L226 6 Q226 -15 211 -30 Q196 -45 175 -45 Q158 -45 144.5 -34.5 Q131 -24 126 -8 Q110 -3 99.5 10.5 Q89 24 89 41 L89 170 Q89 191 105 207 L439 543 Q449 553 449 564 L449 659 Q449 680 464 695 Q479 710 500 710 Q517 710 530.5 699.5 Q544 689 549 673 Q565 668 575.5 654.5 Q586 641 586 624 Z M459 564 Q459 556 455 548.5 Q451 541 446 536 L112 200 Q106 193 102.5 186.5 Q99 180 99 170 L99 41 Q99 24 111 12 Q123 0 140 0 Q157 0 169 12 Q181 24 181 41 L181 136 Q181 144 184.5 151.5 Q188 159 193 164 L529 500 Q535 507 538 513.5 Q541 520 541 530 L541 659 Q541 676 529 688 Q517 700 500 700 Q483 700 471 688 Q459 676 459 659 L459 564 Z " />
<glyph glyph-name="question" unicode="&#x3f;" horiz-adv-x="640" d="M334 -45 Q317 -45 304 -34.5 Q291 -24 286 -8 Q269 -4 259 10 Q249 24 249 41 L249 81 Q249 101 263.5 116.5 Q278 132 299 132 L340 132 Q357 132 370 121.5 Q383 111 388 95 Q405 90 415 76.5 Q425 63 425 46 L425 6 Q425 -15 411 -30 Q397 -45 375 -45 L334 -45 Z M586 473 Q586 463 583 454 Q580 445 572 437 L415 281 Q406 270 406 259 L406 209 Q406 188 392 173 Q378 158 356 158 Q339 158 325 168 Q311 178 306 195 Q290 200 279.5 213 Q269 226 269 244 L269 329 Q269 351 283 365 L439 521 Q449 531 449 543 Q449 551 441 559 L433 567 Q426 573 415 573 L295 573 Q283 573 274 564 L237 526 Q230 519 228 512 Q228 507 227 504 L227 493 Q227 471 211.5 456.5 Q196 442 175 442 Q158 442 144.5 452.5 Q131 463 126 479 Q110 484 99.5 497.5 Q89 511 89 528 L89 574 Q89 582 93.5 593.5 Q98 605 104 611 L190 695 Q205 710 225 710 L415 710 Q435 710 450 695 L536 611 L540 607 L571 576 Q578 569 582 558 Q586 547 586 539 L586 473 Z M541 574 Q541 589 529 604 L443 688 Q433 700 415 700 L225 700 Q208 700 197 688 L111 604 Q99 589 99 574 L99 528 Q99 511 111 499 Q123 487 140 487 Q157 487 169.5 499 Q182 511 182 528 L182 540 Q182 548 185.5 555.5 Q189 563 194 568 L231 606 Q236 611 244 614.5 Q252 618 260 618 L380 618 Q399 618 409 606 L448 566 Q459 557 459 543 Q459 535 455 527 Q451 519 446 514 L290 358 Q279 347 279 329 L279 244 Q279 227 291 215 Q303 203 321 203 Q338 203 349.5 215 Q361 227 361 244 L361 294 Q361 302 364.5 310 Q368 318 373 323 L530 479 Q541 490 541 508 L541 574 Z M340 0 Q357 0 368.5 12 Q380 24 380 41 L380 81 Q380 98 368.5 110 Q357 122 340 122 L299 122 Q282 122 270.5 110 Q259 98 259 81 L259 41 Q259 24 270.5 12 Q282 0 299 0 L340 0 Z " />
<glyph glyph-name="colon" unicode="&#x3a;" horiz-adv-x="640" d="M329 -45 Q312 -45 299 -34.5 Q286 -24 281 -8 Q264 -4 254 10 Q244 24 244 41 L244 91 Q244 111 258.5 126.5 Q273 142 294 142 L345 142 Q362 142 375.5 131.5 Q389 121 394 105 Q410 100 420.5 86.5 Q431 73 431 56 L431 6 Q431 -15 416 -30 Q401 -45 380 -45 L329 -45 Z M329 300 Q312 300 299 310.5 Q286 321 281 337 Q264 341 254 355 Q244 369 244 386 L244 436 Q244 456 258.5 471.5 Q273 487 294 487 L345 487 Q362 487 375.5 476.5 Q389 466 394 450 Q410 445 420.5 431.5 Q431 418 431 401 L431 351 Q431 330 416 315 Q401 300 380 300 L329 300 Z M345 0 Q362 0 374 12 Q386 24 386 41 L386 91 Q386 108 374 120 Q362 132 345 132 L294 132 Q277 132 265.5 120 Q254 108 254 91 L254 41 Q254 24 265.5 12 Q277 0 294 0 L345 0 Z M345 345 Q362 345 374 357 Q386 369 386 386 L386 436 Q386 453 374 465 Q362 477 345 477 L294 477 Q277 477 265.5 465 Q254 453 254 436 L254 386 Q254 369 265.5 357 Q277 345 294 345 L345 345 Z " />
<glyph glyph-name="semicolon" unicode="&#x3b;" horiz-adv-x="640" d="M329 300 Q312 300 299 310.5 Q286 321 281 337 Q264 341 254 355 Q244 369 244 386 L244 436 Q244 456 258.5 471.5 Q273 487 294 487 L345 487 Q362 487 375.5 476.5 Q389 466 394 450 Q410 445 420.5 431.5 Q431 418 431 401 L431 351 Q431 330 416 315 Q401 300 380 300 L329 300 Z M290 -17 Q288 -15 286 -8 Q269 -4 259 10 Q249 24 249 41 L249 80 Q249 100 263 116 Q277 132 299 132 L339 132 Q356 132 369.5 121.5 Q383 111 388 95 Q405 90 415 76 Q425 62 425 45 L425 -53 Q425 -62 421 -73 Q417 -84 410 -91 L367 -133 Q361 -139 352.5 -141.5 Q344 -144 336 -144 Q320 -144 308.5 -134 Q297 -124 295 -109 Q279 -107 269 -95 Q259 -83 259 -67 Q259 -59 262 -50.5 Q265 -42 271 -36 L290 -17 Z M299 122 Q282 122 270.5 109.5 Q259 97 259 80 L259 41 Q259 24 270.5 12 Q282 0 299 0 L322 0 L278 -43 Q269 -54 269 -67 Q269 -81 278 -90 Q287 -99 301 -99 Q316 -99 325 -90 L368 -48 Q380 -33 380 -18 L380 80 Q380 97 368 109.5 Q356 122 339 122 L299 122 Z M345 345 Q362 345 374 357 Q386 369 386 386 L386 436 Q386 453 374 465 Q362 477 345 477 L294 477 Q277 477 265.5 465 Q254 453 254 436 L254 386 Q254 369 265.5 357 Q277 345 294 345 L345 345 Z " />
<glyph glyph-name="less" unicode="&#x3c;" horiz-adv-x="640" d="M521 542 Q521 520 507 507 L342 342 Q336 335 332 328.5 Q328 322 328 314 Q328 301 340 287 L470 158 L473 155 L505 123 Q513 115 516 105.5 Q519 96 519 87 Q519 65 505 50 Q491 35 468 35 Q459 35 449 38 Q439 41 431 49 L398 82 L396 84 L169 312 Q154 327 154 349 Q154 371 169 386 L397 615 Q411 629 432 629 Q449 629 464 618.5 Q479 608 484 591 Q499 586 510 572.5 Q521 559 521 542 Z M176 379 Q164 367 164 349 Q164 330 176 319 L403 91 Q414 80 433 80 Q451 80 462.5 92 Q474 104 474 122 Q474 140 463 151 L301 312 Q283 330 283 349 Q283 369 300 384 L465 549 Q476 560 476 577 Q476 594 462.5 606.5 Q449 619 432 619 Q415 619 404 608 L176 379 Z " />
<glyph glyph-name="equal" unicode="&#x3d;" horiz-adv-x="640" d="M505 259 Q522 254 532 241 Q542 228 542 211 Q542 190 528.5 174.5 Q515 159 492 159 L218 159 Q200 159 187 169 Q174 179 169 196 Q152 201 142 214.5 Q132 228 132 246 Q132 267 147.5 281.5 Q163 296 183 296 L457 296 Q474 296 487.5 285.5 Q501 275 505 259 Z M505 470 Q522 465 532 452 Q542 439 542 422 Q542 401 528.5 385.5 Q515 370 492 370 L218 370 Q200 370 187 380 Q174 390 169 407 Q152 412 142 425.5 Q132 439 132 457 Q132 478 147.5 492.5 Q163 507 183 507 L457 507 Q474 507 487.5 496.5 Q501 486 505 470 Z M183 497 Q166 497 154 485.5 Q142 474 142 457 Q142 439 154 427 Q166 415 183 415 L457 415 Q474 415 485.5 427 Q497 439 497 457 Q497 474 485.5 485.5 Q474 497 457 497 L183 497 Z M183 286 Q166 286 154 274.5 Q142 263 142 246 Q142 228 154 216 Q166 204 183 204 L457 204 Q474 204 485.5 216 Q497 228 497 246 Q497 263 485.5 274.5 Q474 286 457 286 L183 286 Z " />
<glyph glyph-name="greater" unicode="&#x3e;" horiz-adv-x="640" d="M507 277 L279 49 Q271 41 261.5 38 Q252 35 242 35 Q224 35 211 45 Q198 55 193 72 Q176 77 166 90.5 Q156 104 156 122 Q156 143 171 158 L332 319 Q347 334 347 349 Q347 363 333 377 L169 542 Q154 557 154 577 Q154 599 171 614 Q188 629 208 629 Q229 629 243 615 L278 580 L472 386 L507 351 Q515 343 518 332.5 Q521 322 521 314 Q521 304 518 294.5 Q515 285 507 277 Z M236 608 Q225 619 208 619 Q191 619 177.5 606.5 Q164 594 164 577 Q164 560 176 549 L340 384 Q357 369 357 349 Q357 330 339 312 L178 151 Q166 140 166 122 Q166 104 178 92 Q190 80 207 80 Q226 80 237 91 L465 319 Q476 330 476 349 Q476 366 465 379 L236 608 Z " />
<glyph glyph-name="at" unicode="&#x40;" horiz-adv-x="640" d="M432 568 Q425 573 415 573 L295 573 Q284 573 273 564 L235 526 Q226 515 226 505 L226 125 Q226 113 235 104 L238 101 Q247 92 260 92 L408 92 Q425 92 438 81.5 Q451 71 456 55 Q473 50 483 36.5 Q493 23 493 6 Q493 -15 479 -30 Q465 -45 443 -45 L259 -45 Q239 -45 224 -30 L139 54 Q137 54 137 57 L104 89 Q97 95 93 107 Q89 119 89 127 L89 574 Q89 582 93.5 593.5 Q98 605 104 611 L189 695 Q204 710 224 710 L414 710 Q434 710 450 695 L537 611 Q540 608 541 606 L572 576 Q579 570 582.5 558.5 Q586 547 586 539 L586 186 Q586 165 571 150 Q556 135 535 135 L421 135 Q411 135 401 138.5 Q391 142 383 150 L348 185 L318 215 L283 250 Q276 257 272.5 267 Q269 277 269 286 L269 457 Q269 478 284.5 492.5 Q300 507 320 507 Q337 507 351 497 Q365 487 369 470 Q385 465 395.5 452 Q406 439 406 422 L406 285 Q406 282 406.5 279.5 Q407 277 408 274 Q413 272 438 272 Q449 272 449 282 L449 540 Q449 551 439 561 L432 568 Z M373 291 Q361 303 361 320 L361 457 Q361 474 349 485.5 Q337 497 320 497 Q303 497 291 485.5 Q279 474 279 457 L279 286 Q279 270 290 257 L355 192 Q369 180 386 180 L500 180 Q517 180 529 192 Q541 204 541 221 L541 574 Q541 590 530 604 L443 688 Q433 700 414 700 L224 700 Q207 700 196 688 L111 604 Q99 589 99 574 L99 127 Q99 111 111 96 L196 12 Q207 0 224 0 L408 0 Q425 0 436.5 12 Q448 24 448 41 Q448 58 436.5 70 Q425 82 408 82 L260 82 Q252 82 244 85.5 Q236 89 231 94 L193 132 Q188 137 184.5 144.5 Q181 152 181 160 L181 540 Q181 548 184.5 555.5 Q188 563 193 568 L231 606 Q236 611 244 614.5 Q252 618 260 618 L380 618 Q399 618 409 606 L446 568 Q451 563 455 555.5 Q459 548 459 540 L459 282 Q459 273 453 267.5 Q447 262 438 262 L419 262 Q411 262 403.5 265.5 Q396 269 391 274 L373 291 Z " />
<glyph glyph-name="backslash" unicode="&#x5c;" horiz-adv-x="640" d="M586 6 Q586 -15 571 -30 Q556 -45 535 -45 Q518 -45 504.5 -34.5 Q491 -24 486 -8 Q470 -3 459.5 10.5 Q449 24 449 41 L449 136 Q449 147 439 157 L105 493 Q89 509 89 530 L89 659 Q89 680 104 695 Q119 710 140 710 Q157 710 170.5 699.5 Q184 689 189 673 Q205 668 215.5 654.5 Q226 641 226 624 L226 529 Q226 517 235 508 L536 207 L571 172 Q579 164 582.5 154.5 Q586 145 586 135 L586 6 Z M181 659 Q181 676 169 688 Q157 700 140 700 Q123 700 111 688 Q99 676 99 659 L99 530 Q99 520 102.5 513.5 Q106 507 112 500 L446 164 Q451 159 455 151.5 Q459 144 459 136 L459 41 Q459 24 471 12 Q483 0 500 0 Q517 0 529 12 Q541 24 541 41 L541 170 Q541 187 529 200 L193 536 Q188 541 184.5 548.5 Q181 556 181 564 L181 659 Z " />
<glyph glyph-name="bracketleft" unicode="&#x5b;" horiz-adv-x="640" d="M279 -92 Q262 -92 248.5 -81.5 Q235 -71 230 -55 Q214 -50 203.5 -36.5 Q193 -23 193 -6 L193 705 Q193 726 208 741 Q223 756 244 756 L396 756 Q413 756 426 745.5 Q439 735 444 719 Q461 714 471 700.5 Q481 687 481 670 Q481 650 466.5 634.5 Q452 619 431 619 L371 619 Q354 619 342 607.5 Q330 596 330 579 L330 50 Q330 47 331 45 L336 45 L396 45 Q413 45 426 34.5 Q439 24 444 8 Q461 3 471 -10.5 Q481 -24 481 -41 Q481 -61 466.5 -76.5 Q452 -92 431 -92 L279 -92 Z M396 -47 Q413 -47 424.5 -35 Q436 -23 436 -6 Q436 11 424.5 23 Q413 35 396 35 L336 35 Q314 35 299.5 49.5 Q285 64 285 85 L285 614 Q285 635 299.5 649.5 Q314 664 336 664 L396 664 Q413 664 424.5 676 Q436 688 436 705 Q436 722 424.5 734 Q413 746 396 746 L244 746 Q227 746 215 734 Q203 722 203 705 L203 -6 Q203 -23 215 -35 Q227 -47 244 -47 L396 -47 Z " />
<glyph glyph-name="bracketright" unicode="&#x5d;" horiz-adv-x="640" d="M279 -92 Q262 -92 248.5 -81.5 Q235 -71 230 -55 Q214 -50 203.5 -36.5 Q193 -23 193 -6 Q193 15 208 30 Q223 45 244 45 L303 45 Q320 45 332 56.5 Q344 68 344 85 L344 614 L344 618 Q342 619 338 619 L279 619 Q262 619 248.5 629.5 Q235 640 230 656 Q214 661 203.5 674.5 Q193 688 193 705 Q193 726 208 741 Q223 756 244 756 L396 756 Q413 756 426 745.5 Q439 735 444 719 Q461 714 471 700.5 Q481 687 481 670 L481 -41 Q481 -61 466.5 -76.5 Q452 -92 431 -92 L279 -92 Z M396 -47 Q413 -47 424.5 -35 Q436 -23 436 -6 L436 705 Q436 722 424.5 734 Q413 746 396 746 L244 746 Q227 746 215 734 Q203 722 203 705 Q203 688 215 676 Q227 664 244 664 L303 664 Q325 664 339.5 649.5 Q354 635 354 614 L354 85 Q354 64 339.5 49.5 Q325 35 303 35 L244 35 Q227 35 215 23 Q203 11 203 -6 Q203 -23 215 -35 Q227 -47 244 -47 L396 -47 Z " />
<glyph glyph-name="bar" unicode="&#x7c;" horiz-adv-x="640" d="M369 748 Q386 743 396 729.5 Q406 716 406 699 L406 -69 Q406 -91 391.5 -105.5 Q377 -120 355 -120 Q338 -120 324.5 -110 Q311 -100 306 -83 Q290 -78 279.5 -65 Q269 -52 269 -34 L269 734 Q269 755 284 770 Q299 785 320 785 Q338 785 351 774.5 Q364 764 369 748 Z M279 -34 Q279 -51 291 -63 Q303 -75 320 -75 Q337 -75 349 -63 Q361 -51 361 -34 L361 734 Q361 751 349 763 Q337 775 320 775 Q303 775 291 763 Q279 751 279 734 L279 -34 Z " />
<glyph glyph-name="brokenbar" unicode="&#xa6;" horiz-adv-x="640" d="M369 270 Q385 265 395.5 252 Q406 239 406 222 L406 -69 Q406 -91 391.5 -105.5 Q377 -120 355 -120 Q338 -120 324.5 -110 Q311 -100 306 -83 Q290 -78 279.5 -65 Q269 -52 269 -34 L269 257 Q269 278 284.5 292.5 Q300 307 320 307 Q337 307 351 297 Q365 287 369 270 Z M369 748 Q386 743 396 729.5 Q406 716 406 699 L406 408 Q406 386 391 372 Q376 358 355 358 Q338 358 324.5 368 Q311 378 306 395 Q290 400 279.5 413 Q269 426 269 443 L269 734 Q269 755 284 770 Q299 785 320 785 Q338 785 351 774.5 Q364 764 369 748 Z M279 443 Q279 426 291 414.5 Q303 403 320 403 Q337 403 349 414.5 Q361 426 361 443 L361 734 Q361 751 349 763 Q337 775 320 775 Q303 775 291 763 Q279 751 279 734 L279 443 Z M279 -34 Q279 -51 291 -63 Q303 -75 320 -75 Q337 -75 349 -63 Q361 -51 361 -34 L361 257 Q361 274 349 285.5 Q337 297 320 297 Q303 297 291 285.5 Q279 274 279 257 L279 -34 Z " />
<glyph glyph-name="exclamdown" unicode="&#xa1;" horiz-adv-x="640" d="M406 6 Q406 -15 391 -30 Q376 -45 355 -45 Q338 -45 324.5 -35 Q311 -25 306 -8 Q290 -3 279.5 10 Q269 23 269 41 L269 457 Q269 478 284.5 492.5 Q300 507 320 507 Q337 507 350.5 496.5 Q364 486 369 470 Q385 465 395.5 452 Q406 439 406 422 L406 6 Z M388 673 Q405 668 415 654.5 Q425 641 425 624 L425 584 Q425 563 411 548 Q397 533 375 533 L334 533 Q317 533 304 543.5 Q291 554 286 570 Q269 574 259 588 Q249 602 249 619 L249 659 Q249 679 263.5 694.5 Q278 710 299 710 L340 710 Q357 710 370 699.5 Q383 689 388 673 Z M299 700 Q282 700 270.5 688 Q259 676 259 659 L259 619 Q259 602 270.5 590 Q282 578 299 578 L340 578 Q357 578 368.5 590 Q380 602 380 619 L380 659 Q380 676 368.5 688 Q357 700 340 700 L299 700 Z M361 457 Q361 474 349 485.5 Q337 497 320 497 Q303 497 291 485.5 Q279 474 279 457 L279 41 Q279 24 291 12 Q303 0 320 0 Q337 0 349 12 Q361 24 361 41 L361 457 Z " />
<glyph glyph-name="underscore" unicode="&#x5f;" horiz-adv-x="640" d="M549 8 Q565 3 575.5 -10.5 Q586 -24 586 -41 Q586 -62 571 -77 Q556 -92 535 -92 L175 -92 Q158 -92 144.5 -81.5 Q131 -71 126 -55 Q110 -50 99.5 -36.5 Q89 -23 89 -6 Q89 14 104.5 29.5 Q120 45 140 45 L500 45 Q517 45 530.5 34.5 Q544 24 549 8 Z M140 35 Q123 35 111 23 Q99 11 99 -6 Q99 -23 111 -35 Q123 -47 140 -47 L500 -47 Q517 -47 529 -35 Q541 -23 541 -6 Q541 11 529 23 Q517 35 500 35 L140 35 Z " />
<glyph glyph-name="asciicircum" unicode="&#x5e;" horiz-adv-x="640" d="M391 661 L503 549 L538 514 Q546 506 549 495.5 Q552 485 552 476 Q552 453 536.5 439.5 Q521 426 500 426 Q491 426 482 429 Q473 432 465 440 L430 475 L383 522 Q376 529 370 532 Q364 535 355 535 Q346 535 340 532 Q334 529 326 522 L244 440 Q232 426 210 426 Q193 426 178.5 436 Q164 446 159 463 Q143 468 132.5 480.5 Q122 493 122 511 Q122 520 125 530.5 Q128 541 136 549 L283 696 Q290 703 301 706.5 Q312 710 320 710 Q342 710 356 696 L391 661 Z M320 700 Q303 700 290 689 L143 542 Q137 536 134.5 527.5 Q132 519 132 511 Q132 494 144 482.5 Q156 471 175 471 Q190 471 202 482 L284 564 Q299 580 320 580 Q340 580 355 564 L437 482 Q449 471 465 471 Q483 471 495 482.5 Q507 494 507 511 Q507 519 504.5 527.5 Q502 536 496 542 L349 689 Q343 695 335.5 697.5 Q328 700 320 700 Z " />
<glyph glyph-name="cent" unicode="&#xa2;" horiz-adv-x="640" d="M268 537 L235 505 Q226 494 226 483 L226 147 Q226 137 232 129 L260 101 Q263 98 264 97.5 Q265 97 266 97 Q268 99 268 104 L268 537 Z M535 401 Q518 401 505 411.5 Q492 422 487 438 Q470 443 459.5 457 Q449 471 449 488 Q449 496 449.5 503.5 Q450 511 449 519 Q448 524 446 529.5 Q444 535 439 540 L413 566 Q411 568 408 568 Q406 567 406 567 Q406 566 406 566 Q405 565 405 561 L405 126 L439 160 Q444 165 446 170.5 Q448 176 449 181 Q450 189 449.5 196.5 Q449 204 449 212 Q449 232 464 248 Q479 264 500 264 Q517 264 530.5 253 Q544 242 549 227 Q565 222 575.5 208 Q586 194 586 177 L586 112 Q586 100 582.5 92.5 Q579 85 571 77 L465 -31 Q455 -42 440 -44 Q434 -45 427.5 -45 Q421 -45 415 -45 Q410 -45 409 -46.5 Q408 -48 407 -50 Q406 -52 406 -53.5 Q406 -55 405 -58 L405 -69 Q405 -91 390.5 -105.5 Q376 -120 354 -120 Q337 -120 323.5 -110 Q310 -100 305 -83 Q291 -79 281 -68.5 Q271 -58 269 -44 Q254 -41 243 -30 L213 1 Q209 3 208 5 L104 111 Q89 126 89 147 L89 553 Q89 574 104 589 L208 695 Q218 706 233 708 Q241 710 246 710 L258 710 Q263 710 264.5 711 Q266 712 267 714 Q267 716 267.5 718 Q268 720 268 723 L268 734 Q268 755 283 770 Q298 785 319 785 Q337 785 350 774.5 Q363 764 368 748 Q399 740 404 708 L406 708 Q420 706 430 696 L461 665 Q462 663 463 662.5 Q464 662 465 661 L571 553 Q586 538 586 518 L586 453 Q586 433 571 417 Q556 401 535 401 Z M360 734 Q360 751 348 763 Q336 775 319 775 Q302 775 290 763 Q278 751 278 734 L278 720 Q278 700 258 700 L247 700 Q229 700 215 688 L111 582 Q99 570 99 553 L99 147 Q99 130 111 118 L215 12 Q229 0 247 0 L258 0 Q278 0 278 -20 L278 -34 Q278 -51 290 -63 Q302 -75 319 -75 Q336 -75 348 -63 Q360 -51 360 -34 L360 -20 Q360 0 380 0 L394 0 Q410 0 423 11 L529 119 Q541 130 541 147 L541 212 Q541 229 529 241.5 Q517 254 500 254 Q483 254 471 241.5 Q459 229 459 212 L459 182 Q459 174 455 166 Q451 158 446 153 L388 94 Q381 87 373 87 Q360 87 360 104 L360 596 Q360 613 373 613 Q381 613 388 606 L446 547 Q451 542 455 534 Q459 526 459 518 L459 488 Q459 471 471 458.5 Q483 446 500 446 Q517 446 529 458.5 Q541 471 541 488 L541 553 Q541 571 529 581 L423 689 Q410 700 394 700 L380 700 Q360 700 360 720 L360 734 Z M278 104 Q278 87 266 87 Q258 87 253 94 L193 153 Q181 163 181 182 L181 518 Q181 537 193 547 L253 606 Q258 613 266 613 Q278 613 278 596 L278 104 Z " />
<glyph glyph-name="braceleft" unicode="&#x7b;" horiz-adv-x="640" d="M473 -93 L406 -93 Q386 -93 370 -77 L335 -42 L285 8 L250 43 Q236 57 236 79 L236 229 Q236 241 226 251 L199 278 L164 313 Q150 327 150 349 Q150 371 164 385 L226 447 Q236 457 236 469 L236 620 Q236 628 239.5 639 Q243 650 250 656 L336 740 Q344 748 351 752 Q358 756 371 756 L438 756 Q455 756 468.5 745.5 Q482 735 487 719 Q503 714 513.5 700.5 Q524 687 524 670 Q524 649 509.5 633.5 Q495 618 473 618 L441 618 Q430 618 419 609 L382 572 Q373 561 373 550 L373 399 Q373 379 362 365.5 Q351 352 340 342 Q332 336 329 333 Q327 331 324.5 329 Q322 327 320 325 Q313 317 313 314 Q313 313 314 312 Q322 304 328 295 L329 294 Q332 291 340 285 Q351 275 362 261.5 Q373 248 373 229 L373 79 Q373 66 382 57 L384 55 Q389 50 394 48.5 Q399 47 407 46 Q415 45 422.5 45.5 Q430 46 438 46 Q455 46 468.5 35.5 Q482 25 487 9 Q503 4 513.5 -9.5 Q524 -23 524 -40 Q524 -61 510 -77 Q496 -93 473 -93 Z M274 336 Q268 341 268 349 Q268 357 274 362 L317 405 Q323 411 325.5 418.5 Q328 426 328 434 L328 585 Q328 593 331.5 601 Q335 609 340 614 L377 651 Q382 656 390 659.5 Q398 663 406 663 L438 663 Q455 663 467 675.5 Q479 688 479 705 Q479 722 467 734 Q455 746 438 746 L371 746 Q353 746 343 733 L257 649 Q246 636 246 620 L246 469 Q246 461 242 453 Q238 445 233 440 L171 378 Q160 367 160 349 Q160 341 162.5 333.5 Q165 326 171 320 L233 258 Q238 253 242 245 Q246 237 246 229 L246 79 Q246 71 248.5 63.5 Q251 56 257 50 L342 -35 Q355 -48 371 -48 L438 -48 Q455 -48 467 -35 Q479 -22 479 -5 Q479 12 467 24 Q455 36 438 36 L406 36 Q398 36 390 39.5 Q382 43 377 48 L340 85 Q335 90 331.5 98 Q328 106 328 114 L328 264 Q328 282 317 293 L274 336 Z " />
<glyph glyph-name="braceright" unicode="&#x7d;" horiz-adv-x="640" d="M361 352 Q358 355 355.5 358 Q353 361 351 363 L346 368 Q344 370 341 373 Q338 376 335 378 Q324 389 313 402.5 Q302 416 302 434 L302 585 Q302 598 293 607 L291 609 Q286 614 281 615.5 Q276 617 269 618 Q261 619 253 618.5 Q245 618 237 618 Q220 618 207 628.5 Q194 639 189 655 Q172 660 161.5 674 Q151 688 151 705 Q151 725 166.5 740.5 Q182 756 202 756 L269 756 Q282 756 289 752 Q296 748 304 740 L389 656 Q391 654 392 652 L424 621 Q432 614 435.5 604.5 Q439 595 439 585 L439 434 Q439 421 448 412 L475 385 L510 350 Q518 342 521 332.5 Q524 323 524 314 Q524 304 521 294.5 Q518 285 510 278 L448 216 Q439 205 439 194 L439 44 Q439 22 424 8 L340 -77 Q326 -93 304 -93 L237 -93 Q220 -93 207 -82.5 Q194 -72 189 -56 Q172 -51 161.5 -36.5 Q151 -22 151 -5 Q151 15 166.5 30.5 Q182 46 202 46 L234 46 Q247 46 256 55 L293 92 Q302 101 302 114 L302 264 Q302 282 313 296 Q324 310 335 320 Q338 322 341 325 Q344 328 346 330 Q352 335 355 339 Q360 344 361 346 Q362 348 362 349 Q362 351 361 352 Z M324 293 Q312 281 312 264 L312 114 Q312 106 308.5 98 Q305 90 300 85 L263 48 Q253 36 234 36 L202 36 Q185 36 173 24 Q161 12 161 -5 Q161 -22 173 -35 Q185 -48 202 -48 L269 -48 Q285 -48 298 -35 L382 50 Q389 56 391.5 63.5 Q394 71 394 79 L394 229 Q394 237 397.5 245 Q401 253 406 258 L468 320 Q474 326 476.5 333.5 Q479 341 479 349 Q479 367 468 378 L406 440 Q401 445 397.5 453 Q394 461 394 469 L394 620 Q394 627 391 635 Q388 643 382 649 L297 733 Q287 746 269 746 L202 746 Q185 746 173 734 Q161 722 161 705 Q161 688 173 675.5 Q185 663 202 663 L234 663 Q253 663 263 651 L300 614 Q305 609 308.5 601 Q312 593 312 585 L312 434 Q312 417 324 405 L365 362 Q372 357 372 349 Q372 341 365 336 L324 293 Z " />
<glyph glyph-name="yen" unicode="&#xa5;" horiz-adv-x="640" d="M260 380 L140 500 L105 535 Q89 549 89 572 L89 659 Q89 680 104 695 Q119 710 140 710 Q157 710 170.5 699.5 Q184 689 189 673 Q205 668 215.5 654.5 Q226 641 226 624 L226 572 Q226 561 235 550 L291 494 Q303 482 320 482 Q337 482 349 494 L440 585 Q449 594 449 607 L449 659 Q449 680 464 695 Q479 710 500 710 Q517 710 530.5 699.5 Q544 689 549 673 Q565 668 575.5 654.5 Q586 641 586 624 L586 537 Q586 514 571 500 L435 364 Q446 364 458 363 Q470 362 480 357 Q502 347 506 325 Q508 324 511 323.5 Q514 323 516 322 Q542 309 542 277 Q542 256 528 241 Q514 226 492 226 L416 226 Q414 226 413.5 225.5 Q413 225 411 225 L457 225 Q474 225 487.5 214.5 Q501 204 505 188 Q522 183 532 170 Q542 157 542 140 Q542 119 528.5 103.5 Q515 88 492 88 L416 88 Q406 88 406 78 L406 6 Q406 -16 391.5 -30.5 Q377 -45 355 -45 Q338 -45 324.5 -35 Q311 -25 306 -8 Q290 -3 279.5 10 Q269 23 269 41 L269 88 L217 88 Q199 88 186 98 Q173 108 168 125 Q151 130 141 143.5 Q131 157 131 175 Q131 196 146.5 210.5 Q162 225 182 225 L259 225 Q263 225 264 226 L217 226 Q200 226 186.5 236 Q173 246 168 263 Q152 268 141.5 281 Q131 294 131 312 Q131 329 138.5 340.5 Q146 352 158 357 Q169 362 182.5 363 Q196 364 209 364 Q221 363 233 362 Q245 361 254 362 Q262 363 265 365 Q266 366 266 368 Q266 374 260 380 Z M276 368 Q276 353 259 353 L182 353 Q165 353 153 341 Q141 329 141 312 Q141 295 153 283 Q165 271 182 271 L259 271 Q279 271 279 251 L279 235 Q279 215 259 215 L182 215 Q165 215 153 203.5 Q141 192 141 175 Q141 157 153 145 Q165 133 182 133 L259 133 Q279 133 279 113 L279 41 Q279 24 291 12 Q303 0 320 0 Q337 0 349 12 Q361 24 361 41 L361 113 Q361 133 381 133 L457 133 Q474 133 485.5 145 Q497 157 497 175 Q497 192 485.5 203.5 Q474 215 457 215 L381 215 Q361 215 361 235 L361 251 Q361 271 381 271 L457 271 Q474 271 485.5 283 Q497 295 497 312 Q497 329 485.5 341 Q474 353 457 353 L381 353 Q364 353 364 368 Q364 378 373 387 L529 542 Q541 556 541 572 L541 659 Q541 676 529 688 Q517 700 500 700 Q483 700 471 688 Q459 676 459 659 L459 607 Q459 599 455.5 591 Q452 583 447 578 L356 487 Q341 472 320 472 Q299 472 284 487 L193 578 Q181 588 181 607 L181 659 Q181 676 169 688 Q157 700 140 700 Q123 700 111 688 Q99 676 99 659 L99 572 Q99 563 102.5 556 Q106 549 112 542 L267 387 Q276 378 276 368 Z " />
<glyph glyph-name="grave" unicode="&#x60;" horiz-adv-x="640" d="M349 947 L397 899 L432 864 Q447 849 447 827 Q447 805 431 791 Q415 777 395 777 Q386 777 376.5 780 Q367 783 359 791 L324 826 L276 874 L241 909 Q226 924 226 945 Q226 966 241 981 Q256 996 277 996 Q285 996 296 992.5 Q307 989 314 982 L349 947 Z M331 833 Q337 827 344.5 824.5 Q352 822 360 822 Q377 822 389.5 833.5 Q402 845 402 862 Q402 879 390 892 L307 975 Q294 986 277 986 Q260 986 248 974 Q236 962 236 945 Q236 927 248 916 L331 833 Z " />
<glyph glyph-name="acute" unicode="&#xb4;" horiz-adv-x="640" d="M410 958 Q426 953 436.5 940 Q447 927 447 910 Q447 889 432 875 L349 791 Q343 784 332 780.5 Q321 777 313 777 Q296 777 282 787 Q268 797 263 814 Q248 819 237 832 Q226 845 226 862 Q226 883 242 899 L324 982 Q331 989 341.5 992.5 Q352 996 360 996 Q377 996 391 985.5 Q405 975 410 958 Z M390 917 Q402 928 402 945 Q402 962 389.5 974 Q377 986 360 986 Q344 986 331 975 L249 892 Q236 879 236 862 Q236 845 248.5 833.5 Q261 822 278 822 Q294 822 307 833 L390 917 Z " />
<glyph glyph-name="circumflex" unicode="&#x2c6;" horiz-adv-x="640" d="M449 887 L482 855 Q489 849 491.5 838 Q494 827 494 821 Q494 801 482 789 Q470 777 450 777 Q432 777 418 788 Q415 790 412 793 Q409 796 406 798 Q404 801 401 804 Q398 807 396 809 Q392 814 389 817 Q386 820 383 823 L383 823 Q381 825 379 826 Q377 827 375 829 Q365 836 356 836 Q345 836 336 828.5 Q327 821 316 809 Q313 807 310.5 804 Q308 801 305 798 Q302 796 299.5 793 Q297 790 293 788 Q280 777 261 777 Q245 777 232.5 787 Q220 797 217 813 Q202 816 191.5 827.5 Q181 839 181 856 Q181 863 184.5 873.5 Q188 884 194 890 L289 983 Q302 996 321 996 Q340 996 353 983 L447 890 Q449 888 449 887 Z M289 867 Q301 881 321 881 Q340 881 352 867 L389 831 Q400 822 415 822 Q430 822 439.5 831.5 Q449 841 449 856 Q449 871 440 883 L346 976 Q335 986 321 986 Q305 986 296 976 L201 883 Q191 870 191 856 Q191 842 201.5 832 Q212 822 226 822 Q242 822 251 831 L289 867 Z " />
<glyph glyph-name="caron" unicode="&#x2c7;" horiz-adv-x="640" d="M458 960 Q474 957 484 944 Q494 931 494 915 Q494 907 490.5 897.5 Q487 888 481 883 L388 789 Q382 782 373 779.5 Q364 777 356 777 Q349 777 339 779.5 Q329 782 322 789 L290 821 L287 824 L194 918 Q181 931 181 950 Q181 967 194 981.5 Q207 996 226 996 Q243 996 258 984 Q261 982 264 979 Q267 976 269 974 Q272 971 274.5 968 Q277 965 280 962 Q282 959 288 953 Q290 952 290.5 951 Q291 950 293 949 Q297 946 303 940 Q313 935 321 935 Q331 935 341 943 Q350 949 361 962 Q363 965 366 968 Q369 971 371 974 Q374 976 377 979 Q380 982 383 984 Q397 996 414 996 Q431 996 443 985.5 Q455 975 458 960 Z M252 976 Q241 986 226 986 Q212 986 201.5 975 Q191 964 191 950 Q191 936 201 925 L294 831 Q305 822 321 822 Q336 822 346 831 L439 925 Q449 937 449 950 Q449 965 438.5 975.5 Q428 986 414 986 Q400 986 389 976 L352 939 Q340 925 321 925 Q300 925 288 939 L252 976 Z " />
<glyph glyph-name="breve" unicode="&#x2d8;" horiz-adv-x="640" d="M454 960 Q469 958 479 946.5 Q489 935 489 919 L489 876 Q489 860 479 849 L419 787 Q414 782 404.5 779.5 Q395 777 390 777 L320 777 Q315 777 306 779 Q297 781 292 787 L262 818 Q260 819 257 822 L197 884 Q186 895 186 911 L186 954 Q186 971 198.5 983.5 Q211 996 228 996 Q249 996 258 985 Q267 974 270 960 Q281 959 288 953.5 Q295 948 299 940.5 Q303 933 304.5 924.5 Q306 916 306 908 Q306 903 308 899 Q312 897 323 897 Q335 897 344 906 L360 922 Q367 929 368 935.5 Q369 942 369 954 Q369 972 382 984 Q395 996 412 996 Q428 996 439.5 985.5 Q451 975 454 960 Z M261 954 Q261 967 251.5 976.5 Q242 986 228 986 Q214 986 205 976.5 Q196 967 196 954 L196 911 Q196 899 204 891 L264 829 Q273 822 285 822 L355 822 Q366 822 376 829 L436 891 Q444 899 444 911 L444 954 Q444 967 435 976.5 Q426 986 412 986 Q398 986 388.5 976.5 Q379 967 379 954 L379 943 Q379 935 375.5 927.5 Q372 920 367 915 L351 899 Q346 894 338.5 890.5 Q331 887 323 887 L318 887 Q299 887 289 899 L273 915 Q268 920 264.5 927.5 Q261 935 261 943 L261 954 Z " />
<glyph glyph-name="ring" unicode="&#x2da;" horiz-adv-x="640" d="M360 894 Q359 894 358 894.5 Q357 895 355 895 Q341 895 327 881.5 Q313 868 313 854 Q313 852 313.5 851 Q314 850 314 848 Q316 847 320 847 Q334 847 347.5 861 Q361 875 361 889 Q361 892 360 894 Z M406 965 Q408 964 408.5 963.5 Q409 963 411 962 L464 907 Q472 898 472 884 L472 822 Q472 817 470 810 Q468 803 463 798 L410 745 Q406 740 398 738 Q390 736 385 736 L324 736 Q319 736 311.5 738.5 Q304 741 299 746 L264 781 L247 798 L212 833 Q208 837 205 844.5 Q202 852 202 857 L202 919 Q202 933 212 943 L264 996 Q269 1001 276.5 1003.5 Q284 1006 289 1006 L350 1006 Q354 1006 362.5 1004 Q371 1002 375 997 L406 965 Z M212 857 Q212 849 219 840 L271 788 Q280 781 289 781 L350 781 Q355 781 359.5 783 Q364 785 368 787 L421 840 Q427 848 427 857 L427 919 Q427 929 421 935 L368 990 Q364 992 359.5 994 Q355 996 350 996 L289 996 Q280 996 271 989 L219 936 Q212 929 212 919 L212 857 Z M291 928 Q301 940 320 940 Q328 940 335.5 936.5 Q343 933 348 928 L359 917 Q364 912 367.5 904.5 Q371 897 371 889 Q371 870 359 860 L348 849 Q343 844 335.5 840.5 Q328 837 320 837 Q301 837 291 849 L280 860 Q268 870 268 889 Q268 897 271.5 904.5 Q275 912 280 917 L291 928 Z " />
<glyph glyph-name="tilde" unicode="&#x2dc;" horiz-adv-x="640" d="M274 875 Q274 870 274.5 866 Q275 862 275 857 Q275 845 272 833 Q269 819 259.5 810 Q250 801 231 801 Q216 801 204 811.5 Q192 822 189 837 Q174 839 163.5 851 Q153 863 153 879 L153 930 Q153 946 164 957 L205 998 Q216 1009 232 1009 L283 1009 Q290 1009 298 1006.5 Q306 1004 311 998 L342 967 Q343 965 347 963 L387 922 Q393 914 395 906 L400 910 L400 927 Q400 933 400 939.5 Q400 946 402 952 Q406 965 415 974.5 Q424 984 443 984 Q459 984 471 973.5 Q483 963 485 948 Q501 946 511 934 Q521 922 521 906 L521 856 Q521 851 518.5 841.5 Q516 832 511 827 L468 787 Q463 782 457 779.5 Q451 777 442 777 L391 777 Q384 777 376.5 779.5 Q369 782 363 787 L322 827 Q321 829 320.5 829.5 Q320 830 319 832 L287 863 Q281 869 279 879 L274 875 Z M248 933 L268 933 L287 914 L287 891 Q287 878 294 870 L335 830 Q345 822 356 822 L407 822 Q420 822 426 830 L469 870 Q476 881 476 891 L476 941 Q476 955 466.5 964.5 Q457 974 443 974 Q429 974 419.5 964.5 Q410 955 410 941 L410 906 L392 888 L371 888 L352 906 L352 930 Q352 940 344 950 L304 991 Q294 999 283 999 L232 999 Q222 999 212 991 L171 950 Q163 942 163 930 L163 879 Q163 865 173 855.5 Q183 846 196 846 Q210 846 219.5 855.5 Q229 865 229 879 L229 914 L248 933 Z " />
<glyph glyph-name="hungarumlaut" unicode="&#x2dd;" horiz-adv-x="640" d="M321 959 Q334 956 342.5 947 Q351 938 356 926 L411 982 Q418 989 428.5 992.5 Q439 996 447 996 Q464 996 478 986 Q492 976 497 959 Q513 954 523.5 940.5 Q534 927 534 910 Q534 899 530.5 891 Q527 883 520 875 L438 791 Q431 784 419.5 780.5 Q408 777 400 777 Q383 777 369.5 787 Q356 797 351 814 Q339 818 330 826 Q321 834 317 846 L261 791 Q247 777 225 777 Q208 777 194.5 787 Q181 797 176 814 Q160 819 149.5 832 Q139 845 139 862 Q139 871 142 881 Q145 891 153 899 L237 982 Q251 996 273 996 Q290 996 303 985.5 Q316 975 321 959 Z M302 916 Q313 927 313 945 Q313 962 301.5 974 Q290 986 273 986 Q255 986 244 975 L160 892 Q149 881 149 862 Q149 845 161 833.5 Q173 822 190 822 Q208 822 219 833 L302 916 Z M477 917 Q489 928 489 945 Q489 962 476.5 974 Q464 986 447 986 Q431 986 418 975 L336 892 Q324 879 324 862 Q324 845 336 833.5 Q348 822 365 822 Q372 822 380.5 825 Q389 828 395 833 L477 917 Z " />
<glyph glyph-name="ogonek" unicode="&#x2db;" horiz-adv-x="640" d="M393 -84 Q393 -95 389 -103 Q385 -111 379 -118 Q375 -122 372 -125.5 Q369 -129 365 -133 Q361 -136 357.5 -139 Q354 -142 350 -146 Q342 -153 335.5 -159 Q329 -165 324 -171 Q313 -185 313 -194 Q313 -196 313.5 -197 Q314 -198 314 -200 Q316 -201 320 -201 Q328 -201 332.5 -198.5 Q337 -196 342 -191 L348 -185 Q350 -184 351.5 -183 Q353 -182 355 -180 Q363 -175 375 -175 Q389 -175 401 -184.5 Q413 -194 414 -211 Q428 -212 438.5 -221.5 Q449 -231 449 -247 Q449 -258 444 -266.5 Q439 -275 433 -281 Q424 -290 420 -293 Q417 -296 414 -298.5 Q411 -301 409 -303 Q400 -312 386 -312 L324 -312 Q316 -312 311 -310 Q306 -308 301 -303 L246 -250 Q245 -248 244.5 -247.5 Q244 -247 243 -245 L211 -214 Q207 -210 204.5 -202 Q202 -194 202 -190 L202 -128 Q202 -123 205 -115 Q208 -107 212 -103 L272 -45 Q277 -40 278.5 -34 Q280 -28 282 -20 Q283 -11 282.5 -1.5 Q282 8 282 17 Q281 26 282 36 Q283 46 287 54 Q295 73 320 73 Q334 73 345.5 63 Q357 53 358 38 Q372 36 382.5 26 Q393 16 393 1 L393 -84 Z M348 36 Q348 47 339.5 55 Q331 63 320 63 Q308 63 300 55 Q292 47 292 36 L292 -21 Q292 -29 288 -38 Q284 -47 279 -52 L219 -110 Q212 -121 212 -128 L212 -190 Q212 -194 214 -198.5 Q216 -203 218 -207 L273 -260 Q279 -267 289 -267 L351 -267 Q361 -267 367 -260 L396 -232 Q404 -222 404 -212 Q404 -201 395.5 -193 Q387 -185 375 -185 Q363 -185 355 -192 L349 -198 Q344 -203 336 -207 Q328 -211 320 -211 Q312 -211 303.5 -207 Q295 -203 290 -198 L281 -189 Q276 -184 272 -175.5 Q268 -167 268 -159 Q268 -151 272 -143 Q276 -135 281 -130 L339 -72 Q348 -61 348 -49 L348 36 Z " />
<glyph glyph-name="cedilla" unicode="&#xb8;" horiz-adv-x="640" d="M357 38 Q380 36 388 18 Q392 10 392.5 0.5 Q393 -9 393 -18 Q391 -38 393 -55 Q395 -69 398 -75 L427 -103 Q429 -105 430 -107 L462 -138 Q467 -142 469.5 -150 Q472 -158 472 -163 L472 -225 Q472 -230 469.5 -238 Q467 -246 463 -250 L408 -303 Q399 -312 385 -312 L323 -312 Q310 -312 300 -302 Q296 -298 290 -292.5 Q284 -287 278 -281 Q272 -275 269 -271 L265 -267 Q261 -263 254.5 -257.5 Q248 -252 242 -246 Q236 -239 230.5 -230.5 Q225 -222 225 -212 Q225 -195 237.5 -185 Q250 -175 264 -175 Q276 -175 284 -180 Q287 -182 291 -186 Q293 -187 297 -191 Q302 -196 307 -198.5 Q312 -201 320 -201 Q334 -201 347.5 -187 Q361 -173 361 -159 Q361 -152 355 -141 Q352 -139 349.5 -137 Q347 -135 345 -133 Q341 -129 337.5 -125.5 Q334 -122 331 -118 Q330 -116 326 -112 L324 -111 Q320 -107 316.5 -104 Q313 -101 309 -97 Q306 -94 302.5 -90.5 Q299 -87 296 -83 Q290 -76 285.5 -67.5 Q281 -59 281 -49 L281 36 Q281 53 293 63 Q305 73 320 73 Q344 73 353 53 Q355 50 355.5 46 Q356 42 357 38 Z M291 -49 Q291 -61 300 -72 L358 -130 Q363 -135 367 -143 Q371 -151 371 -159 Q371 -167 367 -175.5 Q363 -184 358 -189 L349 -198 Q344 -203 336 -207 Q328 -211 320 -211 Q312 -211 303.5 -207 Q295 -203 290 -198 L284 -192 Q276 -185 264 -185 Q253 -185 244 -193 Q235 -201 235 -212 Q235 -223 244 -232 L272 -260 Q278 -267 288 -267 L350 -267 Q360 -267 366 -260 L421 -207 Q423 -203 425 -198.5 Q427 -194 427 -190 L427 -128 Q427 -121 420 -110 L360 -52 Q355 -47 351 -38 Q347 -29 347 -21 L347 36 Q347 47 339 55 Q331 63 320 63 Q308 63 299.5 55 Q291 47 291 36 L291 -49 Z " />
<glyph glyph-name="dotaccent" unicode="&#x2d9;" horiz-adv-x="640" d="M339 792 Q322 792 309 802 Q296 812 291 829 Q275 833 264.5 846.5 Q254 860 254 877 L254 908 Q254 928 269 943 Q284 958 304 958 L335 958 Q352 958 365.5 947.5 Q379 937 383 921 Q400 916 410 903 Q420 890 420 873 L420 842 Q420 821 405.5 806.5 Q391 792 370 792 L339 792 Z M335 837 Q352 837 363.5 848.5 Q375 860 375 877 L375 908 Q375 925 363.5 936.5 Q352 948 335 948 L304 948 Q287 948 275.5 936.5 Q264 925 264 908 L264 877 Q264 860 275.5 848.5 Q287 837 304 837 L335 837 Z " />
<glyph glyph-name="dieresis" unicode="&#xa8;" horiz-adv-x="640" d="M255 787 Q238 787 225 797 Q212 807 207 824 Q191 828 180.5 841.5 Q170 855 170 872 L170 893 Q170 913 185 928 Q200 943 220 943 L240 943 Q257 943 271 933 Q285 923 289 906 Q305 901 315.5 888 Q326 875 326 858 L326 837 Q326 815 311 801 Q296 787 275 787 L255 787 Z M433 787 Q416 787 402.5 797 Q389 807 384 824 Q368 829 357.5 842 Q347 855 347 872 L347 893 Q347 914 362.5 928.5 Q378 943 398 943 L418 943 Q435 943 448.5 932.5 Q462 922 467 906 Q483 901 493.5 888 Q504 875 504 858 L504 837 Q504 816 488.5 801.5 Q473 787 453 787 L433 787 Z M418 832 Q435 832 447 843.5 Q459 855 459 872 L459 893 Q459 910 447 921.5 Q435 933 418 933 L398 933 Q381 933 369 921.5 Q357 910 357 893 L357 872 Q357 855 369 843.5 Q381 832 398 832 L418 832 Z M240 832 Q257 832 269 843.5 Q281 855 281 872 L281 893 Q281 910 269 921.5 Q257 933 240 933 L220 933 Q203 933 191.5 921.5 Q180 910 180 893 L180 872 Q180 855 191.5 843.5 Q203 832 220 832 L240 832 Z " />
<glyph glyph-name="overscore" unicode="&#xaf;" horiz-adv-x="640" d="M258 787 Q241 787 228 797 Q215 807 210 824 Q194 828 183.5 841.5 Q173 855 173 872 Q173 892 187 908 Q201 924 223 924 L415 924 Q432 924 445 913.5 Q458 903 463 887 Q480 882 490 868 Q500 854 500 837 Q500 816 485.5 801.5 Q471 787 450 787 L258 787 Z M415 832 Q432 832 443.5 843.5 Q455 855 455 872 Q455 889 443.5 901.5 Q432 914 415 914 L223 914 Q206 914 194.5 901.5 Q183 889 183 872 Q183 855 194.5 843.5 Q206 832 223 832 L415 832 Z " />
<glyph glyph-name="uni02C9" unicode="&#x2c9;" horiz-adv-x="640" d="M258 787 Q241 787 228 797 Q215 807 210 824 Q194 828 183.5 841.5 Q173 855 173 872 Q173 892 187 908 Q201 924 223 924 L415 924 Q432 924 445 913.5 Q458 903 463 887 Q480 882 490 868 Q500 854 500 837 Q500 816 485.5 801.5 Q471 787 450 787 L258 787 Z M415 832 Q432 832 443.5 843.5 Q455 855 455 872 Q455 889 443.5 901.5 Q432 914 415 914 L223 914 Q206 914 194.5 901.5 Q183 889 183 872 Q183 855 194.5 843.5 Q206 832 223 832 L415 832 Z " />
<glyph glyph-name="questiondown" unicode="&#xbf;" horiz-adv-x="640" d="M369 470 Q385 465 395.5 452 Q406 439 406 422 L406 336 Q406 314 392 300 L236 144 Q227 133 227 122 Q227 112 235 106 L243 97 Q251 92 260 92 L380 92 Q393 92 402 101 L439 139 Q444 144 445.5 147 Q447 150 448 153 Q448 155 448.5 157 Q449 159 449 161 L449 173 Q449 194 464.5 208.5 Q480 223 500 223 Q517 223 530.5 212.5 Q544 202 549 186 Q565 181 575.5 168 Q586 155 586 138 L586 91 Q586 83 582.5 71.5 Q579 60 572 53 L485 -31 Q477 -38 469 -41.5 Q461 -45 450 -45 L260 -45 Q240 -45 225 -30 L140 54 L137 57 L105 89 Q99 95 94 106 Q89 117 89 126 L89 192 Q89 213 104 228 L260 384 Q269 393 269 406 L269 457 Q269 478 284.5 492.5 Q300 507 320 507 Q337 507 351 497 Q365 487 369 470 Z M389 673 Q406 668 416 654.5 Q426 641 426 624 L426 584 Q426 563 412 548 Q398 533 376 533 L335 533 Q318 533 305 543.5 Q292 554 287 570 Q270 574 260 588 Q250 602 250 619 L250 659 Q250 679 264.5 694.5 Q279 710 300 710 L341 710 Q358 710 371 699.5 Q384 689 389 673 Z M99 126 Q99 118 103 110.5 Q107 103 112 96 L197 12 Q208 0 225 0 L415 0 Q433 0 443 12 L530 96 Q541 110 541 126 L541 173 Q541 190 529 201.5 Q517 213 500 213 Q483 213 471 201.5 Q459 190 459 173 L459 160 Q459 152 455 144.5 Q451 137 446 132 L409 94 Q399 82 380 82 L260 82 Q252 82 244 85.5 Q236 89 231 94 L192 134 Q187 138 184.5 144.5 Q182 151 182 157 Q182 165 185.5 173 Q189 181 194 186 L350 342 Q361 353 361 371 L361 457 Q361 474 349 485.5 Q337 497 320 497 Q303 497 291 485.5 Q279 474 279 457 L279 406 Q279 398 275.5 390 Q272 382 267 377 L111 221 Q99 209 99 192 L99 126 Z M300 700 Q283 700 271.5 688 Q260 676 260 659 L260 619 Q260 602 271.5 590 Q283 578 300 578 L341 578 Q358 578 369.5 590 Q381 602 381 619 L381 659 Q381 676 369.5 688 Q358 700 341 700 L300 700 Z " />
<glyph glyph-name="eogonek" unicode="&#x119;" horiz-adv-x="640" d="M548 673 Q564 668 574.5 654.5 Q585 641 585 624 Q585 603 570 588 Q555 573 534 573 L266 573 Q249 573 237.5 561 Q226 549 226 532 L226 407 Q226 403 227 401 L231 401 L430 401 Q447 401 461 390.5 Q475 380 480 363 Q496 358 506.5 345 Q517 332 517 315 Q517 294 501 279 Q485 264 465 264 L266 264 Q249 264 237.5 252 Q226 240 226 223 L226 98 Q226 94 227 92 L231 92 L499 92 Q518 92 530 81.5 Q542 71 547 55 Q565 50 575 35 Q585 20 585 3 L585 -84 Q585 -103 570 -118 Q567 -122 564 -125.5 Q561 -129 557 -133 Q553 -136 549.5 -139 Q546 -142 542 -146 Q534 -153 527.5 -159 Q521 -165 516 -171 Q505 -185 505 -194 Q505 -196 505.5 -197 Q506 -198 506 -200 Q508 -201 512 -201 Q520 -201 524.5 -198.5 Q529 -196 534 -191 L540 -185 Q542 -184 543.5 -183 Q545 -182 547 -180 Q555 -175 567 -175 Q581 -175 593 -184.5 Q605 -194 606 -211 Q620 -212 630.5 -221.5 Q641 -231 641 -247 Q641 -258 636 -266.5 Q631 -275 625 -281 Q622 -284 618.5 -287 Q615 -290 612 -293 Q609 -296 606 -298.5 Q603 -301 601 -303 Q592 -312 578 -312 L516 -312 Q508 -312 503 -310 Q498 -308 493 -303 L438 -250 Q437 -248 436.5 -247.5 Q436 -247 435 -245 L403 -214 Q399 -210 397.5 -204.5 Q396 -199 395 -194 Q394 -188 393.5 -181.5 Q393 -175 393 -168 Q393 -155 393.5 -144 Q394 -133 394 -128 Q394 -123 397 -115 Q400 -107 404 -103 L463 -45 L175 -45 Q158 -45 144.5 -34.5 Q131 -24 126 -8 Q110 -3 99.5 10.5 Q89 24 89 41 L89 659 Q89 680 104 695 Q119 710 140 710 L499 710 Q516 710 529.5 699.5 Q543 689 548 673 Z M99 41 Q99 24 111 12 Q123 0 140 0 L484 0 L484 -21 Q484 -29 480 -38 Q476 -47 471 -52 L411 -110 Q404 -121 404 -128 L404 -190 Q404 -194 406 -198.5 Q408 -203 410 -207 L465 -260 Q471 -267 481 -267 L543 -267 Q553 -267 559 -260 L588 -232 Q596 -222 596 -212 Q596 -201 587.5 -193 Q579 -185 567 -185 Q555 -185 547 -192 L541 -198 Q536 -203 528 -207 Q520 -211 512 -211 Q504 -211 495.5 -207 Q487 -203 482 -198 L473 -189 Q468 -184 464 -175.5 Q460 -167 460 -159 Q460 -151 464 -143 Q468 -135 473 -130 L531 -72 Q540 -61 540 -49 L540 38 Q540 55 529 68.5 Q518 82 499 82 L231 82 Q210 82 195.5 97 Q181 112 181 133 L181 258 Q181 279 195.5 294 Q210 309 231 309 L430 309 Q447 309 459.5 321 Q472 333 472 350 Q472 367 459.5 379 Q447 391 430 391 L231 391 Q210 391 195.5 406 Q181 421 181 442 L181 567 Q181 588 195.5 603 Q210 618 231 618 L499 618 Q516 618 528 630 Q540 642 540 659 Q540 676 528 688 Q516 700 499 700 L140 700 Q123 700 111 688 Q99 676 99 659 L99 41 Z " />
<glyph glyph-name="uni0326" unicode="&#x326;" horiz-adv-x="640" d="M411 -130 Q427 -135 437.5 -148 Q448 -161 448 -178 Q448 -189 444.5 -197 Q441 -205 434 -213 L351 -298 Q344 -305 333 -308.5 Q322 -312 314 -312 Q297 -312 283 -302 Q269 -292 264 -275 Q248 -270 237.5 -256.5 Q227 -243 227 -226 Q227 -215 231.5 -206 Q236 -197 243 -190 L325 -107 Q340 -92 361 -92 Q378 -92 392 -102.5 Q406 -113 411 -130 Z M391 -171 Q403 -161 403 -143 Q403 -127 390 -114 Q379 -102 361 -102 Q354 -102 346 -105 Q338 -108 332 -114 L250 -197 Q237 -210 237 -226 Q237 -242 251 -256 Q261 -267 279 -267 Q295 -267 308 -256 L391 -171 Z " />
<glyph glyph-name="Uogonek" unicode="&#x172;" horiz-adv-x="640" d="M549 673 Q565 668 575.5 654.5 Q586 641 586 624 L586 91 Q586 83 582.5 71.5 Q579 60 572 53 L516 -1 L516 -84 Q516 -92 513 -100.5 Q510 -109 504 -114 L446 -172 Q436 -182 436 -194 Q436 -196 436.5 -197 Q437 -198 437 -200 Q439 -201 443 -201 Q451 -201 455.5 -198.5 Q460 -196 465 -191 L471 -185 Q473 -184 474.5 -183 Q476 -182 478 -180 Q486 -175 498 -175 Q512 -175 524 -184.5 Q536 -194 537 -211 Q551 -212 561.5 -221.5 Q572 -231 572 -247 Q572 -258 567 -266.5 Q562 -275 556 -281 Q553 -285 549.5 -288 Q546 -291 543 -293 Q540 -296 537 -298.5 Q534 -301 532 -303 Q523 -312 509 -312 L447 -312 Q439 -312 434 -310 Q429 -308 424 -303 L369 -250 Q368 -248 367.5 -247.5 Q367 -247 366 -245 L334 -214 Q330 -210 328.5 -204 Q327 -198 326 -193 Q325 -188 324.5 -181.5 Q324 -175 324 -168 Q324 -155 324.5 -144 Q325 -133 325 -128 Q325 -123 328 -115 Q331 -107 335 -103 L394 -45 L259 -45 Q239 -45 224 -30 L139 54 Q139 54 137 57 L104 89 Q98 95 93.5 106.5 Q89 118 89 126 L89 659 Q89 680 104 695 Q119 710 140 710 Q157 710 170.5 699.5 Q184 689 189 673 Q205 668 215.5 654.5 Q226 641 226 624 L226 125 Q226 114 236 104 L242 97 Q250 92 259 92 L380 92 Q393 92 402 101 L439 139 Q449 149 449 160 L449 659 Q449 680 464 695 Q479 710 500 710 Q517 710 530.5 699.5 Q544 689 549 673 Z M181 659 Q181 676 169 688 Q157 700 140 700 Q123 700 111 688 Q99 676 99 659 L99 126 Q99 111 111 96 L196 12 Q207 0 224 0 L415 0 L415 -21 Q415 -29 411 -38 Q407 -47 402 -52 L342 -110 Q335 -121 335 -128 L335 -190 Q335 -194 337 -198.5 Q339 -203 341 -207 L396 -260 Q402 -267 412 -267 L474 -267 Q484 -267 490 -260 L519 -232 Q527 -222 527 -212 Q527 -201 518.5 -193 Q510 -185 498 -185 Q486 -185 478 -192 L472 -198 Q467 -203 459 -207 Q451 -211 443 -211 Q435 -211 426.5 -207 Q418 -203 413 -198 L404 -189 Q399 -184 395 -175.5 Q391 -167 391 -159 Q391 -151 395 -143 Q399 -135 404 -130 L462 -72 Q471 -61 471 -49 L471 39 L530 96 Q541 110 541 126 L541 659 Q541 676 529 688 Q517 700 500 700 Q483 700 471 688 Q459 676 459 659 L459 160 Q459 152 455 144.5 Q451 137 446 132 L409 94 Q399 82 380 82 L259 82 Q251 82 243 85.5 Q235 89 230 94 L193 132 Q188 137 184.5 144.5 Q181 152 181 160 L181 659 Z " />
<glyph glyph-name="uogonek" unicode="&#x173;" horiz-adv-x="640" d="M549 673 Q565 668 575.5 654.5 Q586 641 586 624 L586 91 Q586 83 582.5 71.5 Q579 60 572 53 L516 -1 L516 -84 Q516 -92 513 -100.5 Q510 -109 504 -114 L446 -172 Q436 -182 436 -194 Q436 -196 436.5 -197 Q437 -198 437 -200 Q439 -201 443 -201 Q451 -201 455.5 -198.5 Q460 -196 465 -191 L471 -185 Q473 -184 474.5 -183 Q476 -182 478 -180 Q486 -175 498 -175 Q512 -175 524 -184.5 Q536 -194 537 -211 Q551 -212 561.5 -221.5 Q572 -231 572 -247 Q572 -258 567 -266.5 Q562 -275 556 -281 Q553 -285 549.5 -288 Q546 -291 543 -293 Q540 -296 537 -298.5 Q534 -301 532 -303 Q523 -312 509 -312 L447 -312 Q439 -312 434 -310 Q429 -308 424 -303 L369 -250 Q368 -248 367.5 -247.5 Q367 -247 366 -245 L334 -214 Q330 -210 328.5 -204 Q327 -198 326 -193 Q325 -188 324.5 -181.5 Q324 -175 324 -168 Q324 -155 324.5 -144 Q325 -133 325 -128 Q325 -123 328 -115 Q331 -107 335 -103 L394 -45 L259 -45 Q239 -45 224 -30 L139 54 Q139 54 137 57 L104 89 Q98 95 93.5 106.5 Q89 118 89 126 L89 659 Q89 680 104 695 Q119 710 140 710 Q157 710 170.5 699.5 Q184 689 189 673 Q205 668 215.5 654.5 Q226 641 226 624 L226 125 Q226 114 236 104 L242 97 Q250 92 259 92 L380 92 Q393 92 402 101 L439 139 Q449 149 449 160 L449 659 Q449 680 464 695 Q479 710 500 710 Q517 710 530.5 699.5 Q544 689 549 673 Z M181 659 Q181 676 169 688 Q157 700 140 700 Q123 700 111 688 Q99 676 99 659 L99 126 Q99 111 111 96 L196 12 Q207 0 224 0 L415 0 L415 -21 Q415 -29 411 -38 Q407 -47 402 -52 L342 -110 Q335 -121 335 -128 L335 -190 Q335 -194 337 -198.5 Q339 -203 341 -207 L396 -260 Q402 -267 412 -267 L474 -267 Q484 -267 490 -260 L519 -232 Q527 -222 527 -212 Q527 -201 518.5 -193 Q510 -185 498 -185 Q486 -185 478 -192 L472 -198 Q467 -203 459 -207 Q451 -211 443 -211 Q435 -211 426.5 -207 Q418 -203 413 -198 L404 -189 Q399 -184 395 -175.5 Q391 -167 391 -159 Q391 -151 395 -143 Q399 -135 404 -130 L462 -72 Q471 -61 471 -49 L471 39 L530 96 Q541 110 541 126 L541 659 Q541 676 529 688 Q517 700 500 700 Q483 700 471 688 Q459 676 459 659 L459 160 Q459 152 455 144.5 Q451 137 446 132 L409 94 Q399 82 380 82 L259 82 Q251 82 243 85.5 Q235 89 230 94 L193 132 Q188 137 184.5 144.5 Q181 152 181 160 L181 659 Z " />
<glyph glyph-name="scedilla" unicode="&#x15f;" horiz-adv-x="640" d="M294 573 Q282 573 273 564 Q261 552 253 544 Q245 536 239 529 Q230 520 227 512 Q226 507 225.5 502 Q225 497 225 488 Q226 478 226 465.5 Q226 453 226 435 Q226 423 236 413 L242 406 Q250 401 259 401 L415 401 Q424 401 434 397 Q444 393 451 386 L537 301 Q539 299 540 297 L572 266 Q580 258 583 248.5 Q586 239 586 230 L586 91 Q586 83 582.5 71.5 Q579 60 572 53 L485 -31 Q477 -38 469 -41.5 Q461 -45 450 -45 L393 -45 L393 -56 Q393 -65 400 -75 L409 -84 Q413 -87 416.5 -90 Q420 -93 423 -97 Q426 -100 432 -108 Q435 -111 438 -113.5 Q441 -116 445 -119 L458 -132 Q464 -139 468.5 -146.5 Q473 -154 473 -163 L473 -225 Q473 -230 470.5 -238 Q468 -246 464 -250 L409 -303 Q400 -312 386 -312 L323 -312 Q310 -312 300 -302 Q296 -298 289.5 -292.5 Q283 -287 278 -281 Q272 -275 269 -271 Q268 -270 267 -269.5 Q266 -269 265 -267 Q260 -263 254 -257.5 Q248 -252 242 -246 Q236 -239 230.5 -230.5 Q225 -222 225 -212 Q225 -195 237.5 -185 Q250 -175 264 -175 Q276 -175 284 -180 Q286 -182 287.5 -183 Q289 -184 291 -185 Q295 -189 297 -190 Q302 -195 307.5 -198 Q313 -201 321 -201 Q334 -201 348 -187 Q362 -173 362 -159 Q362 -151 356 -142 Q353 -139 345 -133 Q341 -129 338 -125.5 Q335 -122 331 -119 Q329 -117 328 -115 Q327 -113 326 -111 L325 -111 Q321 -107 317.5 -104 Q314 -101 310 -97 Q302 -91 296 -83 Q290 -76 285.5 -67.5 Q281 -59 281 -49 L281 -45 L259 -45 Q239 -45 224 -30 L139 54 L136 57 L104 89 Q95 97 92 109.5 Q89 122 88 133 Q88 144 88.5 154.5 Q89 165 89 173 Q89 194 104.5 208.5 Q120 223 140 223 Q157 223 170.5 212.5 Q184 202 189 186 Q205 181 215.5 168 Q226 155 226 138 L226 126 Q227 123 227 118 Q229 110 236 104 L242 97 Q250 92 259 92 L380 92 Q393 92 402 101 Q413 113 421.5 121 Q430 129 436 135 Q445 145 448 153 Q450 158 450 177 Q450 186 449.5 199 Q449 212 449 230 Q449 240 439 252 L432 259 Q424 264 415 264 L259 264 Q250 264 240 268 Q230 272 223 279 L191 311 L188 314 L104 399 Q89 414 89 435 L89 574 Q89 582 93.5 593.5 Q98 605 104 611 L189 695 Q204 710 224 710 L415 710 Q435 710 450 695 L537 611 Q539 609 539.5 608 Q540 607 542 605 L572 576 Q581 568 583.5 555.5 Q586 543 587 532 Q588 520 587 509.5 Q586 499 586 493 Q586 472 571 457 Q556 442 535 442 Q518 442 504.5 452.5 Q491 463 486 479 Q470 484 459.5 497.5 Q449 511 449 528 Q449 543 448 547 Q446 554 439 561 L432 568 Q425 573 415 573 L294 573 Z M459 528 Q459 511 471 499 Q483 487 500 487 Q517 487 529 499 Q541 511 541 528 L541 574 Q541 590 530 604 L443 688 Q433 700 415 700 L224 700 Q207 700 196 688 L111 604 Q99 589 99 574 L99 435 Q99 418 111 406 L195 321 Q209 309 224 309 L380 309 Q398 309 410 297 L446 259 Q451 254 455 246 Q459 238 459 230 L459 160 Q459 152 455 144.5 Q451 137 446 132 L409 94 Q399 82 380 82 L259 82 Q251 82 243 85.5 Q235 89 230 94 L193 132 Q188 137 184.5 144.5 Q181 152 181 160 L181 173 Q181 190 169 201.5 Q157 213 140 213 Q123 213 111 201.5 Q99 190 99 173 L99 126 Q99 111 111 96 L196 12 Q207 0 224 0 L291 0 L291 -49 Q291 -61 300 -72 L359 -130 Q364 -135 368 -143 Q372 -151 372 -159 Q372 -167 368 -175.5 Q364 -184 359 -189 L350 -198 Q345 -203 337 -207 Q329 -211 321 -211 Q313 -211 304 -207 Q295 -203 290 -198 L284 -192 Q276 -185 264 -185 Q253 -185 244 -193 Q235 -201 235 -212 Q235 -223 244 -232 L272 -260 Q278 -267 288 -267 L351 -267 Q361 -267 367 -260 L422 -207 Q424 -203 426 -198.5 Q428 -194 428 -190 L428 -128 Q428 -121 421 -110 L361 -52 Q356 -47 352 -38 Q348 -29 348 -21 L348 0 L415 0 Q433 0 443 12 L530 96 Q541 110 541 126 L541 265 Q541 283 530 294 L444 379 Q430 391 415 391 L259 391 Q251 391 242.5 394.5 Q234 398 229 403 L193 441 Q188 446 184.5 454 Q181 462 181 470 L181 540 Q181 548 184.5 555.5 Q188 563 193 568 L230 606 Q235 611 243 614.5 Q251 618 259 618 L380 618 Q399 618 409 606 L446 568 Q451 563 455 555.5 Q459 548 459 540 L459 528 Z " />
<glyph glyph-name="Scedilla" unicode="&#x15e;" horiz-adv-x="640" d="M294 573 Q282 573 273 564 Q261 552 253 544 Q245 536 239 529 Q230 520 227 512 Q226 507 225.5 502 Q225 497 225 488 Q226 478 226 465.5 Q226 453 226 435 Q226 423 236 413 L242 406 Q250 401 259 401 L415 401 Q424 401 434 397 Q444 393 451 386 L537 301 Q539 299 540 297 L572 266 Q580 258 583 248.5 Q586 239 586 230 L586 91 Q586 83 582.5 71.5 Q579 60 572 53 L485 -31 Q477 -38 469 -41.5 Q461 -45 450 -45 L393 -45 L393 -56 Q393 -65 400 -75 L409 -84 Q413 -87 416.5 -90 Q420 -93 423 -97 Q426 -100 432 -108 Q435 -111 438 -113.5 Q441 -116 445 -119 L458 -132 Q464 -139 468.5 -146.5 Q473 -154 473 -163 L473 -225 Q473 -230 470.5 -238 Q468 -246 464 -250 L409 -303 Q400 -312 386 -312 L323 -312 Q310 -312 300 -302 Q296 -298 289.5 -292.5 Q283 -287 278 -281 Q272 -275 269 -271 Q268 -270 267 -269.5 Q266 -269 265 -267 Q260 -263 254 -257.5 Q248 -252 242 -246 Q236 -239 230.5 -230.5 Q225 -222 225 -212 Q225 -195 237.5 -185 Q250 -175 264 -175 Q276 -175 284 -180 Q286 -182 287.5 -183 Q289 -184 291 -185 Q295 -189 297 -190 Q302 -195 307.5 -198 Q313 -201 321 -201 Q334 -201 348 -187 Q362 -173 362 -159 Q362 -151 356 -142 Q353 -139 345 -133 Q341 -129 338 -125.5 Q335 -122 331 -119 Q329 -117 328 -115 Q327 -113 326 -111 L325 -111 Q321 -107 317.5 -104 Q314 -101 310 -97 Q302 -91 296 -83 Q290 -76 285.5 -67.5 Q281 -59 281 -49 L281 -45 L259 -45 Q239 -45 224 -30 L139 54 L136 57 L104 89 Q95 97 92 109.5 Q89 122 88 133 Q88 144 88.5 154.5 Q89 165 89 173 Q89 194 104.5 208.5 Q120 223 140 223 Q157 223 170.5 212.5 Q184 202 189 186 Q205 181 215.5 168 Q226 155 226 138 L226 126 Q227 123 227 118 Q229 110 236 104 L242 97 Q250 92 259 92 L380 92 Q393 92 402 101 Q413 113 421.5 121 Q430 129 436 135 Q445 145 448 153 Q450 158 450 177 Q450 186 449.5 199 Q449 212 449 230 Q449 240 439 252 L432 259 Q424 264 415 264 L259 264 Q250 264 240 268 Q230 272 223 279 L191 311 L188 314 L104 399 Q89 414 89 435 L89 574 Q89 582 93.5 593.5 Q98 605 104 611 L189 695 Q204 710 224 710 L415 710 Q435 710 450 695 L537 611 Q539 609 539.5 608 Q540 607 542 605 L572 576 Q581 568 583.5 555.5 Q586 543 587 532 Q588 520 587 509.5 Q586 499 586 493 Q586 472 571 457 Q556 442 535 442 Q518 442 504.5 452.5 Q491 463 486 479 Q470 484 459.5 497.5 Q449 511 449 528 Q449 543 448 547 Q446 554 439 561 L432 568 Q425 573 415 573 L294 573 Z M459 528 Q459 511 471 499 Q483 487 500 487 Q517 487 529 499 Q541 511 541 528 L541 574 Q541 590 530 604 L443 688 Q433 700 415 700 L224 700 Q207 700 196 688 L111 604 Q99 589 99 574 L99 435 Q99 418 111 406 L195 321 Q209 309 224 309 L380 309 Q398 309 410 297 L446 259 Q451 254 455 246 Q459 238 459 230 L459 160 Q459 152 455 144.5 Q451 137 446 132 L409 94 Q399 82 380 82 L259 82 Q251 82 243 85.5 Q235 89 230 94 L193 132 Q188 137 184.5 144.5 Q181 152 181 160 L181 173 Q181 190 169 201.5 Q157 213 140 213 Q123 213 111 201.5 Q99 190 99 173 L99 126 Q99 111 111 96 L196 12 Q207 0 224 0 L291 0 L291 -49 Q291 -61 300 -72 L359 -130 Q364 -135 368 -143 Q372 -151 372 -159 Q372 -167 368 -175.5 Q364 -184 359 -189 L350 -198 Q345 -203 337 -207 Q329 -211 321 -211 Q313 -211 304 -207 Q295 -203 290 -198 L284 -192 Q276 -185 264 -185 Q253 -185 244 -193 Q235 -201 235 -212 Q235 -223 244 -232 L272 -260 Q278 -267 288 -267 L351 -267 Q361 -267 367 -260 L422 -207 Q424 -203 426 -198.5 Q428 -194 428 -190 L428 -128 Q428 -121 421 -110 L361 -52 Q356 -47 352 -38 Q348 -29 348 -21 L348 0 L415 0 Q433 0 443 12 L530 96 Q541 110 541 126 L541 265 Q541 283 530 294 L444 379 Q430 391 415 391 L259 391 Q251 391 242.5 394.5 Q234 398 229 403 L193 441 Q188 446 184.5 454 Q181 462 181 470 L181 540 Q181 548 184.5 555.5 Q188 563 193 568 L230 606 Q235 611 243 614.5 Q251 618 259 618 L380 618 Q399 618 409 606 L446 568 Q451 563 455 555.5 Q459 548 459 540 L459 528 Z " />
<glyph glyph-name="Eogonek" unicode="&#x118;" horiz-adv-x="640" d="M548 673 Q564 668 574.5 654.5 Q585 641 585 624 Q585 603 570 588 Q555 573 534 573 L266 573 Q249 573 237.5 561 Q226 549 226 532 L226 407 Q226 403 227 401 L231 401 L430 401 Q447 401 461 390.5 Q475 380 480 363 Q496 358 506.5 345 Q517 332 517 315 Q517 294 501 279 Q485 264 465 264 L266 264 Q249 264 237.5 252 Q226 240 226 223 L226 98 Q226 94 227 92 L231 92 L499 92 Q518 92 530 81.5 Q542 71 547 55 Q565 50 575 35 Q585 20 585 3 L585 -84 Q585 -103 570 -118 Q567 -122 564 -125.5 Q561 -129 557 -133 Q553 -136 549.5 -139 Q546 -142 542 -146 Q534 -153 527.5 -159 Q521 -165 516 -171 Q505 -185 505 -194 Q505 -196 505.5 -197 Q506 -198 506 -200 Q508 -201 512 -201 Q520 -201 524.5 -198.5 Q529 -196 534 -191 L540 -185 Q542 -184 543.5 -183 Q545 -182 547 -180 Q555 -175 567 -175 Q581 -175 593 -184.5 Q605 -194 606 -211 Q620 -212 630.5 -221.5 Q641 -231 641 -247 Q641 -258 636 -266.5 Q631 -275 625 -281 Q622 -284 618.5 -287 Q615 -290 612 -293 Q609 -296 606 -298.5 Q603 -301 601 -303 Q592 -312 578 -312 L516 -312 Q508 -312 503 -310 Q498 -308 493 -303 L438 -250 Q437 -248 436.5 -247.5 Q436 -247 435 -245 L403 -214 Q399 -210 397.5 -204.5 Q396 -199 395 -194 Q394 -188 393.5 -181.5 Q393 -175 393 -168 Q393 -155 393.5 -144 Q394 -133 394 -128 Q394 -123 397 -115 Q400 -107 404 -103 L463 -45 L175 -45 Q158 -45 144.5 -34.5 Q131 -24 126 -8 Q110 -3 99.5 10.5 Q89 24 89 41 L89 659 Q89 680 104 695 Q119 710 140 710 L499 710 Q516 710 529.5 699.5 Q543 689 548 673 Z M99 41 Q99 24 111 12 Q123 0 140 0 L484 0 L484 -21 Q484 -29 480 -38 Q476 -47 471 -52 L411 -110 Q404 -121 404 -128 L404 -190 Q404 -194 406 -198.5 Q408 -203 410 -207 L465 -260 Q471 -267 481 -267 L543 -267 Q553 -267 559 -260 L588 -232 Q596 -222 596 -212 Q596 -201 587.5 -193 Q579 -185 567 -185 Q555 -185 547 -192 L541 -198 Q536 -203 528 -207 Q520 -211 512 -211 Q504 -211 495.5 -207 Q487 -203 482 -198 L473 -189 Q468 -184 464 -175.5 Q460 -167 460 -159 Q460 -151 464 -143 Q468 -135 473 -130 L531 -72 Q540 -61 540 -49 L540 38 Q540 55 529 68.5 Q518 82 499 82 L231 82 Q210 82 195.5 97 Q181 112 181 133 L181 258 Q181 279 195.5 294 Q210 309 231 309 L430 309 Q447 309 459.5 321 Q472 333 472 350 Q472 367 459.5 379 Q447 391 430 391 L231 391 Q210 391 195.5 406 Q181 421 181 442 L181 567 Q181 588 195.5 603 Q210 618 231 618 L499 618 Q516 618 528 630 Q540 642 540 659 Q540 676 528 688 Q516 700 499 700 L140 700 Q123 700 111 688 Q99 676 99 659 L99 41 Z " />
<glyph glyph-name="endash" unicode="&#x2013;" horiz-adv-x="640" d="M528 365 Q545 360 555 346.5 Q565 333 565 316 Q565 295 551 280 Q537 265 515 265 L195 265 Q178 265 165 275.5 Q152 286 147 302 Q130 306 120 320 Q110 334 110 351 Q110 371 124.5 386.5 Q139 402 160 402 L480 402 Q497 402 510 391.5 Q523 381 528 365 Z M160 392 Q143 392 131.5 380 Q120 368 120 351 Q120 334 131.5 322 Q143 310 160 310 L480 310 Q497 310 508.5 322 Q520 334 520 351 Q520 368 508.5 380 Q497 392 480 392 L160 392 Z " />
<glyph glyph-name="emdash" unicode="&#x2014;" horiz-adv-x="640" d="M549 365 Q565 360 575.5 346.5 Q586 333 586 316 Q586 295 571 280 Q556 265 535 265 L175 265 Q158 265 144.5 275.5 Q131 286 126 302 Q110 307 99.5 320.5 Q89 334 89 351 Q89 371 104.5 386.5 Q120 402 140 402 L500 402 Q517 402 530.5 391.5 Q544 381 549 365 Z M140 392 Q123 392 111 380 Q99 368 99 351 Q99 334 111 322 Q123 310 140 310 L500 310 Q517 310 529 322 Q541 334 541 351 Q541 368 529 380 Q517 392 500 392 L140 392 Z " />
<glyph glyph-name="quoteleft" unicode="&#x2018;" horiz-adv-x="640" d="M389 573 Q406 568 416 555 Q426 542 426 525 L426 485 Q426 465 411.5 449.5 Q397 434 376 434 L336 434 Q319 434 305.5 444.5 Q292 455 287 471 Q271 476 260.5 489.5 Q250 503 250 520 L250 619 Q250 640 265 655 L307 698 Q313 704 322.5 707 Q332 710 339 710 Q356 710 367 700 Q378 690 380 674 Q397 672 406.5 660.5 Q416 649 416 632 Q416 624 413.5 615.5 Q411 607 404 601 L386 582 L389 573 Z M341 479 Q358 479 369.5 491 Q381 503 381 520 L381 560 Q381 577 369.5 588.5 Q358 600 341 600 L319 600 L362 643 Q371 654 371 667 Q371 681 362 691 Q352 700 339 700 Q326 700 314 691 L272 648 Q260 635 260 619 L260 520 Q260 503 272 491 Q284 479 301 479 L341 479 Z " />
<glyph glyph-name="quoteright" unicode="&#x2019;" horiz-adv-x="640" d="M290 561 Q288 564 286 570 Q269 574 259 588 Q249 602 249 619 L249 658 Q249 678 263 694 Q277 710 299 710 L339 710 Q356 710 369.5 699.5 Q383 689 388 673 Q405 668 415 654 Q425 640 425 623 L425 525 Q425 515 421 505.5 Q417 496 411 489 L369 446 Q362 439 353 436.5 Q344 434 336 434 Q321 434 309 444.5 Q297 455 295 469 Q280 472 269.5 484 Q259 496 259 511 Q259 518 262 527.5 Q265 537 271 543 L290 561 Z M299 700 Q282 700 270.5 687.5 Q259 675 259 658 L259 619 Q259 602 270.5 590 Q282 578 299 578 L322 578 L278 536 Q269 526 269 511 Q269 498 278.5 488.5 Q288 479 301 479 Q316 479 326 488 L368 531 Q380 545 380 560 L380 658 Q380 675 368 687.5 Q356 700 339 700 L299 700 Z " />
<glyph glyph-name="quotesinglbase" unicode="&#x201a;" horiz-adv-x="640" d="M290 -18 Q288 -14 286 -8 Q269 -4 259 10 Q249 24 249 41 L249 80 Q249 100 263 116 Q277 132 299 132 L339 132 Q356 132 369.5 121.5 Q383 111 388 95 Q405 90 415 76 Q425 62 425 45 L425 -53 Q425 -62 421 -73 Q417 -84 410 -91 L367 -133 Q361 -139 352.5 -141.5 Q344 -144 336 -144 Q320 -144 308.5 -134 Q297 -124 295 -109 Q279 -107 269 -95 Q259 -83 259 -67 Q259 -59 263 -50 Q267 -41 272 -36 L290 -18 Z M299 122 Q282 122 270.5 109.5 Q259 97 259 80 L259 41 Q259 24 270.5 12 Q282 0 299 0 L322 0 L279 -43 Q269 -55 269 -67 Q269 -81 278 -90 Q287 -99 301 -99 Q316 -99 325 -90 L368 -48 Q380 -33 380 -18 L380 80 Q380 97 368 109.5 Q356 122 339 122 L299 122 Z " />
<glyph glyph-name="quotedblleft" unicode="&#x201c;" horiz-adv-x="640" d="M283 573 Q299 568 309.5 555 Q320 542 320 525 L320 485 Q320 464 305 449 Q290 434 269 434 L230 434 Q213 434 199 444 Q185 454 180 471 Q164 476 153.5 489.5 Q143 503 143 520 L143 619 Q143 640 158 655 L201 698 Q207 704 215.5 707 Q224 710 232 710 Q249 710 260.5 700 Q272 690 274 674 Q291 672 300.5 660.5 Q310 649 310 632 Q310 624 307.5 615.5 Q305 607 298 600 L280 582 L283 573 Z M496 573 Q512 568 522.5 555 Q533 542 533 525 L533 485 Q533 464 518 449 Q503 434 482 434 L443 434 Q426 434 412 444 Q398 454 393 471 Q377 476 366.5 489.5 Q356 503 356 520 L356 619 Q356 640 371 655 L414 698 Q420 704 428.5 707 Q437 710 445 710 Q462 710 473.5 700 Q485 690 487 674 Q504 672 513.5 660.5 Q523 649 523 632 Q523 624 520.5 615.5 Q518 607 511 600 L493 582 L496 573 Z M234 479 Q251 479 263 491 Q275 503 275 520 L275 560 Q275 577 263 588.5 Q251 600 234 600 L212 600 L256 643 Q265 654 265 667 Q265 681 256 691 Q246 700 232 700 Q219 700 208 691 L165 648 Q153 635 153 619 L153 520 Q153 503 165.5 491 Q178 479 195 479 L234 479 Z M447 479 Q464 479 476 491 Q488 503 488 520 L488 560 Q488 577 476 588.5 Q464 600 447 600 L425 600 L469 643 Q478 654 478 667 Q478 681 469 691 Q459 700 445 700 Q432 700 421 691 L378 648 Q366 635 366 619 L366 520 Q366 503 378.5 491 Q391 479 408 479 L447 479 Z " />
<glyph glyph-name="quotedblright" unicode="&#x201d;" horiz-adv-x="640" d="M183 561 Q181 564 179 570 Q163 575 152.5 588 Q142 601 142 619 L142 658 Q142 679 156.5 694.5 Q171 710 193 710 L232 710 Q249 710 263 699.5 Q277 689 282 673 Q298 668 308.5 654 Q319 640 319 623 L319 525 Q319 503 304 489 L261 446 Q255 439 246.5 436.5 Q238 434 230 434 Q215 434 202.5 444 Q190 454 188 470 Q174 472 163 483.5 Q152 495 152 511 Q152 518 155 527.5 Q158 537 164 543 L183 561 Z M396 561 Q394 564 392 570 Q376 575 365.5 588 Q355 601 355 619 L355 658 Q355 679 369.5 694.5 Q384 710 406 710 L445 710 Q462 710 476 699.5 Q490 689 495 673 Q511 668 521.5 654 Q532 640 532 623 L532 525 Q532 503 517 489 L474 446 Q468 439 459.5 436.5 Q451 434 443 434 Q428 434 415.5 444 Q403 454 401 470 Q387 472 376 483.5 Q365 495 365 511 Q365 518 368 527.5 Q371 537 377 543 L396 561 Z M406 700 Q389 700 377 687.5 Q365 675 365 658 L365 619 Q365 602 377 590 Q389 578 406 578 L428 578 L384 536 Q375 526 375 511 Q375 498 385 488.5 Q395 479 408 479 Q422 479 432 488 L475 531 Q487 545 487 560 L487 658 Q487 675 474.5 687.5 Q462 700 445 700 L406 700 Z M193 700 Q176 700 164 687.5 Q152 675 152 658 L152 619 Q152 602 164 590 Q176 578 193 578 L215 578 L171 536 Q162 526 162 511 Q162 498 172 488.5 Q182 479 195 479 Q209 479 219 488 L262 531 Q274 545 274 560 L274 658 Q274 675 261.5 687.5 Q249 700 232 700 L193 700 Z " />
<glyph glyph-name="quotedblbase" unicode="&#x201e;" horiz-adv-x="640" d="M183 -18 Q182 -16 181 -13.5 Q180 -11 179 -8 Q163 -3 152.5 10 Q142 23 142 41 L142 80 Q142 101 156.5 116.5 Q171 132 193 132 L232 132 Q249 132 263 121.5 Q277 111 282 95 Q298 90 308.5 76 Q319 62 319 45 L319 -53 Q319 -62 315 -73 Q311 -84 304 -91 L260 -133 Q249 -144 230 -144 Q214 -144 202 -134 Q190 -124 188 -108 Q173 -106 162.5 -94.5 Q152 -83 152 -67 Q152 -57 156.5 -49.5 Q161 -42 166 -36 L183 -18 Z M396 -18 Q395 -16 394 -13.5 Q393 -11 392 -8 Q376 -3 365.5 10 Q355 23 355 41 L355 80 Q355 101 369.5 116.5 Q384 132 406 132 L445 132 Q462 132 476 121.5 Q490 111 495 95 Q511 90 521.5 76 Q532 62 532 45 L532 -53 Q532 -62 528 -73 Q524 -84 517 -91 L473 -133 Q462 -144 443 -144 Q427 -144 415 -134 Q403 -124 401 -108 Q386 -106 375.5 -94.5 Q365 -83 365 -67 Q365 -57 369.5 -49.5 Q374 -42 379 -36 L396 -18 Z M406 122 Q389 122 377 109.5 Q365 97 365 80 L365 41 Q365 24 377 12 Q389 0 406 0 L428 0 L386 -43 Q375 -54 375 -67 Q375 -81 384.5 -90 Q394 -99 408 -99 Q422 -99 431 -90 L475 -48 Q487 -33 487 -18 L487 80 Q487 97 474.5 109.5 Q462 122 445 122 L406 122 Z M193 122 Q176 122 164 109.5 Q152 97 152 80 L152 41 Q152 24 164 12 Q176 0 193 0 L215 0 L173 -43 Q162 -54 162 -67 Q162 -81 171.5 -90 Q181 -99 195 -99 Q209 -99 218 -90 L262 -48 Q274 -33 274 -18 L274 80 Q274 97 261.5 109.5 Q249 122 232 122 L193 122 Z " />
<glyph glyph-name="fraction" unicode="&#x2044;" horiz-adv-x="640" d="M586 624 L586 495 Q586 472 571 458 L235 122 Q226 111 226 101 L226 6 Q226 -15 211 -30 Q196 -45 175 -45 Q158 -45 144.5 -34.5 Q131 -24 126 -8 Q110 -3 99.5 10.5 Q89 24 89 41 L89 170 Q89 191 105 207 L439 543 Q449 553 449 564 L449 659 Q449 680 464 695 Q479 710 500 710 Q517 710 530.5 699.5 Q544 689 549 673 Q565 668 575.5 654.5 Q586 641 586 624 Z M459 564 Q459 556 455 548.5 Q451 541 446 536 L112 200 Q106 193 102.5 186.5 Q99 180 99 170 L99 41 Q99 24 111 12 Q123 0 140 0 Q157 0 169 12 Q181 24 181 41 L181 136 Q181 144 184.5 151.5 Q188 159 193 164 L529 500 Q535 507 538 513.5 Q541 520 541 530 L541 659 Q541 676 529 688 Q517 700 500 700 Q483 700 471 688 Q459 676 459 659 L459 564 Z " />
<glyph glyph-name="uni2215" unicode="&#x2215;" horiz-adv-x="640" d="M586 624 L586 495 Q586 472 571 458 L235 122 Q226 111 226 101 L226 6 Q226 -15 211 -30 Q196 -45 175 -45 Q158 -45 144.5 -34.5 Q131 -24 126 -8 Q110 -3 99.5 10.5 Q89 24 89 41 L89 170 Q89 191 105 207 L439 543 Q449 553 449 564 L449 659 Q449 680 464 695 Q479 710 500 710 Q517 710 530.5 699.5 Q544 689 549 673 Q565 668 575.5 654.5 Q586 641 586 624 Z M459 564 Q459 556 455 548.5 Q451 541 446 536 L112 200 Q106 193 102.5 186.5 Q99 180 99 170 L99 41 Q99 24 111 12 Q123 0 140 0 Q157 0 169 12 Q181 24 181 41 L181 136 Q181 144 184.5 151.5 Q188 159 193 164 L529 500 Q535 507 538 513.5 Q541 520 541 530 L541 659 Q541 676 529 688 Q517 700 500 700 Q483 700 471 688 Q459 676 459 659 L459 564 Z " />
<glyph glyph-name="ellipsis" unicode="&#x2026;" horiz-adv-x="640" d="M137 -45 Q120 -45 106.5 -35 Q93 -25 88 -8 Q72 -3 61.5 10 Q51 23 51 41 L51 81 Q51 102 66 117 Q81 132 102 132 L142 132 Q159 132 172.5 121.5 Q186 111 191 95 Q207 90 217.5 76.5 Q228 63 228 46 L228 6 Q228 -15 213 -30 Q198 -45 177 -45 L137 -45 Z M334 -45 Q317 -45 304 -34.5 Q291 -24 286 -8 Q269 -4 259 10 Q249 24 249 41 L249 81 Q249 101 263.5 116.5 Q278 132 299 132 L340 132 Q357 132 370 121.5 Q383 111 388 95 Q405 90 415 76.5 Q425 63 425 46 L425 6 Q425 -15 411 -30 Q397 -45 375 -45 L334 -45 Z M532 -45 Q515 -45 502 -34.5 Q489 -24 484 -8 Q467 -4 457 10 Q447 24 447 41 L447 81 Q447 101 461.5 116.5 Q476 132 497 132 L538 132 Q555 132 568 121.5 Q581 111 586 95 Q603 90 613 76.5 Q623 63 623 46 L623 6 Q623 -15 609 -30 Q595 -45 573 -45 L532 -45 Z M142 0 Q159 0 171 12 Q183 24 183 41 L183 81 Q183 98 171 110 Q159 122 142 122 L102 122 Q85 122 73 110 Q61 98 61 81 L61 41 Q61 24 73 12 Q85 0 102 0 L142 0 Z M340 0 Q357 0 368.5 12 Q380 24 380 41 L380 81 Q380 98 368.5 110 Q357 122 340 122 L299 122 Q282 122 270.5 110 Q259 98 259 81 L259 41 Q259 24 270.5 12 Q282 0 299 0 L340 0 Z M538 0 Q555 0 566.5 12 Q578 24 578 41 L578 81 Q578 98 566.5 110 Q555 122 538 122 L497 122 Q480 122 468.5 110 Q457 98 457 81 L457 41 Q457 24 468.5 12 Q480 0 497 0 L538 0 Z " />
<glyph glyph-name="bullet" unicode="&#x2022;" horiz-adv-x="640" d="M407 425 Q409 424 409 424 L410 423 L463 369 Q468 364 470 357 Q472 350 472 345 L472 284 Q472 279 470 271.5 Q468 264 463 259 L410 207 Q405 202 398 199.5 Q391 197 385 197 L324 197 Q310 197 299 208 L247 259 L244 262 L212 294 Q207 299 204.5 306.5 Q202 314 202 319 L202 380 Q202 395 212 405 L264 457 Q268 461 275.5 464.5 Q283 468 289 468 L350 468 Q355 468 363 465 Q371 462 375 458 L407 425 Z M212 319 Q212 310 219 301 L271 250 Q275 247 279.5 244.5 Q284 242 289 242 L350 242 Q359 242 368 249 L421 301 Q427 309 427 319 L427 380 Q427 391 421 397 L368 451 Q364 453 359.5 455.5 Q355 458 350 458 L289 458 Q284 458 279.5 455.5 Q275 453 271 450 L219 398 Q212 391 212 380 L212 319 Z " />
<glyph glyph-name="degree" unicode="&#xb0;" horiz-adv-x="640" d="M367 585 Q359 587 355 587 Q340 587 328 577 Q326 574 323 571 Q320 568 318 566 Q316 564 314.5 562 Q313 560 311 558 Q309 553 307 548.5 Q305 544 305 537 Q305 531 308 523 Q310 523 313 522.5 Q316 522 320 522 Q329 522 337.5 526.5 Q346 531 353 538.5 Q360 546 364.5 554.5 Q369 563 369 572 Q369 577 367 585 Z M414 667 Q416 666 418 664 L481 600 Q492 589 492 574 L492 500 Q492 492 489.5 484.5 Q487 477 481 472 L419 410 Q414 405 406 402 Q398 399 391 399 L318 399 Q302 399 290 411 L228 472 L225 475 L193 507 Q187 513 184.5 520.5 Q182 528 182 535 L182 609 Q182 616 185.5 623.5 Q189 631 194 636 L255 699 Q260 704 268.5 707 Q277 710 283 710 L356 710 Q372 710 383 699 L414 667 Z M192 535 Q192 530 193.5 524.5 Q195 519 200 514 L262 453 Q273 444 283 444 L356 444 Q367 444 377 452 L439 514 Q444 519 445.5 524.5 Q447 530 447 535 L447 609 Q447 621 439 628 L376 692 Q369 700 356 700 L283 700 Q272 700 262 692 L201 629 Q192 618 192 609 L192 535 Z M286 619 Q291 625 300.5 628.5 Q310 632 320 632 Q328 632 338 628.5 Q348 625 353 619 L366 606 Q372 601 375.5 591 Q379 581 379 572 Q379 564 375.5 554.5 Q372 545 366 539 L353 525 Q348 519 338 515.5 Q328 512 320 512 Q310 512 300.5 515.5 Q291 519 286 525 L273 539 Q267 544 263.5 554 Q260 564 260 572 Q260 581 263.5 591 Q267 601 273 606 L286 619 Z " />
<glyph glyph-name="middot" unicode="&#xb7;" horiz-adv-x="640" d="M329 239 Q312 239 299 249.5 Q286 260 281 276 Q264 280 254 294 Q244 308 244 325 L244 375 Q244 395 258.5 410.5 Q273 426 294 426 L345 426 Q362 426 375.5 415.5 Q389 405 394 389 Q410 384 420.5 370.5 Q431 357 431 340 L431 290 Q431 269 416 254 Q401 239 380 239 L329 239 Z M345 284 Q362 284 374 296 Q386 308 386 325 L386 375 Q386 392 374 404 Q362 416 345 416 L294 416 Q277 416 265.5 404 Q254 392 254 375 L254 325 Q254 308 265.5 296 Q277 284 294 284 L345 284 Z " />
<glyph glyph-name="multiply" unicode="&#xd7;" horiz-adv-x="640" d="M492 128 Q482 128 472 131.5 Q462 135 454 143 L419 178 L383 214 Q370 227 356 227 Q342 227 327 214 L255 142 Q249 135 239.5 130.5 Q230 126 219 126 Q202 126 188.5 136.5 Q175 147 170 163 Q153 168 142.5 182.5 Q132 197 132 214 Q132 223 135.5 232.5 Q139 242 146 249 L218 322 Q231 335 231 350 Q231 366 218 379 L181 416 L146 451 Q132 465 132 486 Q132 507 147.5 523 Q163 539 184 539 Q195 539 204 534.5 Q213 530 220 523 L255 488 L292 451 Q304 439 321 439 Q334 439 348 451 L420 523 Q428 531 438 535 Q448 539 459 539 Q475 539 487.5 527.5 Q500 516 505 502 Q522 497 532.5 482 Q543 467 543 452 Q543 430 528 416 L456 344 Q451 339 448 330.5 Q445 322 445 315 Q445 299 457 287 L493 251 L528 216 Q536 208 539.5 197.5 Q543 187 543 177 Q543 157 527 142.5 Q511 128 492 128 Z M415 315 Q400 330 400 350 Q400 369 414 386 L486 458 Q498 472 498 487 Q498 503 486 515.5 Q474 528 459 529 L457 529 Q442 529 427 516 L355 444 Q340 429 321 429 Q300 429 285 444 L213 516 Q198 529 184 529 Q167 529 154.5 516 Q142 503 142 486 Q142 469 153 458 L225 386 Q241 370 241 350 Q241 341 237 331.5 Q233 322 225 315 L153 242 Q142 229 142 214 Q142 198 154.5 184.5 Q167 171 184 171 Q198 171 213 184 L285 256 Q299 272 321 272 Q341 272 355 256 L426 185 Q440 173 457 173 Q473 173 485 185 Q497 197 498 212 L498 214 Q498 229 486 244 L415 315 Z " />
<glyph glyph-name="divide" unicode="&#xf7;" horiz-adv-x="640" d="M334 73 Q317 73 304 83 Q291 93 286 110 Q270 114 259.5 127.5 Q249 141 249 158 L249 199 Q249 219 264 234 Q279 249 299 249 L340 249 Q357 249 370.5 238.5 Q384 228 388 212 Q405 207 415 194 Q425 181 425 164 L425 123 Q425 102 410.5 87.5 Q396 73 375 73 L334 73 Z M334 417 Q317 417 304 427 Q291 437 286 454 Q270 458 259.5 471.5 Q249 485 249 502 L249 543 Q249 563 264 578 Q279 593 299 593 L340 593 Q357 593 370.5 582.5 Q384 572 388 556 Q405 551 415 538 Q425 525 425 508 L425 467 Q425 446 410.5 431.5 Q396 417 375 417 L334 417 Z M528 365 Q545 360 555 346.5 Q565 333 565 316 Q565 295 551 280 Q537 265 515 265 L195 265 Q178 265 165 275.5 Q152 286 147 302 Q130 306 120 320 Q110 334 110 351 Q110 371 124.5 386.5 Q139 402 160 402 L480 402 Q497 402 510 391.5 Q523 381 528 365 Z M340 118 Q357 118 368.5 129.5 Q380 141 380 158 L380 199 Q380 216 368.5 227.5 Q357 239 340 239 L299 239 Q282 239 270.5 227.5 Q259 216 259 199 L259 158 Q259 141 270.5 129.5 Q282 118 299 118 L340 118 Z M340 462 Q357 462 368.5 473.5 Q380 485 380 502 L380 543 Q380 560 368.5 571.5 Q357 583 340 583 L299 583 Q282 583 270.5 571.5 Q259 560 259 543 L259 502 Q259 485 270.5 473.5 Q282 462 299 462 L340 462 Z M160 392 Q143 392 131.5 380 Q120 368 120 351 Q120 334 131.5 322 Q143 310 160 310 L480 310 Q497 310 508.5 322 Q520 334 520 351 Q520 368 508.5 380 Q497 392 480 392 L160 392 Z " />
<glyph glyph-name="Ldot" unicode="&#x13f;" horiz-adv-x="640" d="M534 -45 L175 -45 Q158 -45 144.5 -34.5 Q131 -24 126 -8 Q110 -3 99.5 10.5 Q89 24 89 41 L89 659 Q89 680 104 695 Q119 710 140 710 Q157 710 170.5 699.5 Q184 689 189 673 Q205 668 215.5 654.5 Q226 641 226 624 L226 98 Q226 94 227 92 L231 92 L499 92 Q516 92 529.5 81.5 Q543 71 548 55 Q564 50 574.5 36.5 Q585 23 585 6 Q585 -15 570 -30 Q555 -45 534 -45 Z M388 244 Q371 244 357.5 254.5 Q344 265 339 281 Q323 286 312.5 299.5 Q302 313 302 330 L302 370 Q302 391 317 406 Q332 421 353 421 L394 421 Q411 421 424 410.5 Q437 400 442 384 Q459 379 469 365.5 Q479 352 479 335 L479 295 Q479 274 465 259 Q451 244 429 244 L388 244 Z M181 659 Q181 676 169 688 Q157 700 140 700 Q123 700 111 688 Q99 676 99 659 L99 41 Q99 24 111 12 Q123 0 140 0 L499 0 Q516 0 528 12 Q540 24 540 41 Q540 58 528 70 Q516 82 499 82 L231 82 Q210 82 195.5 97 Q181 112 181 133 L181 659 Z M394 289 Q411 289 422.5 301 Q434 313 434 330 L434 370 Q434 387 422.5 399 Q411 411 394 411 L353 411 Q336 411 324 399 Q312 387 312 370 L312 330 Q312 313 324 301 Q336 289 353 289 L394 289 Z " />
<glyph glyph-name="ldot" unicode="&#x140;" horiz-adv-x="640" d="M534 -45 L175 -45 Q158 -45 144.5 -34.5 Q131 -24 126 -8 Q110 -3 99.5 10.5 Q89 24 89 41 L89 659 Q89 680 104 695 Q119 710 140 710 Q157 710 170.5 699.5 Q184 689 189 673 Q205 668 215.5 654.5 Q226 641 226 624 L226 98 Q226 94 227 92 L231 92 L499 92 Q516 92 529.5 81.5 Q543 71 548 55 Q564 50 574.5 36.5 Q585 23 585 6 Q585 -15 570 -30 Q555 -45 534 -45 Z M388 244 Q371 244 357.5 254.5 Q344 265 339 281 Q323 286 312.5 299.5 Q302 313 302 330 L302 370 Q302 391 317 406 Q332 421 353 421 L394 421 Q411 421 424 410.5 Q437 400 442 384 Q459 379 469 365.5 Q479 352 479 335 L479 295 Q479 274 465 259 Q451 244 429 244 L388 244 Z M181 659 Q181 676 169 688 Q157 700 140 700 Q123 700 111 688 Q99 676 99 659 L99 41 Q99 24 111 12 Q123 0 140 0 L499 0 Q516 0 528 12 Q540 24 540 41 Q540 58 528 70 Q516 82 499 82 L231 82 Q210 82 195.5 97 Q181 112 181 133 L181 659 Z M394 289 Q411 289 422.5 301 Q434 313 434 330 L434 370 Q434 387 422.5 399 Q411 411 394 411 L353 411 Q336 411 324 399 Q312 387 312 370 L312 330 Q312 313 324 301 Q336 289 353 289 L394 289 Z " />
<glyph glyph-name="Tbar" unicode="&#x166;" horiz-adv-x="640" d="M269 572 Q267 573 263 573 L175 573 Q158 573 144.5 583.5 Q131 594 126 610 Q110 615 99.5 628.5 Q89 642 89 659 Q89 680 104 695 Q119 710 140 710 L500 710 Q517 710 530.5 699.5 Q544 689 549 673 Q565 668 575.5 654.5 Q586 641 586 624 Q586 603 571 588 Q556 573 535 573 L447 573 Q430 573 418 561 Q406 549 406 532 L406 402 L480 402 Q497 402 510 391.5 Q523 381 528 365 Q545 360 555 346.5 Q565 333 565 316 Q565 295 551 280 Q537 265 515 265 L416 265 Q406 265 406 255 L406 7 Q406 -15 391.5 -29.5 Q377 -44 355 -44 Q338 -44 324.5 -34 Q311 -24 306 -7 Q290 -2 279.5 11 Q269 24 269 42 L269 265 L195 265 Q178 265 165 275.5 Q152 286 147 302 Q130 306 120 320 Q110 334 110 351 Q110 371 124.5 386.5 Q139 402 160 402 L259 402 Q269 402 269 412 L269 567 L269 572 Z M279 412 Q279 392 259 392 L160 392 Q143 392 131.5 380 Q120 368 120 351 Q120 334 131.5 322 Q143 310 160 310 L259 310 Q279 310 279 290 L279 42 Q279 25 291 13 Q303 1 320 1 Q337 1 349 13 Q361 25 361 42 L361 290 Q361 310 381 310 L480 310 Q497 310 508.5 322 Q520 334 520 351 Q520 368 508.5 380 Q497 392 480 392 L381 392 Q361 392 361 412 L361 567 Q361 588 375.5 603 Q390 618 412 618 L500 618 Q517 618 529 630 Q541 642 541 659 Q541 676 529 688 Q517 700 500 700 L140 700 Q123 700 111 688 Q99 676 99 659 Q99 642 111 630 Q123 618 140 618 L228 618 Q250 618 264.5 603 Q279 588 279 567 L279 412 Z " />
<glyph glyph-name="tbar" unicode="&#x167;" horiz-adv-x="640" d="M269 572 Q267 573 263 573 L175 573 Q158 573 144.5 583.5 Q131 594 126 610 Q110 615 99.5 628.5 Q89 642 89 659 Q89 680 104 695 Q119 710 140 710 L500 710 Q517 710 530.5 699.5 Q544 689 549 673 Q565 668 575.5 654.5 Q586 641 586 624 Q586 603 571 588 Q556 573 535 573 L447 573 Q430 573 418 561 Q406 549 406 532 L406 402 L480 402 Q497 402 510 391.5 Q523 381 528 365 Q545 360 555 346.5 Q565 333 565 316 Q565 295 551 280 Q537 265 515 265 L416 265 Q406 265 406 255 L406 7 Q406 -15 391.5 -29.5 Q377 -44 355 -44 Q338 -44 324.5 -34 Q311 -24 306 -7 Q290 -2 279.5 11 Q269 24 269 42 L269 265 L195 265 Q178 265 165 275.5 Q152 286 147 302 Q130 306 120 320 Q110 334 110 351 Q110 371 124.5 386.5 Q139 402 160 402 L259 402 Q269 402 269 412 L269 567 L269 572 Z M279 412 Q279 392 259 392 L160 392 Q143 392 131.5 380 Q120 368 120 351 Q120 334 131.5 322 Q143 310 160 310 L259 310 Q279 310 279 290 L279 42 Q279 25 291 13 Q303 1 320 1 Q337 1 349 13 Q361 25 361 42 L361 290 Q361 310 381 310 L480 310 Q497 310 508.5 322 Q520 334 520 351 Q520 368 508.5 380 Q497 392 480 392 L381 392 Q361 392 361 412 L361 567 Q361 588 375.5 603 Q390 618 412 618 L500 618 Q517 618 529 630 Q541 642 541 659 Q541 676 529 688 Q517 700 500 700 L140 700 Q123 700 111 688 Q99 676 99 659 Q99 642 111 630 Q123 618 140 618 L228 618 Q250 618 264.5 603 Q279 588 279 567 L279 412 Z " />
<glyph glyph-name="dagger" unicode="&#x2020;" horiz-adv-x="640" d="M535 370 L415 370 Q405 370 405 360 L405 6 Q405 -16 390.5 -30.5 Q376 -45 354 -45 Q337 -45 323.5 -35 Q310 -25 305 -8 Q289 -3 278.5 10 Q268 23 268 41 L268 370 L175 370 Q158 370 144.5 380.5 Q131 391 126 407 Q109 412 99 426 Q89 440 89 457 Q89 478 104.5 492.5 Q120 507 140 507 L258 507 Q268 507 268 517 L268 659 Q268 680 283 695 Q298 710 319 710 Q337 710 350 699.5 Q363 689 368 673 Q385 668 395 654.5 Q405 641 405 624 L405 507 L500 507 Q517 507 530.5 496.5 Q544 486 549 470 Q565 465 575.5 452 Q586 439 586 422 Q586 401 571.5 385.5 Q557 370 535 370 Z M360 659 Q360 676 348 688 Q336 700 319 700 Q302 700 290 688 Q278 676 278 659 L278 517 Q278 497 258 497 L140 497 Q123 497 111 485.5 Q99 474 99 457 Q99 439 111 427 Q123 415 140 415 L258 415 Q278 415 278 395 L278 41 Q278 24 290 12 Q302 0 319 0 Q336 0 348 12 Q360 24 360 41 L360 395 Q360 415 380 415 L500 415 Q517 415 529 427 Q541 439 541 457 Q541 474 529 485.5 Q517 497 500 497 L380 497 Q360 497 360 517 L360 659 Z " />
<glyph glyph-name="daggerdbl" unicode="&#x2021;" horiz-adv-x="640" d="M549 258 Q565 253 575.5 240 Q586 227 586 210 Q586 189 571.5 173.5 Q557 158 535 158 L415 158 Q405 158 405 148 L405 6 Q405 -16 390.5 -30.5 Q376 -45 354 -45 Q337 -45 323.5 -35 Q310 -25 305 -8 Q289 -3 278.5 10 Q268 23 268 41 L268 158 L175 158 Q158 158 144.5 168.5 Q131 179 126 195 Q109 200 99 214 Q89 228 89 245 Q89 266 104.5 280.5 Q120 295 140 295 L258 295 Q268 295 268 305 L268 370 L175 370 Q158 370 144.5 380.5 Q131 391 126 407 Q109 412 99 426 Q89 440 89 457 Q89 478 104.5 492.5 Q120 507 140 507 L258 507 Q268 507 268 517 L268 659 Q268 680 283 695 Q298 710 319 710 Q337 710 350 699.5 Q363 689 368 673 Q385 668 395 654.5 Q405 641 405 624 L405 507 L500 507 Q517 507 530.5 496.5 Q544 486 549 470 Q565 465 575.5 452 Q586 439 586 422 Q586 401 571.5 385.5 Q557 370 535 370 L415 370 Q405 370 405 360 L405 295 L500 295 Q517 295 530.5 284.5 Q544 274 549 258 Z M360 395 Q360 415 380 415 L500 415 Q517 415 529 427 Q541 439 541 457 Q541 474 529 485.5 Q517 497 500 497 L380 497 Q360 497 360 517 L360 659 Q360 676 348 688 Q336 700 319 700 Q302 700 290 688 Q278 676 278 659 L278 517 Q278 497 258 497 L140 497 Q123 497 111 485.5 Q99 474 99 457 Q99 439 111 427 Q123 415 140 415 L258 415 Q278 415 278 395 L278 305 Q278 285 258 285 L140 285 Q123 285 111 273.5 Q99 262 99 245 Q99 227 111 215 Q123 203 140 203 L258 203 Q278 203 278 183 L278 41 Q278 24 290 12 Q302 0 319 0 Q336 0 348 12 Q360 24 360 41 L360 183 Q360 203 380 203 L500 203 Q517 203 529 215 Q541 227 541 245 Q541 262 529 273.5 Q517 285 500 285 L380 285 Q360 285 360 305 L360 395 Z " />
<glyph glyph-name="minus" unicode="&#x2212;" horiz-adv-x="640" d="M528 365 Q545 360 555 346.5 Q565 333 565 316 Q565 295 551 280 Q537 265 515 265 L195 265 Q178 265 165 275.5 Q152 286 147 302 Q130 306 120 320 Q110 334 110 351 Q110 371 124.5 386.5 Q139 402 160 402 L480 402 Q497 402 510 391.5 Q523 381 528 365 Z M160 392 Q143 392 131.5 380 Q120 368 120 351 Q120 334 131.5 322 Q143 310 160 310 L480 310 Q497 310 508.5 322 Q520 334 520 351 Q520 368 508.5 380 Q497 392 480 392 L160 392 Z " />
<glyph glyph-name="uni2219" unicode="&#x2219;" horiz-adv-x="640" d="M407 425 Q409 424 409 424 L410 423 L463 369 Q468 364 470 357 Q472 350 472 345 L472 284 Q472 279 470 271.5 Q468 264 463 259 L410 207 Q405 202 398 199.5 Q391 197 385 197 L324 197 Q310 197 299 208 L247 259 L244 262 L212 294 Q207 299 204.5 306.5 Q202 314 202 319 L202 380 Q202 395 212 405 L264 457 Q268 461 275.5 464.5 Q283 468 289 468 L350 468 Q355 468 363 465 Q371 462 375 458 L407 425 Z M212 319 Q212 310 219 301 L271 250 Q275 247 279.5 244.5 Q284 242 289 242 L350 242 Q359 242 368 249 L421 301 Q427 309 427 319 L427 380 Q427 391 421 397 L368 451 Q364 453 359.5 455.5 Q355 458 350 458 L289 458 Q284 458 279.5 455.5 Q275 453 271 450 L219 398 Q212 391 212 380 L212 319 Z " />
<glyph glyph-name="guilsinglright" unicode="&#x203a;" horiz-adv-x="640" d="M467 278 L317 127 Q309 119 299.5 116 Q290 113 280 113 Q262 113 249.5 123.5 Q237 134 232 150 Q215 154 205 168 Q195 182 195 200 Q195 207 198 218.5 Q201 230 208 236 L293 319 Q300 326 304.5 334 Q309 342 309 350 Q309 361 299 374 L241 430 Q240 432 237 435 L206 466 Q199 472 195.5 482.5 Q192 493 192 501 Q192 524 209.5 538.5 Q227 553 247 553 Q255 553 264.5 550 Q274 547 281 540 L314 507 Q316 505 316 505 L468 352 Q476 344 479 333.5 Q482 323 482 315 Q482 306 478 295 Q474 284 467 278 Z M274 533 Q263 543 247 543 Q230 543 216 530.5 Q202 518 202 501 Q202 486 213 473 L301 387 Q319 369 319 350 Q319 331 300 312 L215 229 Q205 216 205 200 Q205 183 216 170.5 Q227 158 245 158 Q264 158 275 169 L425 320 Q437 334 437 350 Q437 367 426 380 L274 533 Z " />
<glyph glyph-name="guilsinglleft" unicode="&#x2039;" horiz-adv-x="640" d="M482 466 Q482 458 478.5 447.5 Q475 437 468 430 L380 344 Q374 338 370 330.5 Q366 323 366 315 Q366 303 376 290 L431 236 Q433 234 434 232 L466 201 Q473 194 476 183 Q479 172 479 165 Q479 145 466 129 Q453 113 430 113 Q421 113 410.5 116 Q400 119 392 127 L360 159 L357 162 L207 313 Q200 320 196 330.5 Q192 341 192 350 Q192 359 195 369 Q198 379 206 387 L358 540 Q366 548 375.5 550.5 Q385 553 393 553 Q410 553 425 542.5 Q440 532 445 515 Q460 510 471 496.5 Q482 483 482 466 Z M213 380 Q202 367 202 350 Q202 334 214 320 L364 169 Q375 158 395 158 Q412 158 423 170.5 Q434 183 434 200 Q434 216 424 229 L339 312 Q321 330 321 350 Q321 370 338 387 L426 473 Q437 486 437 501 Q437 518 423.5 530.5 Q410 543 393 543 Q376 543 365 533 L213 380 Z " />
<glyph glyph-name="guillemotleft" unicode="&#xab;" horiz-adv-x="640" d="M381 466 L381 459 L461 540 Q468 547 477.5 550 Q487 553 495 553 Q512 553 527.5 542.5 Q543 532 548 515 Q563 509 574 496 Q585 483 585 466 Q585 458 581.5 447.5 Q578 437 571 430 L482 344 Q468 332 468 315 Q468 303 478 290 L533 236 Q536 233 537 231 L568 201 Q576 194 579 183.5 Q582 173 582 165 Q582 144 568.5 128.5 Q555 113 532 113 Q523 113 513 116 Q503 119 495 127 L463 159 L460 162 L310 313 Q303 320 298.5 329.5 Q294 339 294 350 Q294 357 295 361 L278 344 Q264 332 264 315 Q264 303 273 292 L330 236 Q333 233 334 231 L365 201 Q372 195 375 183.5 Q378 172 378 165 Q378 144 364.5 128.5 Q351 113 328 113 Q319 113 309 116 Q299 119 291 127 L259 159 L256 162 L106 313 Q100 319 95 330 Q90 341 90 350 Q90 359 94 369.5 Q98 380 105 387 L257 540 Q264 547 273.5 550 Q283 553 291 553 Q308 553 323.5 542.5 Q339 532 344 515 Q359 509 370 496 Q381 483 381 466 Z M112 380 Q100 366 100 350 Q100 342 104 334 Q108 326 113 320 L263 169 Q274 158 293 158 Q311 158 322 170.5 Q333 183 333 200 Q333 216 323 229 L237 312 Q219 330 219 350 Q219 370 236 387 L325 473 Q336 486 336 501 Q336 518 322 530.5 Q308 543 291 543 Q275 543 264 533 L112 380 Z M316 380 Q304 368 304 350 Q304 333 317 320 L467 169 Q478 158 497 158 Q514 158 525.5 170.5 Q537 183 537 200 Q537 216 526 229 L441 312 Q423 330 423 350 Q423 370 440 387 L529 473 Q540 486 540 501 Q540 518 526 530.5 Q512 543 495 543 Q479 543 468 533 L316 380 Z " />
<glyph glyph-name="guillemotright" unicode="&#xbb;" horiz-adv-x="640" d="M570 278 L419 127 Q411 119 401.5 116 Q392 113 382 113 Q365 113 352 123.5 Q339 134 334 150 Q317 154 307 168.5 Q297 183 297 200 Q297 205 298 208 L216 127 Q208 119 197.5 116 Q187 113 178 113 Q160 113 148 123.5 Q136 134 131 149 Q114 154 104 168.5 Q94 183 94 200 Q94 207 97 218.5 Q100 230 107 236 L192 319 Q207 334 207 350 Q207 356 204.5 362.5 Q202 369 198 374 L140 430 Q138 434 136 435 L105 466 Q99 472 94.5 482 Q90 492 90 501 Q90 523 107.5 538 Q125 553 145 553 Q153 553 163 550 Q173 547 180 540 L213 507 L215 505 L367 352 Q375 344 378 333.5 Q381 323 381 315 Q381 307 380 303 L396 319 Q411 334 411 350 Q411 356 408.5 362.5 Q406 369 402 374 L344 430 Q343 432 339 436 L309 466 Q294 481 294 501 Q294 523 311.5 538 Q329 553 349 553 Q357 553 366.5 550 Q376 547 383 540 L418 505 L536 387 L571 352 Q579 344 582 333.5 Q585 323 585 315 Q585 306 581 295 Q577 284 570 278 Z M376 533 Q365 543 349 543 Q332 543 318 530.5 Q304 518 304 501 Q304 485 316 473 L404 387 Q421 370 421 350 Q421 330 403 312 L318 229 Q307 216 307 200 Q307 183 318.5 170.5 Q330 158 347 158 Q366 158 377 169 L528 320 Q540 334 540 350 Q540 367 529 380 L376 533 Z M173 533 Q160 543 145 543 Q128 543 114 530.5 Q100 518 100 501 Q100 487 112 473 L200 387 Q217 370 217 350 Q217 330 199 312 L114 229 Q104 216 104 200 Q104 183 115 170.5 Q126 158 143 158 Q162 158 174 169 L324 320 Q336 334 336 350 Q336 367 325 380 L173 533 Z " />
<glyph glyph-name="Oslash" unicode="&#xd8;" horiz-adv-x="640" d="M449 335 L236 123 Q230 115 230 111 Q230 108 232 106 L237 101 Q241 97 248 94.5 Q255 92 260 92 L379 92 Q392 92 402 102 L438 137 Q449 148 449 160 L449 335 Z M442 559 L437 564 Q428 573 414 573 L295 573 Q283 573 272 562 L236 527 Q232 523 229 516.5 Q226 510 226 505 L226 330 L438 542 Q444 548 444 554 Q444 557 442 559 Z M654 564 Q654 551 651 543.5 Q648 536 640 528 L596 482 Q586 472 586 460 L586 92 Q586 84 582 72 Q578 60 571 53 L484 -31 Q476 -38 468.5 -41.5 Q461 -45 449 -45 L260 -45 Q240 -45 225 -30 L160 34 Q158 35 156.5 36 Q155 37 153 37 L152 37 Q152 36 151 35 Q149 33 147 31.5 Q145 30 142 28 Q137 23 128.5 19.5 Q120 16 106 16 Q89 16 76 26.5 Q63 37 58 53 Q41 57 31 71 Q21 85 21 102 Q21 112 24 121.5 Q27 131 35 139 L78 183 Q88 193 88 205 L88 574 Q88 582 93 594 Q98 606 104 611 L190 695 Q205 710 225 710 L414 710 Q434 710 449 695 L514 631 Q517 628 521 628 Q523 628 525 629 L528 632 L532 636 Q538 641 546 645 Q554 649 568 649 Q585 649 598.5 638.5 Q612 628 617 612 Q633 607 643.5 594 Q654 581 654 564 Z M409 95 Q404 90 395.5 86 Q387 82 379 82 L260 82 Q252 82 243.5 85.5 Q235 89 230 94 L190 134 Q185 139 185 146 Q185 151 187.5 156.5 Q190 162 194 165 L439 410 Q443 416 449 416 Q459 416 459 403 L459 160 Q459 152 454.5 143.5 Q450 135 445 130 L409 95 Z M230 605 Q235 610 243.5 614 Q252 618 260 618 L379 618 Q387 618 395.5 614.5 Q404 611 409 606 L449 566 Q454 561 454 554 Q454 549 451.5 543.5 Q449 538 445 535 L200 290 Q196 284 190 284 Q181 284 181 297 L181 540 Q181 548 185 556.5 Q189 565 194 570 L230 605 Z M535 625 Q530 618 521 618 Q513 618 507 624 L442 688 Q432 700 414 700 L225 700 Q208 700 197 688 L111 604 Q106 597 102 589 Q98 581 98 574 L98 205 Q98 197 94 189 Q90 181 85 176 L42 132 Q31 121 31 102 Q31 85 42.5 73 Q54 61 71 61 Q90 61 102 72 L105 75 Q110 82 118 82 Q126 82 132 76 L197 12 Q208 0 225 0 L414 0 Q432 0 442 12 L529 96 Q541 111 541 127 L541 495 Q541 503 544.5 511 Q548 519 553 524 L597 570 Q609 579 609 599 Q609 616 597 627.5 Q585 639 568 639 Q549 639 538 628 L535 625 Z " />
<glyph glyph-name="oslash" unicode="&#xf8;" horiz-adv-x="640" d="M449 335 L236 123 Q230 115 230 111 Q230 108 232 106 L237 101 Q241 97 248 94.5 Q255 92 260 92 L379 92 Q392 92 402 102 L438 137 Q449 148 449 160 L449 335 Z M442 559 L437 564 Q428 573 414 573 L295 573 Q283 573 272 562 L236 527 Q232 523 229 516.5 Q226 510 226 505 L226 330 L438 542 Q444 548 444 554 Q444 557 442 559 Z M654 564 Q654 551 651 543.5 Q648 536 640 528 L596 482 Q586 472 586 460 L586 92 Q586 84 582 72 Q578 60 571 53 L484 -31 Q476 -38 468.5 -41.5 Q461 -45 449 -45 L260 -45 Q240 -45 225 -30 L160 34 Q158 35 156.5 36 Q155 37 153 37 L152 37 Q152 36 151 35 Q149 33 147 31.5 Q145 30 142 28 Q137 23 128.5 19.5 Q120 16 106 16 Q89 16 76 26.5 Q63 37 58 53 Q41 57 31 71 Q21 85 21 102 Q21 112 24 121.5 Q27 131 35 139 L78 183 Q88 193 88 205 L88 574 Q88 582 93 594 Q98 606 104 611 L190 695 Q205 710 225 710 L414 710 Q434 710 449 695 L514 631 Q517 628 521 628 Q523 628 525 629 L528 632 L532 636 Q538 641 546 645 Q554 649 568 649 Q585 649 598.5 638.5 Q612 628 617 612 Q633 607 643.5 594 Q654 581 654 564 Z M409 95 Q404 90 395.5 86 Q387 82 379 82 L260 82 Q252 82 243.5 85.5 Q235 89 230 94 L190 134 Q185 139 185 146 Q185 151 187.5 156.5 Q190 162 194 165 L439 410 Q443 416 449 416 Q459 416 459 403 L459 160 Q459 152 454.5 143.5 Q450 135 445 130 L409 95 Z M230 605 Q235 610 243.5 614 Q252 618 260 618 L379 618 Q387 618 395.5 614.5 Q404 611 409 606 L449 566 Q454 561 454 554 Q454 549 451.5 543.5 Q449 538 445 535 L200 290 Q196 284 190 284 Q181 284 181 297 L181 540 Q181 548 185 556.5 Q189 565 194 570 L230 605 Z M535 625 Q530 618 521 618 Q513 618 507 624 L442 688 Q432 700 414 700 L225 700 Q208 700 197 688 L111 604 Q106 597 102 589 Q98 581 98 574 L98 205 Q98 197 94 189 Q90 181 85 176 L42 132 Q31 121 31 102 Q31 85 42.5 73 Q54 61 71 61 Q90 61 102 72 L105 75 Q110 82 118 82 Q126 82 132 76 L197 12 Q208 0 225 0 L414 0 Q432 0 442 12 L529 96 Q541 111 541 127 L541 495 Q541 503 544.5 511 Q548 519 553 524 L597 570 Q609 579 609 599 Q609 616 597 627.5 Q585 639 568 639 Q549 639 538 628 L535 625 Z " />
<glyph glyph-name="Dcroat" unicode="&#x110;" horiz-adv-x="640" d="M226 98 Q226 94 227 92 L231 92 L359 92 Q372 92 381 101 L439 160 Q449 172 449 182 L449 518 Q449 528 439 540 L413 567 Q409 569 404 571 Q399 573 394 573 L266 573 Q249 573 237.5 561 Q226 549 226 532 L226 402 L343 402 Q360 402 373 391.5 Q386 381 391 365 Q408 360 418 346.5 Q428 333 428 316 Q428 295 414 280 Q400 265 378 265 L236 265 Q226 265 226 255 L226 98 Z M461 664 Q463 663 465 661 L571 553 Q579 545 582.5 537 Q586 529 586 518 L586 112 Q586 100 582.5 92.5 Q579 85 571 77 L465 -31 Q459 -38 448.5 -41.5 Q438 -45 429 -45 L175 -45 Q158 -45 144.5 -34.5 Q131 -24 126 -8 Q110 -3 99.5 10.5 Q89 24 89 41 L89 267 Q63 275 55 302 Q39 307 28.5 320.5 Q18 334 18 351 Q18 371 33.5 386.5 Q49 402 69 402 L79 402 Q85 404 85 404 Q89 404 89 412 L89 659 Q89 680 104 695 Q119 710 140 710 L394 710 Q402 710 412.5 706.5 Q423 703 430 696 L461 664 Z M99 412 Q99 392 79 392 L69 392 Q52 392 40 380 Q28 368 28 351 Q28 334 40 322 Q52 310 69 310 L79 310 Q99 310 99 290 L99 41 Q99 24 111 12 Q123 0 140 0 L394 0 Q410 0 423 11 L529 119 Q541 130 541 147 L541 553 Q541 571 529 581 L423 689 Q410 700 394 700 L140 700 Q123 700 111 688 Q99 676 99 659 L99 412 Z M181 290 Q181 310 201 310 L343 310 Q360 310 371.5 322 Q383 334 383 351 Q383 368 371.5 380 Q360 392 343 392 L201 392 Q181 392 181 412 L181 567 Q181 588 195.5 603 Q210 618 231 618 L359 618 Q376 618 388 606 L446 547 Q451 542 455 534 Q459 526 459 518 L459 182 Q459 174 455 166 Q451 158 446 153 L388 94 Q376 82 359 82 L231 82 Q210 82 195.5 97 Q181 112 181 133 L181 290 Z " />
<glyph glyph-name="Eth" unicode="&#xd0;" horiz-adv-x="640" d="M226 98 Q226 94 227 92 L231 92 L359 92 Q372 92 381 101 L439 160 Q449 172 449 182 L449 518 Q449 528 439 540 L413 567 Q409 569 404 571 Q399 573 394 573 L266 573 Q249 573 237.5 561 Q226 549 226 532 L226 402 L343 402 Q360 402 373 391.5 Q386 381 391 365 Q408 360 418 346.5 Q428 333 428 316 Q428 295 414 280 Q400 265 378 265 L236 265 Q226 265 226 255 L226 98 Z M461 664 Q463 663 465 661 L571 553 Q579 545 582.5 537 Q586 529 586 518 L586 112 Q586 100 582.5 92.5 Q579 85 571 77 L465 -31 Q459 -38 448.5 -41.5 Q438 -45 429 -45 L175 -45 Q158 -45 144.5 -34.5 Q131 -24 126 -8 Q110 -3 99.5 10.5 Q89 24 89 41 L89 267 Q63 275 55 302 Q39 307 28.5 320.5 Q18 334 18 351 Q18 371 33.5 386.5 Q49 402 69 402 L79 402 Q85 404 85 404 Q89 404 89 412 L89 659 Q89 680 104 695 Q119 710 140 710 L394 710 Q402 710 412.5 706.5 Q423 703 430 696 L461 664 Z M99 412 Q99 392 79 392 L69 392 Q52 392 40 380 Q28 368 28 351 Q28 334 40 322 Q52 310 69 310 L79 310 Q99 310 99 290 L99 41 Q99 24 111 12 Q123 0 140 0 L394 0 Q410 0 423 11 L529 119 Q541 130 541 147 L541 553 Q541 571 529 581 L423 689 Q410 700 394 700 L140 700 Q123 700 111 688 Q99 676 99 659 L99 412 Z M181 290 Q181 310 201 310 L343 310 Q360 310 371.5 322 Q383 334 383 351 Q383 368 371.5 380 Q360 392 343 392 L201 392 Q181 392 181 412 L181 567 Q181 588 195.5 603 Q210 618 231 618 L359 618 Q376 618 388 606 L446 547 Q451 542 455 534 Q459 526 459 518 L459 182 Q459 174 455 166 Q451 158 446 153 L388 94 Q376 82 359 82 L231 82 Q210 82 195.5 97 Q181 112 181 133 L181 290 Z " />
<glyph glyph-name="eth" unicode="&#xf0;" horiz-adv-x="640" d="M227 97 Q227 94 228 92 L233 92 L361 92 Q366 92 372.5 94.5 Q379 97 383 100 L443 159 Q452 168 452 181 L452 519 Q452 530 446 537 L418 565 Q410 573 396 573 L268 573 Q251 573 239 561.5 Q227 550 227 533 L227 402 L345 402 Q362 402 375.5 391.5 Q389 381 394 365 Q410 360 420.5 346.5 Q431 333 431 316 Q431 295 416 280 Q401 265 380 265 L237 265 Q227 265 227 255 L227 97 Z M468 661 L539 590 L574 555 Q589 540 589 519 L589 111 Q589 89 574 75 L468 -31 Q461 -38 451 -41.5 Q441 -45 432 -45 L176 -45 Q159 -45 145.5 -35 Q132 -25 127 -8 Q111 -3 100.5 10 Q90 23 90 41 L90 267 Q64 275 56 302 Q39 306 29 320 Q19 334 19 351 Q19 371 33.5 386.5 Q48 402 69 402 L79 402 Q81 403 83 403 Q85 403 86 404 Q90 404 90 412 L90 659 Q90 680 105 695 Q120 710 141 710 L397 710 Q405 710 415.5 706.5 Q426 703 433 696 L468 661 Z M100 412 Q100 392 80 392 L69 392 Q52 392 40.5 380 Q29 368 29 351 Q29 334 40.5 322 Q52 310 69 310 L80 310 Q100 310 100 290 L100 41 Q100 24 112 12 Q124 0 141 0 L397 0 Q413 0 426 11 L532 117 Q544 129 544 146 L544 554 Q544 571 532 583 L426 689 Q413 700 397 700 L141 700 Q124 700 112 688 Q100 676 100 659 L100 412 Z M182 290 Q182 310 202 310 L345 310 Q362 310 374 322 Q386 334 386 351 Q386 368 374 380 Q362 392 345 392 L202 392 Q182 392 182 412 L182 568 Q182 590 196.5 604 Q211 618 233 618 L361 618 Q369 618 377 615 Q385 612 390 607 L450 548 Q462 538 462 519 L462 181 Q462 162 450 152 L390 93 Q385 88 377 85 Q369 82 361 82 L233 82 Q211 82 196.5 96 Q182 110 182 132 L182 290 Z " />
<glyph glyph-name="dslash" unicode="&#x111;" horiz-adv-x="640" d="M226 98 Q226 94 227 92 L231 92 L359 92 Q372 92 381 101 L439 160 Q449 172 449 182 L449 518 Q449 528 439 540 L413 567 Q409 569 404 571 Q399 573 394 573 L266 573 Q249 573 237.5 561 Q226 549 226 532 L226 402 L343 402 Q360 402 373 391.5 Q386 381 391 365 Q408 360 418 346.5 Q428 333 428 316 Q428 295 414 280 Q400 265 378 265 L236 265 Q226 265 226 255 L226 98 Z M461 664 Q463 663 465 661 L571 553 Q579 545 582.5 537 Q586 529 586 518 L586 112 Q586 100 582.5 92.5 Q579 85 571 77 L465 -31 Q459 -38 448.5 -41.5 Q438 -45 429 -45 L175 -45 Q158 -45 144.5 -34.5 Q131 -24 126 -8 Q110 -3 99.5 10.5 Q89 24 89 41 L89 267 Q63 275 55 302 Q39 307 28.5 320.5 Q18 334 18 351 Q18 371 33.5 386.5 Q49 402 69 402 L79 402 Q85 404 85 404 Q89 404 89 412 L89 659 Q89 680 104 695 Q119 710 140 710 L394 710 Q402 710 412.5 706.5 Q423 703 430 696 L461 664 Z M99 412 Q99 392 79 392 L69 392 Q52 392 40 380 Q28 368 28 351 Q28 334 40 322 Q52 310 69 310 L79 310 Q99 310 99 290 L99 41 Q99 24 111 12 Q123 0 140 0 L394 0 Q410 0 423 11 L529 119 Q541 130 541 147 L541 553 Q541 571 529 581 L423 689 Q410 700 394 700 L140 700 Q123 700 111 688 Q99 676 99 659 L99 412 Z M181 290 Q181 310 201 310 L343 310 Q360 310 371.5 322 Q383 334 383 351 Q383 368 371.5 380 Q360 392 343 392 L201 392 Q181 392 181 412 L181 567 Q181 588 195.5 603 Q210 618 231 618 L359 618 Q376 618 388 606 L446 547 Q451 542 455 534 Q459 526 459 518 L459 182 Q459 174 455 166 Q451 158 446 153 L388 94 Q376 82 359 82 L231 82 Q210 82 195.5 97 Q181 112 181 133 L181 290 Z " />
<glyph glyph-name="Hbar" unicode="&#x126;" horiz-adv-x="640" d="M226 407 Q226 403 227 401 L231 401 L408 401 Q425 401 437 413 Q449 425 449 442 L449 462 L236 462 Q226 462 226 452 L226 407 Z M586 624 L586 596 Q598 592 607 583 Q616 574 619 562 Q635 557 645.5 544 Q656 531 656 514 Q656 493 641.5 477.5 Q627 462 605 462 Q596 462 590 460 Q588 459 587 458 Q586 457 586 452 L586 6 Q586 -15 571 -30 Q556 -45 535 -45 Q518 -45 504.5 -35 Q491 -25 486 -8 Q470 -3 459.5 10 Q449 23 449 41 L449 258 L449 263 Q447 264 443 264 L266 264 Q249 264 237.5 252 Q226 240 226 223 L226 6 Q226 -15 211 -30 Q196 -45 175 -45 Q158 -45 144.5 -34.5 Q131 -24 126 -8 Q110 -3 99.5 10.5 Q89 24 89 41 L89 464 Q77 468 68 477.5 Q59 487 55 499 Q38 504 28 518 Q18 532 18 549 Q18 570 33.5 584.5 Q49 599 69 599 L79 599 Q85 601 85 601 Q87 602 88 603.5 Q89 605 89 610 L89 659 Q89 680 104 695 Q119 710 140 710 Q157 710 170.5 699.5 Q184 689 189 673 Q205 668 215.5 654.5 Q226 641 226 624 L226 599 L438 599 Q449 599 449 610 L449 659 Q449 680 464 695 Q479 710 500 710 Q517 710 530.5 699.5 Q544 689 549 673 Q565 668 575.5 654.5 Q586 641 586 624 Z M181 487 Q181 507 201 507 L438 507 Q447 507 453 501.5 Q459 496 459 487 L459 442 Q459 421 444 406 Q429 391 408 391 L231 391 Q210 391 195.5 406 Q181 421 181 442 L181 487 Z M459 610 Q459 600 453 594.5 Q447 589 438 589 L201 589 Q181 589 181 610 L181 659 Q181 676 169 688 Q157 700 140 700 Q123 700 111 688 Q99 676 99 659 L99 610 Q99 589 79 589 L69 589 Q52 589 40 577.5 Q28 566 28 549 Q28 531 40 519 Q52 507 69 507 L79 507 Q99 507 99 487 L99 41 Q99 24 111 12 Q123 0 140 0 Q157 0 169 12 Q181 24 181 41 L181 258 Q181 279 195.5 294 Q210 309 231 309 L408 309 Q429 309 444 294 Q459 279 459 258 L459 41 Q459 24 471 12 Q483 0 500 0 Q517 0 529 12 Q541 24 541 41 L541 487 Q541 507 561 507 L570 507 Q587 507 599 519 Q611 531 611 549 Q611 566 599 577.5 Q587 589 570 589 L561 589 Q541 589 541 610 L541 659 Q541 676 529 688 Q517 700 500 700 Q483 700 471 688 Q459 676 459 659 L459 610 Z " />
</font>
</svg>
