<?xml version="1.0" encoding="UTF-8"?>
<svg xmlns="http://www.w3.org/2000/svg" xmlns:xlink="http://www.w3.org/1999/xlink" version="1.2" >
<font id="Proto Mono Regular">
<font-face  font-family="Proto Mono" units-per-em="1000" ascent="900" descent="-200" font-style="normal" font-weight="400" font-stretch="normal" cap-height="700" x-height="500" underline-position="-100" underline-thickness="50" />
<missing-glyph  horiz-adv-x="500" d="" />
<glyph glyph-name="null" d="" />
<glyph glyph-name="uni000D" unicode="&#xd;" horiz-adv-x="250" d="" />
<glyph glyph-name="space" unicode="&#x20;" horiz-adv-x="640" d="" />
<glyph glyph-name="A" unicode="A" horiz-adv-x="640" d="M543 45 Q543 26 530 13 Q517 0 498 0 Q479 0 465.5 13 Q452 26 452 45 L452 237 Q452 256 439 269 Q426 282 407 282 L234 282 Q215 282 202 269 Q189 256 189 237 L189 45 Q189 26 175.5 13 Q162 0 143 0 Q124 0 111 13 Q98 26 98 45 L98 550 Q98 569 111 582 L216 686 Q228 700 248 700 L393 700 Q412 700 425 687 L529 582 Q543 570 543 550 L543 45 Z M452 516 Q452 531 442 541 L384 599 Q374 609 359 609 L282 609 Q267 609 257 599 L199 541 Q189 531 189 516 L189 418 Q189 399 202 386 Q215 373 234 373 L407 373 Q426 373 439 386 Q452 399 452 418 L452 516 Z " />
<glyph glyph-name="B" unicode="B" horiz-adv-x="640" d="M442 443 Q452 453 452 468 L452 537 Q452 552 442 562 L405 599 Q395 609 380 609 L234 609 Q215 609 202 596 Q189 583 189 564 L189 441 Q189 422 202 408.5 Q215 395 234 395 L380 395 Q395 395 405 405 L442 443 Z M442 138 Q452 148 452 163 L452 231 Q452 246 442 256 L405 294 Q395 304 380 304 L234 304 Q215 304 202 290.5 Q189 277 189 258 L189 136 Q189 117 202 104 Q215 91 234 91 L380 91 Q395 91 405 101 L442 138 Z M510 382 Q497 369 497 350 Q497 330 510 317 L530 297 Q543 284 543 265 L543 130 Q543 110 530 97 L446 14 Q434 0 413 0 L143 0 Q124 0 111 13 Q98 26 98 45 L98 655 Q98 674 111 687 Q124 700 143 700 L413 700 Q434 700 446 686 L530 603 Q543 590 543 571 L543 434 Q543 415 530 402 L510 382 Z " />
<glyph glyph-name="C" unicode="C" horiz-adv-x="640" d="M189 184 Q189 169 199 159 L257 101 Q267 91 282 91 L359 91 Q374 91 384 101 L442 159 Q452 169 452 184 L452 214 Q452 233 465.5 246.5 Q479 260 498 260 Q517 260 530 246.5 Q543 233 543 214 L543 150 Q543 130 529 118 L425 13 Q412 0 393 0 L248 0 Q229 0 215 14 L111 118 Q98 131 98 150 L98 550 Q98 569 111 582 L215 686 Q229 700 248 700 L393 700 Q412 700 425 687 L529 582 Q543 570 543 550 L543 486 Q543 467 530 453.5 Q517 440 498 440 Q479 440 465.5 453.5 Q452 467 452 486 L452 516 Q452 531 442 541 L384 599 Q374 609 359 609 L282 609 Q267 609 257 599 L199 541 Q189 531 189 516 L189 184 Z " />
<glyph glyph-name="D" unicode="D" horiz-adv-x="640" d="M442 159 Q452 169 452 184 L452 516 Q452 531 442 541 L384 599 Q374 609 359 609 L234 609 Q215 609 202 596 Q189 583 189 564 L189 136 Q189 117 202 104 Q215 91 234 91 L359 91 Q374 91 384 101 L442 159 Z M529 582 Q543 570 543 550 L543 150 Q543 130 529 118 L425 13 Q412 0 393 0 L143 0 Q124 0 111 13 Q98 26 98 45 L98 655 Q98 674 111 687 Q124 700 143 700 L393 700 Q412 700 425 687 L529 582 Z " />
<glyph glyph-name="E" unicode="E" horiz-adv-x="640" d="M98 655 Q98 674 111 687 Q124 700 143 700 L498 700 Q517 700 530 687 Q543 674 543 655 Q543 636 530 622.5 Q517 609 498 609 L234 609 Q215 609 202 596 Q189 583 189 564 L189 441 Q189 422 202 408.5 Q215 395 234 395 L430 395 Q449 395 462.5 382 Q476 369 476 350 Q476 331 462.5 317.5 Q449 304 430 304 L234 304 Q215 304 202 290.5 Q189 277 189 258 L189 136 Q189 117 202 104 Q215 91 234 91 L498 91 Q517 91 530 77.5 Q543 64 543 45 Q543 26 530 13 Q517 0 498 0 L143 0 Q124 0 111 13 Q98 26 98 45 L98 655 Z " />
<glyph glyph-name="F" unicode="F" horiz-adv-x="640" d="M189 44 Q189 25 175.5 12 Q162 -1 143 -1 Q124 -1 111 12 Q98 25 98 44 L98 655 Q98 674 111 687 Q124 700 143 700 L498 700 Q517 700 530 687 Q543 674 543 655 Q543 636 530 622.5 Q517 609 498 609 L234 609 Q215 609 202 596 Q189 583 189 564 L189 441 Q189 422 202 408.5 Q215 395 234 395 L430 395 Q449 395 462 382 Q475 369 475 350 Q475 331 462 317.5 Q449 304 430 304 L234 304 Q215 304 202 290.5 Q189 277 189 258 L189 44 Z " />
<glyph glyph-name="G" unicode="G" horiz-adv-x="640" d="M452 537 Q452 552 442 562 L405 599 Q395 609 380 609 L261 609 Q246 609 236 599 L199 562 Q189 552 189 537 L189 163 Q189 148 199 138 L236 101 Q246 91 261 91 L380 91 Q395 91 405 101 L442 138 Q452 148 452 163 L452 259 Q452 278 439 291 Q426 304 407 304 L347 304 Q328 304 314.5 317.5 Q301 331 301 350 Q301 369 314.5 382 Q328 395 347 395 L498 395 Q517 395 530 382 Q543 369 543 350 L543 130 Q543 110 530 97 L446 14 Q434 0 413 0 L227 0 Q207 0 195 14 L111 97 Q98 110 98 130 L98 571 Q98 590 111 603 L195 686 Q207 700 227 700 L413 700 Q434 700 446 686 L530 603 Q543 590 543 571 L543 525 Q543 506 530 493 Q517 480 498 480 Q479 480 465.5 493 Q452 506 452 525 L452 537 Z " />
<glyph glyph-name="H" unicode="H" horiz-adv-x="640" d="M543 45 Q543 26 530 13 Q517 0 498 0 Q478 0 465 13 Q452 26 452 45 L452 259 Q452 278 439 291.5 Q426 305 407 305 L234 305 Q215 305 202 291.5 Q189 278 189 259 L189 45 Q189 26 175.5 13 Q162 0 143 0 Q124 0 111 13 Q98 26 98 45 L98 655 Q98 674 111 687 Q124 700 143 700 Q162 700 175.5 687 Q189 674 189 655 L189 441 Q189 422 202 408.5 Q215 395 234 395 L407 395 Q426 395 439 408.5 Q452 422 452 441 L452 655 Q452 674 465 687 Q478 700 498 700 Q517 700 530 687 Q543 674 543 655 L543 45 Z " />
<glyph glyph-name="I" unicode="I" horiz-adv-x="640" d="M188 0 Q169 0 156 13 Q143 26 143 45 Q143 64 156 77.5 Q169 91 188 91 L230 91 Q249 91 262 104 Q275 117 275 136 L275 564 Q275 583 262 596 Q249 609 230 609 L188 609 Q169 609 156 622.5 Q143 636 143 655 Q143 674 156 687 Q169 700 188 700 L453 700 Q472 700 485 687 Q498 674 498 655 Q498 636 485 622.5 Q472 609 453 609 L411 609 Q392 609 379 596 Q366 583 366 564 L366 136 Q366 117 379 104 Q392 91 411 91 L453 91 Q472 91 485 77.5 Q498 64 498 45 Q498 26 485 13 Q472 0 453 0 L188 0 Z " />
<glyph glyph-name="J" unicode="J" horiz-adv-x="640" d="M452 564 Q452 583 439 596 Q426 609 407 609 L320 609 Q301 609 288 622.5 Q275 636 275 655 Q275 674 288 687 Q301 700 320 700 L498 700 Q517 700 530 687 Q543 674 543 655 L543 130 Q543 110 530 97 L446 14 Q434 0 414 0 L227 0 Q207 0 195 14 L111 97 Q98 110 98 130 L98 214 Q98 233 111 246.5 Q124 260 143 260 Q162 260 175.5 246.5 Q189 233 189 214 L189 163 Q189 148 199 138 L236 101 Q246 91 261 91 L380 91 Q395 91 405 101 L442 138 Q452 148 452 163 L452 564 Z " />
<glyph glyph-name="K" unicode="K" horiz-adv-x="640" d="M234 305 Q215 305 202 291.5 Q189 278 189 259 L189 45 Q189 26 175.5 13 Q162 0 143 0 Q124 0 111 13 Q98 26 98 45 L98 655 Q98 674 111 687 Q124 700 143 700 Q162 700 175.5 687 Q189 674 189 655 L189 441 Q189 422 202 408.5 Q215 395 234 395 L281 395 Q296 395 306 405 L442 541 Q452 551 452 566 L452 655 Q452 674 465.5 687 Q479 700 498 700 Q517 700 530 687 Q543 674 543 655 L543 532 Q543 513 530 500 L411 382 Q398 367 398 350 Q398 333 411 318 L530 200 Q543 187 543 168 L543 45 Q543 26 530 13 Q517 0 498 0 Q479 0 465.5 13 Q452 26 452 45 L452 134 Q452 149 442 159 L306 295 Q296 305 281 305 L234 305 Z " />
<glyph glyph-name="L" unicode="L" horiz-adv-x="640" d="M189 136 Q189 117 202 104 Q215 91 234 91 L498 91 Q517 91 530 77.5 Q543 64 543 45 Q543 26 530 13 Q517 0 498 0 L143 0 Q124 0 111 13 Q98 26 98 45 L98 655 Q98 674 111 687 Q124 700 143 700 Q162 700 175.5 687 Q189 674 189 655 L189 136 Z " />
<glyph glyph-name="M" unicode="M" horiz-adv-x="640" d="M452 530 Q452 538 448 538 Q445 538 442 535 L376 469 Q366 459 366 444 L366 350 Q366 331 353 318 Q340 305 321 305 Q301 305 288 318 Q275 331 275 350 L275 444 Q275 459 265 469 L199 535 Q196 538 193 538 Q189 538 189 530 L189 45 Q189 26 175.5 13 Q162 0 143 0 Q124 0 111 13 Q98 26 98 45 L98 655 Q98 674 111 687 Q124 700 143 700 Q163 700 176 687 L288 574 Q303 561 321 561 Q340 561 353 574 L465 687 Q478 700 498 700 Q517 700 530 687 Q543 674 543 655 L543 45 Q543 26 530 13 Q517 0 498 0 Q479 0 465.5 13 Q452 26 452 45 L452 530 Z " />
<glyph glyph-name="N" unicode="N" horiz-adv-x="640" d="M445 227 Q448 222 450 222 Q452 222 452 229 L452 655 Q452 674 465.5 687 Q479 700 498 700 Q517 700 530 687 Q543 674 543 655 L543 45 Q543 26 530 13 Q517 0 498 0 Q471 0 458 23 L196 474 Q194 479 191 479 Q189 479 189 472 L189 45 Q189 26 175.5 13 Q162 0 143 0 Q124 0 111 13 Q98 26 98 45 L98 655 Q98 674 111 687 Q124 700 143 700 Q170 700 183 677 L445 227 Z " />
<glyph glyph-name="O" unicode="O" horiz-adv-x="640" d="M530 603 Q543 590 543 571 L543 129 Q543 110 530 97 L446 14 Q434 0 413 0 L227 0 Q207 0 195 14 L111 97 Q98 110 98 129 L98 571 Q98 590 111 603 L195 686 Q207 700 227 700 L413 700 Q434 700 446 686 L530 603 Z M442 138 Q452 148 452 163 L452 537 Q452 552 442 562 L405 599 Q395 609 380 609 L261 609 Q246 609 236 599 L199 562 Q189 552 189 537 L189 163 Q189 148 199 138 L236 101 Q246 91 261 91 L380 91 Q395 91 405 101 L442 138 Z " />
<glyph glyph-name="P" unicode="P" horiz-adv-x="640" d="M189 45 Q189 26 175.5 13 Q162 0 143 0 Q124 0 111 13 Q98 26 98 45 L98 655 Q98 674 111 687 Q124 700 143 700 L413 700 Q434 700 446 686 L530 603 Q543 590 543 571 L543 412 Q543 392 530 379 L446 296 Q434 282 413 282 L234 282 Q215 282 202 269 Q189 256 189 237 L189 45 Z M380 373 Q395 373 405 383 L442 420 Q452 430 452 445 L452 537 Q452 552 442 562 L405 599 Q395 609 380 609 L234 609 Q215 609 202 596 Q189 583 189 564 L189 418 Q189 399 202 386 Q215 373 234 373 L380 373 Z " />
<glyph glyph-name="Q" unicode="Q" horiz-adv-x="640" d="M442 138 Q452 148 452 163 L452 537 Q452 552 442 562 L405 599 Q395 609 380 609 L261 609 Q246 609 236 599 L199 562 Q189 552 189 537 L189 163 Q189 148 199 138 L236 101 Q246 91 261 91 L380 91 Q395 91 405 101 L442 138 Z M228 0 Q207 0 195 14 L111 97 Q98 110 98 130 L98 571 Q98 590 111 603 L195 686 Q207 700 228 700 L414 700 Q434 700 446 686 L530 603 Q543 590 543 571 L543 130 Q543 110 530 97 L510 78 Q497 65 497 45 Q497 26 510 13 L530 -6 Q543 -19 543 -39 Q543 -58 530 -71 Q517 -84 498 -84 Q478 -84 465 -71 L405 -10 Q395 0 380 0 L228 0 Z " />
<glyph glyph-name="R" unicode="R" horiz-adv-x="640" d="M234 282 Q215 282 202 269 Q189 256 189 237 L189 45 Q189 26 175.5 13 Q162 0 143 0 Q124 0 111 13 Q98 26 98 45 L98 655 Q98 674 111 687 Q124 700 143 700 L393 700 Q412 700 426 686 L530 582 Q543 569 543 550 L543 432 Q543 414 529 400 L489 360 Q476 347 476 328 Q476 310 489 295 L530 255 Q543 242 543 223 L543 45 Q543 26 530 13 Q517 0 498 0 Q479 0 465.5 13 Q452 26 452 45 L452 189 Q452 204 442 214 L384 272 Q374 282 359 282 L234 282 Z M442 441 Q452 451 452 466 L452 516 Q452 531 442 541 L384 599 Q374 609 359 609 L234 609 Q215 609 202 596 Q189 583 189 564 L189 418 Q189 399 202 386 Q215 373 234 373 L359 373 Q374 373 384 383 L442 441 Z " />
<glyph glyph-name="S" unicode="S" horiz-adv-x="640" d="M452 537 Q452 552 442 562 L405 599 Q395 609 380 609 L261 609 Q246 609 236 599 L199 562 Q189 552 189 537 L189 468 Q189 453 199 443 L236 405 Q246 395 261 395 L414 395 Q433 395 446 382 L530 297 Q543 284 543 265 L543 129 Q543 110 530 97 L446 14 Q434 0 414 0 L227 0 Q207 0 195 14 L111 97 Q98 110 98 129 L98 175 Q98 194 111 206.5 Q124 219 143 219 Q162 219 175.5 206.5 Q189 194 189 175 L189 163 Q189 148 199 138 L236 101 Q246 91 261 91 L380 91 Q395 91 405 101 L442 138 Q452 148 452 163 L452 231 Q452 246 442 256 L405 294 Q395 304 380 304 L227 304 Q208 304 195 317 L111 402 Q98 415 98 434 L98 571 Q98 590 111 603 L195 686 Q207 700 227 700 L414 700 Q434 700 446 686 L530 603 Q543 590 543 571 L543 525 Q543 506 530 493 Q517 480 498 480 Q479 480 465.5 493 Q452 506 452 525 L452 537 Z " />
<glyph glyph-name="T" unicode="T" horiz-adv-x="640" d="M366 45 Q366 26 353 13 Q340 0 320 0 Q301 0 288 13 Q275 26 275 45 L275 564 Q275 583 262 596 Q249 609 230 609 L143 609 Q124 609 111 622.5 Q98 636 98 655 Q98 674 111 687 Q124 700 143 700 L498 700 Q517 700 530 687 Q543 674 543 655 Q543 636 530 622.5 Q517 609 498 609 L411 609 Q392 609 379 596 Q366 583 366 564 L366 45 Z " />
<glyph glyph-name="U" unicode="U" horiz-adv-x="640" d="M189 163 Q189 148 199 138 L236 101 Q246 91 261 91 L380 91 Q395 91 405 101 L442 138 Q452 148 452 163 L452 655 Q452 674 465.5 687 Q479 700 498 700 Q517 700 530 687 Q543 674 543 655 L543 129 Q543 110 530 97 L446 14 Q434 0 413 0 L227 0 Q207 0 195 14 L111 97 Q98 110 98 129 L98 655 Q98 674 111 687 Q124 700 143 700 Q162 700 175.5 687 Q189 674 189 655 L189 163 Z " />
<glyph glyph-name="V" unicode="V" horiz-adv-x="640" d="M452 655 Q452 674 465.5 687 Q479 700 498 700 Q517 700 530 687 Q543 674 543 655 L543 204 Q543 185 529 171 L371 13 Q358 0 339 0 L302 0 Q283 0 270 13 L112 171 Q98 185 98 204 L98 655 Q98 674 111 687 Q124 700 143 700 Q162 700 175.5 687 Q189 674 189 655 L189 238 Q189 223 199 213 L288 123 Q301 110 321 110 Q340 110 353 123 L442 213 Q452 223 452 238 L452 655 Z " />
<glyph glyph-name="W" unicode="W" horiz-adv-x="640" d="M452 655 Q452 674 465.5 687 Q479 700 498 700 Q517 700 530 687 Q543 674 543 655 L543 134 Q543 115 530 102 L441 13 Q428 0 409 0 Q390 0 377 13 L321 70 L264 13 Q251 0 232 0 Q213 0 200 13 L111 102 Q98 115 98 134 L98 655 Q98 674 111 687 Q124 700 143 700 Q162 700 175.5 687 Q189 674 189 655 L189 168 Q189 151 202.5 139.5 Q216 128 232 128 Q249 128 262 139.5 Q275 151 275 168 L275 350 Q275 369 288 382 Q301 395 321 395 Q340 395 353 382 Q366 369 366 350 L366 168 Q366 151 379.5 139.5 Q393 128 409 128 Q426 128 439 139.5 Q452 151 452 168 L452 655 Z " />
<glyph glyph-name="X" unicode="X" horiz-adv-x="640" d="M452 655 Q452 674 465.5 687 Q479 700 498 700 Q517 700 530 687 Q543 674 543 655 L543 508 Q543 488 529 476 L436 382 Q422 368 422 350 Q422 332 436 318 L529 224 Q543 212 543 192 L543 45 Q543 26 530 13 Q517 0 498 0 Q479 0 465.5 13 Q452 26 452 45 L452 158 Q452 173 442 183 L353 272 Q339 286 320 286 Q302 286 288 272 L199 183 Q189 173 189 158 L189 45 Q189 26 175.5 13 Q162 0 143 0 Q124 0 111 13 Q98 26 98 45 L98 192 Q98 212 112 224 L205 318 Q219 332 219 350 Q219 368 205 382 L112 476 Q98 488 98 508 L98 655 Q98 674 111 687 Q124 700 143 700 Q162 700 175.5 687 Q189 674 189 655 L189 542 Q189 527 199 517 L288 427 Q303 414 320 414 Q338 414 353 427 L442 517 Q452 527 452 542 L452 655 Z " />
<glyph glyph-name="Y" unicode="Y" horiz-adv-x="640" d="M112 453 Q98 467 98 486 L98 655 Q98 674 111 687 Q124 700 143 700 Q162 700 175.5 687 Q189 674 189 655 L189 520 Q189 505 199 495 L288 405 Q301 392 320 392 Q340 392 353 405 L442 495 Q452 505 452 520 L452 655 Q452 674 465.5 687 Q479 700 498 700 Q517 700 530 687 Q543 674 543 655 L543 486 Q543 467 529 453 L376 300 Q366 290 366 275 L366 45 Q366 26 353 13 Q340 0 320 0 Q301 0 288 13 Q275 26 275 45 L275 275 Q275 290 265 300 L112 453 Z " />
<glyph glyph-name="Z" unicode="Z" horiz-adv-x="640" d="M442 536 Q452 546 452 561 L452 564 Q452 583 439 596 Q426 609 407 609 L143 609 Q124 609 111 622.5 Q98 636 98 655 Q98 674 111 687 Q124 700 143 700 L498 700 Q517 700 530 687 Q543 674 543 655 L543 527 Q543 508 530 495 L199 164 Q189 154 189 139 L189 136 Q189 117 202 104 Q215 91 234 91 L498 91 Q517 91 530 77.5 Q543 64 543 45 Q543 26 530 13 Q517 0 498 0 L143 0 Q124 0 111 13 Q98 26 98 45 L98 173 Q98 192 111 205 L442 536 Z " />
<glyph glyph-name="a" unicode="a" horiz-adv-x="640" d="M543 45 Q543 26 530 13 Q517 0 498 0 Q479 0 465.5 13 Q452 26 452 45 L452 237 Q452 256 439 269 Q426 282 407 282 L234 282 Q215 282 202 269 Q189 256 189 237 L189 45 Q189 26 175.5 13 Q162 0 143 0 Q124 0 111 13 Q98 26 98 45 L98 550 Q98 569 111 582 L216 686 Q228 700 248 700 L393 700 Q412 700 425 687 L529 582 Q543 570 543 550 L543 45 Z M452 516 Q452 531 442 541 L384 599 Q374 609 359 609 L282 609 Q267 609 257 599 L199 541 Q189 531 189 516 L189 418 Q189 399 202 386 Q215 373 234 373 L407 373 Q426 373 439 386 Q452 399 452 418 L452 516 Z " />
<glyph glyph-name="b" unicode="b" horiz-adv-x="640" d="M442 443 Q452 453 452 468 L452 537 Q452 552 442 562 L405 599 Q395 609 380 609 L234 609 Q215 609 202 596 Q189 583 189 564 L189 441 Q189 422 202 408.5 Q215 395 234 395 L380 395 Q395 395 405 405 L442 443 Z M442 138 Q452 148 452 163 L452 231 Q452 246 442 256 L405 294 Q395 304 380 304 L234 304 Q215 304 202 290.5 Q189 277 189 258 L189 136 Q189 117 202 104 Q215 91 234 91 L380 91 Q395 91 405 101 L442 138 Z M510 382 Q497 369 497 350 Q497 330 510 317 L530 297 Q543 284 543 265 L543 130 Q543 110 530 97 L446 14 Q434 0 413 0 L143 0 Q124 0 111 13 Q98 26 98 45 L98 655 Q98 674 111 687 Q124 700 143 700 L413 700 Q434 700 446 686 L530 603 Q543 590 543 571 L543 434 Q543 415 530 402 L510 382 Z " />
<glyph glyph-name="c" unicode="c" horiz-adv-x="640" d="M189 184 Q189 169 199 159 L257 101 Q267 91 282 91 L359 91 Q374 91 384 101 L442 159 Q452 169 452 184 L452 214 Q452 233 465.5 246.5 Q479 260 498 260 Q517 260 530 246.5 Q543 233 543 214 L543 150 Q543 130 529 118 L425 13 Q412 0 393 0 L248 0 Q229 0 215 14 L111 118 Q98 131 98 150 L98 550 Q98 569 111 582 L215 686 Q229 700 248 700 L393 700 Q412 700 425 687 L529 582 Q543 570 543 550 L543 486 Q543 467 530 453.5 Q517 440 498 440 Q479 440 465.5 453.5 Q452 467 452 486 L452 516 Q452 531 442 541 L384 599 Q374 609 359 609 L282 609 Q267 609 257 599 L199 541 Q189 531 189 516 L189 184 Z " />
<glyph glyph-name="d" unicode="d" horiz-adv-x="640" d="M442 159 Q452 169 452 184 L452 516 Q452 531 442 541 L384 599 Q374 609 359 609 L234 609 Q215 609 202 596 Q189 583 189 564 L189 136 Q189 117 202 104 Q215 91 234 91 L359 91 Q374 91 384 101 L442 159 Z M529 582 Q543 570 543 550 L543 150 Q543 130 529 118 L425 13 Q412 0 393 0 L143 0 Q124 0 111 13 Q98 26 98 45 L98 655 Q98 674 111 687 Q124 700 143 700 L393 700 Q412 700 425 687 L529 582 Z " />
<glyph glyph-name="e" unicode="e" horiz-adv-x="640" d="M98 655 Q98 674 111 687 Q124 700 143 700 L498 700 Q517 700 530 687 Q543 674 543 655 Q543 636 530 622.5 Q517 609 498 609 L234 609 Q215 609 202 596 Q189 583 189 564 L189 441 Q189 422 202 408.5 Q215 395 234 395 L430 395 Q449 395 462.5 382 Q476 369 476 350 Q476 331 462.5 317.5 Q449 304 430 304 L234 304 Q215 304 202 290.5 Q189 277 189 258 L189 136 Q189 117 202 104 Q215 91 234 91 L498 91 Q517 91 530 77.5 Q543 64 543 45 Q543 26 530 13 Q517 0 498 0 L143 0 Q124 0 111 13 Q98 26 98 45 L98 655 Z " />
<glyph glyph-name="f" unicode="f" horiz-adv-x="640" d="M189 44 Q189 25 175.5 12 Q162 -1 143 -1 Q124 -1 111 12 Q98 25 98 44 L98 655 Q98 674 111 687 Q124 700 143 700 L498 700 Q517 700 530 687 Q543 674 543 655 Q543 636 530 622.5 Q517 609 498 609 L234 609 Q215 609 202 596 Q189 583 189 564 L189 441 Q189 422 202 408.5 Q215 395 234 395 L430 395 Q449 395 462 382 Q475 369 475 350 Q475 331 462 317.5 Q449 304 430 304 L234 304 Q215 304 202 290.5 Q189 277 189 258 L189 44 Z " />
<glyph glyph-name="g" unicode="g" horiz-adv-x="640" d="M452 537 Q452 552 442 562 L405 599 Q395 609 380 609 L261 609 Q246 609 236 599 L199 562 Q189 552 189 537 L189 163 Q189 148 199 138 L236 101 Q246 91 261 91 L380 91 Q395 91 405 101 L442 138 Q452 148 452 163 L452 259 Q452 278 439 291 Q426 304 407 304 L347 304 Q328 304 314.5 317.5 Q301 331 301 350 Q301 369 314.5 382 Q328 395 347 395 L498 395 Q517 395 530 382 Q543 369 543 350 L543 130 Q543 110 530 97 L446 14 Q434 0 413 0 L227 0 Q207 0 195 14 L111 97 Q98 110 98 130 L98 571 Q98 590 111 603 L195 686 Q207 700 227 700 L413 700 Q434 700 446 686 L530 603 Q543 590 543 571 L543 525 Q543 506 530 493 Q517 480 498 480 Q479 480 465.5 493 Q452 506 452 525 L452 537 Z " />
<glyph glyph-name="h" unicode="h" horiz-adv-x="640" d="M543 45 Q543 26 530 13 Q517 0 498 0 Q478 0 465 13 Q452 26 452 45 L452 259 Q452 278 439 291.5 Q426 305 407 305 L234 305 Q215 305 202 291.5 Q189 278 189 259 L189 45 Q189 26 175.5 13 Q162 0 143 0 Q124 0 111 13 Q98 26 98 45 L98 655 Q98 674 111 687 Q124 700 143 700 Q162 700 175.5 687 Q189 674 189 655 L189 441 Q189 422 202 408.5 Q215 395 234 395 L407 395 Q426 395 439 408.5 Q452 422 452 441 L452 655 Q452 674 465 687 Q478 700 498 700 Q517 700 530 687 Q543 674 543 655 L543 45 Z " />
<glyph glyph-name="i" unicode="i" horiz-adv-x="640" d="M188 0 Q169 0 156 13 Q143 26 143 45 Q143 64 156 77.5 Q169 91 188 91 L230 91 Q249 91 262 104 Q275 117 275 136 L275 564 Q275 583 262 596 Q249 609 230 609 L188 609 Q169 609 156 622.5 Q143 636 143 655 Q143 674 156 687 Q169 700 188 700 L453 700 Q472 700 485 687 Q498 674 498 655 Q498 636 485 622.5 Q472 609 453 609 L411 609 Q392 609 379 596 Q366 583 366 564 L366 136 Q366 117 379 104 Q392 91 411 91 L453 91 Q472 91 485 77.5 Q498 64 498 45 Q498 26 485 13 Q472 0 453 0 L188 0 Z " />
<glyph glyph-name="j" unicode="j" horiz-adv-x="640" d="M452 564 Q452 583 439 596 Q426 609 407 609 L320 609 Q301 609 288 622.5 Q275 636 275 655 Q275 674 288 687 Q301 700 320 700 L498 700 Q517 700 530 687 Q543 674 543 655 L543 130 Q543 110 530 97 L446 14 Q434 0 414 0 L227 0 Q207 0 195 14 L111 97 Q98 110 98 130 L98 214 Q98 233 111 246.5 Q124 260 143 260 Q162 260 175.5 246.5 Q189 233 189 214 L189 163 Q189 148 199 138 L236 101 Q246 91 261 91 L380 91 Q395 91 405 101 L442 138 Q452 148 452 163 L452 564 Z " />
<glyph glyph-name="k" unicode="k" horiz-adv-x="640" d="M234 305 Q215 305 202 291.5 Q189 278 189 259 L189 45 Q189 26 175.5 13 Q162 0 143 0 Q124 0 111 13 Q98 26 98 45 L98 655 Q98 674 111 687 Q124 700 143 700 Q162 700 175.5 687 Q189 674 189 655 L189 441 Q189 422 202 408.5 Q215 395 234 395 L281 395 Q296 395 306 405 L442 541 Q452 551 452 566 L452 655 Q452 674 465.5 687 Q479 700 498 700 Q517 700 530 687 Q543 674 543 655 L543 532 Q543 513 530 500 L411 382 Q398 367 398 350 Q398 333 411 318 L530 200 Q543 187 543 168 L543 45 Q543 26 530 13 Q517 0 498 0 Q479 0 465.5 13 Q452 26 452 45 L452 134 Q452 149 442 159 L306 295 Q296 305 281 305 L234 305 Z " />
<glyph glyph-name="l" unicode="l" horiz-adv-x="640" d="M189 136 Q189 117 202 104 Q215 91 234 91 L498 91 Q517 91 530 77.5 Q543 64 543 45 Q543 26 530 13 Q517 0 498 0 L143 0 Q124 0 111 13 Q98 26 98 45 L98 655 Q98 674 111 687 Q124 700 143 700 Q162 700 175.5 687 Q189 674 189 655 L189 136 Z " />
<glyph glyph-name="m" unicode="m" horiz-adv-x="640" d="M452 530 Q452 538 448 538 Q445 538 442 535 L376 469 Q366 459 366 444 L366 350 Q366 331 353 318 Q340 305 321 305 Q301 305 288 318 Q275 331 275 350 L275 444 Q275 459 265 469 L199 535 Q196 538 193 538 Q189 538 189 530 L189 45 Q189 26 175.5 13 Q162 0 143 0 Q124 0 111 13 Q98 26 98 45 L98 655 Q98 674 111 687 Q124 700 143 700 Q163 700 176 687 L288 574 Q303 561 321 561 Q340 561 353 574 L465 687 Q478 700 498 700 Q517 700 530 687 Q543 674 543 655 L543 45 Q543 26 530 13 Q517 0 498 0 Q479 0 465.5 13 Q452 26 452 45 L452 530 Z " />
<glyph glyph-name="n" unicode="n" horiz-adv-x="640" d="M445 227 Q448 222 450 222 Q452 222 452 229 L452 655 Q452 674 465.5 687 Q479 700 498 700 Q517 700 530 687 Q543 674 543 655 L543 45 Q543 26 530 13 Q517 0 498 0 Q471 0 458 23 L196 474 Q194 479 191 479 Q189 479 189 472 L189 45 Q189 26 175.5 13 Q162 0 143 0 Q124 0 111 13 Q98 26 98 45 L98 655 Q98 674 111 687 Q124 700 143 700 Q170 700 183 677 L445 227 Z " />
<glyph glyph-name="o" unicode="o" horiz-adv-x="640" d="M530 603 Q543 590 543 571 L543 129 Q543 110 530 97 L446 14 Q434 0 413 0 L227 0 Q207 0 195 14 L111 97 Q98 110 98 129 L98 571 Q98 590 111 603 L195 686 Q207 700 227 700 L413 700 Q434 700 446 686 L530 603 Z M442 138 Q452 148 452 163 L452 537 Q452 552 442 562 L405 599 Q395 609 380 609 L261 609 Q246 609 236 599 L199 562 Q189 552 189 537 L189 163 Q189 148 199 138 L236 101 Q246 91 261 91 L380 91 Q395 91 405 101 L442 138 Z " />
<glyph glyph-name="p" unicode="p" horiz-adv-x="640" d="M189 45 Q189 26 175.5 13 Q162 0 143 0 Q124 0 111 13 Q98 26 98 45 L98 655 Q98 674 111 687 Q124 700 143 700 L413 700 Q434 700 446 686 L530 603 Q543 590 543 571 L543 412 Q543 392 530 379 L446 296 Q434 282 413 282 L234 282 Q215 282 202 269 Q189 256 189 237 L189 45 Z M380 373 Q395 373 405 383 L442 420 Q452 430 452 445 L452 537 Q452 552 442 562 L405 599 Q395 609 380 609 L234 609 Q215 609 202 596 Q189 583 189 564 L189 418 Q189 399 202 386 Q215 373 234 373 L380 373 Z " />
<glyph glyph-name="q" unicode="q" horiz-adv-x="640" d="M228 0 Q207 0 195 14 L111 97 Q98 110 98 130 L98 571 Q98 590 111 603 L195 686 Q207 700 228 700 L414 700 Q434 700 446 686 L530 603 Q543 590 543 571 L543 130 Q543 110 530 97 L510 78 Q497 65 497 45 Q497 26 510 13 L530 -6 Q543 -19 543 -39 Q543 -58 530 -71 Q517 -84 498 -84 Q478 -84 465 -71 L405 -10 Q395 0 380 0 L228 0 Z M442 138 Q452 148 452 163 L452 537 Q452 552 442 562 L405 599 Q395 609 380 609 L261 609 Q246 609 236 599 L199 562 Q189 552 189 537 L189 163 Q189 148 199 138 L236 101 Q246 91 261 91 L380 91 Q395 91 405 101 L442 138 Z " />
<glyph glyph-name="r" unicode="r" horiz-adv-x="640" d="M234 282 Q215 282 202 269 Q189 256 189 237 L189 45 Q189 26 175.5 13 Q162 0 143 0 Q124 0 111 13 Q98 26 98 45 L98 655 Q98 674 111 687 Q124 700 143 700 L393 700 Q412 700 426 686 L530 582 Q543 569 543 550 L543 432 Q543 414 529 400 L489 360 Q476 347 476 328 Q476 310 489 295 L530 255 Q543 242 543 223 L543 45 Q543 26 530 13 Q517 0 498 0 Q479 0 465.5 13 Q452 26 452 45 L452 189 Q452 204 442 214 L384 272 Q374 282 359 282 L234 282 Z M442 441 Q452 451 452 466 L452 516 Q452 531 442 541 L384 599 Q374 609 359 609 L234 609 Q215 609 202 596 Q189 583 189 564 L189 418 Q189 399 202 386 Q215 373 234 373 L359 373 Q374 373 384 383 L442 441 Z " />
<glyph glyph-name="s" unicode="s" horiz-adv-x="640" d="M452 537 Q452 552 442 562 L405 599 Q395 609 380 609 L261 609 Q246 609 236 599 L199 562 Q189 552 189 537 L189 468 Q189 453 199 443 L236 405 Q246 395 261 395 L414 395 Q433 395 446 382 L530 297 Q543 284 543 265 L543 129 Q543 110 530 97 L446 14 Q434 0 414 0 L227 0 Q207 0 195 14 L111 97 Q98 110 98 129 L98 175 Q98 194 111 206.5 Q124 219 143 219 Q162 219 175.5 206.5 Q189 194 189 175 L189 163 Q189 148 199 138 L236 101 Q246 91 261 91 L380 91 Q395 91 405 101 L442 138 Q452 148 452 163 L452 231 Q452 246 442 256 L405 294 Q395 304 380 304 L227 304 Q208 304 195 317 L111 402 Q98 415 98 434 L98 571 Q98 590 111 603 L195 686 Q207 700 227 700 L414 700 Q434 700 446 686 L530 603 Q543 590 543 571 L543 525 Q543 506 530 493 Q517 480 498 480 Q479 480 465.5 493 Q452 506 452 525 L452 537 Z " />
<glyph glyph-name="t" unicode="t" horiz-adv-x="640" d="M366 45 Q366 26 353 13 Q340 0 320 0 Q301 0 288 13 Q275 26 275 45 L275 564 Q275 583 262 596 Q249 609 230 609 L143 609 Q124 609 111 622.5 Q98 636 98 655 Q98 674 111 687 Q124 700 143 700 L498 700 Q517 700 530 687 Q543 674 543 655 Q543 636 530 622.5 Q517 609 498 609 L411 609 Q392 609 379 596 Q366 583 366 564 L366 45 Z " />
<glyph glyph-name="u" unicode="u" horiz-adv-x="640" d="M189 163 Q189 148 199 138 L236 101 Q246 91 261 91 L380 91 Q395 91 405 101 L442 138 Q452 148 452 163 L452 655 Q452 674 465.5 687 Q479 700 498 700 Q517 700 530 687 Q543 674 543 655 L543 129 Q543 110 530 97 L446 14 Q434 0 413 0 L227 0 Q207 0 195 14 L111 97 Q98 110 98 129 L98 655 Q98 674 111 687 Q124 700 143 700 Q162 700 175.5 687 Q189 674 189 655 L189 163 Z " />
<glyph glyph-name="v" unicode="v" horiz-adv-x="640" d="M452 655 Q452 674 465.5 687 Q479 700 498 700 Q517 700 530 687 Q543 674 543 655 L543 204 Q543 185 529 171 L371 13 Q358 0 339 0 L302 0 Q283 0 270 13 L112 171 Q98 185 98 204 L98 655 Q98 674 111 687 Q124 700 143 700 Q162 700 175.5 687 Q189 674 189 655 L189 238 Q189 223 199 213 L288 123 Q301 110 321 110 Q340 110 353 123 L442 213 Q452 223 452 238 L452 655 Z " />
<glyph glyph-name="w" unicode="w" horiz-adv-x="640" d="M452 655 Q452 674 465.5 687 Q479 700 498 700 Q517 700 530 687 Q543 674 543 655 L543 134 Q543 115 530 102 L441 13 Q428 0 409 0 Q390 0 377 13 L321 70 L264 13 Q251 0 232 0 Q213 0 200 13 L111 102 Q98 115 98 134 L98 655 Q98 674 111 687 Q124 700 143 700 Q162 700 175.5 687 Q189 674 189 655 L189 168 Q189 151 202.5 139.5 Q216 128 232 128 Q249 128 262 139.5 Q275 151 275 168 L275 350 Q275 369 288 382 Q301 395 321 395 Q340 395 353 382 Q366 369 366 350 L366 168 Q366 151 379.5 139.5 Q393 128 409 128 Q426 128 439 139.5 Q452 151 452 168 L452 655 Z " />
<glyph glyph-name="x" unicode="x" horiz-adv-x="640" d="M452 655 Q452 674 465.5 687 Q479 700 498 700 Q517 700 530 687 Q543 674 543 655 L543 508 Q543 488 529 476 L436 382 Q422 368 422 350 Q422 332 436 318 L529 224 Q543 212 543 192 L543 45 Q543 26 530 13 Q517 0 498 0 Q479 0 465.5 13 Q452 26 452 45 L452 158 Q452 173 442 183 L353 272 Q339 286 320 286 Q302 286 288 272 L199 183 Q189 173 189 158 L189 45 Q189 26 175.5 13 Q162 0 143 0 Q124 0 111 13 Q98 26 98 45 L98 192 Q98 212 112 224 L205 318 Q219 332 219 350 Q219 368 205 382 L112 476 Q98 488 98 508 L98 655 Q98 674 111 687 Q124 700 143 700 Q162 700 175.5 687 Q189 674 189 655 L189 542 Q189 527 199 517 L288 427 Q303 414 320 414 Q338 414 353 427 L442 517 Q452 527 452 542 L452 655 Z " />
<glyph glyph-name="y" unicode="y" horiz-adv-x="640" d="M112 453 Q98 467 98 486 L98 655 Q98 674 111 687 Q124 700 143 700 Q162 700 175.5 687 Q189 674 189 655 L189 520 Q189 505 199 495 L288 405 Q301 392 320 392 Q340 392 353 405 L442 495 Q452 505 452 520 L452 655 Q452 674 465.5 687 Q479 700 498 700 Q517 700 530 687 Q543 674 543 655 L543 486 Q543 467 529 453 L376 300 Q366 290 366 275 L366 45 Q366 26 353 13 Q340 0 320 0 Q301 0 288 13 Q275 26 275 45 L275 275 Q275 290 265 300 L112 453 Z " />
<glyph glyph-name="z" unicode="z" horiz-adv-x="640" d="M442 536 Q452 546 452 561 L452 564 Q452 583 439 596 Q426 609 407 609 L143 609 Q124 609 111 622.5 Q98 636 98 655 Q98 674 111 687 Q124 700 143 700 L498 700 Q517 700 530 687 Q543 674 543 655 L543 527 Q543 508 530 495 L199 164 Q189 154 189 139 L189 136 Q189 117 202 104 Q215 91 234 91 L498 91 Q517 91 530 77.5 Q543 64 543 45 Q543 26 530 13 Q517 0 498 0 L143 0 Q124 0 111 13 Q98 26 98 45 L98 173 Q98 192 111 205 L442 536 Z " />
<glyph glyph-name="one" unicode="1" horiz-adv-x="640" d="M275 530 Q275 538 271 538 Q268 538 265 535 L221 490 Q206 477 188 477 Q169 477 156 490 Q143 503 143 522 Q143 542 156 555 L288 687 Q301 700 321 700 Q340 700 353 687 Q366 674 366 655 L366 136 Q366 117 379 104 Q392 91 411 91 L453 91 Q472 91 485 77.5 Q498 64 498 45 Q498 26 485 13 Q472 0 453 0 L188 0 Q169 0 156 13 Q143 26 143 45 Q143 64 156 77.5 Q169 91 188 91 L230 91 Q249 91 262 104 Q275 117 275 136 L275 530 Z " />
<glyph glyph-name="two" unicode="2" horiz-adv-x="640" d="M189 525 Q189 506 175.5 493 Q162 480 143 480 Q124 480 111 493 Q98 506 98 525 L98 571 Q98 590 111 603 L195 686 Q207 700 227 700 L414 700 Q434 700 446 686 L530 603 Q543 588 543 571 L543 509 Q543 490 530 477 L199 146 Q191 138 191 127 Q191 111 205 101 Q219 91 234 91 L498 91 Q517 91 530 77.5 Q543 64 543 45 Q543 26 530 13 Q517 0 498 0 L143 0 Q124 0 111 13 Q98 26 98 45 L98 155 Q98 174 111 187 L444 520 Q452 528 452 540 Q452 552 444 560 L405 599 Q395 609 380 609 L261 609 Q246 609 236 599 L199 562 Q189 552 189 537 L189 525 Z " />
<glyph glyph-name="three" unicode="3" horiz-adv-x="640" d="M189 525 Q189 506 175.5 493 Q162 480 143 480 Q124 480 111 493 Q98 506 98 525 L98 571 Q98 590 111 603 L195 686 Q207 700 227 700 L414 700 Q434 700 446 686 L530 603 Q543 590 543 571 L543 434 Q543 415 530 402 L510 382 Q497 369 497 350 Q497 330 510 317 L530 297 Q543 284 543 265 L543 129 Q543 110 530 97 L446 14 Q434 0 414 0 L227 0 Q207 0 195 14 L111 97 Q98 110 98 129 L98 175 Q98 194 111 206.5 Q124 219 143 219 Q162 219 175.5 206.5 Q189 194 189 175 L189 163 Q189 148 199 138 L236 101 Q246 91 261 91 L380 91 Q395 91 405 101 L442 138 Q452 148 452 163 L452 231 Q452 246 442 256 L405 294 Q395 304 380 304 L266 304 Q246 304 233 317.5 Q220 331 220 350 Q220 369 233 382 Q246 395 266 395 L380 395 Q395 395 405 405 L442 443 Q452 453 452 468 L452 537 Q452 552 442 562 L405 599 Q395 609 380 609 L261 609 Q246 609 236 599 L199 562 Q189 552 189 537 L189 525 Z " />
<glyph glyph-name="four" unicode="4" horiz-adv-x="640" d="M407 373 Q426 373 439 386 Q452 399 452 418 L452 655 Q452 674 465.5 687 Q479 700 498 700 Q517 700 530 687 Q543 674 543 655 L543 45 Q543 26 530 13 Q517 0 498 0 Q479 0 465.5 13 Q452 26 452 45 L452 237 Q452 256 439 269 Q426 282 407 282 L227 282 Q207 282 195 296 L111 379 Q98 392 98 412 L98 655 Q98 674 111 687 Q124 700 143 700 Q162 700 175.5 687 Q189 674 189 655 L189 445 Q189 430 199 420 L236 383 Q246 373 261 373 L407 373 Z " />
<glyph glyph-name="five" unicode="5" horiz-adv-x="640" d="M189 163 Q189 148 199 138 L236 101 Q246 91 261 91 L380 91 Q395 91 405 101 L442 138 Q452 148 452 163 L452 255 Q452 270 442 280 L405 317 Q395 327 380 327 L227 327 Q207 327 195 341 L111 424 Q98 437 98 457 L98 655 Q98 674 111 687 Q124 700 143 700 L498 700 Q517 700 530 687 Q543 674 543 655 Q543 635 530 622 Q517 609 498 609 L234 609 Q215 609 202 596 Q189 583 189 564 L189 490 Q189 475 199 465 L236 428 Q246 418 261 418 L413 418 Q434 418 446 404 L530 321 Q543 308 543 288 L543 129 Q543 110 530 97 L446 14 Q434 0 413 0 L227 0 Q207 0 195 14 L111 97 Q98 110 98 129 L98 175 Q98 194 111 207 Q124 220 143 220 Q162 220 175.5 207 Q189 194 189 175 L189 163 Z " />
<glyph glyph-name="six" unicode="6" horiz-adv-x="640" d="M189 163 Q189 148 199 138 L236 101 Q246 91 261 91 L380 91 Q395 91 405 101 L442 138 Q452 148 452 163 L452 231 Q452 246 442 256 L405 294 Q395 304 380 304 L234 304 Q215 304 202 290.5 Q189 277 189 258 L189 163 Z M452 537 Q452 552 442 562 L405 599 Q395 609 380 609 L261 609 Q246 609 236 599 L199 562 Q189 552 189 537 L189 441 Q189 422 202 408.5 Q215 395 234 395 L413 395 Q433 395 446 382 L530 297 Q543 284 543 265 L543 129 Q543 110 530 97 L446 14 Q434 0 413 0 L227 0 Q207 0 195 14 L111 97 Q98 110 98 129 L98 571 Q98 590 111 603 L195 686 Q207 700 227 700 L413 700 Q434 700 446 686 L530 603 Q543 590 543 571 L543 525 Q543 506 530 493 Q517 480 498 480 Q479 480 465.5 493 Q452 506 452 525 L452 537 Z " />
<glyph glyph-name="seven" unicode="7" horiz-adv-x="640" d="M366 45 Q366 26 353 13 Q340 0 321 0 Q301 0 288 13 Q275 26 275 45 L275 350 Q275 369 288 382 L442 536 Q452 546 452 561 L452 564 Q452 583 439 596 Q426 609 407 609 L143 609 Q124 609 111 622 Q98 635 98 655 Q98 674 111 687 Q124 700 143 700 L498 700 Q517 700 530 687 Q543 674 543 655 L543 527 Q543 508 530 495 L376 341 Q366 331 366 316 L366 45 Z " />
<glyph glyph-name="eight" unicode="8" horiz-adv-x="640" d="M405 294 Q395 304 380 304 L261 304 Q246 304 236 294 L199 256 Q189 246 189 231 L189 163 Q189 148 199 138 L236 101 Q246 91 261 91 L380 91 Q395 91 405 101 L442 138 Q452 148 452 163 L452 231 Q452 246 442 256 L405 294 Z M405 599 Q395 609 380 609 L261 609 Q246 609 236 599 L199 562 Q189 552 189 537 L189 468 Q189 453 199 443 L236 405 Q246 395 261 395 L380 395 Q395 395 405 405 L442 443 Q452 453 452 468 L452 537 Q452 552 442 562 L405 599 Z M227 0 Q207 0 195 14 L111 97 Q98 110 98 129 L98 265 Q98 284 111 297 L131 317 Q144 330 144 350 Q144 369 131 382 L111 402 Q98 415 98 434 L98 571 Q98 590 111 603 L195 686 Q207 700 227 700 L414 700 Q434 700 446 686 L530 603 Q543 590 543 571 L543 434 Q543 415 530 402 L510 382 Q497 369 497 350 Q497 330 510 317 L530 297 Q543 284 543 265 L543 129 Q543 110 530 97 L446 14 Q434 0 414 0 L227 0 Z " />
<glyph glyph-name="nine" unicode="9" horiz-adv-x="640" d="M452 537 Q452 552 442 562 L405 599 Q395 609 380 609 L261 609 Q246 609 236 599 L199 562 Q189 552 189 537 L189 468 Q189 453 199 443 L236 405 Q246 395 261 395 L407 395 Q426 395 439 408.5 Q452 422 452 441 L452 537 Z M189 163 Q189 148 199 138 L236 101 Q246 91 261 91 L380 91 Q395 91 405 101 L442 138 Q452 148 452 163 L452 258 Q452 277 439 290.5 Q426 304 407 304 L227 304 Q208 304 195 317 L111 402 Q98 415 98 434 L98 571 Q98 590 111 603 L195 686 Q207 700 227 700 L414 700 Q434 700 446 686 L530 603 Q543 590 543 571 L543 129 Q543 110 530 97 L446 14 Q434 0 414 0 L227 0 Q207 0 195 14 L111 97 Q98 110 98 129 L98 175 Q98 194 111 206.5 Q124 219 143 219 Q162 219 175.5 206.5 Q189 194 189 175 L189 163 Z " />
<glyph glyph-name="zero" unicode="0" horiz-adv-x="640" d="M435 529 Q439 533 439 539 Q439 545 435 549 L384 599 Q374 609 359 609 L282 609 Q267 609 257 599 L199 541 Q189 531 189 516 L189 298 Q189 290 193 290 Q196 290 199 293 L435 529 Z M359 91 Q374 91 384 101 L442 159 Q452 169 452 184 L452 402 Q452 410 448 410 Q445 410 442 407 L206 171 Q201 166 201 161 Q201 156 206 151 L257 101 Q267 91 282 91 L359 91 Z M216 686 Q228 700 248 700 L393 700 Q412 700 425 687 L529 582 Q543 570 543 550 L543 150 Q543 131 529 117 L425 13 Q412 0 393 0 L248 0 Q228 0 216 14 L111 118 Q98 131 98 150 L98 550 Q98 569 111 582 L216 686 Z " />
<glyph glyph-name="period" unicode="&#x2e;" horiz-adv-x="640" d="M345 0 L295 0 Q276 0 263 13 Q250 26 250 45 L250 95 Q250 114 263 127 Q276 140 295 140 L345 140 Q364 140 377 127 Q390 114 390 95 L390 45 Q390 26 377 13 Q364 0 345 0 Z " />
<glyph glyph-name="comma" unicode="&#x2c;" horiz-adv-x="640" d="M300 130 L339 130 Q358 130 371.5 116.5 Q385 103 385 84 L385 -13 Q385 -31 371 -45 L329 -87 Q319 -98 302 -98 Q286 -98 276 -87 Q265 -76 265 -61 Q265 -47 276 -34 L310 0 L300 0 Q281 0 268 13 Q255 26 255 45 L255 84 Q255 103 268 116.5 Q281 130 300 130 Z " />
<glyph glyph-name="exclam" unicode="&#x21;" horiz-adv-x="640" d="M340 0 L300 0 Q281 0 268 13 Q255 26 255 45 L255 85 Q255 104 268 117 Q281 130 300 130 L340 130 Q359 130 372 117 Q385 104 385 85 L385 45 Q385 26 372 13 Q359 0 340 0 Z M366 245 Q366 226 352.5 213 Q339 200 320 200 Q301 200 288 213 Q275 226 275 245 L275 655 Q275 674 288 687 Q301 700 320 700 Q339 700 352.5 687 Q366 674 366 655 L366 245 Z " />
<glyph glyph-name="quotedbl" unicode="&#x22;" horiz-adv-x="640" d="M275 516 Q275 497 261.5 484 Q248 471 229 471 Q210 471 197 484 Q184 497 184 516 L184 655 Q184 674 197 687 Q210 700 229 700 Q248 700 261.5 687 Q275 674 275 655 L275 516 Z M457 516 Q457 497 443.5 484 Q430 471 411 471 Q392 471 379 484 Q366 497 366 516 L366 655 Q366 674 379 687 Q392 700 411 700 Q430 700 443.5 687 Q457 674 457 655 L457 516 Z " />
<glyph glyph-name="numbersign" unicode="&#x23;" horiz-adv-x="640" d="M340 292 Q355 292 357 307 L367 394 L367 396 Q367 409 354 409 L301 409 Q286 409 284 394 L274 307 L274 305 Q274 292 287 292 L340 292 Z M169 186 L169 188 Q169 201 156 201 L143 201 Q124 201 111 214 Q98 227 98 246 Q98 266 111 279 Q124 292 143 292 L166 292 Q181 292 183 307 L192 394 L192 396 Q192 409 179 409 L143 409 Q124 409 111 422.5 Q98 436 98 455 Q98 474 111 487 Q124 500 143 500 L190 500 Q205 500 207 515 L222 659 Q224 676 237.5 687.5 Q251 699 268 699 L273 699 Q290 699 301 685 Q312 671 312 654 L312 649 L298 515 L298 513 Q298 500 311 500 L364 500 Q379 500 381 515 L396 659 Q398 676 411.5 687.5 Q425 699 442 699 L447 699 Q464 697 475.5 684 Q487 671 487 654 L487 649 L472 515 L472 513 Q472 500 485 500 L498 500 Q517 500 530 487 Q543 474 543 455 Q543 436 530 422.5 Q517 409 498 409 L475 409 Q460 409 458 394 L449 307 L449 305 Q449 292 462 292 L498 292 Q517 292 530 279 Q543 266 543 246 Q543 227 530 214 Q517 201 498 201 L451 201 Q436 201 434 186 L416 39 Q414 22 400.5 10.5 Q387 -1 370 -1 L365 -1 Q348 -1 337 13 Q326 27 326 44 L326 49 L343 186 L343 188 Q343 201 330 201 L277 201 Q262 201 260 186 L242 39 Q240 22 226.5 10.5 Q213 -1 196 -1 L191 -1 Q174 -1 162.5 13 Q151 27 151 44 L151 49 L169 186 Z " />
<glyph glyph-name="dollar" unicode="&#x24;" horiz-adv-x="640" d="M366 105 Q366 91 380 91 Q395 91 405 101 L442 138 Q452 148 452 163 L452 232 Q452 247 442 257 L405 295 Q395 305 381 305 Q366 305 366 291 L366 105 Z M275 595 Q275 609 261 609 Q246 609 236 599 L199 562 Q189 552 189 537 L189 468 Q189 453 199 443 L236 406 Q246 396 260 396 Q275 396 275 410 L275 595 Z M260 700 Q275 700 275 715 L275 729 Q275 748 288 761 Q301 774 320 774 Q340 774 353 761 Q366 748 366 729 L366 715 Q366 700 381 700 L414 700 Q434 700 446 686 L530 603 Q543 590 543 571 L543 525 Q543 506 530 493 Q517 480 498 480 Q479 480 465.5 493 Q452 506 452 525 L452 537 Q452 552 442 562 L405 599 Q395 609 381 609 Q366 609 366 595 L366 411 Q366 396 381 396 L414 396 Q423 396 431.5 392 Q440 388 446 382 L530 298 Q543 285 543 266 L543 130 Q543 110 530 97 L446 14 Q434 0 414 0 L381 0 Q366 0 366 -15 L366 -29 Q366 -48 353 -61 Q340 -74 320 -74 Q301 -74 288 -61 Q275 -48 275 -29 L275 -15 Q275 0 260 0 L227 0 Q207 0 195 14 L111 97 Q98 110 98 130 L98 175 Q98 194 111 207 Q124 220 143 220 Q162 220 175.5 207 Q189 194 189 175 L189 163 Q189 148 199 138 L236 101 Q246 91 260 91 Q275 91 275 105 L275 290 Q275 305 260 305 L227 305 Q208 305 195 318 L111 402 Q98 415 98 434 L98 571 Q98 590 111 603 L195 686 Q207 700 227 700 L260 700 Z " />
<glyph glyph-name="percent" unicode="&#x25;" horiz-adv-x="640" d="M452 655 Q452 674 465.5 687 Q479 700 498 700 Q517 700 530 687 Q543 674 543 655 L543 527 Q543 509 529 495 L199 164 Q189 154 189 139 L189 45 Q189 26 175.5 13 Q162 0 143 0 Q124 0 111 13 Q98 26 98 45 L98 173 Q98 191 112 205 L442 536 Q452 546 452 561 L452 655 Z M438 0 Q419 0 406 13 Q393 26 393 45 L393 105 Q393 124 406 137 Q419 150 438 150 L498 150 Q517 150 530 137 Q543 124 543 105 L543 45 Q543 26 530 13 Q517 0 498 0 L438 0 Z M143 550 Q124 550 111 563 Q98 576 98 595 L98 655 Q98 674 111 687 Q124 700 143 700 L203 700 Q222 700 235 687 Q248 674 248 655 L248 595 Q248 576 235 563 Q222 550 203 550 L143 550 Z " />
<glyph glyph-name="ampersand" unicode="&#x26;" horiz-adv-x="640" d="M407 289 Q407 304 392 304 L261 304 Q246 304 236 294 L199 256 Q189 246 189 231 L189 163 Q189 148 199 138 L236 101 Q246 91 261 91 L334 91 Q349 91 359 101 L397 138 Q407 148 407 163 L407 289 Z M498 130 Q498 111 484 97 L401 14 Q387 0 368 0 L227 0 Q207 0 195 14 L111 97 Q98 110 98 130 L98 265 Q98 284 111 297 L131 317 Q144 330 144 350 Q144 369 131 382 L111 402 Q98 415 98 434 L98 571 Q98 590 111 603 L195 686 Q207 700 227 700 L320 700 Q340 700 353 687 Q366 674 366 655 Q366 636 353 622.5 Q340 609 320 609 L261 609 Q246 609 236 599 L199 562 Q189 552 189 537 L189 468 Q189 453 199 443 L236 405 Q246 395 261 395 L392 395 Q407 395 407 410 L407 434 Q407 453 420 466.5 Q433 480 452 480 Q471 480 484.5 466.5 Q498 453 498 434 L498 410 Q498 395 513 395 L536 395 Q555 395 568.5 382 Q582 369 582 350 Q582 331 568.5 317.5 Q555 304 536 304 L513 304 Q498 304 498 289 L498 130 Z " />
<glyph glyph-name="quotesingle" unicode="&#x27;" horiz-adv-x="640" d="M366 516 Q366 497 352.5 484 Q339 471 320 471 Q301 471 288 484 Q275 497 275 516 L275 655 Q275 674 288 687 Q301 700 320 700 Q339 700 352.5 687 Q366 674 366 655 L366 516 Z " />
<glyph glyph-name="parenleft" unicode="&#x28;" horiz-adv-x="640" d="M395 45 Q414 45 427 32 Q440 19 440 0 Q440 -19 427 -32.5 Q414 -46 395 -46 L329 -46 Q309 -46 297 -32 L213 51 Q200 64 200 83 L200 616 Q200 635 213 648 L297 731 Q309 745 329 745 L395 745 Q414 745 427 732 Q440 719 440 700 Q440 681 427 667.5 Q414 654 395 654 L363 654 Q348 654 338 644 L301 607 Q291 597 291 582 L291 117 Q291 102 301 92 L338 55 Q348 45 363 45 L395 45 Z " />
<glyph glyph-name="parenright" unicode="&#x29;" horiz-adv-x="640" d="M277 45 Q292 45 302 55 L339 92 Q349 102 349 117 L349 582 Q349 597 339 607 L302 644 Q292 654 277 654 L245 654 Q226 654 213 667.5 Q200 681 200 700 Q200 719 213 732 Q226 745 245 745 L311 745 Q331 745 343 731 L427 648 Q440 635 440 616 L440 83 Q440 64 427 51 L343 -32 Q331 -46 311 -46 L245 -46 Q226 -46 213 -32.5 Q200 -19 200 0 Q200 19 213 32 Q226 45 245 45 L277 45 Z " />
<glyph glyph-name="asterisk" unicode="&#x2a;" horiz-adv-x="640" d="M273 616 Q277 614 279 614 Q286 614 286 624 L286 666 Q286 680 296 690 Q306 700 320 700 Q334 700 344 690 Q354 680 354 666 L354 624 Q354 614 361 614 Q363 614 367 616 L404 637 Q411 641 421 641 Q435 641 444.5 631.5 Q454 622 454 608 Q454 588 438 579 L401 557 Q395 554 395 550 Q395 546 401 543 L438 521 Q454 512 454 492 Q454 478 445 468.5 Q436 459 421 459 Q411 459 404 463 L367 484 Q363 486 361 486 Q354 486 354 476 L354 434 Q354 420 344 410 Q334 400 320 400 Q306 400 296 410 Q286 420 286 434 L286 476 Q286 486 279 486 Q277 486 273 484 L236 463 Q229 459 219 459 Q205 459 195.5 468 Q186 477 186 491 Q186 500 190.5 508 Q195 516 203 521 L240 543 Q246 546 246 550 Q246 554 240 557 L203 579 Q195 584 190.5 592 Q186 600 186 609 Q186 623 195.5 632 Q205 641 219 641 Q229 641 236 637 L273 616 Z " />
<glyph glyph-name="plus" unicode="&#x2b;" horiz-adv-x="640" d="M455 394 Q474 394 487 381 Q500 368 500 349 Q500 329 487 316 Q474 303 455 303 L411 303 Q392 303 379 290 Q366 277 366 258 L366 213 Q366 194 353 181 Q340 168 320 168 Q301 168 288 181 Q275 194 275 213 L275 258 Q275 277 262 290 Q249 303 230 303 L185 303 Q166 303 153 316 Q140 329 140 349 Q140 368 153 381 Q166 394 185 394 L230 394 Q249 394 262 407 Q275 420 275 439 L275 484 Q275 503 288 516 Q301 529 320 529 Q340 529 353 516 Q366 503 366 484 L366 439 Q366 420 379 407 Q392 394 411 394 L455 394 Z " />
<glyph glyph-name="hyphen" unicode="&#x2d;" horiz-adv-x="640" d="M455 396 Q474 396 487 383 Q500 370 500 351 Q500 331 487 318 Q474 305 455 305 L185 305 Q166 305 153 318 Q140 331 140 351 Q140 370 153 383 Q166 396 185 396 L455 396 Z " />
<glyph glyph-name="slash" unicode="&#x2f;" horiz-adv-x="640" d="M452 655 Q452 674 465.5 687 Q479 700 498 700 Q517 700 530 687 Q543 674 543 655 L543 527 Q543 509 529 495 L199 164 Q189 154 189 139 L189 45 Q189 26 175.5 13 Q162 0 143 0 Q124 0 111 13 Q98 26 98 45 L98 173 Q98 191 112 205 L442 536 Q452 546 452 561 L452 655 Z " />
<glyph glyph-name="question" unicode="&#x3f;" horiz-adv-x="640" d="M543 571 L543 506 Q543 487 530 474 L376 320 Q366 310 366 295 L366 245 Q366 226 353 213 Q340 200 321 200 Q301 200 288 213 Q275 226 275 245 L275 329 Q275 348 288 361 L442 515 Q452 525 452 540 Q452 552 444 560 L405 599 Q395 609 380 609 L261 609 Q246 609 236 599 L199 562 Q189 552 189 537 L189 525 Q189 506 175.5 493 Q162 480 143 480 Q124 480 111 493 Q98 506 98 525 L98 571 Q98 590 111 603 L195 686 Q207 700 227 700 L414 700 Q434 700 446 686 L530 603 Q543 588 543 571 Z M340 0 L300 0 Q281 0 268 13 Q255 26 255 45 L255 85 Q255 104 268 117 Q281 130 300 130 L340 130 Q359 130 372 117 Q385 104 385 85 L385 45 Q385 26 372 13 Q359 0 340 0 Z " />
<glyph glyph-name="colon" unicode="&#x3a;" horiz-adv-x="640" d="M345 0 L295 0 Q276 0 263 13 Q250 26 250 45 L250 95 Q250 114 263 127 Q276 140 295 140 L345 140 Q364 140 377 127 Q390 114 390 95 L390 45 Q390 26 377 13 Q364 0 345 0 Z M345 340 L295 340 Q276 340 263 353 Q250 366 250 385 L250 435 Q250 454 263 467 Q276 480 295 480 L345 480 Q364 480 377 467 Q390 454 390 435 L390 385 Q390 366 377 353 Q364 340 345 340 Z " />
<glyph glyph-name="semicolon" unicode="&#x3b;" horiz-adv-x="640" d="M300 130 L339 130 Q358 130 371.5 116.5 Q385 103 385 84 L385 -13 Q385 -31 371 -45 L329 -87 Q319 -98 302 -98 Q286 -98 276 -87 Q265 -76 265 -61 Q265 -45 276 -34 L310 0 L300 0 Q281 0 268 13 Q255 26 255 45 L255 84 Q255 103 268 116.5 Q281 130 300 130 Z M345 340 L295 340 Q276 340 263 353 Q250 366 250 385 L250 435 Q250 454 263 467 Q276 480 295 480 L345 480 Q364 480 377 467 Q390 454 390 435 L390 385 Q390 366 377 353 Q364 340 345 340 Z " />
<glyph glyph-name="less" unicode="&#x3c;" horiz-adv-x="640" d="M175 382 L400 607 Q413 620 431 620 Q450 620 464.5 606.5 Q479 593 479 574 Q479 556 466 543 L304 381 Q289 366 289 349 Q289 332 305 316 L464 157 Q477 144 477 125 Q477 105 464.5 92 Q452 79 432 79 Q412 79 399 92 L175 316 Q162 329 162 349 Q162 369 175 382 Z " />
<glyph glyph-name="equal" unicode="&#x3d;" horiz-adv-x="640" d="M455 500 Q474 500 487 487 Q500 474 500 455 Q500 435 487 422 Q474 409 455 409 L185 409 Q166 409 153 422 Q140 435 140 455 Q140 474 153 487 Q166 500 185 500 L455 500 Z M455 292 Q474 292 487 279 Q500 266 500 247 Q500 227 487 214 Q474 201 455 201 L185 201 Q166 201 153 214 Q140 227 140 247 Q140 266 153 279 Q166 292 185 292 L455 292 Z " />
<glyph glyph-name="greater" unicode="&#x3e;" horiz-adv-x="640" d="M466 382 Q479 369 479 349 Q479 329 466 316 L242 92 Q229 79 209 79 Q189 79 176.5 92 Q164 105 164 125 Q164 144 177 157 L336 316 Q352 332 352 349 Q352 366 337 381 L175 543 Q162 556 162 574 Q162 593 176.5 606.5 Q191 620 210 620 Q228 620 241 607 L466 382 Z " />
<glyph glyph-name="at" unicode="&#x40;" horiz-adv-x="640" d="M393 278 Q403 268 418 268 L437 268 Q452 268 452 283 L452 537 Q452 552 442 562 L405 599 Q395 609 380 609 L261 609 Q246 609 236 599 L199 562 Q189 552 189 537 L189 163 Q189 148 199 138 L236 101 Q246 91 261 91 L407 91 Q426 91 439 77.5 Q452 64 452 45 Q452 26 439 13 Q426 0 407 0 L227 0 Q207 0 195 14 L111 97 Q98 110 98 130 L98 571 Q98 590 111 603 L195 686 Q207 700 227 700 L413 700 Q434 700 446 686 L530 603 Q543 590 543 571 L543 223 Q543 204 530 190.5 Q517 177 498 177 L385 177 Q366 177 352 191 L288 255 Q275 268 275 287 L275 455 Q275 474 288 487 Q301 500 320 500 Q340 500 353 487 Q366 474 366 455 L366 320 Q366 305 376 295 L393 278 Z " />
<glyph glyph-name="backslash" unicode="&#x5c;" horiz-adv-x="640" d="M189 561 Q189 546 199 536 L529 205 Q543 191 543 173 L543 45 Q543 26 530 13 Q517 0 498 0 Q479 0 465.5 13 Q452 26 452 45 L452 139 Q452 154 442 164 L112 495 Q98 509 98 527 L98 655 Q98 674 111 687 Q124 700 143 700 Q162 700 175.5 687 Q189 674 189 655 L189 561 Z " />
<glyph glyph-name="bracketleft" unicode="&#x5b;" horiz-adv-x="640" d="M245 -46 Q226 -46 213 -33 Q200 -20 200 -1 L200 700 Q200 719 213 732 Q226 745 245 745 L395 745 Q414 745 427 732 Q440 719 440 700 Q440 681 427 667.5 Q414 654 395 654 L336 654 Q317 654 304 641 Q291 628 291 609 L291 90 Q291 71 304 58 Q317 45 336 45 L395 45 Q414 45 427 32 Q440 19 440 0 Q440 -19 427 -32.5 Q414 -46 395 -46 L245 -46 Z " />
<glyph glyph-name="bracketright" unicode="&#x5d;" horiz-adv-x="640" d="M245 -46 Q226 -46 213 -32.5 Q200 -19 200 0 Q200 19 213 32 Q226 45 245 45 L304 45 Q323 45 336 58 Q349 71 349 90 L349 609 Q349 628 336 641 Q323 654 304 654 L245 654 Q226 654 213 667.5 Q200 681 200 700 Q200 719 213 732 Q226 745 245 745 L395 745 Q414 745 427 732 Q440 719 440 700 L440 -1 Q440 -20 427 -33 Q414 -46 395 -46 L245 -46 Z " />
<glyph glyph-name="bar" unicode="&#x7c;" horiz-adv-x="640" d="M275 729 Q275 748 288 761 Q301 774 320 774 Q340 774 353 761 Q366 748 366 729 L366 -29 Q366 -48 353 -61 Q340 -74 320 -74 Q301 -74 288 -61 Q275 -48 275 -29 L275 729 Z " />
<glyph glyph-name="brokenbar" unicode="&#xa6;" horiz-adv-x="640" d="M275 729 Q275 748 288 761 Q301 774 320 774 Q340 774 353 761 Q366 748 366 729 L366 442 Q366 423 353 410 Q340 397 320 397 Q301 397 288 410 Q275 423 275 442 L275 729 Z M275 258 Q275 277 288 290 Q301 303 320 303 Q340 303 353 290 Q366 277 366 258 L366 -29 Q366 -48 353 -61 Q340 -74 320 -74 Q301 -74 288 -61 Q275 -48 275 -29 L275 258 Z " />
<glyph glyph-name="exclamdown" unicode="&#xa1;" horiz-adv-x="640" d="M340 700 Q359 700 372 687 Q385 674 385 655 L385 615 Q385 596 372 583 Q359 570 340 570 L300 570 Q281 570 268 583 Q255 596 255 615 L255 655 Q255 674 268 687 Q281 700 300 700 L340 700 Z M366 455 L366 45 Q366 26 352.5 13 Q339 0 320 0 Q301 0 288 13 Q275 26 275 45 L275 455 Q275 474 288 487 Q301 500 320 500 Q339 500 352.5 487 Q366 474 366 455 Z " />
<glyph glyph-name="underscore" unicode="&#x5f;" horiz-adv-x="640" d="M498 45 Q517 45 530 32 Q543 19 543 0 Q543 -20 530 -33 Q517 -46 498 -46 L143 -46 Q124 -46 111 -33 Q98 -20 98 0 Q98 19 111 32 Q124 45 143 45 L498 45 Z " />
<glyph glyph-name="asciicircum" unicode="&#x5e;" horiz-adv-x="640" d="M320 700 Q339 700 352 687 L497 542 Q510 529 510 509 Q510 490 496.5 477 Q483 464 463 464 Q455 464 448 466.5 Q441 469 433 477 L352 558 Q338 572 320 572 Q302 572 288 558 L207 477 Q194 464 177 464 Q157 464 143.5 477 Q130 490 130 509 Q130 529 143 542 L288 687 Q301 700 320 700 Z " />
<glyph glyph-name="cent" unicode="&#xa2;" horiz-adv-x="640" d="M365 715 Q365 700 380 700 L393 700 Q412 700 425 687 L529 582 Q543 570 543 550 L543 486 Q543 467 530 453.5 Q517 440 498 440 Q479 440 465.5 453.5 Q452 467 452 486 L452 516 Q452 531 442 541 L384 599 Q379 604 373 604 Q365 604 365 593 L365 107 Q365 96 373 96 Q379 96 384 101 L442 159 Q452 169 452 184 L452 214 Q452 233 465.5 246.5 Q479 260 498 260 Q517 260 530 246.5 Q543 233 543 214 L543 150 Q543 130 529 118 L425 13 Q412 0 393 0 L380 0 Q365 0 365 -15 L365 -29 Q365 -48 352 -61 Q339 -74 319 -74 Q300 -74 287 -61 Q274 -48 274 -29 L274 -15 Q274 0 259 0 L248 0 Q229 0 215 14 L111 118 Q98 131 98 150 L98 550 Q98 569 111 582 L215 686 Q229 700 248 700 L259 700 Q274 700 274 715 L274 729 Q274 748 287 761 Q300 774 319 774 Q339 774 352 761 Q365 748 365 729 L365 715 Z M274 107 L274 593 Q274 604 267 604 Q262 604 257 599 L199 541 Q189 531 189 516 L189 184 Q189 169 199 159 L257 101 Q262 96 267 96 Q274 96 274 107 Z " />
<glyph glyph-name="braceleft" unicode="&#x7b;" horiz-adv-x="640" d="M320 297 Q333 284 333 265 L333 117 Q333 102 343 92 L380 55 Q390 45 405 45 L437 45 Q456 45 469 32 Q482 19 482 0 Q482 -20 469 -33.5 Q456 -47 437 -47 L371 -47 Q353 -47 339 -33 L255 51 Q242 64 242 83 L242 231 Q242 246 232 256 L171 317 Q158 330 158 349 Q158 368 171 381 L232 442 Q242 452 242 467 L242 616 Q242 635 255 648 L339 731 Q351 745 371 745 L437 745 Q456 745 469 732 Q482 719 482 700 Q482 681 469 667.5 Q456 654 437 654 L405 654 Q390 654 380 644 L343 607 Q333 597 333 582 L333 433 Q333 414 320 401 L278 359 Q274 355 274 349 Q274 343 278 339 L320 297 Z " />
<glyph glyph-name="braceright" unicode="&#x7d;" horiz-adv-x="640" d="M362 339 Q367 344 367 349 Q367 354 362 359 L320 401 Q307 414 307 433 L307 582 Q307 597 297 607 L260 644 Q250 654 235 654 L203 654 Q184 654 171 667.5 Q158 681 158 700 Q158 719 171 732 Q184 745 203 745 L269 745 Q289 745 301 731 L385 648 Q398 635 398 616 L398 467 Q398 452 408 442 L469 381 Q482 368 482 349 Q482 330 469 317 L408 256 Q398 246 398 231 L398 83 Q398 64 385 51 L301 -33 Q287 -47 269 -47 L203 -47 Q184 -47 171 -33.5 Q158 -20 158 0 Q158 19 171 32 Q184 45 203 45 L235 45 Q250 45 260 55 L297 92 Q307 102 307 117 L307 265 Q307 284 320 297 L362 339 Z " />
<glyph glyph-name="yen" unicode="&#xa5;" horiz-adv-x="640" d="M272 368 Q272 376 265 383 L112 536 Q98 550 98 569 L98 655 Q98 674 111 687 Q124 700 143 700 Q162 700 175.5 687 Q189 674 189 655 L189 603 Q189 588 199 578 L288 488 Q301 475 320 475 Q340 475 353 488 L442 578 Q452 588 452 603 L452 655 Q452 674 465.5 687 Q479 700 498 700 Q517 700 530 687 Q543 674 543 655 L543 569 Q543 550 529 536 L376 383 Q369 376 369 368 Q369 358 381 358 L455 358 Q474 358 487 345 Q500 332 500 313 Q500 293 487 280 Q474 267 455 267 L381 267 Q366 267 366 252 L366 237 Q366 222 381 222 L455 222 Q474 222 487 209 Q500 196 500 177 Q500 157 487 144 Q474 131 455 131 L381 131 Q366 131 366 116 L366 45 Q366 26 353 13 Q340 0 320 0 Q301 0 288 13 Q275 26 275 45 L275 116 Q275 131 260 131 L185 131 Q166 131 153 144 Q140 157 140 177 Q140 196 153 209 Q166 222 185 222 L260 222 Q275 222 275 237 L275 252 Q275 267 260 267 L185 267 Q166 267 153 280 Q140 293 140 313 Q140 332 153 345 Q166 358 185 358 L260 358 Q272 358 272 368 Z " />
<glyph glyph-name="grave" unicode="&#x60;" horiz-adv-x="640" d="M246 905 Q233 918 233 937 Q233 956 246 969 Q259 982 278 982 Q298 982 311 969 L392 887 Q406 873 406 855 Q406 836 392.5 823 Q379 810 360 810 Q341 810 328 823 L246 905 Z " />
<glyph glyph-name="acute" unicode="&#xb4;" horiz-adv-x="640" d="M311 823 Q298 810 279 810 Q260 810 246.5 823 Q233 836 233 855 Q233 873 247 887 L328 969 Q341 982 360 982 Q379 982 392.5 969 Q406 956 406 937 Q406 917 392 905 L311 823 Z " />
<glyph glyph-name="circumflex" unicode="&#x2c6;" horiz-adv-x="640" d="M256 821 Q251 815 243.5 812.5 Q236 810 228 810 Q211 810 199.5 821 Q188 832 188 849 Q188 866 200 878 L293 970 Q304 982 321 982 Q337 982 349 970 L442 878 Q453 867 453 849 Q453 832 442 821 Q431 810 414 810 Q396 810 385 821 L349 857 Q337 869 321 869 Q304 869 293 857 L256 821 Z " />
<glyph glyph-name="caron" unicode="&#x2c7;" horiz-adv-x="640" d="M292 934 Q304 922 321 922 Q337 922 349 934 L385 970 Q397 982 413 982 Q430 982 441.5 970.5 Q453 959 453 942 Q453 927 442 914 L349 821 Q338 810 321 810 Q303 810 292 821 L200 914 Q188 926 188 942 Q188 958 200 970 Q212 982 228 982 Q244 982 256 970 L292 934 Z " />
<glyph glyph-name="breve" unicode="&#x2d8;" horiz-adv-x="640" d="M267 935 Q267 920 277 910 L293 894 Q303 884 318 884 L323 884 Q338 884 348 894 L364 910 Q374 920 374 935 L374 945 Q374 960 384.5 971 Q395 982 411 982 Q427 982 437.5 971 Q448 960 448 945 L448 903 Q448 889 439 880 L379 819 Q370 810 355 810 L286 810 Q271 810 262 819 L202 880 Q193 889 193 903 L193 945 Q193 960 203.5 971 Q214 982 230 982 Q246 982 256.5 971 Q267 960 267 945 L267 935 Z " />
<glyph glyph-name="ring" unicode="&#x2da;" horiz-adv-x="640" d="M209 911 Q209 923 217 931 L269 984 Q279 992 290 992 L350 992 Q363 992 371 984 L423 931 Q431 924 431 911 L431 850 Q431 838 423 830 L371 778 Q363 770 350 770 L290 770 Q279 770 269 778 L217 830 Q209 840 209 850 L209 911 Z M284 906 Q274 896 274 881 Q274 866 284 856 L295 845 Q305 835 320 835 Q335 835 345 845 L356 856 Q366 866 366 881 Q366 896 356 906 L345 917 Q335 927 320 927 Q305 927 295 917 L284 906 Z " />
<glyph glyph-name="tilde" unicode="&#x2dc;" horiz-adv-x="640" d="M236 904 L236 872 Q236 856 225 845 Q214 834 198 834 Q183 834 172 845 Q161 856 161 872 L161 922 Q161 935 171 945 L211 985 Q221 995 234 995 L284 995 Q298 995 308 985 L348 945 Q357 935 357 922 L357 900 L373 885 L389 885 L404 900 L404 933 Q404 948 415 959 Q426 970 442 970 Q457 970 468 959 Q479 948 479 933 L479 883 Q479 869 470 860 L429 820 Q421 810 406 810 L356 810 Q342 810 332 820 L292 860 Q283 869 283 883 L283 904 L267 920 L251 920 L236 904 Z " />
<glyph glyph-name="hungarumlaut" unicode="&#x2dd;" horiz-adv-x="640" d="M224 823 Q211 810 192 810 Q173 810 160 823 Q147 836 147 855 Q147 874 160 887 L242 969 Q255 982 274 982 Q293 982 306 969 Q319 956 319 937 Q319 918 306 905 L224 823 Z M397 823 Q384 810 365 810 Q346 810 332.5 823 Q319 836 319 855 Q319 873 333 887 L414 969 Q427 982 446 982 Q465 982 478.5 969 Q492 956 492 937 Q492 917 478 905 L397 823 Z " />
<glyph glyph-name="ogonek" unicode="&#x2db;" horiz-adv-x="640" d="M353 -43 Q353 -58 342 -69 L285 -126 Q280 -131 277 -138 Q274 -145 274 -152 Q274 -159 277 -166 Q280 -173 285 -178 L294 -187 Q305 -198 320 -198 Q327 -198 334 -195 Q341 -192 346 -187 L352 -181 Q361 -172 375 -172 Q389 -172 398.5 -181 Q408 -190 408 -204 Q408 -217 398 -227 L371 -254 Q364 -263 351 -263 L290 -263 Q278 -263 270 -254 L217 -202 Q209 -194 209 -182 L209 -121 Q209 -111 217 -101 L277 -42 Q288 -31 288 -16 L288 40 Q288 54 297 63 Q306 72 320 72 Q334 72 343.5 63 Q353 54 353 40 L353 -43 Z " />
<glyph glyph-name="cedilla" unicode="&#xb8;" horiz-adv-x="640" d="M287 -43 L287 40 Q287 54 296.5 63 Q306 72 320 72 Q334 72 343 63 Q352 54 352 40 L352 -16 Q352 -23 355 -30 Q358 -37 363 -42 L423 -101 Q431 -111 431 -121 L431 -182 Q431 -194 423 -202 L370 -254 Q363 -263 350 -263 L289 -263 Q277 -263 269 -254 L242 -227 Q232 -217 232 -204 Q232 -190 241.5 -181 Q251 -172 265 -172 Q279 -172 288 -181 L294 -187 Q305 -198 320 -198 Q327 -198 334 -195 Q341 -192 346 -187 L355 -178 Q366 -167 366 -152 Q366 -137 355 -126 L298 -69 Q293 -64 290 -57 Q287 -50 287 -43 Z " />
<glyph glyph-name="dotaccent" unicode="&#x2d9;" horiz-adv-x="640" d="M335 825 L305 825 Q286 825 273 838 Q260 851 260 870 L260 900 Q260 919 273 932 Q286 945 305 945 L335 945 Q354 945 367 932 Q380 919 380 900 L380 870 Q380 851 367 838 Q354 825 335 825 Z " />
<glyph glyph-name="dieresis" unicode="&#xa8;" horiz-adv-x="640" d="M417 820 L397 820 Q378 820 365 833 Q352 846 352 865 L352 885 Q352 904 365 917 Q378 930 397 930 L417 930 Q436 930 449 917 Q462 904 462 885 L462 865 Q462 846 449 833 Q436 820 417 820 Z M242 820 L222 820 Q203 820 190 833 Q177 846 177 865 L177 885 Q177 904 190 917 Q203 930 222 930 L242 930 Q261 930 274 917 Q287 904 287 885 L287 865 Q287 846 274 833 Q261 820 242 820 Z " />
<glyph glyph-name="overscore" unicode="&#xaf;" horiz-adv-x="640" d="M225 820 Q206 820 193 833 Q180 846 180 865 Q180 884 193 897.5 Q206 911 225 911 L414 911 Q433 911 446 897.5 Q459 884 459 865 Q459 846 446 833 Q433 820 414 820 L225 820 Z " />
<glyph glyph-name="uni02C9" unicode="&#x2c9;" horiz-adv-x="640" d="M225 820 Q206 820 193 833 Q180 846 180 865 Q180 884 193 897.5 Q206 911 225 911 L414 911 Q433 911 446 897.5 Q459 884 459 865 Q459 846 446 833 Q433 820 414 820 L225 820 Z " />
<glyph glyph-name="aacute" unicode="&#xe1;" horiz-adv-x="640" d="M543 45 Q543 26 530 13 Q517 0 498 0 Q479 0 465.5 13 Q452 26 452 45 L452 237 Q452 256 439 269 Q426 282 407 282 L234 282 Q215 282 202 269 Q189 256 189 237 L189 45 Q189 26 175.5 13 Q162 0 143 0 Q124 0 111 13 Q98 26 98 45 L98 550 Q98 569 111 582 L216 686 Q228 700 248 700 L393 700 Q412 700 425 687 L529 582 Q543 570 543 550 L543 45 Z M452 516 Q452 531 442 541 L384 599 Q374 609 359 609 L282 609 Q267 609 257 599 L199 541 Q189 531 189 516 L189 418 Q189 399 202 386 Q215 373 234 373 L407 373 Q426 373 439 386 Q452 399 452 418 L452 516 Z M312 823 Q299 810 280 810 Q261 810 247.5 823 Q234 836 234 855 Q234 873 248 887 L329 969 Q342 982 361 982 Q380 982 393.5 969 Q407 956 407 937 Q407 917 393 905 L312 823 Z " />
<glyph glyph-name="Ccedilla" unicode="&#xc7;" horiz-adv-x="640" d="M189 184 Q189 169 199 159 L257 101 Q267 91 282 91 L359 91 Q374 91 384 101 L442 159 Q452 169 452 184 L452 214 Q452 233 465.5 246.5 Q479 260 498 260 Q517 260 530 246.5 Q543 233 543 214 L543 150 Q543 130 529 118 L425 13 Q412 0 393 0 L248 0 Q229 0 215 14 L111 118 Q98 131 98 150 L98 550 Q98 569 111 582 L215 686 Q229 700 248 700 L393 700 Q412 700 425 687 L529 582 Q543 570 543 550 L543 486 Q543 467 530 453.5 Q517 440 498 440 Q479 440 465.5 453.5 Q452 467 452 486 L452 516 Q452 531 442 541 L384 599 Q374 609 359 609 L282 609 Q267 609 257 599 L199 541 Q189 531 189 516 L189 184 Z M288 -43 L288 40 Q288 54 297.5 63 Q307 72 321 72 Q335 72 344 63 Q353 54 353 40 L353 -16 Q353 -23 356 -30 Q359 -37 364 -42 L424 -101 Q432 -111 432 -121 L432 -182 Q432 -194 424 -202 L371 -254 Q364 -263 351 -263 L290 -263 Q278 -263 270 -254 L243 -227 Q233 -217 233 -204 Q233 -190 242.5 -181 Q252 -172 266 -172 Q280 -172 289 -181 L295 -187 Q306 -198 321 -198 Q328 -198 335 -195 Q342 -192 347 -187 L356 -178 Q367 -167 367 -152 Q367 -137 356 -126 L299 -69 Q294 -64 291 -57 Q288 -50 288 -43 Z " />
<glyph glyph-name="acircumflex" unicode="&#xe2;" horiz-adv-x="640" d="M543 45 Q543 26 530 13 Q517 0 498 0 Q479 0 465.5 13 Q452 26 452 45 L452 237 Q452 256 439 269 Q426 282 407 282 L234 282 Q215 282 202 269 Q189 256 189 237 L189 45 Q189 26 175.5 13 Q162 0 143 0 Q124 0 111 13 Q98 26 98 45 L98 550 Q98 569 111 582 L216 686 Q228 700 248 700 L393 700 Q412 700 425 687 L529 582 Q543 570 543 550 L543 45 Z M452 516 Q452 531 442 541 L384 599 Q374 609 359 609 L282 609 Q267 609 257 599 L199 541 Q189 531 189 516 L189 418 Q189 399 202 386 Q215 373 234 373 L407 373 Q426 373 439 386 Q452 399 452 418 L452 516 Z M255 821 Q250 815 242.5 812.5 Q235 810 227 810 Q210 810 198.5 821 Q187 832 187 849 Q187 866 199 878 L292 970 Q303 982 320 982 Q336 982 348 970 L441 878 Q452 867 452 849 Q452 832 441 821 Q430 810 413 810 Q395 810 384 821 L348 857 Q336 869 320 869 Q303 869 292 857 L255 821 Z " />
<glyph glyph-name="atilde" unicode="&#xe3;" horiz-adv-x="640" d="M543 45 Q543 26 530 13 Q517 0 498 0 Q479 0 465.5 13 Q452 26 452 45 L452 237 Q452 256 439 269 Q426 282 407 282 L234 282 Q215 282 202 269 Q189 256 189 237 L189 45 Q189 26 175.5 13 Q162 0 143 0 Q124 0 111 13 Q98 26 98 45 L98 550 Q98 569 111 582 L216 686 Q228 700 248 700 L393 700 Q412 700 425 687 L529 582 Q543 570 543 550 L543 45 Z M452 516 Q452 531 442 541 L384 599 Q374 609 359 609 L282 609 Q267 609 257 599 L199 541 Q189 531 189 516 L189 418 Q189 399 202 386 Q215 373 234 373 L407 373 Q426 373 439 386 Q452 399 452 418 L452 516 Z M236 904 L236 872 Q236 856 225 845 Q214 834 198 834 Q183 834 172 845 Q161 856 161 872 L161 922 Q161 935 171 945 L211 985 Q221 995 234 995 L284 995 Q298 995 308 985 L348 945 Q357 935 357 922 L357 900 L373 885 L389 885 L404 900 L404 933 Q404 948 415 959 Q426 970 442 970 Q457 970 468 959 Q479 948 479 933 L479 883 Q479 869 470 860 L429 820 Q421 810 406 810 L356 810 Q342 810 332 820 L292 860 Q283 869 283 883 L283 904 L267 920 L251 920 L236 904 Z " />
<glyph glyph-name="adieresis" unicode="&#xe4;" horiz-adv-x="640" d="M543 45 Q543 26 530 13 Q517 0 498 0 Q479 0 465.5 13 Q452 26 452 45 L452 237 Q452 256 439 269 Q426 282 407 282 L234 282 Q215 282 202 269 Q189 256 189 237 L189 45 Q189 26 175.5 13 Q162 0 143 0 Q124 0 111 13 Q98 26 98 45 L98 550 Q98 569 111 582 L216 686 Q228 700 248 700 L393 700 Q412 700 425 687 L529 582 Q543 570 543 550 L543 45 Z M452 516 Q452 531 442 541 L384 599 Q374 609 359 609 L282 609 Q267 609 257 599 L199 541 Q189 531 189 516 L189 418 Q189 399 202 386 Q215 373 234 373 L407 373 Q426 373 439 386 Q452 399 452 418 L452 516 Z M418 820 L398 820 Q379 820 366 833 Q353 846 353 865 L353 885 Q353 904 366 917 Q379 930 398 930 L418 930 Q437 930 450 917 Q463 904 463 885 L463 865 Q463 846 450 833 Q437 820 418 820 Z M243 820 L223 820 Q204 820 191 833 Q178 846 178 865 L178 885 Q178 904 191 917 Q204 930 223 930 L243 930 Q262 930 275 917 Q288 904 288 885 L288 865 Q288 846 275 833 Q262 820 243 820 Z " />
<glyph glyph-name="aring" unicode="&#xe5;" horiz-adv-x="640" d="M543 45 Q543 26 530 13 Q517 0 498 0 Q479 0 465.5 13 Q452 26 452 45 L452 237 Q452 256 439 269 Q426 282 407 282 L234 282 Q215 282 202 269 Q189 256 189 237 L189 45 Q189 26 175.5 13 Q162 0 143 0 Q124 0 111 13 Q98 26 98 45 L98 550 Q98 569 111 582 L216 686 Q228 700 248 700 L393 700 Q412 700 425 687 L529 582 Q543 570 543 550 L543 45 Z M452 516 Q452 531 442 541 L384 599 Q374 609 359 609 L282 609 Q267 609 257 599 L199 541 Q189 531 189 516 L189 418 Q189 399 202 386 Q215 373 234 373 L407 373 Q426 373 439 386 Q452 399 452 418 L452 516 Z M209 911 Q209 923 217 931 L269 984 Q279 992 290 992 L350 992 Q363 992 371 984 L423 931 Q431 924 431 911 L431 850 Q431 838 423 830 L371 778 Q363 770 350 770 L290 770 Q279 770 269 778 L217 830 Q209 840 209 850 L209 911 Z M284 906 Q274 896 274 881 Q274 866 284 856 L295 845 Q305 835 320 835 Q335 835 345 845 L356 856 Q366 866 366 881 Q366 896 356 906 L345 917 Q335 927 320 927 Q305 927 295 917 L284 906 Z " />
<glyph glyph-name="egrave" unicode="&#xe8;" horiz-adv-x="640" d="M98 655 Q98 674 111 687 Q124 700 143 700 L498 700 Q517 700 530 687 Q543 674 543 655 Q543 636 530 622.5 Q517 609 498 609 L234 609 Q215 609 202 596 Q189 583 189 564 L189 441 Q189 422 202 408.5 Q215 395 234 395 L430 395 Q449 395 462.5 382 Q476 369 476 350 Q476 331 462.5 317.5 Q449 304 430 304 L234 304 Q215 304 202 290.5 Q189 277 189 258 L189 136 Q189 117 202 104 Q215 91 234 91 L498 91 Q517 91 530 77.5 Q543 64 543 45 Q543 26 530 13 Q517 0 498 0 L143 0 Q124 0 111 13 Q98 26 98 45 L98 655 Z M247 905 Q234 918 234 937 Q234 956 247 969 Q260 982 279 982 Q299 982 312 969 L393 887 Q407 873 407 855 Q407 836 393.5 823 Q380 810 361 810 Q342 810 329 823 L247 905 Z " />
<glyph glyph-name="eacute" unicode="&#xe9;" horiz-adv-x="640" d="M98 655 Q98 674 111 687 Q124 700 143 700 L498 700 Q517 700 530 687 Q543 674 543 655 Q543 636 530 622.5 Q517 609 498 609 L234 609 Q215 609 202 596 Q189 583 189 564 L189 441 Q189 422 202 408.5 Q215 395 234 395 L430 395 Q449 395 462.5 382 Q476 369 476 350 Q476 331 462.5 317.5 Q449 304 430 304 L234 304 Q215 304 202 290.5 Q189 277 189 258 L189 136 Q189 117 202 104 Q215 91 234 91 L498 91 Q517 91 530 77.5 Q543 64 543 45 Q543 26 530 13 Q517 0 498 0 L143 0 Q124 0 111 13 Q98 26 98 45 L98 655 Z M312 823 Q299 810 280 810 Q261 810 247.5 823 Q234 836 234 855 Q234 873 248 887 L329 969 Q342 982 361 982 Q380 982 393.5 969 Q407 956 407 937 Q407 917 393 905 L312 823 Z " />
<glyph glyph-name="ecircumflex" unicode="&#xea;" horiz-adv-x="640" d="M98 655 Q98 674 111 687 Q124 700 143 700 L498 700 Q517 700 530 687 Q543 674 543 655 Q543 636 530 622.5 Q517 609 498 609 L234 609 Q215 609 202 596 Q189 583 189 564 L189 441 Q189 422 202 408.5 Q215 395 234 395 L430 395 Q449 395 462.5 382 Q476 369 476 350 Q476 331 462.5 317.5 Q449 304 430 304 L234 304 Q215 304 202 290.5 Q189 277 189 258 L189 136 Q189 117 202 104 Q215 91 234 91 L498 91 Q517 91 530 77.5 Q543 64 543 45 Q543 26 530 13 Q517 0 498 0 L143 0 Q124 0 111 13 Q98 26 98 45 L98 655 Z M255 821 Q250 815 242.5 812.5 Q235 810 227 810 Q210 810 198.5 821 Q187 832 187 849 Q187 866 199 878 L292 970 Q303 982 320 982 Q336 982 348 970 L441 878 Q452 867 452 849 Q452 832 441 821 Q430 810 413 810 Q395 810 384 821 L348 857 Q336 869 320 869 Q303 869 292 857 L255 821 Z " />
<glyph glyph-name="edieresis" unicode="&#xeb;" horiz-adv-x="640" d="M98 655 Q98 674 111 687 Q124 700 143 700 L498 700 Q517 700 530 687 Q543 674 543 655 Q543 636 530 622.5 Q517 609 498 609 L234 609 Q215 609 202 596 Q189 583 189 564 L189 441 Q189 422 202 408.5 Q215 395 234 395 L430 395 Q449 395 462.5 382 Q476 369 476 350 Q476 331 462.5 317.5 Q449 304 430 304 L234 304 Q215 304 202 290.5 Q189 277 189 258 L189 136 Q189 117 202 104 Q215 91 234 91 L498 91 Q517 91 530 77.5 Q543 64 543 45 Q543 26 530 13 Q517 0 498 0 L143 0 Q124 0 111 13 Q98 26 98 45 L98 655 Z M418 820 L398 820 Q379 820 366 833 Q353 846 353 865 L353 885 Q353 904 366 917 Q379 930 398 930 L418 930 Q437 930 450 917 Q463 904 463 885 L463 865 Q463 846 450 833 Q437 820 418 820 Z M243 820 L223 820 Q204 820 191 833 Q178 846 178 865 L178 885 Q178 904 191 917 Q204 930 223 930 L243 930 Q262 930 275 917 Q288 904 288 885 L288 865 Q288 846 275 833 Q262 820 243 820 Z " />
<glyph glyph-name="igrave" unicode="&#xec;" horiz-adv-x="640" d="M188 0 Q169 0 156 13 Q143 26 143 45 Q143 64 156 77.5 Q169 91 188 91 L230 91 Q249 91 262 104 Q275 117 275 136 L275 564 Q275 583 262 596 Q249 609 230 609 L188 609 Q169 609 156 622.5 Q143 636 143 655 Q143 674 156 687 Q169 700 188 700 L453 700 Q472 700 485 687 Q498 674 498 655 Q498 636 485 622.5 Q472 609 453 609 L411 609 Q392 609 379 596 Q366 583 366 564 L366 136 Q366 117 379 104 Q392 91 411 91 L453 91 Q472 91 485 77.5 Q498 64 498 45 Q498 26 485 13 Q472 0 453 0 L188 0 Z M247 905 Q234 918 234 937 Q234 956 247 969 Q260 982 279 982 Q299 982 312 969 L393 887 Q407 873 407 855 Q407 836 393.5 823 Q380 810 361 810 Q342 810 329 823 L247 905 Z " />
<glyph glyph-name="iacute" unicode="&#xed;" horiz-adv-x="640" d="M188 0 Q169 0 156 13 Q143 26 143 45 Q143 64 156 77.5 Q169 91 188 91 L230 91 Q249 91 262 104 Q275 117 275 136 L275 564 Q275 583 262 596 Q249 609 230 609 L188 609 Q169 609 156 622.5 Q143 636 143 655 Q143 674 156 687 Q169 700 188 700 L453 700 Q472 700 485 687 Q498 674 498 655 Q498 636 485 622.5 Q472 609 453 609 L411 609 Q392 609 379 596 Q366 583 366 564 L366 136 Q366 117 379 104 Q392 91 411 91 L453 91 Q472 91 485 77.5 Q498 64 498 45 Q498 26 485 13 Q472 0 453 0 L188 0 Z M312 823 Q299 810 280 810 Q261 810 247.5 823 Q234 836 234 855 Q234 873 248 887 L329 969 Q342 982 361 982 Q380 982 393.5 969 Q407 956 407 937 Q407 917 393 905 L312 823 Z " />
<glyph glyph-name="icircumflex" unicode="&#xee;" horiz-adv-x="640" d="M188 0 Q169 0 156 13 Q143 26 143 45 Q143 64 156 77.5 Q169 91 188 91 L230 91 Q249 91 262 104 Q275 117 275 136 L275 564 Q275 583 262 596 Q249 609 230 609 L188 609 Q169 609 156 622.5 Q143 636 143 655 Q143 674 156 687 Q169 700 188 700 L453 700 Q472 700 485 687 Q498 674 498 655 Q498 636 485 622.5 Q472 609 453 609 L411 609 Q392 609 379 596 Q366 583 366 564 L366 136 Q366 117 379 104 Q392 91 411 91 L453 91 Q472 91 485 77.5 Q498 64 498 45 Q498 26 485 13 Q472 0 453 0 L188 0 Z M292 857 Q303 869 320 869 Q336 869 348 857 L384 821 Q395 810 413 810 Q430 810 441 821 Q452 832 452 849 Q452 867 441 878 L348 970 Q336 982 320 982 Q303 982 292 970 L199 878 Q187 866 187 849 Q187 832 198.5 821 Q210 810 227 810 Q235 810 242.5 812.5 Q250 815 255 821 L292 857 Z " />
<glyph glyph-name="idieresis" unicode="&#xef;" horiz-adv-x="640" d="M188 0 Q169 0 156 13 Q143 26 143 45 Q143 64 156 77.5 Q169 91 188 91 L230 91 Q249 91 262 104 Q275 117 275 136 L275 564 Q275 583 262 596 Q249 609 230 609 L188 609 Q169 609 156 622.5 Q143 636 143 655 Q143 674 156 687 Q169 700 188 700 L453 700 Q472 700 485 687 Q498 674 498 655 Q498 636 485 622.5 Q472 609 453 609 L411 609 Q392 609 379 596 Q366 583 366 564 L366 136 Q366 117 379 104 Q392 91 411 91 L453 91 Q472 91 485 77.5 Q498 64 498 45 Q498 26 485 13 Q472 0 453 0 L188 0 Z M418 820 L398 820 Q379 820 366 833 Q353 846 353 865 L353 885 Q353 904 366 917 Q379 930 398 930 L418 930 Q437 930 450 917 Q463 904 463 885 L463 865 Q463 846 450 833 Q437 820 418 820 Z M243 820 L223 820 Q204 820 191 833 Q178 846 178 865 L178 885 Q178 904 191 917 Q204 930 223 930 L243 930 Q262 930 275 917 Q288 904 288 885 L288 865 Q288 846 275 833 Q262 820 243 820 Z " />
<glyph glyph-name="ntilde" unicode="&#xf1;" horiz-adv-x="640" d="M445 227 Q448 222 450 222 Q452 222 452 229 L452 655 Q452 674 465.5 687 Q479 700 498 700 Q517 700 530 687 Q543 674 543 655 L543 45 Q543 26 530 13 Q517 0 498 0 Q471 0 458 23 L196 474 Q194 479 191 479 Q189 479 189 472 L189 45 Q189 26 175.5 13 Q162 0 143 0 Q124 0 111 13 Q98 26 98 45 L98 655 Q98 674 111 687 Q124 700 143 700 Q170 700 183 677 L445 227 Z M236 904 L236 872 Q236 856 225 845 Q214 834 198 834 Q183 834 172 845 Q161 856 161 872 L161 922 Q161 935 171 945 L211 985 Q221 995 234 995 L284 995 Q298 995 308 985 L348 945 Q357 935 357 922 L357 900 L373 885 L389 885 L404 900 L404 933 Q404 948 415 959 Q426 970 442 970 Q457 970 468 959 Q479 948 479 933 L479 883 Q479 869 470 860 L429 820 Q421 810 406 810 L356 810 Q342 810 332 820 L292 860 Q283 869 283 883 L283 904 L267 920 L251 920 L236 904 Z " />
<glyph glyph-name="ograve" unicode="&#xf2;" horiz-adv-x="640" d="M530 603 Q543 590 543 571 L543 129 Q543 110 530 97 L446 14 Q434 0 413 0 L227 0 Q207 0 195 14 L111 97 Q98 110 98 129 L98 571 Q98 590 111 603 L195 686 Q207 700 227 700 L413 700 Q434 700 446 686 L530 603 Z M442 138 Q452 148 452 163 L452 537 Q452 552 442 562 L405 599 Q395 609 380 609 L261 609 Q246 609 236 599 L199 562 Q189 552 189 537 L189 163 Q189 148 199 138 L236 101 Q246 91 261 91 L380 91 Q395 91 405 101 L442 138 Z M247 905 Q234 918 234 937 Q234 956 247 969 Q260 982 279 982 Q299 982 312 969 L393 887 Q407 873 407 855 Q407 836 393.5 823 Q380 810 361 810 Q342 810 329 823 L247 905 Z " />
<glyph glyph-name="oacute" unicode="&#xf3;" horiz-adv-x="640" d="M530 603 Q543 590 543 571 L543 129 Q543 110 530 97 L446 14 Q434 0 413 0 L227 0 Q207 0 195 14 L111 97 Q98 110 98 129 L98 571 Q98 590 111 603 L195 686 Q207 700 227 700 L413 700 Q434 700 446 686 L530 603 Z M442 138 Q452 148 452 163 L452 537 Q452 552 442 562 L405 599 Q395 609 380 609 L261 609 Q246 609 236 599 L199 562 Q189 552 189 537 L189 163 Q189 148 199 138 L236 101 Q246 91 261 91 L380 91 Q395 91 405 101 L442 138 Z M312 823 Q299 810 280 810 Q261 810 247.5 823 Q234 836 234 855 Q234 873 248 887 L329 969 Q342 982 361 982 Q380 982 393.5 969 Q407 956 407 937 Q407 917 393 905 L312 823 Z " />
<glyph glyph-name="ocircumflex" unicode="&#xf4;" horiz-adv-x="640" d="M530 603 Q543 590 543 571 L543 129 Q543 110 530 97 L446 14 Q434 0 413 0 L227 0 Q207 0 195 14 L111 97 Q98 110 98 129 L98 571 Q98 590 111 603 L195 686 Q207 700 227 700 L413 700 Q434 700 446 686 L530 603 Z M442 138 Q452 148 452 163 L452 537 Q452 552 442 562 L405 599 Q395 609 380 609 L261 609 Q246 609 236 599 L199 562 Q189 552 189 537 L189 163 Q189 148 199 138 L236 101 Q246 91 261 91 L380 91 Q395 91 405 101 L442 138 Z M255 821 Q250 815 242.5 812.5 Q235 810 227 810 Q210 810 198.5 821 Q187 832 187 849 Q187 866 199 878 L292 970 Q303 982 320 982 Q336 982 348 970 L441 878 Q452 867 452 849 Q452 832 441 821 Q430 810 413 810 Q395 810 384 821 L348 857 Q336 869 320 869 Q303 869 292 857 L255 821 Z " />
<glyph glyph-name="otilde" unicode="&#xf5;" horiz-adv-x="640" d="M530 603 Q543 590 543 571 L543 129 Q543 110 530 97 L446 14 Q434 0 413 0 L227 0 Q207 0 195 14 L111 97 Q98 110 98 129 L98 571 Q98 590 111 603 L195 686 Q207 700 227 700 L413 700 Q434 700 446 686 L530 603 Z M442 138 Q452 148 452 163 L452 537 Q452 552 442 562 L405 599 Q395 609 380 609 L261 609 Q246 609 236 599 L199 562 Q189 552 189 537 L189 163 Q189 148 199 138 L236 101 Q246 91 261 91 L380 91 Q395 91 405 101 L442 138 Z M236 904 L236 872 Q236 856 225 845 Q214 834 198 834 Q183 834 172 845 Q161 856 161 872 L161 922 Q161 935 171 945 L211 985 Q221 995 234 995 L284 995 Q298 995 308 985 L348 945 Q357 935 357 922 L357 900 L373 885 L389 885 L404 900 L404 933 Q404 948 415 959 Q426 970 442 970 Q457 970 468 959 Q479 948 479 933 L479 883 Q479 869 470 860 L429 820 Q421 810 406 810 L356 810 Q342 810 332 820 L292 860 Q283 869 283 883 L283 904 L267 920 L251 920 L236 904 Z " />
<glyph glyph-name="odieresis" unicode="&#xf6;" horiz-adv-x="640" d="M530 603 Q543 590 543 571 L543 129 Q543 110 530 97 L446 14 Q434 0 413 0 L227 0 Q207 0 195 14 L111 97 Q98 110 98 129 L98 571 Q98 590 111 603 L195 686 Q207 700 227 700 L413 700 Q434 700 446 686 L530 603 Z M442 138 Q452 148 452 163 L452 537 Q452 552 442 562 L405 599 Q395 609 380 609 L261 609 Q246 609 236 599 L199 562 Q189 552 189 537 L189 163 Q189 148 199 138 L236 101 Q246 91 261 91 L380 91 Q395 91 405 101 L442 138 Z M418 820 L398 820 Q379 820 366 833 Q353 846 353 865 L353 885 Q353 904 366 917 Q379 930 398 930 L418 930 Q437 930 450 917 Q463 904 463 885 L463 865 Q463 846 450 833 Q437 820 418 820 Z M243 820 L223 820 Q204 820 191 833 Q178 846 178 865 L178 885 Q178 904 191 917 Q204 930 223 930 L243 930 Q262 930 275 917 Q288 904 288 885 L288 865 Q288 846 275 833 Q262 820 243 820 Z " />
<glyph glyph-name="ugrave" unicode="&#xf9;" horiz-adv-x="640" d="M189 163 Q189 148 199 138 L236 101 Q246 91 261 91 L380 91 Q395 91 405 101 L442 138 Q452 148 452 163 L452 655 Q452 674 465.5 687 Q479 700 498 700 Q517 700 530 687 Q543 674 543 655 L543 129 Q543 110 530 97 L446 14 Q434 0 413 0 L227 0 Q207 0 195 14 L111 97 Q98 110 98 129 L98 655 Q98 674 111 687 Q124 700 143 700 Q162 700 175.5 687 Q189 674 189 655 L189 163 Z M247 905 Q234 918 234 937 Q234 956 247 969 Q260 982 279 982 Q299 982 312 969 L393 887 Q407 873 407 855 Q407 836 393.5 823 Q380 810 361 810 Q342 810 329 823 L247 905 Z " />
<glyph glyph-name="uacute" unicode="&#xfa;" horiz-adv-x="640" d="M189 163 Q189 148 199 138 L236 101 Q246 91 261 91 L380 91 Q395 91 405 101 L442 138 Q452 148 452 163 L452 655 Q452 674 465.5 687 Q479 700 498 700 Q517 700 530 687 Q543 674 543 655 L543 129 Q543 110 530 97 L446 14 Q434 0 413 0 L227 0 Q207 0 195 14 L111 97 Q98 110 98 129 L98 655 Q98 674 111 687 Q124 700 143 700 Q162 700 175.5 687 Q189 674 189 655 L189 163 Z M312 823 Q299 810 280 810 Q261 810 247.5 823 Q234 836 234 855 Q234 873 248 887 L329 969 Q342 982 361 982 Q380 982 393.5 969 Q407 956 407 937 Q407 917 393 905 L312 823 Z " />
<glyph glyph-name="ucircumflex" unicode="&#xfb;" horiz-adv-x="640" d="M189 163 Q189 148 199 138 L236 101 Q246 91 261 91 L380 91 Q395 91 405 101 L442 138 Q452 148 452 163 L452 655 Q452 674 465.5 687 Q479 700 498 700 Q517 700 530 687 Q543 674 543 655 L543 129 Q543 110 530 97 L446 14 Q434 0 413 0 L227 0 Q207 0 195 14 L111 97 Q98 110 98 129 L98 655 Q98 674 111 687 Q124 700 143 700 Q162 700 175.5 687 Q189 674 189 655 L189 163 Z M255 821 Q250 815 242.5 812.5 Q235 810 227 810 Q210 810 198.5 821 Q187 832 187 849 Q187 866 199 878 L292 970 Q303 982 320 982 Q336 982 348 970 L441 878 Q452 867 452 849 Q452 832 441 821 Q430 810 413 810 Q395 810 384 821 L348 857 Q336 869 320 869 Q303 869 292 857 L255 821 Z " />
<glyph glyph-name="udieresis" unicode="&#xfc;" horiz-adv-x="640" d="M189 163 Q189 148 199 138 L236 101 Q246 91 261 91 L380 91 Q395 91 405 101 L442 138 Q452 148 452 163 L452 655 Q452 674 465.5 687 Q479 700 498 700 Q517 700 530 687 Q543 674 543 655 L543 129 Q543 110 530 97 L446 14 Q434 0 413 0 L227 0 Q207 0 195 14 L111 97 Q98 110 98 129 L98 655 Q98 674 111 687 Q124 700 143 700 Q162 700 175.5 687 Q189 674 189 655 L189 163 Z M418 820 L398 820 Q379 820 366 833 Q353 846 353 865 L353 885 Q353 904 366 917 Q379 930 398 930 L418 930 Q437 930 450 917 Q463 904 463 885 L463 865 Q463 846 450 833 Q437 820 418 820 Z M243 820 L223 820 Q204 820 191 833 Q178 846 178 865 L178 885 Q178 904 191 917 Q204 930 223 930 L243 930 Q262 930 275 917 Q288 904 288 885 L288 865 Q288 846 275 833 Q262 820 243 820 Z " />
<glyph glyph-name="yacute" unicode="&#xfd;" horiz-adv-x="640" d="M112 453 Q98 467 98 486 L98 655 Q98 674 111 687 Q124 700 143 700 Q162 700 175.5 687 Q189 674 189 655 L189 520 Q189 505 199 495 L288 405 Q301 392 320 392 Q340 392 353 405 L442 495 Q452 505 452 520 L452 655 Q452 674 465.5 687 Q479 700 498 700 Q517 700 530 687 Q543 674 543 655 L543 486 Q543 467 529 453 L376 300 Q366 290 366 275 L366 45 Q366 26 353 13 Q340 0 320 0 Q301 0 288 13 Q275 26 275 45 L275 275 Q275 290 265 300 L112 453 Z M312 823 Q299 810 280 810 Q261 810 247.5 823 Q234 836 234 855 Q234 873 248 887 L329 969 Q342 982 361 982 Q380 982 393.5 969 Q407 956 407 937 Q407 917 393 905 L312 823 Z " />
<glyph glyph-name="questiondown" unicode="&#xbf;" horiz-adv-x="640" d="M98 129 L98 194 Q98 213 111 226 L265 380 Q275 390 275 405 L275 455 Q275 474 288 487 Q301 500 320 500 Q340 500 353 487 Q366 474 366 455 L366 371 Q366 352 353 339 L199 185 Q189 175 189 160 Q189 148 197 140 L236 101 Q246 91 261 91 L380 91 Q395 91 405 101 L442 138 Q452 148 452 163 L452 175 Q452 194 465.5 207 Q479 220 498 220 Q517 220 530 207 Q543 194 543 175 L543 129 Q543 110 530 97 L446 14 Q434 0 414 0 L227 0 Q207 0 195 14 L111 97 Q98 112 98 129 Z M301 700 L341 700 Q360 700 373 687 Q386 674 386 655 L386 615 Q386 596 373 583 Q360 570 341 570 L301 570 Q282 570 269 583 Q256 596 256 615 L256 655 Q256 674 269 687 Q282 700 301 700 Z " />
<glyph glyph-name="agrave" unicode="&#xe0;" horiz-adv-x="640" d="M543 45 Q543 26 530 13 Q517 0 498 0 Q479 0 465.5 13 Q452 26 452 45 L452 237 Q452 256 439 269 Q426 282 407 282 L234 282 Q215 282 202 269 Q189 256 189 237 L189 45 Q189 26 175.5 13 Q162 0 143 0 Q124 0 111 13 Q98 26 98 45 L98 550 Q98 569 111 582 L216 686 Q228 700 248 700 L393 700 Q412 700 425 687 L529 582 Q543 570 543 550 L543 45 Z M452 516 Q452 531 442 541 L384 599 Q374 609 359 609 L282 609 Q267 609 257 599 L199 541 Q189 531 189 516 L189 418 Q189 399 202 386 Q215 373 234 373 L407 373 Q426 373 439 386 Q452 399 452 418 L452 516 Z M247 905 Q234 918 234 937 Q234 956 247 969 Q260 982 279 982 Q299 982 312 969 L393 887 Q407 873 407 855 Q407 836 393.5 823 Q380 810 361 810 Q342 810 329 823 L247 905 Z " />
<glyph glyph-name="Aogonek" unicode="&#x104;" horiz-adv-x="640" d="M543 45 Q543 26 530 13 Q517 0 498 0 Q479 0 465.5 13 Q452 26 452 45 L452 237 Q452 256 439 269 Q426 282 407 282 L234 282 Q215 282 202 269 Q189 256 189 237 L189 45 Q189 26 175.5 13 Q162 0 143 0 Q124 0 111 13 Q98 26 98 45 L98 550 Q98 569 111 582 L216 686 Q228 700 248 700 L393 700 Q412 700 425 687 L529 582 Q543 570 543 550 L543 45 Z M452 516 Q452 531 442 541 L384 599 Q374 609 359 609 L282 609 Q267 609 257 599 L199 541 Q189 531 189 516 L189 418 Q189 399 202 386 Q215 373 234 373 L407 373 Q426 373 439 386 Q452 399 452 418 L452 516 Z M543 -43 Q543 -58 532 -69 L475 -126 Q470 -131 467 -138 Q464 -145 464 -152 Q464 -159 467 -166 Q470 -173 475 -178 L484 -187 Q495 -198 510 -198 Q517 -198 524 -195 Q531 -192 536 -187 L542 -181 Q551 -172 565 -172 Q579 -172 588.5 -181 Q598 -190 598 -204 Q598 -217 588 -227 L561 -254 Q554 -263 541 -263 L480 -263 Q468 -263 460 -254 L407 -202 Q399 -194 399 -182 L399 -121 Q399 -111 407 -101 L467 -42 Q478 -31 478 -16 L478 40 Q478 54 487 63 Q496 72 510 72 Q524 72 533.5 63 Q543 54 543 40 L543 -43 Z " />
<glyph glyph-name="aogonek" unicode="&#x105;" horiz-adv-x="640" d="M543 45 Q543 26 530 13 Q517 0 498 0 Q479 0 465.5 13 Q452 26 452 45 L452 237 Q452 256 439 269 Q426 282 407 282 L234 282 Q215 282 202 269 Q189 256 189 237 L189 45 Q189 26 175.5 13 Q162 0 143 0 Q124 0 111 13 Q98 26 98 45 L98 550 Q98 569 111 582 L216 686 Q228 700 248 700 L393 700 Q412 700 425 687 L529 582 Q543 570 543 550 L543 45 Z M452 516 Q452 531 442 541 L384 599 Q374 609 359 609 L282 609 Q267 609 257 599 L199 541 Q189 531 189 516 L189 418 Q189 399 202 386 Q215 373 234 373 L407 373 Q426 373 439 386 Q452 399 452 418 L452 516 Z M543 -43 Q543 -58 532 -69 L475 -126 Q470 -131 467 -138 Q464 -145 464 -152 Q464 -159 467 -166 Q470 -173 475 -178 L484 -187 Q495 -198 510 -198 Q517 -198 524 -195 Q531 -192 536 -187 L542 -181 Q551 -172 565 -172 Q579 -172 588.5 -181 Q598 -190 598 -204 Q598 -217 588 -227 L561 -254 Q554 -263 541 -263 L480 -263 Q468 -263 460 -254 L407 -202 Q399 -194 399 -182 L399 -121 Q399 -111 407 -101 L467 -42 Q478 -31 478 -16 L478 40 Q478 54 487 63 Q496 72 510 72 Q524 72 533.5 63 Q543 54 543 40 L543 -43 Z " />
<glyph glyph-name="eogonek" unicode="&#x119;" horiz-adv-x="640" d="M98 655 Q98 674 111 687 Q124 700 143 700 L498 700 Q517 700 530 687 Q543 674 543 655 Q543 636 530 622.5 Q517 609 498 609 L234 609 Q215 609 202 596 Q189 583 189 564 L189 441 Q189 422 202 408.5 Q215 395 234 395 L430 395 Q449 395 462.5 382 Q476 369 476 350 Q476 331 462.5 317.5 Q449 304 430 304 L234 304 Q215 304 202 290.5 Q189 277 189 258 L189 136 Q189 117 202 104 Q215 91 234 91 L498 91 Q517 91 530 77.5 Q543 64 543 45 Q543 26 530 13 Q517 0 498 0 L143 0 Q124 0 111 13 Q98 26 98 45 L98 655 Z M543 -43 Q543 -58 532 -69 L475 -126 Q470 -131 467 -138 Q464 -145 464 -152 Q464 -159 467 -166 Q470 -173 475 -178 L484 -187 Q495 -198 510 -198 Q517 -198 524 -195 Q531 -192 536 -187 L542 -181 Q551 -172 565 -172 Q579 -172 588.5 -181 Q598 -190 598 -204 Q598 -217 588 -227 L561 -254 Q554 -263 541 -263 L480 -263 Q468 -263 460 -254 L407 -202 Q399 -194 399 -182 L399 -121 Q399 -111 407 -101 L467 -42 Q478 -31 478 -16 L478 40 Q478 54 487 63 Q496 72 510 72 Q524 72 533.5 63 Q543 54 543 40 L543 -43 Z " />
<glyph glyph-name="Iogonek" unicode="&#x12e;" horiz-adv-x="640" d="M188 0 Q169 0 156 13 Q143 26 143 45 Q143 64 156 77.5 Q169 91 188 91 L230 91 Q249 91 262 104 Q275 117 275 136 L275 564 Q275 583 262 596 Q249 609 230 609 L188 609 Q169 609 156 622.5 Q143 636 143 655 Q143 674 156 687 Q169 700 188 700 L453 700 Q472 700 485 687 Q498 674 498 655 Q498 636 485 622.5 Q472 609 453 609 L411 609 Q392 609 379 596 Q366 583 366 564 L366 136 Q366 117 379 104 Q392 91 411 91 L453 91 Q472 91 485 77.5 Q498 64 498 45 Q498 26 485 13 Q472 0 453 0 L188 0 Z M353 -44 Q353 -59 342 -70 L285 -127 Q280 -132 277 -139 Q274 -146 274 -153 Q274 -160 277 -167 Q280 -174 285 -179 L294 -188 Q305 -199 320 -199 Q327 -199 334 -196 Q341 -193 346 -188 L352 -182 Q361 -173 375 -173 Q389 -173 398.5 -182 Q408 -191 408 -205 Q408 -218 398 -228 L371 -255 Q364 -264 351 -264 L290 -264 Q278 -264 270 -255 L217 -203 Q209 -195 209 -183 L209 -122 Q209 -112 217 -102 L277 -43 Q288 -32 288 -17 L288 39 Q288 53 297 62 Q306 71 320 71 Q334 71 343.5 62 Q353 53 353 39 L353 -44 Z " />
<glyph glyph-name="iogonek" unicode="&#x12f;" horiz-adv-x="640" d="M188 0 Q169 0 156 13 Q143 26 143 45 Q143 64 156 77.5 Q169 91 188 91 L230 91 Q249 91 262 104 Q275 117 275 136 L275 564 Q275 583 262 596 Q249 609 230 609 L188 609 Q169 609 156 622.5 Q143 636 143 655 Q143 674 156 687 Q169 700 188 700 L453 700 Q472 700 485 687 Q498 674 498 655 Q498 636 485 622.5 Q472 609 453 609 L411 609 Q392 609 379 596 Q366 583 366 564 L366 136 Q366 117 379 104 Q392 91 411 91 L453 91 Q472 91 485 77.5 Q498 64 498 45 Q498 26 485 13 Q472 0 453 0 L188 0 Z M353 -44 Q353 -59 342 -70 L285 -127 Q280 -132 277 -139 Q274 -146 274 -153 Q274 -160 277 -167 Q280 -174 285 -179 L294 -188 Q305 -199 320 -199 Q327 -199 334 -196 Q341 -193 346 -188 L352 -182 Q361 -173 375 -173 Q389 -173 398.5 -182 Q408 -191 408 -205 Q408 -218 398 -228 L371 -255 Q364 -264 351 -264 L290 -264 Q278 -264 270 -255 L217 -203 Q209 -195 209 -183 L209 -122 Q209 -112 217 -102 L277 -43 Q288 -32 288 -17 L288 39 Q288 53 297 62 Q306 71 320 71 Q334 71 343.5 62 Q353 53 353 39 L353 -44 Z " />
<glyph glyph-name="uni0326" unicode="&#x326;" horiz-adv-x="640" d="M312 -250 Q299 -263 280 -263 Q260 -263 248 -250 Q234 -236 234 -218 Q234 -200 248 -186 L329 -104 Q342 -91 361 -91 Q381 -91 393 -104 Q407 -118 407 -136 Q407 -156 393 -168 L312 -250 Z " />
<glyph glyph-name="Uogonek" unicode="&#x172;" horiz-adv-x="640" d="M189 163 Q189 148 199 138 L236 101 Q246 91 261 91 L380 91 Q395 91 405 101 L442 138 Q452 148 452 163 L452 655 Q452 674 465.5 687 Q479 700 498 700 Q517 700 530 687 Q543 674 543 655 L543 129 Q543 110 530 97 L446 14 Q434 0 413 0 L227 0 Q207 0 195 14 L111 97 Q98 110 98 129 L98 655 Q98 674 111 687 Q124 700 143 700 Q162 700 175.5 687 Q189 674 189 655 L189 163 Z M474 -43 Q474 -58 463 -69 L406 -126 Q401 -131 398 -138 Q395 -145 395 -152 Q395 -159 398 -166 Q401 -173 406 -178 L415 -187 Q426 -198 441 -198 Q448 -198 455 -195 Q462 -192 467 -187 L473 -181 Q482 -172 496 -172 Q510 -172 519.5 -181 Q529 -190 529 -204 Q529 -217 519 -227 L492 -254 Q485 -263 472 -263 L411 -263 Q399 -263 391 -254 L338 -202 Q330 -194 330 -182 L330 -121 Q330 -111 338 -101 L398 -42 Q409 -31 409 -16 L409 40 Q409 54 418 63 Q427 72 441 72 Q455 72 464.5 63 Q474 54 474 40 L474 -43 Z " />
<glyph glyph-name="uogonek" unicode="&#x173;" horiz-adv-x="640" d="M189 163 Q189 148 199 138 L236 101 Q246 91 261 91 L380 91 Q395 91 405 101 L442 138 Q452 148 452 163 L452 655 Q452 674 465.5 687 Q479 700 498 700 Q517 700 530 687 Q543 674 543 655 L543 129 Q543 110 530 97 L446 14 Q434 0 413 0 L227 0 Q207 0 195 14 L111 97 Q98 110 98 129 L98 655 Q98 674 111 687 Q124 700 143 700 Q162 700 175.5 687 Q189 674 189 655 L189 163 Z M474 -43 Q474 -58 463 -69 L406 -126 Q401 -131 398 -138 Q395 -145 395 -152 Q395 -159 398 -166 Q401 -173 406 -178 L415 -187 Q426 -198 441 -198 Q448 -198 455 -195 Q462 -192 467 -187 L473 -181 Q482 -172 496 -172 Q510 -172 519.5 -181 Q529 -190 529 -204 Q529 -217 519 -227 L492 -254 Q485 -263 472 -263 L411 -263 Q399 -263 391 -254 L338 -202 Q330 -194 330 -182 L330 -121 Q330 -111 338 -101 L398 -42 Q409 -31 409 -16 L409 40 Q409 54 418 63 Q427 72 441 72 Q455 72 464.5 63 Q474 54 474 40 L474 -43 Z " />
<glyph glyph-name="scedilla" unicode="&#x15f;" horiz-adv-x="640" d="M452 537 Q452 552 442 562 L405 599 Q395 609 380 609 L261 609 Q246 609 236 599 L199 562 Q189 552 189 537 L189 468 Q189 453 199 443 L236 405 Q246 395 261 395 L414 395 Q433 395 446 382 L530 297 Q543 284 543 265 L543 129 Q543 110 530 97 L446 14 Q434 0 414 0 L227 0 Q207 0 195 14 L111 97 Q98 110 98 129 L98 175 Q98 194 111 206.5 Q124 219 143 219 Q162 219 175.5 206.5 Q189 194 189 175 L189 163 Q189 148 199 138 L236 101 Q246 91 261 91 L380 91 Q395 91 405 101 L442 138 Q452 148 452 163 L452 231 Q452 246 442 256 L405 294 Q395 304 380 304 L227 304 Q208 304 195 317 L111 402 Q98 415 98 434 L98 571 Q98 590 111 603 L195 686 Q207 700 227 700 L414 700 Q434 700 446 686 L530 603 Q543 590 543 571 L543 525 Q543 506 530 493 Q517 480 498 480 Q479 480 465.5 493 Q452 506 452 525 L452 537 Z M288 -43 L288 40 Q288 54 297.5 63 Q307 72 321 72 Q335 72 344 63 Q353 54 353 40 L353 -16 Q353 -23 356 -30 Q359 -37 364 -42 L424 -101 Q432 -111 432 -121 L432 -182 Q432 -194 424 -202 L371 -254 Q364 -263 351 -263 L290 -263 Q278 -263 270 -254 L243 -227 Q233 -217 233 -204 Q233 -190 242.5 -181 Q252 -172 266 -172 Q280 -172 289 -181 L295 -187 Q306 -198 321 -198 Q328 -198 335 -195 Q342 -192 347 -187 L356 -178 Q367 -167 367 -152 Q367 -137 356 -126 L299 -69 Q294 -64 291 -57 Q288 -50 288 -43 Z " />
<glyph glyph-name="Scedilla" unicode="&#x15e;" horiz-adv-x="640" d="M452 537 Q452 552 442 562 L405 599 Q395 609 380 609 L261 609 Q246 609 236 599 L199 562 Q189 552 189 537 L189 468 Q189 453 199 443 L236 405 Q246 395 261 395 L414 395 Q433 395 446 382 L530 297 Q543 284 543 265 L543 129 Q543 110 530 97 L446 14 Q434 0 414 0 L227 0 Q207 0 195 14 L111 97 Q98 110 98 129 L98 175 Q98 194 111 206.5 Q124 219 143 219 Q162 219 175.5 206.5 Q189 194 189 175 L189 163 Q189 148 199 138 L236 101 Q246 91 261 91 L380 91 Q395 91 405 101 L442 138 Q452 148 452 163 L452 231 Q452 246 442 256 L405 294 Q395 304 380 304 L227 304 Q208 304 195 317 L111 402 Q98 415 98 434 L98 571 Q98 590 111 603 L195 686 Q207 700 227 700 L414 700 Q434 700 446 686 L530 603 Q543 590 543 571 L543 525 Q543 506 530 493 Q517 480 498 480 Q479 480 465.5 493 Q452 506 452 525 L452 537 Z M288 -43 L288 40 Q288 54 297.5 63 Q307 72 321 72 Q335 72 344 63 Q353 54 353 40 L353 -16 Q353 -23 356 -30 Q359 -37 364 -42 L424 -101 Q432 -111 432 -121 L432 -182 Q432 -194 424 -202 L371 -254 Q364 -263 351 -263 L290 -263 Q278 -263 270 -254 L243 -227 Q233 -217 233 -204 Q233 -190 242.5 -181 Q252 -172 266 -172 Q280 -172 289 -181 L295 -187 Q306 -198 321 -198 Q328 -198 335 -195 Q342 -192 347 -187 L356 -178 Q367 -167 367 -152 Q367 -137 356 -126 L299 -69 Q294 -64 291 -57 Q288 -50 288 -43 Z " />
<glyph glyph-name="Eogonek" unicode="&#x118;" horiz-adv-x="640" d="M98 655 Q98 674 111 687 Q124 700 143 700 L498 700 Q517 700 530 687 Q543 674 543 655 Q543 636 530 622.5 Q517 609 498 609 L234 609 Q215 609 202 596 Q189 583 189 564 L189 441 Q189 422 202 408.5 Q215 395 234 395 L430 395 Q449 395 462.5 382 Q476 369 476 350 Q476 331 462.5 317.5 Q449 304 430 304 L234 304 Q215 304 202 290.5 Q189 277 189 258 L189 136 Q189 117 202 104 Q215 91 234 91 L498 91 Q517 91 530 77.5 Q543 64 543 45 Q543 26 530 13 Q517 0 498 0 L143 0 Q124 0 111 13 Q98 26 98 45 L98 655 Z M543 -43 Q543 -58 532 -69 L475 -126 Q470 -131 467 -138 Q464 -145 464 -152 Q464 -159 467 -166 Q470 -173 475 -178 L484 -187 Q495 -198 510 -198 Q517 -198 524 -195 Q531 -192 536 -187 L542 -181 Q551 -172 565 -172 Q579 -172 588.5 -181 Q598 -190 598 -204 Q598 -217 588 -227 L561 -254 Q554 -263 541 -263 L480 -263 Q468 -263 460 -254 L407 -202 Q399 -194 399 -182 L399 -121 Q399 -111 407 -101 L467 -42 Q478 -31 478 -16 L478 40 Q478 54 487 63 Q496 72 510 72 Q524 72 533.5 63 Q543 54 543 40 L543 -43 Z " />
<glyph glyph-name="endash" unicode="&#x2013;" horiz-adv-x="640" d="M478 396 Q497 396 510 383 Q523 370 523 351 Q523 331 510 318 Q497 305 478 305 L163 305 Q144 305 131 318 Q118 331 118 351 Q118 370 131 383 Q144 396 163 396 L478 396 Z " />
<glyph glyph-name="emdash" unicode="&#x2014;" horiz-adv-x="640" d="M498 396 Q517 396 530 383 Q543 370 543 351 Q543 331 530 318 Q517 305 498 305 L143 305 Q124 305 111 318 Q98 331 98 351 Q98 370 111 383 Q124 396 143 396 L498 396 Z " />
<glyph glyph-name="quoteleft" unicode="&#x2018;" horiz-adv-x="640" d="M340 468 L301 468 Q282 468 268.5 481.5 Q255 495 255 514 L255 611 Q255 629 269 643 L311 685 Q322 696 338 696 Q354 696 364 685 Q375 675 375 659 Q375 643 364 632 L330 598 L340 598 Q359 598 372 585 Q385 572 385 553 L385 514 Q385 495 372 481.5 Q359 468 340 468 Z " />
<glyph glyph-name="quoteright" unicode="&#x2019;" horiz-adv-x="640" d="M300 700 L339 700 Q358 700 371.5 686.5 Q385 673 385 654 L385 557 Q385 539 371 525 L329 483 Q318 472 302 472 Q287 472 276 483 Q265 494 265 509 Q265 525 276 536 L310 570 L300 570 Q281 570 268 583 Q255 596 255 615 L255 654 Q255 673 268 686.5 Q281 700 300 700 Z " />
<glyph glyph-name="quotesinglbase" unicode="&#x201a;" horiz-adv-x="640" d="M300 130 L339 130 Q358 130 371.5 116.5 Q385 103 385 84 L385 -13 Q385 -31 371 -45 L329 -87 Q319 -98 302 -98 Q286 -98 276 -87 Q265 -76 265 -61 Q265 -47 276 -34 L310 0 L300 0 Q281 0 268 13 Q255 26 255 45 L255 84 Q255 103 268 116.5 Q281 130 300 130 Z " />
<glyph glyph-name="quotedblleft" unicode="&#x201c;" horiz-adv-x="640" d="M235 468 L196 468 Q177 468 163.5 481.5 Q150 495 150 514 L150 611 Q150 629 164 643 L206 685 Q217 696 233 696 Q249 696 259 685 Q270 675 270 659 Q270 643 259 632 L225 598 L235 598 Q254 598 267 585 Q280 572 280 553 L280 514 Q280 495 267 481.5 Q254 468 235 468 Z M445 468 L406 468 Q387 468 373.5 481.5 Q360 495 360 514 L360 611 Q360 629 374 643 L416 685 Q427 696 443 696 Q459 696 469 685 Q480 675 480 659 Q480 643 469 632 L435 598 L445 598 Q464 598 477 585 Q490 572 490 553 L490 514 Q490 495 477 481.5 Q464 468 445 468 Z " />
<glyph glyph-name="quotedblright" unicode="&#x201d;" horiz-adv-x="640" d="M405 700 L444 700 Q463 700 476.5 686.5 Q490 673 490 654 L490 557 Q490 539 476 525 L434 483 Q423 472 407 472 Q392 472 381 483 Q370 494 370 509 Q370 525 381 536 L415 570 L405 570 Q386 570 373 583 Q360 596 360 615 L360 654 Q360 673 373 686.5 Q386 700 405 700 Z M195 700 L234 700 Q253 700 266.5 686.5 Q280 673 280 654 L280 557 Q280 539 266 525 L224 483 Q213 472 197 472 Q182 472 171 483 Q160 494 160 509 Q160 525 171 536 L205 570 L195 570 Q176 570 163 583 Q150 596 150 615 L150 654 Q150 673 163 686.5 Q176 700 195 700 Z " />
<glyph glyph-name="quotedblbase" unicode="&#x201e;" horiz-adv-x="640" d="M405 130 L444 130 Q463 130 476.5 116.5 Q490 103 490 84 L490 -13 Q490 -31 476 -45 L434 -87 Q424 -98 407 -98 Q391 -98 381 -87 Q370 -76 370 -61 Q370 -47 381 -34 L415 0 L405 0 Q386 0 373 13 Q360 26 360 45 L360 84 Q360 103 373 116.5 Q386 130 405 130 Z M195 130 L234 130 Q253 130 266.5 116.5 Q280 103 280 84 L280 -13 Q280 -31 266 -45 L224 -87 Q214 -98 197 -98 Q181 -98 171 -87 Q160 -76 160 -61 Q160 -47 171 -34 L205 0 L195 0 Q176 0 163 13 Q150 26 150 45 L150 84 Q150 103 163 116.5 Q176 130 195 130 Z " />
<glyph glyph-name="fraction" unicode="&#x2044;" horiz-adv-x="640" d="M452 655 Q452 674 465.5 687 Q479 700 498 700 Q517 700 530 687 Q543 674 543 655 L543 527 Q543 509 529 495 L199 164 Q189 154 189 139 L189 45 Q189 26 175.5 13 Q162 0 143 0 Q124 0 111 13 Q98 26 98 45 L98 173 Q98 191 112 205 L442 536 Q452 546 452 561 L452 655 Z " />
<glyph glyph-name="uni2215" unicode="&#x2215;" horiz-adv-x="640" d="M452 655 Q452 674 465.5 687 Q479 700 498 700 Q517 700 530 687 Q543 674 543 655 L543 527 Q543 509 529 495 L199 164 Q189 154 189 139 L189 45 Q189 26 175.5 13 Q162 0 143 0 Q124 0 111 13 Q98 26 98 45 L98 173 Q98 191 112 205 L442 536 Q452 546 452 561 L452 655 Z " />
<glyph glyph-name="ellipsis" unicode="&#x2026;" horiz-adv-x="640" d="M145 0 L105 0 Q86 0 73 13 Q60 26 60 45 L60 85 Q60 104 73 117 Q86 130 105 130 L145 130 Q164 130 177 117 Q190 104 190 85 L190 45 Q190 26 177 13 Q164 0 145 0 Z M340 0 L300 0 Q281 0 268 13 Q255 26 255 45 L255 85 Q255 104 268 117 Q281 130 300 130 L340 130 Q359 130 372 117 Q385 104 385 85 L385 45 Q385 26 372 13 Q359 0 340 0 Z M535 0 L495 0 Q476 0 463 13 Q450 26 450 45 L450 85 Q450 104 463 117 Q476 130 495 130 L535 130 Q554 130 567 117 Q580 104 580 85 L580 45 Q580 26 567 13 Q554 0 535 0 Z " />
<glyph glyph-name="bullet" unicode="&#x2022;" horiz-adv-x="640" d="M209 380 Q209 392 217 400 L269 453 Q279 461 290 461 L350 461 Q363 461 371 453 L423 400 Q431 393 431 380 L431 319 Q431 307 423 299 L371 247 Q363 239 350 239 L290 239 Q279 239 269 247 L217 299 Q209 309 209 319 L209 380 Z " />
<glyph glyph-name="degree" unicode="&#xb0;" horiz-adv-x="640" d="M189 605 Q189 616 199 628 L260 690 Q270 700 284 700 L356 700 Q362 700 368.5 697.5 Q375 695 380 690 L441 628 Q451 619 451 605 L451 532 Q451 519 441 509 L380 448 Q370 438 356 438 L284 438 Q272 438 260 448 L199 509 Q189 519 189 532 L189 605 Z M277 599 Q266 588 266 569 Q266 561 269 552.5 Q272 544 277 539 L290 526 Q301 515 320 515 Q328 515 336.5 518 Q345 521 350 526 L363 539 Q368 544 371 552.5 Q374 561 374 569 Q374 588 363 599 L350 612 Q345 617 336.5 620 Q328 623 320 623 Q301 623 290 612 L277 599 Z " />
<glyph glyph-name="middot" unicode="&#xb7;" horiz-adv-x="640" d="M345 280 L295 280 Q276 280 263 293 Q250 306 250 325 L250 375 Q250 394 263 407 Q276 420 295 420 L345 420 Q364 420 377 407 Q390 394 390 375 L390 325 Q390 306 377 293 Q364 280 345 280 Z " />
<glyph glyph-name="multiply" unicode="&#xd7;" horiz-adv-x="640" d="M487 248 Q501 234 501 216 Q502 198 487.5 184 Q473 170 455 170 Q436 170 422 184 L352 254 Q338 268 321 268 Q303 268 289 254 L218 183 Q204 169 186 169 Q167 169 153.5 183.5 Q140 198 140 216 Q140 234 153 247 L224 318 Q238 332 238 350 Q238 368 224 382 L153 453 Q140 466 140 484 Q140 503 153.5 517 Q167 531 186 531 Q204 531 218 517 L289 446 Q302 433 321 433 Q339 433 352 446 L423 517 Q437 531 455 531 Q473 532 487 517.5 Q501 503 501 485 Q501 467 487 453 L417 382 Q404 369 404 350 Q404 331 417 318 L487 248 Z " />
<glyph glyph-name="divide" unicode="&#xf7;" horiz-adv-x="640" d="M340 115 L300 115 Q281 115 268 128 Q255 141 255 160 L255 200 Q255 219 268 232 Q281 245 300 245 L340 245 Q359 245 372 232 Q385 219 385 200 L385 160 Q385 141 372 128 Q359 115 340 115 Z M340 455 L300 455 Q281 455 268 468 Q255 481 255 500 L255 540 Q255 559 268 572 Q281 585 300 585 L340 585 Q359 585 372 572 Q385 559 385 540 L385 500 Q385 481 372 468 Q359 455 340 455 Z M478 396 Q497 396 510 383 Q523 370 523 351 Q523 331 510 318 Q497 305 478 305 L163 305 Q144 305 131 318 Q118 331 118 351 Q118 370 131 383 Q144 396 163 396 L478 396 Z " />
<glyph glyph-name="Ldot" unicode="&#x13f;" horiz-adv-x="640" d="M189 136 Q189 117 202 104 Q215 91 234 91 L498 91 Q517 91 530 77.5 Q543 64 543 45 Q543 26 530 13 Q517 0 498 0 L143 0 Q124 0 111 13 Q98 26 98 45 L98 655 Q98 674 111 687 Q124 700 143 700 Q162 700 175.5 687 Q189 674 189 655 L189 136 Z M394 285 L354 285 Q335 285 322 298 Q309 311 309 330 L309 370 Q309 389 322 402 Q335 415 354 415 L394 415 Q413 415 426 402 Q439 389 439 370 L439 330 Q439 311 426 298 Q413 285 394 285 Z " />
<glyph glyph-name="ldot" unicode="&#x140;" horiz-adv-x="640" d="M189 136 Q189 117 202 104 Q215 91 234 91 L498 91 Q517 91 530 77.5 Q543 64 543 45 Q543 26 530 13 Q517 0 498 0 L143 0 Q124 0 111 13 Q98 26 98 45 L98 655 Q98 674 111 687 Q124 700 143 700 Q162 700 175.5 687 Q189 674 189 655 L189 136 Z M394 285 L354 285 Q335 285 322 298 Q309 311 309 330 L309 370 Q309 389 322 402 Q335 415 354 415 L394 415 Q413 415 426 402 Q439 389 439 370 L439 330 Q439 311 426 298 Q413 285 394 285 Z " />
<glyph glyph-name="Tbar" unicode="&#x166;" horiz-adv-x="640" d="M275 564 Q275 583 262 596 Q249 609 230 609 L143 609 Q124 609 111 622.5 Q98 636 98 655 Q98 674 111 687 Q124 700 143 700 L498 700 Q517 700 530 687 Q543 674 543 655 Q543 636 530 622.5 Q517 609 498 609 L411 609 Q392 609 379 596 Q366 583 366 564 L366 411 Q366 396 381 396 L478 396 Q497 396 510 383 Q523 370 523 351 Q523 331 510 318 Q497 305 478 305 L381 305 Q366 305 366 290 L366 45 Q366 26 353 13 Q340 0 320 0 Q301 0 288 13 Q275 26 275 45 L275 290 Q275 305 260 305 L163 305 Q144 305 131 318 Q118 331 118 351 Q118 370 131 383 Q144 396 163 396 L260 396 Q275 396 275 411 L275 564 Z " />
<glyph glyph-name="tbar" unicode="&#x167;" horiz-adv-x="640" d="M275 564 Q275 583 262 596 Q249 609 230 609 L143 609 Q124 609 111 622.5 Q98 636 98 655 Q98 674 111 687 Q124 700 143 700 L498 700 Q517 700 530 687 Q543 674 543 655 Q543 636 530 622.5 Q517 609 498 609 L411 609 Q392 609 379 596 Q366 583 366 564 L366 411 Q366 396 381 396 L478 396 Q497 396 510 383 Q523 370 523 351 Q523 331 510 318 Q497 305 478 305 L381 305 Q366 305 366 290 L366 45 Q366 26 353 13 Q340 0 320 0 Q301 0 288 13 Q275 26 275 45 L275 290 Q275 305 260 305 L163 305 Q144 305 131 318 Q118 331 118 351 Q118 370 131 383 Q144 396 163 396 L260 396 Q275 396 275 411 L275 564 Z " />
<glyph glyph-name="dagger" unicode="&#x2020;" horiz-adv-x="640" d="M365 515 Q365 500 380 500 L498 500 Q517 500 530 487 Q543 474 543 455 Q543 435 530 422 Q517 409 498 409 L380 409 Q365 409 365 394 L365 45 Q365 26 352 13 Q339 0 319 0 Q300 0 287 13 Q274 26 274 45 L274 394 Q274 409 259 409 L143 409 Q124 409 111 422 Q98 435 98 455 Q98 474 111 487 Q124 500 143 500 L259 500 Q274 500 274 515 L274 655 Q274 674 287 687 Q300 700 319 700 Q339 700 352 687 Q365 674 365 655 L365 515 Z " />
<glyph glyph-name="daggerdbl" unicode="&#x2021;" horiz-adv-x="640" d="M365 306 Q365 291 380 291 L498 291 Q517 291 530 278 Q543 265 543 246 Q543 226 530 213 Q517 200 498 200 L380 200 Q365 200 365 185 L365 45 Q365 26 352 13 Q339 0 319 0 Q300 0 287 13 Q274 26 274 45 L274 185 Q274 200 259 200 L143 200 Q124 200 111 213 Q98 226 98 246 Q98 265 111 278 Q124 291 143 291 L259 291 Q274 291 274 306 L274 394 Q274 409 259 409 L143 409 Q124 409 111 422 Q98 435 98 455 Q98 474 111 487 Q124 500 143 500 L259 500 Q274 500 274 515 L274 655 Q274 674 287 687 Q300 700 319 700 Q339 700 352 687 Q365 674 365 655 L365 515 Q365 500 380 500 L498 500 Q517 500 530 487 Q543 474 543 455 Q543 435 530 422 Q517 409 498 409 L380 409 Q365 409 365 394 L365 306 Z " />
<glyph glyph-name="minus" unicode="&#x2212;" horiz-adv-x="640" d="M478 396 Q497 396 510 383 Q523 370 523 351 Q523 331 510 318 Q497 305 478 305 L163 305 Q144 305 131 318 Q118 331 118 351 Q118 370 131 383 Q144 396 163 396 L478 396 Z " />
<glyph glyph-name="uni2219" unicode="&#x2219;" horiz-adv-x="640" d="M209 380 Q209 392 217 400 L269 453 Q279 461 290 461 L350 461 Q363 461 371 453 L423 400 Q431 393 431 380 L431 319 Q431 307 423 299 L371 247 Q363 239 350 239 L290 239 Q279 239 269 247 L217 299 Q209 309 209 319 L209 380 Z " />
<glyph glyph-name="guilsinglright" unicode="&#x203a;" horiz-adv-x="640" d="M428 383 Q441 370 441 350 Q441 332 428 317 L279 169 Q266 156 246 156 Q226 156 214 169 Q202 182 202 202 Q202 222 214 234 L298 317 Q314 332 314 350 Q314 369 299 382 L212 468 Q199 481 199 499 Q199 519 214 532 Q229 545 248 545 Q266 545 278 533 L428 383 Z " />
<glyph glyph-name="guilsinglleft" unicode="&#x2039;" horiz-adv-x="640" d="M212 383 L362 533 Q374 545 392 545 Q411 545 426 532 Q441 519 441 499 Q441 481 428 468 L341 382 Q326 369 326 350 Q326 332 342 317 L426 234 Q438 222 438 202 Q438 182 426 169 Q414 156 394 156 Q374 156 361 169 L212 317 Q199 332 199 350 Q199 370 212 383 Z " />
<glyph glyph-name="guillemotleft" unicode="&#xab;" horiz-adv-x="640" d="M112 383 L262 533 Q274 545 292 545 Q311 545 326 532 Q341 519 341 499 Q341 481 328 468 L241 382 Q226 369 226 350 Q226 332 242 317 L326 234 Q338 222 338 202 Q338 182 326 169 Q314 156 294 156 Q274 156 261 169 L112 317 Q99 332 99 350 Q99 370 112 383 Z M313 383 L463 533 Q475 545 493 545 Q512 545 527 532 Q542 519 542 499 Q542 481 529 468 L442 382 Q427 369 427 350 Q427 332 443 317 L527 234 Q539 222 539 202 Q539 182 527 169 Q515 156 495 156 Q475 156 462 169 L313 317 Q300 332 300 350 Q300 370 313 383 Z " />
<glyph glyph-name="guillemotright" unicode="&#xbb;" horiz-adv-x="640" d="M529 383 Q542 370 542 350 Q542 332 529 317 L380 169 Q367 156 347 156 Q327 156 315 169 Q303 182 303 202 Q303 222 315 234 L399 317 Q415 332 415 350 Q415 369 400 382 L313 468 Q300 481 300 499 Q300 519 315 532 Q330 545 349 545 Q367 545 379 533 L529 383 Z M328 383 Q341 370 341 350 Q341 332 328 317 L179 169 Q166 156 146 156 Q126 156 114 169 Q102 182 102 202 Q102 222 114 234 L198 317 Q214 332 214 350 Q214 369 199 382 L112 468 Q99 481 99 499 Q99 519 114 532 Q129 545 148 545 Q166 545 178 533 L328 383 Z " />
<glyph glyph-name="ccedilla" unicode="&#xe7;" horiz-adv-x="640" d="M189 184 Q189 169 199 159 L257 101 Q267 91 282 91 L359 91 Q374 91 384 101 L442 159 Q452 169 452 184 L452 214 Q452 233 465.5 246.5 Q479 260 498 260 Q517 260 530 246.5 Q543 233 543 214 L543 150 Q543 130 529 118 L425 13 Q412 0 393 0 L248 0 Q229 0 215 14 L111 118 Q98 131 98 150 L98 550 Q98 569 111 582 L215 686 Q229 700 248 700 L393 700 Q412 700 425 687 L529 582 Q543 570 543 550 L543 486 Q543 467 530 453.5 Q517 440 498 440 Q479 440 465.5 453.5 Q452 467 452 486 L452 516 Q452 531 442 541 L384 599 Q374 609 359 609 L282 609 Q267 609 257 599 L199 541 Q189 531 189 516 L189 184 Z M288 -43 L288 40 Q288 54 297.5 63 Q307 72 321 72 Q335 72 344 63 Q353 54 353 40 L353 -16 Q353 -23 356 -30 Q359 -37 364 -42 L424 -101 Q432 -111 432 -121 L432 -182 Q432 -194 424 -202 L371 -254 Q364 -263 351 -263 L290 -263 Q278 -263 270 -254 L243 -227 Q233 -217 233 -204 Q233 -190 242.5 -181 Q252 -172 266 -172 Q280 -172 289 -181 L295 -187 Q306 -198 321 -198 Q328 -198 335 -195 Q342 -192 347 -187 L356 -178 Q367 -167 367 -152 Q367 -137 356 -126 L299 -69 Q294 -64 291 -57 Q288 -50 288 -43 Z " />
<glyph glyph-name="ydieresis" unicode="&#xff;" horiz-adv-x="640" d="M112 453 Q98 467 98 486 L98 655 Q98 674 111 687 Q124 700 143 700 Q162 700 175.5 687 Q189 674 189 655 L189 520 Q189 505 199 495 L288 405 Q301 392 320 392 Q340 392 353 405 L442 495 Q452 505 452 520 L452 655 Q452 674 465.5 687 Q479 700 498 700 Q517 700 530 687 Q543 674 543 655 L543 486 Q543 467 529 453 L376 300 Q366 290 366 275 L366 45 Q366 26 353 13 Q340 0 320 0 Q301 0 288 13 Q275 26 275 45 L275 275 Q275 290 265 300 L112 453 Z M418 820 L398 820 Q379 820 366 833 Q353 846 353 865 L353 885 Q353 904 366 917 Q379 930 398 930 L418 930 Q437 930 450 917 Q463 904 463 885 L463 865 Q463 846 450 833 Q437 820 418 820 Z M243 820 L223 820 Q204 820 191 833 Q178 846 178 865 L178 885 Q178 904 191 917 Q204 930 223 930 L243 930 Q262 930 275 917 Q288 904 288 885 L288 865 Q288 846 275 833 Q262 820 243 820 Z " />
<glyph glyph-name="amacron" unicode="&#x101;" horiz-adv-x="640" d="M543 45 Q543 26 530 13 Q517 0 498 0 Q479 0 465.5 13 Q452 26 452 45 L452 237 Q452 256 439 269 Q426 282 407 282 L234 282 Q215 282 202 269 Q189 256 189 237 L189 45 Q189 26 175.5 13 Q162 0 143 0 Q124 0 111 13 Q98 26 98 45 L98 550 Q98 569 111 582 L216 686 Q228 700 248 700 L393 700 Q412 700 425 687 L529 582 Q543 570 543 550 L543 45 Z M452 516 Q452 531 442 541 L384 599 Q374 609 359 609 L282 609 Q267 609 257 599 L199 541 Q189 531 189 516 L189 418 Q189 399 202 386 Q215 373 234 373 L407 373 Q426 373 439 386 Q452 399 452 418 L452 516 Z M226 820 Q207 820 194 833 Q181 846 181 865 Q181 884 194 897.5 Q207 911 226 911 L415 911 Q434 911 447 897.5 Q460 884 460 865 Q460 846 447 833 Q434 820 415 820 L226 820 Z " />
<glyph glyph-name="abreve" unicode="&#x103;" horiz-adv-x="640" d="M543 45 Q543 26 530 13 Q517 0 498 0 Q479 0 465.5 13 Q452 26 452 45 L452 237 Q452 256 439 269 Q426 282 407 282 L234 282 Q215 282 202 269 Q189 256 189 237 L189 45 Q189 26 175.5 13 Q162 0 143 0 Q124 0 111 13 Q98 26 98 45 L98 550 Q98 569 111 582 L216 686 Q228 700 248 700 L393 700 Q412 700 425 687 L529 582 Q543 570 543 550 L543 45 Z M452 516 Q452 531 442 541 L384 599 Q374 609 359 609 L282 609 Q267 609 257 599 L199 541 Q189 531 189 516 L189 418 Q189 399 202 386 Q215 373 234 373 L407 373 Q426 373 439 386 Q452 399 452 418 L452 516 Z M266 935 Q266 920 276 910 L292 894 Q302 884 317 884 L322 884 Q337 884 347 894 L363 910 Q373 920 373 935 L373 945 Q373 960 383.5 971 Q394 982 410 982 Q426 982 436.5 971 Q447 960 447 945 L447 903 Q447 889 438 880 L378 819 Q369 810 354 810 L285 810 Q270 810 261 819 L201 880 Q192 889 192 903 L192 945 Q192 960 202.5 971 Q213 982 229 982 Q245 982 255.5 971 Q266 960 266 945 L266 935 Z " />
<glyph glyph-name="cacute" unicode="&#x107;" horiz-adv-x="640" d="M189 184 Q189 169 199 159 L257 101 Q267 91 282 91 L359 91 Q374 91 384 101 L442 159 Q452 169 452 184 L452 214 Q452 233 465.5 246.5 Q479 260 498 260 Q517 260 530 246.5 Q543 233 543 214 L543 150 Q543 130 529 118 L425 13 Q412 0 393 0 L248 0 Q229 0 215 14 L111 118 Q98 131 98 150 L98 550 Q98 569 111 582 L215 686 Q229 700 248 700 L393 700 Q412 700 425 687 L529 582 Q543 570 543 550 L543 486 Q543 467 530 453.5 Q517 440 498 440 Q479 440 465.5 453.5 Q452 467 452 486 L452 516 Q452 531 442 541 L384 599 Q374 609 359 609 L282 609 Q267 609 257 599 L199 541 Q189 531 189 516 L189 184 Z M312 823 Q299 810 280 810 Q261 810 247.5 823 Q234 836 234 855 Q234 873 248 887 L329 969 Q342 982 361 982 Q380 982 393.5 969 Q407 956 407 937 Q407 917 393 905 L312 823 Z " />
<glyph glyph-name="ccircumflex" unicode="&#x109;" horiz-adv-x="640" d="M189 184 Q189 169 199 159 L257 101 Q267 91 282 91 L359 91 Q374 91 384 101 L442 159 Q452 169 452 184 L452 214 Q452 233 465.5 246.5 Q479 260 498 260 Q517 260 530 246.5 Q543 233 543 214 L543 150 Q543 130 529 118 L425 13 Q412 0 393 0 L248 0 Q229 0 215 14 L111 118 Q98 131 98 150 L98 550 Q98 569 111 582 L215 686 Q229 700 248 700 L393 700 Q412 700 425 687 L529 582 Q543 570 543 550 L543 486 Q543 467 530 453.5 Q517 440 498 440 Q479 440 465.5 453.5 Q452 467 452 486 L452 516 Q452 531 442 541 L384 599 Q374 609 359 609 L282 609 Q267 609 257 599 L199 541 Q189 531 189 516 L189 184 Z M255 821 Q250 815 242.5 812.5 Q235 810 227 810 Q210 810 198.5 821 Q187 832 187 849 Q187 866 199 878 L292 970 Q303 982 320 982 Q336 982 348 970 L441 878 Q452 867 452 849 Q452 832 441 821 Q430 810 413 810 Q395 810 384 821 L348 857 Q336 869 320 869 Q303 869 292 857 L255 821 Z " />
<glyph glyph-name="cdotaccent" unicode="&#x10b;" horiz-adv-x="640" d="M189 184 Q189 169 199 159 L257 101 Q267 91 282 91 L359 91 Q374 91 384 101 L442 159 Q452 169 452 184 L452 214 Q452 233 465.5 246.5 Q479 260 498 260 Q517 260 530 246.5 Q543 233 543 214 L543 150 Q543 130 529 118 L425 13 Q412 0 393 0 L248 0 Q229 0 215 14 L111 118 Q98 131 98 150 L98 550 Q98 569 111 582 L215 686 Q229 700 248 700 L393 700 Q412 700 425 687 L529 582 Q543 570 543 550 L543 486 Q543 467 530 453.5 Q517 440 498 440 Q479 440 465.5 453.5 Q452 467 452 486 L452 516 Q452 531 442 541 L384 599 Q374 609 359 609 L282 609 Q267 609 257 599 L199 541 Q189 531 189 516 L189 184 Z M335 825 L305 825 Q286 825 273 838 Q260 851 260 870 L260 900 Q260 919 273 932 Q286 945 305 945 L335 945 Q354 945 367 932 Q380 919 380 900 L380 870 Q380 851 367 838 Q354 825 335 825 Z " />
<glyph glyph-name="ccaron" unicode="&#x10d;" horiz-adv-x="640" d="M189 184 Q189 169 199 159 L257 101 Q267 91 282 91 L359 91 Q374 91 384 101 L442 159 Q452 169 452 184 L452 214 Q452 233 465.5 246.5 Q479 260 498 260 Q517 260 530 246.5 Q543 233 543 214 L543 150 Q543 130 529 118 L425 13 Q412 0 393 0 L248 0 Q229 0 215 14 L111 118 Q98 131 98 150 L98 550 Q98 569 111 582 L215 686 Q229 700 248 700 L393 700 Q412 700 425 687 L529 582 Q543 570 543 550 L543 486 Q543 467 530 453.5 Q517 440 498 440 Q479 440 465.5 453.5 Q452 467 452 486 L452 516 Q452 531 442 541 L384 599 Q374 609 359 609 L282 609 Q267 609 257 599 L199 541 Q189 531 189 516 L189 184 Z M291 934 Q303 922 320 922 Q336 922 348 934 L384 970 Q396 982 412 982 Q429 982 440.5 970.5 Q452 959 452 942 Q452 927 441 914 L348 821 Q337 810 320 810 Q302 810 291 821 L199 914 Q187 926 187 942 Q187 958 199 970 Q211 982 227 982 Q243 982 255 970 L291 934 Z " />
<glyph glyph-name="emacron" unicode="&#x113;" horiz-adv-x="640" d="M98 655 Q98 674 111 687 Q124 700 143 700 L498 700 Q517 700 530 687 Q543 674 543 655 Q543 636 530 622.5 Q517 609 498 609 L234 609 Q215 609 202 596 Q189 583 189 564 L189 441 Q189 422 202 408.5 Q215 395 234 395 L430 395 Q449 395 462.5 382 Q476 369 476 350 Q476 331 462.5 317.5 Q449 304 430 304 L234 304 Q215 304 202 290.5 Q189 277 189 258 L189 136 Q189 117 202 104 Q215 91 234 91 L498 91 Q517 91 530 77.5 Q543 64 543 45 Q543 26 530 13 Q517 0 498 0 L143 0 Q124 0 111 13 Q98 26 98 45 L98 655 Z M226 820 Q207 820 194 833 Q181 846 181 865 Q181 884 194 897.5 Q207 911 226 911 L415 911 Q434 911 447 897.5 Q460 884 460 865 Q460 846 447 833 Q434 820 415 820 L226 820 Z " />
<glyph glyph-name="ebreve" unicode="&#x115;" horiz-adv-x="640" d="M98 655 Q98 674 111 687 Q124 700 143 700 L498 700 Q517 700 530 687 Q543 674 543 655 Q543 636 530 622.5 Q517 609 498 609 L234 609 Q215 609 202 596 Q189 583 189 564 L189 441 Q189 422 202 408.5 Q215 395 234 395 L430 395 Q449 395 462.5 382 Q476 369 476 350 Q476 331 462.5 317.5 Q449 304 430 304 L234 304 Q215 304 202 290.5 Q189 277 189 258 L189 136 Q189 117 202 104 Q215 91 234 91 L498 91 Q517 91 530 77.5 Q543 64 543 45 Q543 26 530 13 Q517 0 498 0 L143 0 Q124 0 111 13 Q98 26 98 45 L98 655 Z M266 935 Q266 920 276 910 L292 894 Q302 884 317 884 L322 884 Q337 884 347 894 L363 910 Q373 920 373 935 L373 945 Q373 960 383.5 971 Q394 982 410 982 Q426 982 436.5 971 Q447 960 447 945 L447 903 Q447 889 438 880 L378 819 Q369 810 354 810 L285 810 Q270 810 261 819 L201 880 Q192 889 192 903 L192 945 Q192 960 202.5 971 Q213 982 229 982 Q245 982 255.5 971 Q266 960 266 945 L266 935 Z " />
<glyph glyph-name="edotaccent" unicode="&#x117;" horiz-adv-x="640" d="M98 655 Q98 674 111 687 Q124 700 143 700 L498 700 Q517 700 530 687 Q543 674 543 655 Q543 636 530 622.5 Q517 609 498 609 L234 609 Q215 609 202 596 Q189 583 189 564 L189 441 Q189 422 202 408.5 Q215 395 234 395 L430 395 Q449 395 462.5 382 Q476 369 476 350 Q476 331 462.5 317.5 Q449 304 430 304 L234 304 Q215 304 202 290.5 Q189 277 189 258 L189 136 Q189 117 202 104 Q215 91 234 91 L498 91 Q517 91 530 77.5 Q543 64 543 45 Q543 26 530 13 Q517 0 498 0 L143 0 Q124 0 111 13 Q98 26 98 45 L98 655 Z M335 825 L305 825 Q286 825 273 838 Q260 851 260 870 L260 900 Q260 919 273 932 Q286 945 305 945 L335 945 Q354 945 367 932 Q380 919 380 900 L380 870 Q380 851 367 838 Q354 825 335 825 Z " />
<glyph glyph-name="ecaron" unicode="&#x11b;" horiz-adv-x="640" d="M98 655 Q98 674 111 687 Q124 700 143 700 L498 700 Q517 700 530 687 Q543 674 543 655 Q543 636 530 622.5 Q517 609 498 609 L234 609 Q215 609 202 596 Q189 583 189 564 L189 441 Q189 422 202 408.5 Q215 395 234 395 L430 395 Q449 395 462.5 382 Q476 369 476 350 Q476 331 462.5 317.5 Q449 304 430 304 L234 304 Q215 304 202 290.5 Q189 277 189 258 L189 136 Q189 117 202 104 Q215 91 234 91 L498 91 Q517 91 530 77.5 Q543 64 543 45 Q543 26 530 13 Q517 0 498 0 L143 0 Q124 0 111 13 Q98 26 98 45 L98 655 Z M291 934 Q303 922 320 922 Q336 922 348 934 L384 970 Q396 982 412 982 Q429 982 440.5 970.5 Q452 959 452 942 Q452 927 441 914 L348 821 Q337 810 320 810 Q302 810 291 821 L199 914 Q187 926 187 942 Q187 958 199 970 Q211 982 227 982 Q243 982 255 970 L291 934 Z " />
<glyph glyph-name="gcircumflex" unicode="&#x11d;" horiz-adv-x="640" d="M452 537 Q452 552 442 562 L405 599 Q395 609 380 609 L261 609 Q246 609 236 599 L199 562 Q189 552 189 537 L189 163 Q189 148 199 138 L236 101 Q246 91 261 91 L380 91 Q395 91 405 101 L442 138 Q452 148 452 163 L452 259 Q452 278 439 291 Q426 304 407 304 L347 304 Q328 304 314.5 317.5 Q301 331 301 350 Q301 369 314.5 382 Q328 395 347 395 L498 395 Q517 395 530 382 Q543 369 543 350 L543 130 Q543 110 530 97 L446 14 Q434 0 413 0 L227 0 Q207 0 195 14 L111 97 Q98 110 98 130 L98 571 Q98 590 111 603 L195 686 Q207 700 227 700 L413 700 Q434 700 446 686 L530 603 Q543 590 543 571 L543 525 Q543 506 530 493 Q517 480 498 480 Q479 480 465.5 493 Q452 506 452 525 L452 537 Z M255 821 Q250 815 242.5 812.5 Q235 810 227 810 Q210 810 198.5 821 Q187 832 187 849 Q187 866 199 878 L292 970 Q303 982 320 982 Q336 982 348 970 L441 878 Q452 867 452 849 Q452 832 441 821 Q430 810 413 810 Q395 810 384 821 L348 857 Q336 869 320 869 Q303 869 292 857 L255 821 Z " />
<glyph glyph-name="gbreve" unicode="&#x11f;" horiz-adv-x="640" d="M452 537 Q452 552 442 562 L405 599 Q395 609 380 609 L261 609 Q246 609 236 599 L199 562 Q189 552 189 537 L189 163 Q189 148 199 138 L236 101 Q246 91 261 91 L380 91 Q395 91 405 101 L442 138 Q452 148 452 163 L452 259 Q452 278 439 291 Q426 304 407 304 L347 304 Q328 304 314.5 317.5 Q301 331 301 350 Q301 369 314.5 382 Q328 395 347 395 L498 395 Q517 395 530 382 Q543 369 543 350 L543 130 Q543 110 530 97 L446 14 Q434 0 413 0 L227 0 Q207 0 195 14 L111 97 Q98 110 98 130 L98 571 Q98 590 111 603 L195 686 Q207 700 227 700 L413 700 Q434 700 446 686 L530 603 Q543 590 543 571 L543 525 Q543 506 530 493 Q517 480 498 480 Q479 480 465.5 493 Q452 506 452 525 L452 537 Z M266 935 Q266 920 276 910 L292 894 Q302 884 317 884 L322 884 Q337 884 347 894 L363 910 Q373 920 373 935 L373 945 Q373 960 383.5 971 Q394 982 410 982 Q426 982 436.5 971 Q447 960 447 945 L447 903 Q447 889 438 880 L378 819 Q369 810 354 810 L285 810 Q270 810 261 819 L201 880 Q192 889 192 903 L192 945 Q192 960 202.5 971 Q213 982 229 982 Q245 982 255.5 971 Q266 960 266 945 L266 935 Z " />
<glyph glyph-name="gdotaccent" unicode="&#x121;" horiz-adv-x="640" d="M452 537 Q452 552 442 562 L405 599 Q395 609 380 609 L261 609 Q246 609 236 599 L199 562 Q189 552 189 537 L189 163 Q189 148 199 138 L236 101 Q246 91 261 91 L380 91 Q395 91 405 101 L442 138 Q452 148 452 163 L452 259 Q452 278 439 291 Q426 304 407 304 L347 304 Q328 304 314.5 317.5 Q301 331 301 350 Q301 369 314.5 382 Q328 395 347 395 L498 395 Q517 395 530 382 Q543 369 543 350 L543 130 Q543 110 530 97 L446 14 Q434 0 413 0 L227 0 Q207 0 195 14 L111 97 Q98 110 98 130 L98 571 Q98 590 111 603 L195 686 Q207 700 227 700 L413 700 Q434 700 446 686 L530 603 Q543 590 543 571 L543 525 Q543 506 530 493 Q517 480 498 480 Q479 480 465.5 493 Q452 506 452 525 L452 537 Z M335 825 L305 825 Q286 825 273 838 Q260 851 260 870 L260 900 Q260 919 273 932 Q286 945 305 945 L335 945 Q354 945 367 932 Q380 919 380 900 L380 870 Q380 851 367 838 Q354 825 335 825 Z " />
<glyph glyph-name="hcircumflex" unicode="&#x125;" horiz-adv-x="640" d="M543 45 Q543 26 530 13 Q517 0 498 0 Q478 0 465 13 Q452 26 452 45 L452 259 Q452 278 439 291.5 Q426 305 407 305 L234 305 Q215 305 202 291.5 Q189 278 189 259 L189 45 Q189 26 175.5 13 Q162 0 143 0 Q124 0 111 13 Q98 26 98 45 L98 655 Q98 674 111 687 Q124 700 143 700 Q162 700 175.5 687 Q189 674 189 655 L189 441 Q189 422 202 408.5 Q215 395 234 395 L407 395 Q426 395 439 408.5 Q452 422 452 441 L452 655 Q452 674 465 687 Q478 700 498 700 Q517 700 530 687 Q543 674 543 655 L543 45 Z M292 857 Q303 869 320 869 Q336 869 348 857 L384 821 Q395 810 413 810 Q430 810 441 821 Q452 832 452 849 Q452 867 441 878 L348 970 Q336 982 320 982 Q303 982 292 970 L199 878 Q187 866 187 849 Q187 832 198.5 821 Q210 810 227 810 Q235 810 242.5 812.5 Q250 815 255 821 L292 857 Z " />
<glyph glyph-name="uni0123" unicode="&#x123;" horiz-adv-x="640" d="M452 537 Q452 552 442 562 L405 599 Q395 609 380 609 L261 609 Q246 609 236 599 L199 562 Q189 552 189 537 L189 163 Q189 148 199 138 L236 101 Q246 91 261 91 L380 91 Q395 91 405 101 L442 138 Q452 148 452 163 L452 259 Q452 278 439 291 Q426 304 407 304 L347 304 Q328 304 314.5 317.5 Q301 331 301 350 Q301 369 314.5 382 Q328 395 347 395 L498 395 Q517 395 530 382 Q543 369 543 350 L543 130 Q543 110 530 97 L446 14 Q434 0 413 0 L227 0 Q207 0 195 14 L111 97 Q98 110 98 130 L98 571 Q98 590 111 603 L195 686 Q207 700 227 700 L413 700 Q434 700 446 686 L530 603 Q543 590 543 571 L543 525 Q543 506 530 493 Q517 480 498 480 Q479 480 465.5 493 Q452 506 452 525 L452 537 Z M311 -250 Q298 -263 279 -263 Q259 -263 247 -250 Q233 -236 233 -218 Q233 -200 247 -186 L328 -104 Q341 -91 360 -91 Q380 -91 392 -104 Q406 -118 406 -136 Q406 -156 392 -168 L311 -250 Z " />
<glyph glyph-name="uni0122" unicode="&#x122;" horiz-adv-x="640" d="M452 537 Q452 552 442 562 L405 599 Q395 609 380 609 L261 609 Q246 609 236 599 L199 562 Q189 552 189 537 L189 163 Q189 148 199 138 L236 101 Q246 91 261 91 L380 91 Q395 91 405 101 L442 138 Q452 148 452 163 L452 259 Q452 278 439 291 Q426 304 407 304 L347 304 Q328 304 314.5 317.5 Q301 331 301 350 Q301 369 314.5 382 Q328 395 347 395 L498 395 Q517 395 530 382 Q543 369 543 350 L543 130 Q543 110 530 97 L446 14 Q434 0 413 0 L227 0 Q207 0 195 14 L111 97 Q98 110 98 130 L98 571 Q98 590 111 603 L195 686 Q207 700 227 700 L413 700 Q434 700 446 686 L530 603 Q543 590 543 571 L543 525 Q543 506 530 493 Q517 480 498 480 Q479 480 465.5 493 Q452 506 452 525 L452 537 Z M311 -250 Q298 -263 279 -263 Q259 -263 247 -250 Q233 -236 233 -218 Q233 -200 247 -186 L328 -104 Q341 -91 360 -91 Q380 -91 392 -104 Q406 -118 406 -136 Q406 -156 392 -168 L311 -250 Z " />
<glyph glyph-name="dotlessi" unicode="&#x131;" horiz-adv-x="640" d="M188 0 Q169 0 156 13 Q143 26 143 45 Q143 64 156 77.5 Q169 91 188 91 L230 91 Q249 91 262 104 Q275 117 275 136 L275 564 Q275 583 262 596 Q249 609 230 609 L188 609 Q169 609 156 622.5 Q143 636 143 655 Q143 674 156 687 Q169 700 188 700 L453 700 Q472 700 485 687 Q498 674 498 655 Q498 636 485 622.5 Q472 609 453 609 L411 609 Q392 609 379 596 Q366 583 366 564 L366 136 Q366 117 379 104 Q392 91 411 91 L453 91 Q472 91 485 77.5 Q498 64 498 45 Q498 26 485 13 Q472 0 453 0 L188 0 Z " />
<glyph glyph-name="lacute" unicode="&#x13a;" horiz-adv-x="640" d="M189 136 Q189 117 202 104 Q215 91 234 91 L498 91 Q517 91 530 77.5 Q543 64 543 45 Q543 26 530 13 Q517 0 498 0 L143 0 Q124 0 111 13 Q98 26 98 45 L98 655 Q98 674 111 687 Q124 700 143 700 Q162 700 175.5 687 Q189 674 189 655 L189 136 Z M312 823 Q299 810 280 810 Q261 810 247.5 823 Q234 836 234 855 Q234 873 248 887 L329 969 Q342 982 361 982 Q380 982 393.5 969 Q407 956 407 937 Q407 917 393 905 L312 823 Z " />
<glyph glyph-name="uni013B" unicode="&#x13b;" horiz-adv-x="640" d="M189 136 Q189 117 202 104 Q215 91 234 91 L498 91 Q517 91 530 77.5 Q543 64 543 45 Q543 26 530 13 Q517 0 498 0 L143 0 Q124 0 111 13 Q98 26 98 45 L98 655 Q98 674 111 687 Q124 700 143 700 Q162 700 175.5 687 Q189 674 189 655 L189 136 Z M311 -250 Q298 -263 279 -263 Q259 -263 247 -250 Q233 -236 233 -218 Q233 -200 247 -186 L328 -104 Q341 -91 360 -91 Q380 -91 392 -104 Q406 -118 406 -136 Q406 -156 392 -168 L311 -250 Z " />
<glyph glyph-name="uni013C" unicode="&#x13c;" horiz-adv-x="640" d="M189 136 Q189 117 202 104 Q215 91 234 91 L498 91 Q517 91 530 77.5 Q543 64 543 45 Q543 26 530 13 Q517 0 498 0 L143 0 Q124 0 111 13 Q98 26 98 45 L98 655 Q98 674 111 687 Q124 700 143 700 Q162 700 175.5 687 Q189 674 189 655 L189 136 Z M311 -250 Q298 -263 279 -263 Q259 -263 247 -250 Q233 -236 233 -218 Q233 -200 247 -186 L328 -104 Q341 -91 360 -91 Q380 -91 392 -104 Q406 -118 406 -136 Q406 -156 392 -168 L311 -250 Z " />
<glyph glyph-name="uni0136" unicode="&#x136;" horiz-adv-x="640" d="M234 305 Q215 305 202 291.5 Q189 278 189 259 L189 45 Q189 26 175.5 13 Q162 0 143 0 Q124 0 111 13 Q98 26 98 45 L98 655 Q98 674 111 687 Q124 700 143 700 Q162 700 175.5 687 Q189 674 189 655 L189 441 Q189 422 202 408.5 Q215 395 234 395 L281 395 Q296 395 306 405 L442 541 Q452 551 452 566 L452 655 Q452 674 465.5 687 Q479 700 498 700 Q517 700 530 687 Q543 674 543 655 L543 532 Q543 513 530 500 L411 382 Q398 367 398 350 Q398 333 411 318 L530 200 Q543 187 543 168 L543 45 Q543 26 530 13 Q517 0 498 0 Q479 0 465.5 13 Q452 26 452 45 L452 134 Q452 149 442 159 L306 295 Q296 305 281 305 L234 305 Z M311 -250 Q298 -263 279 -263 Q259 -263 247 -250 Q233 -236 233 -218 Q233 -200 247 -186 L328 -104 Q341 -91 360 -91 Q380 -91 392 -104 Q406 -118 406 -136 Q406 -156 392 -168 L311 -250 Z " />
<glyph glyph-name="uni0137" unicode="&#x137;" horiz-adv-x="640" d="M234 305 Q215 305 202 291.5 Q189 278 189 259 L189 45 Q189 26 175.5 13 Q162 0 143 0 Q124 0 111 13 Q98 26 98 45 L98 655 Q98 674 111 687 Q124 700 143 700 Q162 700 175.5 687 Q189 674 189 655 L189 441 Q189 422 202 408.5 Q215 395 234 395 L281 395 Q296 395 306 405 L442 541 Q452 551 452 566 L452 655 Q452 674 465.5 687 Q479 700 498 700 Q517 700 530 687 Q543 674 543 655 L543 532 Q543 513 530 500 L411 382 Q398 367 398 350 Q398 333 411 318 L530 200 Q543 187 543 168 L543 45 Q543 26 530 13 Q517 0 498 0 Q479 0 465.5 13 Q452 26 452 45 L452 134 Q452 149 442 159 L306 295 Q296 305 281 305 L234 305 Z M392 -168 Q406 -156 406 -136 Q406 -118 392 -104 Q380 -91 360 -91 Q341 -91 328 -104 L247 -186 Q233 -200 233 -218 Q233 -236 247 -250 Q259 -263 279 -263 Q298 -263 311 -250 L392 -168 Z " />
<glyph glyph-name="kgreenlandic" unicode="&#x138;" horiz-adv-x="640" d="M234 305 Q215 305 202 291.5 Q189 278 189 259 L189 45 Q189 26 175.5 13 Q162 0 143 0 Q124 0 111 13 Q98 26 98 45 L98 655 Q98 674 111 687 Q124 700 143 700 Q162 700 175.5 687 Q189 674 189 655 L189 441 Q189 422 202 408.5 Q215 395 234 395 L281 395 Q296 395 306 405 L442 541 Q452 551 452 566 L452 655 Q452 674 465.5 687 Q479 700 498 700 Q517 700 530 687 Q543 674 543 655 L543 532 Q543 513 530 500 L411 382 Q398 367 398 350 Q398 333 411 318 L530 200 Q543 187 543 168 L543 45 Q543 26 530 13 Q517 0 498 0 Q479 0 465.5 13 Q452 26 452 45 L452 134 Q452 149 442 159 L306 295 Q296 305 281 305 L234 305 Z " />
<glyph glyph-name="nacute" unicode="&#x144;" horiz-adv-x="640" d="M445 227 Q448 222 450 222 Q452 222 452 229 L452 655 Q452 674 465.5 687 Q479 700 498 700 Q517 700 530 687 Q543 674 543 655 L543 45 Q543 26 530 13 Q517 0 498 0 Q471 0 458 23 L196 474 Q194 479 191 479 Q189 479 189 472 L189 45 Q189 26 175.5 13 Q162 0 143 0 Q124 0 111 13 Q98 26 98 45 L98 655 Q98 674 111 687 Q124 700 143 700 Q170 700 183 677 L445 227 Z M312 823 Q299 810 280 810 Q261 810 247.5 823 Q234 836 234 855 Q234 873 248 887 L329 969 Q342 982 361 982 Q380 982 393.5 969 Q407 956 407 937 Q407 917 393 905 L312 823 Z " />
<glyph glyph-name="ncaron" unicode="&#x148;" horiz-adv-x="640" d="M445 227 Q448 222 450 222 Q452 222 452 229 L452 655 Q452 674 465.5 687 Q479 700 498 700 Q517 700 530 687 Q543 674 543 655 L543 45 Q543 26 530 13 Q517 0 498 0 Q471 0 458 23 L196 474 Q194 479 191 479 Q189 479 189 472 L189 45 Q189 26 175.5 13 Q162 0 143 0 Q124 0 111 13 Q98 26 98 45 L98 655 Q98 674 111 687 Q124 700 143 700 Q170 700 183 677 L445 227 Z M291 934 Q303 922 320 922 Q336 922 348 934 L384 970 Q396 982 412 982 Q429 982 440.5 970.5 Q452 959 452 942 Q452 927 441 914 L348 821 Q337 810 320 810 Q302 810 291 821 L199 914 Q187 926 187 942 Q187 958 199 970 Q211 982 227 982 Q243 982 255 970 L291 934 Z " />
<glyph glyph-name="uni0145" unicode="&#x145;" horiz-adv-x="640" d="M445 227 Q448 222 450 222 Q452 222 452 229 L452 655 Q452 674 465.5 687 Q479 700 498 700 Q517 700 530 687 Q543 674 543 655 L543 45 Q543 26 530 13 Q517 0 498 0 Q471 0 458 23 L196 474 Q194 479 191 479 Q189 479 189 472 L189 45 Q189 26 175.5 13 Q162 0 143 0 Q124 0 111 13 Q98 26 98 45 L98 655 Q98 674 111 687 Q124 700 143 700 Q170 700 183 677 L445 227 Z M311 -250 Q298 -263 279 -263 Q259 -263 247 -250 Q233 -236 233 -218 Q233 -200 247 -186 L328 -104 Q341 -91 360 -91 Q380 -91 392 -104 Q406 -118 406 -136 Q406 -156 392 -168 L311 -250 Z " />
<glyph glyph-name="uni0146" unicode="&#x146;" horiz-adv-x="640" d="M445 227 Q448 222 450 222 Q452 222 452 229 L452 655 Q452 674 465.5 687 Q479 700 498 700 Q517 700 530 687 Q543 674 543 655 L543 45 Q543 26 530 13 Q517 0 498 0 Q471 0 458 23 L196 474 Q194 479 191 479 Q189 479 189 472 L189 45 Q189 26 175.5 13 Q162 0 143 0 Q124 0 111 13 Q98 26 98 45 L98 655 Q98 674 111 687 Q124 700 143 700 Q170 700 183 677 L445 227 Z M311 -250 Q298 -263 279 -263 Q259 -263 247 -250 Q233 -236 233 -218 Q233 -200 247 -186 L328 -104 Q341 -91 360 -91 Q380 -91 392 -104 Q406 -118 406 -136 Q406 -156 392 -168 L311 -250 Z " />
<glyph glyph-name="omacron" unicode="&#x14d;" horiz-adv-x="640" d="M530 603 Q543 590 543 571 L543 129 Q543 110 530 97 L446 14 Q434 0 413 0 L227 0 Q207 0 195 14 L111 97 Q98 110 98 129 L98 571 Q98 590 111 603 L195 686 Q207 700 227 700 L413 700 Q434 700 446 686 L530 603 Z M442 138 Q452 148 452 163 L452 537 Q452 552 442 562 L405 599 Q395 609 380 609 L261 609 Q246 609 236 599 L199 562 Q189 552 189 537 L189 163 Q189 148 199 138 L236 101 Q246 91 261 91 L380 91 Q395 91 405 101 L442 138 Z M226 820 Q207 820 194 833 Q181 846 181 865 Q181 884 194 897.5 Q207 911 226 911 L415 911 Q434 911 447 897.5 Q460 884 460 865 Q460 846 447 833 Q434 820 415 820 L226 820 Z " />
<glyph glyph-name="obreve" unicode="&#x14f;" horiz-adv-x="640" d="M530 603 Q543 590 543 571 L543 129 Q543 110 530 97 L446 14 Q434 0 413 0 L227 0 Q207 0 195 14 L111 97 Q98 110 98 129 L98 571 Q98 590 111 603 L195 686 Q207 700 227 700 L413 700 Q434 700 446 686 L530 603 Z M442 138 Q452 148 452 163 L452 537 Q452 552 442 562 L405 599 Q395 609 380 609 L261 609 Q246 609 236 599 L199 562 Q189 552 189 537 L189 163 Q189 148 199 138 L236 101 Q246 91 261 91 L380 91 Q395 91 405 101 L442 138 Z M266 935 Q266 920 276 910 L292 894 Q302 884 317 884 L322 884 Q337 884 347 894 L363 910 Q373 920 373 935 L373 945 Q373 960 383.5 971 Q394 982 410 982 Q426 982 436.5 971 Q447 960 447 945 L447 903 Q447 889 438 880 L378 819 Q369 810 354 810 L285 810 Q270 810 261 819 L201 880 Q192 889 192 903 L192 945 Q192 960 202.5 971 Q213 982 229 982 Q245 982 255.5 971 Q266 960 266 945 L266 935 Z " />
<glyph glyph-name="ohungarumlaut" unicode="&#x151;" horiz-adv-x="640" d="M530 603 Q543 590 543 571 L543 129 Q543 110 530 97 L446 14 Q434 0 413 0 L227 0 Q207 0 195 14 L111 97 Q98 110 98 129 L98 571 Q98 590 111 603 L195 686 Q207 700 227 700 L413 700 Q434 700 446 686 L530 603 Z M442 138 Q452 148 452 163 L452 537 Q452 552 442 562 L405 599 Q395 609 380 609 L261 609 Q246 609 236 599 L199 562 Q189 552 189 537 L189 163 Q189 148 199 138 L236 101 Q246 91 261 91 L380 91 Q395 91 405 101 L442 138 Z M225 823 Q212 810 193 810 Q174 810 161 823 Q148 836 148 855 Q148 874 161 887 L243 969 Q256 982 275 982 Q294 982 307 969 Q320 956 320 937 Q320 918 307 905 L225 823 Z M398 823 Q385 810 366 810 Q347 810 333.5 823 Q320 836 320 855 Q320 873 334 887 L415 969 Q428 982 447 982 Q466 982 479.5 969 Q493 956 493 937 Q493 917 479 905 L398 823 Z " />
<glyph glyph-name="racute" unicode="&#x155;" horiz-adv-x="640" d="M234 282 Q215 282 202 269 Q189 256 189 237 L189 45 Q189 26 175.5 13 Q162 0 143 0 Q124 0 111 13 Q98 26 98 45 L98 655 Q98 674 111 687 Q124 700 143 700 L393 700 Q412 700 426 686 L530 582 Q543 569 543 550 L543 432 Q543 414 529 400 L489 360 Q476 347 476 328 Q476 310 489 295 L530 255 Q543 242 543 223 L543 45 Q543 26 530 13 Q517 0 498 0 Q479 0 465.5 13 Q452 26 452 45 L452 189 Q452 204 442 214 L384 272 Q374 282 359 282 L234 282 Z M442 441 Q452 451 452 466 L452 516 Q452 531 442 541 L384 599 Q374 609 359 609 L234 609 Q215 609 202 596 Q189 583 189 564 L189 418 Q189 399 202 386 Q215 373 234 373 L359 373 Q374 373 384 383 L442 441 Z M312 823 Q299 810 280 810 Q261 810 247.5 823 Q234 836 234 855 Q234 873 248 887 L329 969 Q342 982 361 982 Q380 982 393.5 969 Q407 956 407 937 Q407 917 393 905 L312 823 Z " />
<glyph glyph-name="rcaron" unicode="&#x159;" horiz-adv-x="640" d="M234 282 Q215 282 202 269 Q189 256 189 237 L189 45 Q189 26 175.5 13 Q162 0 143 0 Q124 0 111 13 Q98 26 98 45 L98 655 Q98 674 111 687 Q124 700 143 700 L393 700 Q412 700 426 686 L530 582 Q543 569 543 550 L543 432 Q543 414 529 400 L489 360 Q476 347 476 328 Q476 310 489 295 L530 255 Q543 242 543 223 L543 45 Q543 26 530 13 Q517 0 498 0 Q479 0 465.5 13 Q452 26 452 45 L452 189 Q452 204 442 214 L384 272 Q374 282 359 282 L234 282 Z M442 441 Q452 451 452 466 L452 516 Q452 531 442 541 L384 599 Q374 609 359 609 L234 609 Q215 609 202 596 Q189 583 189 564 L189 418 Q189 399 202 386 Q215 373 234 373 L359 373 Q374 373 384 383 L442 441 Z M255 970 Q243 982 227 982 Q211 982 199 970 Q187 958 187 942 Q187 926 199 914 L291 821 Q302 810 320 810 Q337 810 348 821 L441 914 Q452 927 452 942 Q452 959 440.5 970.5 Q429 982 412 982 Q396 982 384 970 L348 934 Q336 922 320 922 Q303 922 291 934 L255 970 Z " />
<glyph glyph-name="sacute" unicode="&#x15b;" horiz-adv-x="640" d="M452 537 Q452 552 442 562 L405 599 Q395 609 380 609 L261 609 Q246 609 236 599 L199 562 Q189 552 189 537 L189 468 Q189 453 199 443 L236 405 Q246 395 261 395 L414 395 Q433 395 446 382 L530 297 Q543 284 543 265 L543 129 Q543 110 530 97 L446 14 Q434 0 414 0 L227 0 Q207 0 195 14 L111 97 Q98 110 98 129 L98 175 Q98 194 111 206.5 Q124 219 143 219 Q162 219 175.5 206.5 Q189 194 189 175 L189 163 Q189 148 199 138 L236 101 Q246 91 261 91 L380 91 Q395 91 405 101 L442 138 Q452 148 452 163 L452 231 Q452 246 442 256 L405 294 Q395 304 380 304 L227 304 Q208 304 195 317 L111 402 Q98 415 98 434 L98 571 Q98 590 111 603 L195 686 Q207 700 227 700 L414 700 Q434 700 446 686 L530 603 Q543 590 543 571 L543 525 Q543 506 530 493 Q517 480 498 480 Q479 480 465.5 493 Q452 506 452 525 L452 537 Z M312 823 Q299 810 280 810 Q261 810 247.5 823 Q234 836 234 855 Q234 873 248 887 L329 969 Q342 982 361 982 Q380 982 393.5 969 Q407 956 407 937 Q407 917 393 905 L312 823 Z " />
<glyph glyph-name="scircumflex" unicode="&#x15d;" horiz-adv-x="640" d="M452 537 Q452 552 442 562 L405 599 Q395 609 380 609 L261 609 Q246 609 236 599 L199 562 Q189 552 189 537 L189 468 Q189 453 199 443 L236 405 Q246 395 261 395 L414 395 Q433 395 446 382 L530 297 Q543 284 543 265 L543 129 Q543 110 530 97 L446 14 Q434 0 414 0 L227 0 Q207 0 195 14 L111 97 Q98 110 98 129 L98 175 Q98 194 111 206.5 Q124 219 143 219 Q162 219 175.5 206.5 Q189 194 189 175 L189 163 Q189 148 199 138 L236 101 Q246 91 261 91 L380 91 Q395 91 405 101 L442 138 Q452 148 452 163 L452 231 Q452 246 442 256 L405 294 Q395 304 380 304 L227 304 Q208 304 195 317 L111 402 Q98 415 98 434 L98 571 Q98 590 111 603 L195 686 Q207 700 227 700 L414 700 Q434 700 446 686 L530 603 Q543 590 543 571 L543 525 Q543 506 530 493 Q517 480 498 480 Q479 480 465.5 493 Q452 506 452 525 L452 537 Z M255 821 Q250 815 242.5 812.5 Q235 810 227 810 Q210 810 198.5 821 Q187 832 187 849 Q187 866 199 878 L292 970 Q303 982 320 982 Q336 982 348 970 L441 878 Q452 867 452 849 Q452 832 441 821 Q430 810 413 810 Q395 810 384 821 L348 857 Q336 869 320 869 Q303 869 292 857 L255 821 Z " />
<glyph glyph-name="uni0156" unicode="&#x156;" horiz-adv-x="640" d="M234 282 Q215 282 202 269 Q189 256 189 237 L189 45 Q189 26 175.5 13 Q162 0 143 0 Q124 0 111 13 Q98 26 98 45 L98 655 Q98 674 111 687 Q124 700 143 700 L393 700 Q412 700 426 686 L530 582 Q543 569 543 550 L543 432 Q543 414 529 400 L489 360 Q476 347 476 328 Q476 310 489 295 L530 255 Q543 242 543 223 L543 45 Q543 26 530 13 Q517 0 498 0 Q479 0 465.5 13 Q452 26 452 45 L452 189 Q452 204 442 214 L384 272 Q374 282 359 282 L234 282 Z M442 441 Q452 451 452 466 L452 516 Q452 531 442 541 L384 599 Q374 609 359 609 L234 609 Q215 609 202 596 Q189 583 189 564 L189 418 Q189 399 202 386 Q215 373 234 373 L359 373 Q374 373 384 383 L442 441 Z M392 -168 Q406 -156 406 -136 Q406 -118 392 -104 Q380 -91 360 -91 Q341 -91 328 -104 L247 -186 Q233 -200 233 -218 Q233 -236 247 -250 Q259 -263 279 -263 Q298 -263 311 -250 L392 -168 Z " />
<glyph glyph-name="uni0157" unicode="&#x157;" horiz-adv-x="640" d="M234 282 Q215 282 202 269 Q189 256 189 237 L189 45 Q189 26 175.5 13 Q162 0 143 0 Q124 0 111 13 Q98 26 98 45 L98 655 Q98 674 111 687 Q124 700 143 700 L393 700 Q412 700 426 686 L530 582 Q543 569 543 550 L543 432 Q543 414 529 400 L489 360 Q476 347 476 328 Q476 310 489 295 L530 255 Q543 242 543 223 L543 45 Q543 26 530 13 Q517 0 498 0 Q479 0 465.5 13 Q452 26 452 45 L452 189 Q452 204 442 214 L384 272 Q374 282 359 282 L234 282 Z M442 441 Q452 451 452 466 L452 516 Q452 531 442 541 L384 599 Q374 609 359 609 L234 609 Q215 609 202 596 Q189 583 189 564 L189 418 Q189 399 202 386 Q215 373 234 373 L359 373 Q374 373 384 383 L442 441 Z M392 -168 Q406 -156 406 -136 Q406 -118 392 -104 Q380 -91 360 -91 Q341 -91 328 -104 L247 -186 Q233 -200 233 -218 Q233 -236 247 -250 Q259 -263 279 -263 Q298 -263 311 -250 L392 -168 Z " />
<glyph glyph-name="scaron" unicode="&#x161;" horiz-adv-x="640" d="M452 537 Q452 552 442 562 L405 599 Q395 609 380 609 L261 609 Q246 609 236 599 L199 562 Q189 552 189 537 L189 468 Q189 453 199 443 L236 405 Q246 395 261 395 L414 395 Q433 395 446 382 L530 297 Q543 284 543 265 L543 129 Q543 110 530 97 L446 14 Q434 0 414 0 L227 0 Q207 0 195 14 L111 97 Q98 110 98 129 L98 175 Q98 194 111 206.5 Q124 219 143 219 Q162 219 175.5 206.5 Q189 194 189 175 L189 163 Q189 148 199 138 L236 101 Q246 91 261 91 L380 91 Q395 91 405 101 L442 138 Q452 148 452 163 L452 231 Q452 246 442 256 L405 294 Q395 304 380 304 L227 304 Q208 304 195 317 L111 402 Q98 415 98 434 L98 571 Q98 590 111 603 L195 686 Q207 700 227 700 L414 700 Q434 700 446 686 L530 603 Q543 590 543 571 L543 525 Q543 506 530 493 Q517 480 498 480 Q479 480 465.5 493 Q452 506 452 525 L452 537 Z M291 934 Q303 922 320 922 Q336 922 348 934 L384 970 Q396 982 412 982 Q429 982 440.5 970.5 Q452 959 452 942 Q452 927 441 914 L348 821 Q337 810 320 810 Q302 810 291 821 L199 914 Q187 926 187 942 Q187 958 199 970 Q211 982 227 982 Q243 982 255 970 L291 934 Z " />
<glyph glyph-name="tcaron" unicode="&#x165;" horiz-adv-x="640" d="M291 934 Q303 922 320 922 Q336 922 348 934 L384 970 Q396 982 412 982 Q429 982 440.5 970.5 Q452 959 452 942 Q452 927 441 914 L348 821 Q337 810 320 810 Q302 810 291 821 L199 914 Q187 926 187 942 Q187 950 190 957.5 Q193 965 199 970 Q211 982 227 982 Q243 982 255 970 L291 934 Z M366 45 Q366 26 353 13 Q340 0 320 0 Q301 0 288 13 Q275 26 275 45 L275 564 Q275 583 262 596 Q249 609 230 609 L143 609 Q124 609 111 622.5 Q98 636 98 655 Q98 674 111 687 Q124 700 143 700 L498 700 Q517 700 530 687 Q543 674 543 655 Q543 636 530 622.5 Q517 609 498 609 L411 609 Q392 609 379 596 Q366 583 366 564 L366 45 Z " />
<glyph glyph-name="utilde" unicode="&#x169;" horiz-adv-x="640" d="M189 163 Q189 148 199 138 L236 101 Q246 91 261 91 L380 91 Q395 91 405 101 L442 138 Q452 148 452 163 L452 655 Q452 674 465.5 687 Q479 700 498 700 Q517 700 530 687 Q543 674 543 655 L543 129 Q543 110 530 97 L446 14 Q434 0 413 0 L227 0 Q207 0 195 14 L111 97 Q98 110 98 129 L98 655 Q98 674 111 687 Q124 700 143 700 Q162 700 175.5 687 Q189 674 189 655 L189 163 Z M236 904 L236 872 Q236 856 225 845 Q214 834 198 834 Q183 834 172 845 Q161 856 161 872 L161 922 Q161 935 171 945 L211 985 Q221 995 234 995 L284 995 Q298 995 308 985 L348 945 Q357 935 357 922 L357 900 L373 885 L389 885 L404 900 L404 933 Q404 948 415 959 Q426 970 442 970 Q457 970 468 959 Q479 948 479 933 L479 883 Q479 869 470 860 L429 820 Q421 810 406 810 L356 810 Q342 810 332 820 L292 860 Q283 869 283 883 L283 904 L267 920 L251 920 L236 904 Z " />
<glyph glyph-name="umacron" unicode="&#x16b;" horiz-adv-x="640" d="M189 163 Q189 148 199 138 L236 101 Q246 91 261 91 L380 91 Q395 91 405 101 L442 138 Q452 148 452 163 L452 655 Q452 674 465.5 687 Q479 700 498 700 Q517 700 530 687 Q543 674 543 655 L543 129 Q543 110 530 97 L446 14 Q434 0 413 0 L227 0 Q207 0 195 14 L111 97 Q98 110 98 129 L98 655 Q98 674 111 687 Q124 700 143 700 Q162 700 175.5 687 Q189 674 189 655 L189 163 Z M226 820 Q207 820 194 833 Q181 846 181 865 Q181 884 194 897.5 Q207 911 226 911 L415 911 Q434 911 447 897.5 Q460 884 460 865 Q460 846 447 833 Q434 820 415 820 L226 820 Z " />
<glyph glyph-name="ubreve" unicode="&#x16d;" horiz-adv-x="640" d="M189 163 Q189 148 199 138 L236 101 Q246 91 261 91 L380 91 Q395 91 405 101 L442 138 Q452 148 452 163 L452 655 Q452 674 465.5 687 Q479 700 498 700 Q517 700 530 687 Q543 674 543 655 L543 129 Q543 110 530 97 L446 14 Q434 0 413 0 L227 0 Q207 0 195 14 L111 97 Q98 110 98 129 L98 655 Q98 674 111 687 Q124 700 143 700 Q162 700 175.5 687 Q189 674 189 655 L189 163 Z M266 935 Q266 920 276 910 L292 894 Q302 884 317 884 L322 884 Q337 884 347 894 L363 910 Q373 920 373 935 L373 945 Q373 960 383.5 971 Q394 982 410 982 Q426 982 436.5 971 Q447 960 447 945 L447 903 Q447 889 438 880 L378 819 Q369 810 354 810 L285 810 Q270 810 261 819 L201 880 Q192 889 192 903 L192 945 Q192 960 202.5 971 Q213 982 229 982 Q245 982 255.5 971 Q266 960 266 945 L266 935 Z " />
<glyph glyph-name="uring" unicode="&#x16f;" horiz-adv-x="640" d="M189 163 Q189 148 199 138 L236 101 Q246 91 261 91 L380 91 Q395 91 405 101 L442 138 Q452 148 452 163 L452 655 Q452 674 465.5 687 Q479 700 498 700 Q517 700 530 687 Q543 674 543 655 L543 129 Q543 110 530 97 L446 14 Q434 0 413 0 L227 0 Q207 0 195 14 L111 97 Q98 110 98 129 L98 655 Q98 674 111 687 Q124 700 143 700 Q162 700 175.5 687 Q189 674 189 655 L189 163 Z M209 911 Q209 923 217 931 L269 984 Q279 992 290 992 L350 992 Q363 992 371 984 L423 931 Q431 924 431 911 L431 850 Q431 838 423 830 L371 778 Q363 770 350 770 L290 770 Q279 770 269 778 L217 830 Q209 840 209 850 L209 911 Z M284 906 Q274 896 274 881 Q274 866 284 856 L295 845 Q305 835 320 835 Q335 835 345 845 L356 856 Q366 866 366 881 Q366 896 356 906 L345 917 Q335 927 320 927 Q305 927 295 917 L284 906 Z " />
<glyph glyph-name="uhungarumlaut" unicode="&#x171;" horiz-adv-x="640" d="M189 163 Q189 148 199 138 L236 101 Q246 91 261 91 L380 91 Q395 91 405 101 L442 138 Q452 148 452 163 L452 655 Q452 674 465.5 687 Q479 700 498 700 Q517 700 530 687 Q543 674 543 655 L543 129 Q543 110 530 97 L446 14 Q434 0 413 0 L227 0 Q207 0 195 14 L111 97 Q98 110 98 129 L98 655 Q98 674 111 687 Q124 700 143 700 Q162 700 175.5 687 Q189 674 189 655 L189 163 Z M225 823 Q212 810 193 810 Q174 810 161 823 Q148 836 148 855 Q148 874 161 887 L243 969 Q256 982 275 982 Q294 982 307 969 Q320 956 320 937 Q320 918 307 905 L225 823 Z M398 823 Q385 810 366 810 Q347 810 333.5 823 Q320 836 320 855 Q320 873 334 887 L415 969 Q428 982 447 982 Q466 982 479.5 969 Q493 956 493 937 Q493 917 479 905 L398 823 Z " />
<glyph glyph-name="wcircumflex" unicode="&#x175;" horiz-adv-x="640" d="M452 655 Q452 674 465.5 687 Q479 700 498 700 Q517 700 530 687 Q543 674 543 655 L543 134 Q543 115 530 102 L441 13 Q428 0 409 0 Q390 0 377 13 L321 70 L264 13 Q251 0 232 0 Q213 0 200 13 L111 102 Q98 115 98 134 L98 655 Q98 674 111 687 Q124 700 143 700 Q162 700 175.5 687 Q189 674 189 655 L189 168 Q189 151 202.5 139.5 Q216 128 232 128 Q249 128 262 139.5 Q275 151 275 168 L275 350 Q275 369 288 382 Q301 395 321 395 Q340 395 353 382 Q366 369 366 350 L366 168 Q366 151 379.5 139.5 Q393 128 409 128 Q426 128 439 139.5 Q452 151 452 168 L452 655 Z M255 821 Q250 815 242.5 812.5 Q235 810 227 810 Q210 810 198.5 821 Q187 832 187 849 Q187 866 199 878 L292 970 Q303 982 320 982 Q336 982 348 970 L441 878 Q452 867 452 849 Q452 832 441 821 Q430 810 413 810 Q395 810 384 821 L348 857 Q336 869 320 869 Q303 869 292 857 L255 821 Z " />
<glyph glyph-name="ycircumflex" unicode="&#x177;" horiz-adv-x="640" d="M112 453 Q98 467 98 486 L98 655 Q98 674 111 687 Q124 700 143 700 Q162 700 175.5 687 Q189 674 189 655 L189 520 Q189 505 199 495 L288 405 Q301 392 320 392 Q340 392 353 405 L442 495 Q452 505 452 520 L452 655 Q452 674 465.5 687 Q479 700 498 700 Q517 700 530 687 Q543 674 543 655 L543 486 Q543 467 529 453 L376 300 Q366 290 366 275 L366 45 Q366 26 353 13 Q340 0 320 0 Q301 0 288 13 Q275 26 275 45 L275 275 Q275 290 265 300 L112 453 Z M255 821 Q250 815 242.5 812.5 Q235 810 227 810 Q210 810 198.5 821 Q187 832 187 849 Q187 866 199 878 L292 970 Q303 982 320 982 Q336 982 348 970 L441 878 Q452 867 452 849 Q452 832 441 821 Q430 810 413 810 Q395 810 384 821 L348 857 Q336 869 320 869 Q303 869 292 857 L255 821 Z " />
<glyph glyph-name="zacute" unicode="&#x17a;" horiz-adv-x="640" d="M442 536 Q452 546 452 561 L452 564 Q452 583 439 596 Q426 609 407 609 L143 609 Q124 609 111 622.5 Q98 636 98 655 Q98 674 111 687 Q124 700 143 700 L498 700 Q517 700 530 687 Q543 674 543 655 L543 527 Q543 508 530 495 L199 164 Q189 154 189 139 L189 136 Q189 117 202 104 Q215 91 234 91 L498 91 Q517 91 530 77.5 Q543 64 543 45 Q543 26 530 13 Q517 0 498 0 L143 0 Q124 0 111 13 Q98 26 98 45 L98 173 Q98 192 111 205 L442 536 Z M312 823 Q299 810 280 810 Q261 810 247.5 823 Q234 836 234 855 Q234 873 248 887 L329 969 Q342 982 361 982 Q380 982 393.5 969 Q407 956 407 937 Q407 917 393 905 L312 823 Z " />
<glyph glyph-name="zdotaccent" unicode="&#x17c;" horiz-adv-x="640" d="M442 536 Q452 546 452 561 L452 564 Q452 583 439 596 Q426 609 407 609 L143 609 Q124 609 111 622.5 Q98 636 98 655 Q98 674 111 687 Q124 700 143 700 L498 700 Q517 700 530 687 Q543 674 543 655 L543 527 Q543 508 530 495 L199 164 Q189 154 189 139 L189 136 Q189 117 202 104 Q215 91 234 91 L498 91 Q517 91 530 77.5 Q543 64 543 45 Q543 26 530 13 Q517 0 498 0 L143 0 Q124 0 111 13 Q98 26 98 45 L98 173 Q98 192 111 205 L442 536 Z M335 825 L305 825 Q286 825 273 838 Q260 851 260 870 L260 900 Q260 919 273 932 Q286 945 305 945 L335 945 Q354 945 367 932 Q380 919 380 900 L380 870 Q380 851 367 838 Q354 825 335 825 Z " />
<glyph glyph-name="zcaron" unicode="&#x17e;" horiz-adv-x="640" d="M442 536 Q452 546 452 561 L452 564 Q452 583 439 596 Q426 609 407 609 L143 609 Q124 609 111 622.5 Q98 636 98 655 Q98 674 111 687 Q124 700 143 700 L498 700 Q517 700 530 687 Q543 674 543 655 L543 527 Q543 508 530 495 L199 164 Q189 154 189 139 L189 136 Q189 117 202 104 Q215 91 234 91 L498 91 Q517 91 530 77.5 Q543 64 543 45 Q543 26 530 13 Q517 0 498 0 L143 0 Q124 0 111 13 Q98 26 98 45 L98 173 Q98 192 111 205 L442 536 Z M291 934 Q303 922 320 922 Q336 922 348 934 L384 970 Q396 982 412 982 Q429 982 440.5 970.5 Q452 959 452 942 Q452 927 441 914 L348 821 Q337 810 320 810 Q302 810 291 821 L199 914 Q187 926 187 942 Q187 958 199 970 Q211 982 227 982 Q243 982 255 970 L291 934 Z " />
<glyph glyph-name="uni0218" unicode="&#x218;" horiz-adv-x="640" d="M452 537 Q452 552 442 562 L405 599 Q395 609 380 609 L261 609 Q246 609 236 599 L199 562 Q189 552 189 537 L189 468 Q189 453 199 443 L236 405 Q246 395 261 395 L414 395 Q433 395 446 382 L530 297 Q543 284 543 265 L543 129 Q543 110 530 97 L446 14 Q434 0 414 0 L227 0 Q207 0 195 14 L111 97 Q98 110 98 129 L98 175 Q98 194 111 206.5 Q124 219 143 219 Q162 219 175.5 206.5 Q189 194 189 175 L189 163 Q189 148 199 138 L236 101 Q246 91 261 91 L380 91 Q395 91 405 101 L442 138 Q452 148 452 163 L452 231 Q452 246 442 256 L405 294 Q395 304 380 304 L227 304 Q208 304 195 317 L111 402 Q98 415 98 434 L98 571 Q98 590 111 603 L195 686 Q207 700 227 700 L414 700 Q434 700 446 686 L530 603 Q543 590 543 571 L543 525 Q543 506 530 493 Q517 480 498 480 Q479 480 465.5 493 Q452 506 452 525 L452 537 Z M311 -250 Q298 -263 279 -263 Q259 -263 247 -250 Q233 -236 233 -218 Q233 -200 247 -186 L328 -104 Q341 -91 360 -91 Q380 -91 392 -104 Q406 -118 406 -136 Q406 -156 392 -168 L311 -250 Z " />
<glyph glyph-name="uni0219" unicode="&#x219;" horiz-adv-x="640" d="M452 537 Q452 552 442 562 L405 599 Q395 609 380 609 L261 609 Q246 609 236 599 L199 562 Q189 552 189 537 L189 468 Q189 453 199 443 L236 405 Q246 395 261 395 L414 395 Q433 395 446 382 L530 297 Q543 284 543 265 L543 129 Q543 110 530 97 L446 14 Q434 0 414 0 L227 0 Q207 0 195 14 L111 97 Q98 110 98 129 L98 175 Q98 194 111 206.5 Q124 219 143 219 Q162 219 175.5 206.5 Q189 194 189 175 L189 163 Q189 148 199 138 L236 101 Q246 91 261 91 L380 91 Q395 91 405 101 L442 138 Q452 148 452 163 L452 231 Q452 246 442 256 L405 294 Q395 304 380 304 L227 304 Q208 304 195 317 L111 402 Q98 415 98 434 L98 571 Q98 590 111 603 L195 686 Q207 700 227 700 L414 700 Q434 700 446 686 L530 603 Q543 590 543 571 L543 525 Q543 506 530 493 Q517 480 498 480 Q479 480 465.5 493 Q452 506 452 525 L452 537 Z M311 -250 Q298 -263 279 -263 Q259 -263 247 -250 Q233 -236 233 -218 Q233 -200 247 -186 L328 -104 Q341 -91 360 -91 Q380 -91 392 -104 Q406 -118 406 -136 Q406 -156 392 -168 L311 -250 Z " />
<glyph glyph-name="uni021A" unicode="&#x21a;" horiz-adv-x="640" d="M366 45 Q366 26 353 13 Q340 0 320 0 Q301 0 288 13 Q275 26 275 45 L275 564 Q275 583 262 596 Q249 609 230 609 L143 609 Q124 609 111 622.5 Q98 636 98 655 Q98 674 111 687 Q124 700 143 700 L498 700 Q517 700 530 687 Q543 674 543 655 Q543 636 530 622.5 Q517 609 498 609 L411 609 Q392 609 379 596 Q366 583 366 564 L366 45 Z M392 -168 Q406 -156 406 -136 Q406 -118 392 -104 Q380 -91 360 -91 Q341 -91 328 -104 L247 -186 Q233 -200 233 -218 Q233 -236 247 -250 Q259 -263 279 -263 Q298 -263 311 -250 L392 -168 Z " />
<glyph glyph-name="uni021B" unicode="&#x21b;" horiz-adv-x="640" d="M366 45 Q366 26 353 13 Q340 0 320 0 Q301 0 288 13 Q275 26 275 45 L275 564 Q275 583 262 596 Q249 609 230 609 L143 609 Q124 609 111 622.5 Q98 636 98 655 Q98 674 111 687 Q124 700 143 700 L498 700 Q517 700 530 687 Q543 674 543 655 Q543 636 530 622.5 Q517 609 498 609 L411 609 Q392 609 379 596 Q366 583 366 564 L366 45 Z M392 -168 Q406 -156 406 -136 Q406 -118 392 -104 Q380 -91 360 -91 Q341 -91 328 -104 L247 -186 Q233 -200 233 -218 Q233 -236 247 -250 Q259 -263 279 -263 Q298 -263 311 -250 L392 -168 Z " />
<glyph glyph-name="uni0237" unicode="&#x237;" horiz-adv-x="640" d="M452 564 Q452 583 439 596 Q426 609 407 609 L320 609 Q301 609 288 622.5 Q275 636 275 655 Q275 674 288 687 Q301 700 320 700 L498 700 Q517 700 530 687 Q543 674 543 655 L543 130 Q543 110 530 97 L446 14 Q434 0 414 0 L227 0 Q207 0 195 14 L111 97 Q98 110 98 130 L98 214 Q98 233 111 246.5 Q124 260 143 260 Q162 260 175.5 246.5 Q189 233 189 214 L189 163 Q189 148 199 138 L236 101 Q246 91 261 91 L380 91 Q395 91 405 101 L442 138 Q452 148 452 163 L452 564 Z " />
<glyph glyph-name="wgrave" unicode="&#x1e81;" horiz-adv-x="640" d="M452 655 Q452 674 465.5 687 Q479 700 498 700 Q517 700 530 687 Q543 674 543 655 L543 134 Q543 115 530 102 L441 13 Q428 0 409 0 Q390 0 377 13 L321 70 L264 13 Q251 0 232 0 Q213 0 200 13 L111 102 Q98 115 98 134 L98 655 Q98 674 111 687 Q124 700 143 700 Q162 700 175.5 687 Q189 674 189 655 L189 168 Q189 151 202.5 139.5 Q216 128 232 128 Q249 128 262 139.5 Q275 151 275 168 L275 350 Q275 369 288 382 Q301 395 321 395 Q340 395 353 382 Q366 369 366 350 L366 168 Q366 151 379.5 139.5 Q393 128 409 128 Q426 128 439 139.5 Q452 151 452 168 L452 655 Z M247 905 Q234 918 234 937 Q234 956 247 969 Q260 982 279 982 Q299 982 312 969 L393 887 Q407 873 407 855 Q407 836 393.5 823 Q380 810 361 810 Q342 810 329 823 L247 905 Z " />
<glyph glyph-name="wacute" unicode="&#x1e83;" horiz-adv-x="640" d="M452 655 Q452 674 465.5 687 Q479 700 498 700 Q517 700 530 687 Q543 674 543 655 L543 134 Q543 115 530 102 L441 13 Q428 0 409 0 Q390 0 377 13 L321 70 L264 13 Q251 0 232 0 Q213 0 200 13 L111 102 Q98 115 98 134 L98 655 Q98 674 111 687 Q124 700 143 700 Q162 700 175.5 687 Q189 674 189 655 L189 168 Q189 151 202.5 139.5 Q216 128 232 128 Q249 128 262 139.5 Q275 151 275 168 L275 350 Q275 369 288 382 Q301 395 321 395 Q340 395 353 382 Q366 369 366 350 L366 168 Q366 151 379.5 139.5 Q393 128 409 128 Q426 128 439 139.5 Q452 151 452 168 L452 655 Z M312 823 Q299 810 280 810 Q261 810 247.5 823 Q234 836 234 855 Q234 873 248 887 L329 969 Q342 982 361 982 Q380 982 393.5 969 Q407 956 407 937 Q407 917 393 905 L312 823 Z " />
<glyph glyph-name="wdieresis" unicode="&#x1e85;" horiz-adv-x="640" d="M452 655 Q452 674 465.5 687 Q479 700 498 700 Q517 700 530 687 Q543 674 543 655 L543 134 Q543 115 530 102 L441 13 Q428 0 409 0 Q390 0 377 13 L321 70 L264 13 Q251 0 232 0 Q213 0 200 13 L111 102 Q98 115 98 134 L98 655 Q98 674 111 687 Q124 700 143 700 Q162 700 175.5 687 Q189 674 189 655 L189 168 Q189 151 202.5 139.5 Q216 128 232 128 Q249 128 262 139.5 Q275 151 275 168 L275 350 Q275 369 288 382 Q301 395 321 395 Q340 395 353 382 Q366 369 366 350 L366 168 Q366 151 379.5 139.5 Q393 128 409 128 Q426 128 439 139.5 Q452 151 452 168 L452 655 Z M418 820 L398 820 Q379 820 366 833 Q353 846 353 865 L353 885 Q353 904 366 917 Q379 930 398 930 L418 930 Q437 930 450 917 Q463 904 463 885 L463 865 Q463 846 450 833 Q437 820 418 820 Z M243 820 L223 820 Q204 820 191 833 Q178 846 178 865 L178 885 Q178 904 191 917 Q204 930 223 930 L243 930 Q262 930 275 917 Q288 904 288 885 L288 865 Q288 846 275 833 Q262 820 243 820 Z " />
<glyph glyph-name="Oslash" unicode="&#xd8;" horiz-adv-x="640" d="M441 137 Q452 148 452 163 L452 402 Q452 410 448 410 Q445 410 441 406 L199 165 Q192 158 192 149 Q192 144 195 141 L235 102 Q246 91 261 91 L379 91 Q386 91 393 94 Q400 97 405 102 L441 137 Z M199 563 Q194 558 191 551 Q188 544 188 537 L188 298 Q188 290 192 290 Q195 290 199 294 L441 535 Q448 542 448 551 Q448 556 445 559 L405 598 Q394 609 379 609 L261 609 Q246 609 235 598 L199 563 Z M532 627 Q545 640 565 640 Q584 640 597 627 Q610 614 610 595 Q610 575 597 563 L554 519 Q549 514 546 507 Q543 500 543 493 L543 130 Q543 111 529 97 L445 14 Q433 0 413 0 L227 0 Q207 0 195 14 L132 76 Q127 81 121 81 Q116 81 111 76 L108 73 Q95 60 75 60 Q56 60 43 73 Q30 86 30 105 Q30 125 43 138 L86 181 Q97 192 97 207 L97 571 Q97 589 111 603 L195 686 Q207 700 227 700 L413 700 Q433 700 445 686 L508 624 Q513 619 519 619 Q524 619 529 624 L532 627 Z " />
<glyph glyph-name="oslash" unicode="&#xf8;" horiz-adv-x="640" d="M441 137 Q452 148 452 163 L452 402 Q452 410 448 410 Q445 410 441 406 L199 165 Q192 158 192 149 Q192 144 195 141 L235 102 Q246 91 261 91 L379 91 Q386 91 393 94 Q400 97 405 102 L441 137 Z M199 563 Q194 558 191 551 Q188 544 188 537 L188 298 Q188 290 192 290 Q195 290 199 294 L441 535 Q448 542 448 551 Q448 556 445 559 L405 598 Q394 609 379 609 L261 609 Q246 609 235 598 L199 563 Z M532 627 Q545 640 565 640 Q584 640 597 627 Q610 614 610 595 Q610 575 597 563 L554 519 Q549 514 546 507 Q543 500 543 493 L543 130 Q543 111 529 97 L445 14 Q433 0 413 0 L227 0 Q207 0 195 14 L132 76 Q127 81 121 81 Q116 81 111 76 L108 73 Q95 60 75 60 Q56 60 43 73 Q30 86 30 105 Q30 125 43 138 L86 181 Q97 192 97 207 L97 571 Q97 589 111 603 L195 686 Q207 700 227 700 L413 700 Q433 700 445 686 L508 624 Q513 619 519 619 Q524 619 529 624 L532 627 Z " />
<glyph glyph-name="Dcroat" unicode="&#x110;" horiz-adv-x="640" d="M98 655 Q98 674 111 687 Q124 700 143 700 L393 700 Q412 700 425 687 L529 582 Q543 570 543 550 L543 150 Q543 130 529 118 L425 13 Q412 0 393 0 L143 0 Q124 0 111 13 Q98 26 98 45 L98 290 Q98 305 83 305 L73 305 Q54 305 41 318 Q28 331 28 351 Q28 370 41 383 Q54 396 73 396 L83 396 Q98 396 98 411 L98 655 Z M189 136 Q189 117 202 104 Q215 91 234 91 L359 91 Q374 91 384 101 L442 159 Q452 169 452 184 L452 516 Q452 531 442 541 L384 599 Q374 609 359 609 L234 609 Q215 609 202 596 Q189 583 189 564 L189 411 Q189 396 204 396 L343 396 Q362 396 375 383 Q388 370 388 351 Q388 331 375 318 Q362 305 343 305 L204 305 Q189 305 189 290 L189 136 Z " />
<glyph glyph-name="Eth" unicode="&#xd0;" horiz-adv-x="640" d="M98 655 Q98 674 111 687 Q124 700 143 700 L393 700 Q412 700 425 687 L529 582 Q543 570 543 550 L543 150 Q543 130 529 118 L425 13 Q412 0 393 0 L143 0 Q124 0 111 13 Q98 26 98 45 L98 290 Q98 305 83 305 L73 305 Q54 305 41 318 Q28 331 28 351 Q28 370 41 383 Q54 396 73 396 L83 396 Q98 396 98 411 L98 655 Z M189 136 Q189 117 202 104 Q215 91 234 91 L359 91 Q374 91 384 101 L442 159 Q452 169 452 184 L452 516 Q452 531 442 541 L384 599 Q374 609 359 609 L234 609 Q215 609 202 596 Q189 583 189 564 L189 411 Q189 396 204 396 L343 396 Q362 396 375 383 Q388 370 388 351 Q388 331 375 318 Q362 305 343 305 L204 305 Q189 305 189 290 L189 136 Z " />
<glyph glyph-name="eth" unicode="&#xf0;" horiz-adv-x="640" d="M98 655 Q98 674 111 687 Q124 700 143 700 L393 700 Q412 700 425 687 L529 582 Q543 570 543 550 L543 150 Q543 130 529 118 L425 13 Q412 0 393 0 L143 0 Q124 0 111 13 Q98 26 98 45 L98 290 Q98 305 83 305 L73 305 Q54 305 41 318 Q28 331 28 351 Q28 370 41 383 Q54 396 73 396 L83 396 Q98 396 98 411 L98 655 Z M189 136 Q189 117 202 104 Q215 91 234 91 L359 91 Q374 91 384 101 L442 159 Q452 169 452 184 L452 516 Q452 531 442 541 L384 599 Q374 609 359 609 L234 609 Q215 609 202 596 Q189 583 189 564 L189 411 Q189 396 204 396 L343 396 Q362 396 375 383 Q388 370 388 351 Q388 331 375 318 Q362 305 343 305 L204 305 Q189 305 189 290 L189 136 Z " />
<glyph glyph-name="dslash" unicode="&#x111;" horiz-adv-x="640" d="M98 655 Q98 674 111 687 Q124 700 143 700 L393 700 Q412 700 425 687 L529 582 Q543 570 543 550 L543 150 Q543 130 529 118 L425 13 Q412 0 393 0 L143 0 Q124 0 111 13 Q98 26 98 45 L98 290 Q98 305 83 305 L73 305 Q54 305 41 318 Q28 331 28 351 Q28 370 41 383 Q54 396 73 396 L83 396 Q98 396 98 411 L98 655 Z M189 136 Q189 117 202 104 Q215 91 234 91 L359 91 Q374 91 384 101 L442 159 Q452 169 452 184 L452 516 Q452 531 442 541 L384 599 Q374 609 359 609 L234 609 Q215 609 202 596 Q189 583 189 564 L189 411 Q189 396 204 396 L343 396 Q362 396 375 383 Q388 370 388 351 Q388 331 375 318 Q362 305 343 305 L204 305 Q189 305 189 290 L189 136 Z " />
<glyph glyph-name="Hbar" unicode="&#x126;" horiz-adv-x="640" d="M452 655 Q452 674 465 687 Q478 700 498 700 Q517 700 530 687 Q543 674 543 655 L543 606 Q543 591 558 591 L567 591 Q586 591 599 578 Q612 565 612 546 Q612 526 599 513 Q586 500 567 500 L558 500 Q543 500 543 485 L543 44 Q543 25 530 12 Q517 -1 498 -1 Q478 -1 465 12 Q452 25 452 44 L452 258 Q452 277 439 290.5 Q426 304 407 304 L234 304 Q215 304 202 290.5 Q189 277 189 258 L189 44 Q189 25 175.5 12 Q162 -1 143 -1 Q124 -1 111 12 Q98 25 98 44 L98 485 Q98 500 83 500 L73 500 Q54 500 41 513 Q28 526 28 546 Q28 565 41 578 Q54 591 73 591 L83 591 Q98 591 98 606 L98 655 Q98 674 111 687 Q124 700 143 700 Q162 700 175.5 687 Q189 674 189 655 L189 606 Q189 591 204 591 L437 591 Q452 591 452 606 L452 655 Z M189 441 Q189 422 202 408.5 Q215 395 234 395 L407 395 Q426 395 439 408.5 Q452 422 452 441 L452 485 Q452 500 437 500 L204 500 Q189 500 189 485 L189 441 Z " />
<glyph glyph-name="hbar" unicode="&#x127;" horiz-adv-x="640" d="M452 655 Q452 674 465 687 Q478 700 498 700 Q517 700 530 687 Q543 674 543 655 L543 606 Q543 591 558 591 L567 591 Q586 591 599 578 Q612 565 612 546 Q612 526 599 513 Q586 500 567 500 L558 500 Q543 500 543 485 L543 44 Q543 25 530 12 Q517 -1 498 -1 Q478 -1 465 12 Q452 25 452 44 L452 258 Q452 277 439 290.5 Q426 304 407 304 L234 304 Q215 304 202 290.5 Q189 277 189 258 L189 44 Q189 25 175.5 12 Q162 -1 143 -1 Q124 -1 111 12 Q98 25 98 44 L98 485 Q98 500 83 500 L73 500 Q54 500 41 513 Q28 526 28 546 Q28 565 41 578 Q54 591 73 591 L83 591 Q98 591 98 606 L98 655 Q98 674 111 687 Q124 700 143 700 Q162 700 175.5 687 Q189 674 189 655 L189 606 Q189 591 204 591 L437 591 Q452 591 452 606 L452 655 Z M189 441 Q189 422 202 408.5 Q215 395 234 395 L407 395 Q426 395 439 408.5 Q452 422 452 441 L452 485 Q452 500 437 500 L204 500 Q189 500 189 485 L189 441 Z " />
<glyph glyph-name="AE" unicode="&#xc6;" horiz-adv-x="640" d="M275 595 Q275 609 260 609 Q247 609 237 599 L180 542 Q175 537 172 530 Q169 523 169 516 L169 418 Q169 399 182 386 Q195 373 214 373 L260 373 Q275 373 275 388 L275 595 Z M275 267 Q275 282 260 282 L214 282 Q195 282 182 269 Q169 256 169 237 L169 45 Q169 26 155.5 13 Q142 0 123 0 Q104 0 91 13 Q78 26 78 45 L78 550 Q78 569 91 582 L196 686 Q208 700 228 700 L518 700 Q537 700 550 687 Q563 674 563 655 Q563 636 550 622.5 Q537 609 518 609 L411 609 Q392 609 379 596 Q366 583 366 564 L366 441 Q366 422 379 408.5 Q392 395 411 395 L498 395 Q517 395 530 382 Q543 369 543 350 Q543 331 530 317.5 Q517 304 498 304 L411 304 Q392 304 379 291 Q366 278 366 259 L366 136 Q366 117 379 104 Q392 91 411 91 L518 91 Q537 91 550 77.5 Q563 64 563 45 Q563 26 550 13 Q537 0 518 0 L320 0 Q301 0 288 13 Q275 26 275 45 L275 267 Z " />
<glyph glyph-name="ae" unicode="&#xe6;" horiz-adv-x="640" d="M275 595 Q275 609 260 609 Q247 609 237 599 L180 542 Q175 537 172 530 Q169 523 169 516 L169 418 Q169 399 182 386 Q195 373 214 373 L260 373 Q275 373 275 388 L275 595 Z M275 267 Q275 282 260 282 L214 282 Q195 282 182 269 Q169 256 169 237 L169 45 Q169 26 155.5 13 Q142 0 123 0 Q104 0 91 13 Q78 26 78 45 L78 550 Q78 569 91 582 L196 686 Q208 700 228 700 L518 700 Q537 700 550 687 Q563 674 563 655 Q563 636 550 622.5 Q537 609 518 609 L411 609 Q392 609 379 596 Q366 583 366 564 L366 441 Q366 422 379 408.5 Q392 395 411 395 L498 395 Q517 395 530 382 Q543 369 543 350 Q543 331 530 317.5 Q517 304 498 304 L411 304 Q392 304 379 291 Q366 278 366 259 L366 136 Q366 117 379 104 Q392 91 411 91 L518 91 Q537 91 550 77.5 Q563 64 563 45 Q563 26 550 13 Q537 0 518 0 L320 0 Q301 0 288 13 Q275 26 275 45 L275 267 Z " />
<glyph glyph-name="OE" unicode="&#x152;" horiz-adv-x="640" d="M275 594 Q275 609 260 609 L241 609 Q226 609 215 598 L180 563 Q175 558 172 551 Q169 544 169 537 L169 163 Q169 148 180 137 L215 102 Q226 91 241 91 L260 91 Q275 91 275 106 L275 594 Z M207 0 Q187 0 175 14 L91 97 Q78 110 78 130 L78 571 Q78 590 91 603 L175 686 Q187 700 207 700 L518 700 Q537 700 550 687 Q563 674 563 655 Q563 636 550 622.5 Q537 609 518 609 L411 609 Q392 609 379 596 Q366 583 366 564 L366 441 Q366 422 379 408.5 Q392 395 411 395 L498 395 Q517 395 530 382 Q543 369 543 350 Q543 331 530 317.5 Q517 304 498 304 L411 304 Q392 304 379 290.5 Q366 277 366 258 L366 136 Q366 117 379 104 Q392 91 411 91 L518 91 Q537 91 550 77.5 Q563 64 563 45 Q563 26 550 13 Q537 0 518 0 L207 0 Z " />
<glyph glyph-name="oe" unicode="&#x153;" horiz-adv-x="640" d="M275 594 Q275 609 260 609 L241 609 Q226 609 215 598 L180 563 Q175 558 172 551 Q169 544 169 537 L169 163 Q169 148 180 137 L215 102 Q226 91 241 91 L260 91 Q275 91 275 106 L275 594 Z M207 0 Q187 0 175 14 L91 97 Q78 110 78 130 L78 571 Q78 590 91 603 L175 686 Q187 700 207 700 L518 700 Q537 700 550 687 Q563 674 563 655 Q563 636 550 622.5 Q537 609 518 609 L411 609 Q392 609 379 596 Q366 583 366 564 L366 441 Q366 422 379 408.5 Q392 395 411 395 L498 395 Q517 395 530 382 Q543 369 543 350 Q543 331 530 317.5 Q517 304 498 304 L411 304 Q392 304 379 290.5 Q366 277 366 258 L366 136 Q366 117 379 104 Q392 91 411 91 L518 91 Q537 91 550 77.5 Q563 64 563 45 Q563 26 550 13 Q537 0 518 0 L207 0 Z " />
<glyph glyph-name="Lslash" unicode="&#x141;" horiz-adv-x="640" d="M98 185 Q98 195 90 195 Q87 195 85 194 Q81 193 74 193 Q55 193 41.5 206.5 Q28 220 28 239 Q28 257 41 270 L87 316 Q98 327 98 342 L98 655 Q98 674 111 687 Q124 700 143 700 Q162 700 175.5 687 Q189 674 189 655 L189 433 Q189 425 193 425 Q196 425 200 429 L264 493 Q278 507 295 507 Q314 507 327.5 493 Q341 479 341 460 Q341 442 328 429 L200 301 Q195 296 192 289 Q189 282 189 275 L189 136 Q189 117 202 104 Q215 91 234 91 L498 91 Q517 91 530 77.5 Q543 64 543 45 Q543 26 530 13 Q517 0 498 0 L143 0 Q124 0 111 13 Q98 26 98 45 L98 185 Z " />
<glyph glyph-name="lslash" unicode="&#x142;" horiz-adv-x="640" d="M98 185 Q98 195 90 195 Q87 195 85 194 Q81 193 74 193 Q55 193 41.5 206.5 Q28 220 28 239 Q28 257 41 270 L87 316 Q98 327 98 342 L98 655 Q98 674 111 687 Q124 700 143 700 Q162 700 175.5 687 Q189 674 189 655 L189 433 Q189 425 193 425 Q196 425 200 429 L264 493 Q278 507 295 507 Q314 507 327.5 493 Q341 479 341 460 Q341 442 328 429 L200 301 Q195 296 192 289 Q189 282 189 275 L189 136 Q189 117 202 104 Q215 91 234 91 L498 91 Q517 91 530 77.5 Q543 64 543 45 Q543 26 530 13 Q517 0 498 0 L143 0 Q124 0 111 13 Q98 26 98 45 L98 185 Z " />
<glyph glyph-name="plusminus" unicode="&#xb1;" horiz-adv-x="640" d="M455 394 Q474 394 487 381 Q500 368 500 349 Q500 329 487 316 Q474 303 455 303 L411 303 Q392 303 379 290 Q366 277 366 258 L366 213 Q366 194 353 181 Q340 168 320 168 Q301 168 288 181 Q275 194 275 213 L275 258 Q275 277 262 290 Q249 303 230 303 L185 303 Q166 303 153 316 Q140 329 140 349 Q140 368 153 381 Q166 394 185 394 L230 394 Q249 394 262 407 Q275 420 275 439 L275 484 Q275 503 288 516 Q301 529 320 529 Q340 529 353 516 Q366 503 366 484 L366 439 Q366 420 379 407 Q392 394 411 394 L455 394 Z M478 91 Q497 91 510 78 Q523 65 523 46 Q523 26 510 13 Q497 0 478 0 L163 0 Q144 0 131 13 Q118 26 118 46 Q118 65 131 78 Q144 91 163 91 L478 91 Z " />
<glyph glyph-name="asciitilde" unicode="&#x7e;" horiz-adv-x="640" d="M200 362 L200 304 Q200 285 186.5 271.5 Q173 258 153 258 Q136 258 122.5 271.5 Q109 285 109 304 L109 384 Q109 397 122 412 L169 460 Q181 472 197 472 L276 472 Q293 472 305 460 L354 412 Q361 405 363 398 Q365 391 365 384 L365 337 L385 318 L424 318 L441 337 L441 397 Q441 415 454.5 429 Q468 443 487 443 Q505 443 518.5 429 Q532 415 532 397 L532 317 Q532 309 529.5 301.5 Q527 294 522 289 L472 241 Q463 229 444 229 L364 229 Q346 229 334 241 L286 289 Q274 301 274 317 L274 362 L256 381 L218 381 L200 362 Z " />
<glyph glyph-name="section" unicode="&#xa7;" horiz-adv-x="640" d="M452 621 Q452 636 442 646 L405 683 Q395 693 380 693 L261 693 Q246 693 236 683 L199 646 Q189 636 189 621 L189 597 Q189 582 199 572 L236 534 Q246 524 261 524 L414 524 Q433 524 446 511 L530 427 Q543 414 543 395 L543 304 Q543 285 530 272 L477 221 L530 168 Q543 155 543 136 L543 45 Q543 26 530 13 L446 -70 Q434 -84 414 -84 L227 -84 Q207 -84 195 -70 L111 13 Q98 26 98 45 L98 91 Q98 110 111 122.5 Q124 135 143 135 Q162 135 175.5 122.5 Q189 110 189 91 L189 79 Q189 64 199 54 L236 17 Q246 7 261 7 L380 7 Q395 7 405 17 L442 54 Q452 64 452 79 L452 102 Q452 117 442 127 L405 165 Q395 175 380 175 L227 175 Q208 175 195 188 L111 272 Q98 285 98 304 L98 395 Q98 414 111 427 L163 478 L111 531 Q98 544 98 563 L98 655 Q98 674 111 687 L195 770 Q207 784 227 784 L414 784 Q434 784 446 770 L530 687 Q543 674 543 655 L543 608 Q543 589 530 576 Q517 563 498 563 Q479 563 465.5 576 Q452 589 452 608 L452 621 Z M236 276 Q246 266 261 266 L380 266 Q395 266 405 276 L442 313 Q452 323 452 338 L452 360 Q452 375 442 385 L405 423 Q395 433 380 433 L261 433 Q246 433 236 423 L199 386 Q189 376 189 361 L189 338 Q189 323 199 313 L236 276 Z " />
<glyph glyph-name="sterling" unicode="&#xa3;" horiz-adv-x="640" d="M452 537 Q452 544 449 551 Q446 558 441 563 L406 598 Q395 609 380 609 L352 609 Q337 609 326 598 L291 563 Q286 558 283 551 Q280 544 280 537 L280 388 Q280 373 295 373 L452 373 Q471 373 484.5 360 Q498 347 498 328 Q498 308 484.5 295 Q471 282 452 282 L295 282 Q280 282 280 267 L280 106 Q280 91 295 91 L498 91 Q517 91 530 77.5 Q543 64 543 45 Q543 26 530 13 Q517 0 498 0 L143 0 Q124 0 111 13 Q98 26 98 45 Q98 64 111 77.5 Q124 91 143 91 L174 91 Q189 91 189 106 L189 267 Q189 282 174 282 L143 282 Q124 282 111 295 Q98 308 98 328 Q98 347 111 360 Q124 373 143 373 L174 373 Q189 373 189 388 L189 571 Q189 590 202 603 L286 686 Q298 700 318 700 L414 700 Q434 700 446 686 L530 603 Q543 590 543 571 L543 525 Q543 506 530 493 Q517 480 498 480 Q479 480 465.5 493 Q452 506 452 525 L452 537 Z " />
<glyph glyph-name="currency" unicode="&#xa4;" horiz-adv-x="640" d="M427 384 Q427 391 424 398 Q421 405 416 410 L380 446 Q375 451 368 454 Q361 457 354 457 L286 457 Q271 457 260 446 L224 410 Q219 405 216 398 Q213 391 213 384 L213 316 Q213 301 224 290 L260 254 Q271 243 286 243 L354 243 Q361 243 368 246 Q375 249 380 254 L416 290 Q427 301 427 316 L427 384 Z M135 449 Q140 456 140 460 Q140 465 135 470 L103 502 Q90 515 90 535 Q90 554 103 567 Q116 580 135 580 Q155 580 168 567 L200 535 Q204 531 210 531 Q216 531 220 535 Q227 540 235 544 Q243 548 252 548 L388 548 Q397 548 405 544 Q413 540 420 535 Q425 531 430 531 Q436 531 440 535 L472 567 Q485 580 505 580 Q524 580 537 567 Q550 554 550 535 Q550 515 537 502 L505 470 Q501 466 501 460 Q501 454 505 449 Q518 436 518 418 L518 282 Q518 264 505 251 Q501 247 501 240 Q501 233 505 229 L537 197 Q550 184 550 165 Q550 146 537 133 Q524 120 505 120 Q485 120 472 133 L440 165 Q435 170 430 170 Q427 170 420 165 Q413 160 405 156 Q397 152 388 152 L252 152 Q243 152 235 156 Q227 160 220 165 Q215 170 210 170 Q205 170 200 165 L168 133 Q155 120 135 120 Q116 120 103 133 Q90 146 90 165 Q90 185 103 198 L135 230 Q140 235 140 240 Q140 246 135 251 Q122 264 122 282 L122 418 Q122 436 135 449 Z " />
<glyph glyph-name="paragraph" unicode="&#xb6;" horiz-adv-x="640" d="M452 594 Q452 609 437 609 L397 609 Q382 609 382 594 L382 45 Q382 26 369 13 Q356 0 337 0 Q318 0 304.5 13 Q291 26 291 45 L291 237 Q291 256 277 269 Q263 282 245 282 L227 282 Q209 282 195 296 L111 380 Q98 393 98 412 L98 571 Q98 590 111 603 L195 686 Q207 700 227 700 L498 700 Q517 700 530 687 Q543 674 543 655 L543 45 Q543 26 530 13 Q517 0 498 0 Q479 0 465.5 13 Q452 26 452 45 L452 594 Z " />
<glyph glyph-name="uni03BC" unicode="&#x3bc;" horiz-adv-x="640" d="M200 10 Q189 19 189 5 L189 -119 Q189 -138 176 -151 Q163 -164 143 -164 Q124 -164 111 -151 Q98 -138 98 -119 L98 500 Q98 519 111 532 Q124 545 143 545 Q163 545 176 532 Q189 519 189 500 L189 163 Q189 148 199 138 L236 101 Q246 91 261 91 L380 91 Q395 91 405 101 L442 138 Q452 148 452 163 L452 500 Q452 519 465.5 532 Q479 545 498 545 Q517 545 530 532 Q543 519 543 500 L543 129 Q543 110 530 97 L446 14 Q434 0 413 0 L227 0 Q213 0 200 10 Z " />
<glyph glyph-name="thorn" unicode="&#xfe;" horiz-adv-x="640" d="M452 416 Q452 431 442 441 L384 499 Q374 509 359 509 L234 509 Q215 509 202 496 Q189 483 189 464 L189 236 Q189 217 202 204 Q215 191 234 191 L359 191 Q374 191 384 201 L442 259 Q452 269 452 284 L452 416 Z M98 729 Q98 748 111 761 Q124 774 143 774 Q163 774 176 761 Q189 748 189 729 L189 645 Q189 626 202 613 Q215 600 234 600 L393 600 Q412 600 425 587 L529 482 Q543 470 543 450 L543 250 Q543 230 529 218 L425 113 Q412 100 393 100 L234 100 Q215 100 202 87 Q189 74 189 55 L189 -29 Q189 -48 176 -61 Q163 -74 143 -74 Q124 -74 111 -61 Q98 -48 98 -29 L98 729 Z " />
<glyph glyph-name="Thorn" unicode="&#xde;" horiz-adv-x="640" d="M452 416 Q452 431 442 441 L384 499 Q374 509 359 509 L234 509 Q215 509 202 496 Q189 483 189 464 L189 236 Q189 217 202 204 Q215 191 234 191 L359 191 Q374 191 384 201 L442 259 Q452 269 452 284 L452 416 Z M98 655 Q98 674 111 687 Q124 700 143 700 Q163 700 176 687 Q189 674 189 655 L189 645 Q189 626 202 613 Q215 600 234 600 L393 600 Q412 600 425 587 L529 482 Q543 470 543 450 L543 250 Q543 230 529 218 L425 113 Q412 100 393 100 L234 100 Q215 100 202 87 Q189 74 189 55 L189 45 Q189 26 176 13 Q163 0 143 0 Q124 0 111 13 Q98 26 98 45 L98 655 Z " />
<glyph glyph-name="registered" unicode="&#xae;" horiz-adv-x="640" d="M259 393 Q259 381 267.5 372.5 Q276 364 288 364 L317 364 Q324 364 331 367 Q338 370 343 375 L371 403 Q376 408 376 414 Q376 419 371 424 L356 440 Q346 450 330 450 L274 450 Q259 450 259 435 L259 393 Z M288 306 Q276 306 267.5 297.5 Q259 289 259 277 L259 222 Q259 210 250.5 201.5 Q242 193 230 193 Q218 193 209.5 201.5 Q201 210 201 222 L201 479 Q201 491 209.5 499.5 Q218 508 230 508 L357 508 Q369 508 378 499 L431 446 Q440 437 440 426 L440 402 Q440 390 431 381 L406 356 Q397 347 397 335 Q397 323 406 315 L431 289 Q440 280 440 269 L440 222 Q440 210 431.5 201.5 Q423 193 411 193 Q399 193 390.5 201.5 Q382 210 382 222 L382 242 Q382 249 379 255.5 Q376 262 371 267 L343 296 Q333 306 317 306 L288 306 Z M474 193 Q478 197 481.5 204.5 Q485 212 485 219 L485 482 Q485 489 482 496 Q479 503 474 508 L440 542 Q429 553 414 553 L227 553 Q220 553 212.5 549.5 Q205 546 201 542 L167 508 Q163 504 159.5 496.5 Q156 489 156 482 L156 219 Q156 212 159.5 204.5 Q163 197 167 193 L201 159 Q205 155 212.5 151.5 Q220 148 227 148 L414 148 Q421 148 428.5 151.5 Q436 155 440 159 L474 193 Z M535 528 Q543 520 543 509 L543 192 Q543 182 535 172 L461 99 Q454 90 441 90 L200 90 Q188 90 180 99 L106 172 Q98 182 98 192 L98 509 Q98 520 106 528 L180 603 Q188 611 200 611 L441 611 Q453 611 461 603 L535 528 Z " />
<glyph glyph-name="copyright" unicode="&#xa9;" horiz-adv-x="640" d="M382 303 Q384 314 392 320.5 Q400 327 411 327 Q423 327 431.5 318.5 Q440 310 440 298 L440 276 Q440 266 431 255 L377 202 Q370 193 357 193 L284 193 Q274 193 263 202 L210 255 Q201 264 201 276 L201 426 Q201 437 210 446 L263 499 Q272 508 284 508 L357 508 Q369 508 377 500 L431 446 Q440 437 440 426 L440 404 Q440 392 431.5 383.5 Q423 375 411 375 Q400 375 392 381.5 Q384 388 382 399 Q379 416 371 424 L356 440 Q346 450 330 450 L311 450 Q295 450 285 440 L270 424 Q265 419 262 412.5 Q259 406 259 399 L259 303 Q259 296 262 289 Q265 282 270 277 L285 262 Q296 251 311 251 L330 251 Q337 251 344 254 Q351 257 356 262 L371 277 Q379 285 382 303 Z M474 193 Q478 197 481.5 204.5 Q485 212 485 219 L485 482 Q485 489 482 496 Q479 503 474 508 L440 542 Q429 553 414 553 L227 553 Q220 553 212.5 549.5 Q205 546 201 542 L167 508 Q163 504 159.5 496.5 Q156 489 156 482 L156 219 Q156 212 159.5 204.5 Q163 197 167 193 L201 159 Q205 155 212.5 151.5 Q220 148 227 148 L414 148 Q421 148 428.5 151.5 Q436 155 440 159 L474 193 Z M535 528 Q543 520 543 509 L543 192 Q543 182 535 172 L461 99 Q454 90 441 90 L200 90 Q188 90 180 99 L106 172 Q98 182 98 192 L98 509 Q98 520 106 528 L180 603 Q188 611 200 611 L441 611 Q453 611 461 603 L535 528 Z " />
<glyph glyph-name="itilde" unicode="&#x129;" horiz-adv-x="640" d="M188 0 Q169 0 156 13 Q143 26 143 45 Q143 64 156 77.5 Q169 91 188 91 L230 91 Q249 91 262 104 Q275 117 275 136 L275 564 Q275 583 262 596 Q249 609 230 609 L188 609 Q169 609 156 622.5 Q143 636 143 655 Q143 674 156 687 Q169 700 188 700 L453 700 Q472 700 485 687 Q498 674 498 655 Q498 636 485 622.5 Q472 609 453 609 L411 609 Q392 609 379 596 Q366 583 366 564 L366 136 Q366 117 379 104 Q392 91 411 91 L453 91 Q472 91 485 77.5 Q498 64 498 45 Q498 26 485 13 Q472 0 453 0 L188 0 Z M236 904 L236 872 Q236 856 225 845 Q214 834 198 834 Q183 834 172 845 Q161 856 161 872 L161 922 Q161 935 171 945 L211 985 Q221 995 234 995 L284 995 Q298 995 308 985 L348 945 Q357 935 357 922 L357 900 L373 885 L389 885 L404 900 L404 933 Q404 948 415 959 Q426 970 442 970 Q457 970 468 959 Q479 948 479 933 L479 883 Q479 869 470 860 L429 820 Q421 810 406 810 L356 810 Q342 810 332 820 L292 860 Q283 869 283 883 L283 904 L267 920 L251 920 L236 904 Z " />
<glyph glyph-name="imacron" unicode="&#x12b;" horiz-adv-x="640" d="M188 0 Q169 0 156 13 Q143 26 143 45 Q143 64 156 77.5 Q169 91 188 91 L230 91 Q249 91 262 104 Q275 117 275 136 L275 564 Q275 583 262 596 Q249 609 230 609 L188 609 Q169 609 156 622.5 Q143 636 143 655 Q143 674 156 687 Q169 700 188 700 L453 700 Q472 700 485 687 Q498 674 498 655 Q498 636 485 622.5 Q472 609 453 609 L411 609 Q392 609 379 596 Q366 583 366 564 L366 136 Q366 117 379 104 Q392 91 411 91 L453 91 Q472 91 485 77.5 Q498 64 498 45 Q498 26 485 13 Q472 0 453 0 L188 0 Z M226 820 Q207 820 194 833 Q181 846 181 865 Q181 884 194 897.5 Q207 911 226 911 L415 911 Q434 911 447 897.5 Q460 884 460 865 Q460 846 447 833 Q434 820 415 820 L226 820 Z " />
<glyph glyph-name="franc" unicode="&#x20a3;" horiz-adv-x="640" d="M98 655 Q98 674 111 687 Q124 700 143 700 L498 700 Q517 700 530 687 Q543 674 543 655 Q543 636 530 622.5 Q517 609 498 609 L234 609 Q215 609 202 596 Q189 583 189 564 L189 441 Q189 422 202 408.5 Q215 395 234 395 L430 395 Q449 395 462 382 Q475 369 475 350 Q475 331 462 317.5 Q449 304 430 304 L234 304 Q215 304 202 290.5 Q189 277 189 258 L189 228 Q189 213 204 213 L343 213 Q362 213 375 200 Q388 187 388 168 Q388 148 375 135 Q362 122 343 122 L204 122 Q189 122 189 107 L189 44 Q189 25 175.5 12 Q162 -1 143 -1 Q124 -1 111 12 Q98 25 98 44 L98 107 Q98 122 83 122 L73 122 Q54 122 41 135 Q28 148 28 168 Q28 187 41 200 Q54 213 73 213 L83 213 Q98 213 98 228 L98 655 Z " />
<glyph glyph-name="lira" unicode="&#x20a4;" horiz-adv-x="640" d="M189 571 Q189 590 202 603 L286 686 Q298 700 318 700 L414 700 Q434 700 446 686 L530 603 Q543 590 543 571 L543 525 Q543 506 530 493 Q517 480 498 480 Q479 480 465.5 493 Q452 506 452 525 L452 537 Q452 544 449 551 Q446 558 441 563 L406 598 Q395 609 380 609 L352 609 Q337 609 326 598 L291 563 Q286 558 283 551 Q280 544 280 537 L280 446 Q280 431 295 431 L452 431 Q471 431 484.5 418 Q498 405 498 386 Q498 367 484.5 353.5 Q471 340 452 340 L295 340 Q280 340 280 325 L280 300 Q280 285 295 285 L452 285 Q471 285 484.5 271.5 Q498 258 498 239 Q498 220 484.5 207 Q471 194 452 194 L295 194 Q280 194 280 179 L280 106 Q280 91 295 91 L498 91 Q517 91 530 77.5 Q543 64 543 45 Q543 26 530 13 Q517 0 498 0 L143 0 Q124 0 111 13 Q98 26 98 45 Q98 64 111 77.5 Q124 91 143 91 L174 91 Q189 91 189 106 L189 179 Q189 194 174 194 L143 194 Q124 194 111 207 Q98 220 98 239 Q98 258 111 271.5 Q124 285 143 285 L174 285 Q189 285 189 300 L189 325 Q189 340 174 340 L143 340 Q124 340 111 353.5 Q98 367 98 386 Q98 405 111 418 Q124 431 143 431 L174 431 Q189 431 189 446 L189 571 Z " />
<glyph glyph-name="Euro" unicode="&#x20ac;" horiz-adv-x="640" d="M453 537 Q450 554 441 563 L406 598 Q395 609 380 609 L332 609 Q317 609 306 598 L271 563 Q266 558 263 551 Q260 544 260 537 L260 484 Q260 469 275 469 L402 469 Q421 469 434.5 455.5 Q448 442 448 423 Q448 404 434.5 391 Q421 378 402 378 L275 378 Q260 378 260 363 L260 337 Q260 322 275 322 L402 322 Q421 322 434.5 309 Q448 296 448 277 Q448 258 434.5 244.5 Q421 231 402 231 L275 231 Q260 231 260 216 L260 163 Q260 156 263 149 Q266 142 271 137 L306 102 Q317 91 332 91 L380 91 Q387 91 394 94 Q401 97 406 102 L441 137 Q450 146 453 163 Q456 179 468.5 189.5 Q481 200 498 200 Q517 200 530 187 Q543 174 543 155 L543 130 Q543 110 530 97 L446 14 Q434 0 414 0 L298 0 Q278 0 266 14 L182 97 Q169 110 169 130 L169 216 Q169 231 154 231 L143 231 Q124 231 111 244.5 Q98 258 98 277 Q98 296 111 309 Q124 322 143 322 L154 322 Q169 322 169 337 L169 363 Q169 378 154 378 L143 378 Q124 378 111 391 Q98 404 98 423 Q98 442 111 455.5 Q124 469 143 469 L154 469 Q169 469 169 484 L169 571 Q169 590 182 603 L266 686 Q278 700 298 700 L414 700 Q434 700 446 686 L530 603 Q543 590 543 571 L543 545 Q543 526 530 513 Q517 500 498 500 Q481 500 468.5 510.5 Q456 521 453 537 Z " />
<glyph glyph-name="germandbls" unicode="&#xdf;" horiz-adv-x="640" d="M189 -29 Q189 -48 175.5 -61 Q162 -74 143 -74 Q124 -74 111 -61 Q98 -48 98 -29 L98 571 Q98 590 111 603 L195 686 Q207 700 227 700 L385 700 Q405 700 417 686 L501 603 Q514 590 514 571 L514 463 Q514 444 501 431 L481 411 Q468 398 468 379 Q468 360 481 347 L530 298 Q543 285 543 266 L543 130 Q543 110 530 97 L446 14 Q434 0 414 0 L286 0 Q267 0 254 13 Q241 26 241 45 Q241 64 254 77.5 Q267 91 286 91 L380 91 Q387 91 394 94 Q401 97 406 102 L441 137 Q452 148 452 163 L452 232 Q452 247 441 258 L353 347 Q339 361 339 379 Q339 397 353 411 L412 471 Q423 482 423 497 L423 537 Q423 544 420 551 Q417 558 412 563 L377 598 Q366 609 351 609 L261 609 Q246 609 235 598 L200 563 Q195 558 192 551 Q189 544 189 537 L189 -29 Z " />
<glyph glyph-name="trademark" unicode="&#x2122;" horiz-adv-x="640" d="M262 700 Q271 700 277.5 694 Q284 688 284 678 Q284 665 276.5 659 Q269 653 258 653 L228 653 Q214 653 214 641 L214 497 Q214 487 207 481 Q200 475 192 475 Q183 475 175.5 481 Q168 487 168 497 L168 641 Q168 653 155 653 L124 653 Q113 653 105.5 659 Q98 665 98 678 Q98 688 104.5 694 Q111 700 121 700 L262 700 Z M448 546 Q437 546 432.5 554 Q428 562 428 569 L428 592 Q428 600 427 601 L402 621 L402 497 Q402 487 394.5 481 Q387 475 379 475 Q371 475 363 481 Q355 487 355 497 L355 678 Q355 689 363 694.5 Q371 700 379 700 Q389 700 398 691 L439 648 Q443 644 448 644 Q453 644 457 648 L499 691 Q507 700 518 700 Q527 700 535 694.5 Q543 689 543 678 L543 497 Q543 487 535 481 Q527 475 518 475 Q509 475 502 481 Q495 487 495 497 L495 621 L470 601 Q468 599 468 592 L468 569 Q468 562 463.5 554 Q459 546 448 546 Z " />
<glyph glyph-name="Agrave" unicode="&#xc0;" horiz-adv-x="640" d="M247 905 Q234 918 234 937 Q234 956 247 969 Q260 982 279 982 Q299 982 312 969 L393 887 Q407 873 407 855 Q407 836 393.5 823 Q380 810 361 810 Q342 810 329 823 L247 905 Z M543 45 Q543 26 530 13 Q517 0 498 0 Q479 0 465.5 13 Q452 26 452 45 L452 237 Q452 256 439 269 Q426 282 407 282 L234 282 Q215 282 202 269 Q189 256 189 237 L189 45 Q189 26 175.5 13 Q162 0 143 0 Q124 0 111 13 Q98 26 98 45 L98 550 Q98 569 111 582 L216 686 Q228 700 248 700 L393 700 Q412 700 425 687 L529 582 Q543 570 543 550 L543 45 Z M452 516 Q452 531 442 541 L384 599 Q374 609 359 609 L282 609 Q267 609 257 599 L199 541 Q189 531 189 516 L189 418 Q189 399 202 386 Q215 373 234 373 L407 373 Q426 373 439 386 Q452 399 452 418 L452 516 Z " />
<glyph glyph-name="Aacute" unicode="&#xc1;" horiz-adv-x="640" d="M312 823 Q299 810 280 810 Q261 810 247.5 823 Q234 836 234 855 Q234 873 248 887 L329 969 Q342 982 361 982 Q380 982 393.5 969 Q407 956 407 937 Q407 917 393 905 L312 823 Z M543 45 Q543 26 530 13 Q517 0 498 0 Q479 0 465.5 13 Q452 26 452 45 L452 237 Q452 256 439 269 Q426 282 407 282 L234 282 Q215 282 202 269 Q189 256 189 237 L189 45 Q189 26 175.5 13 Q162 0 143 0 Q124 0 111 13 Q98 26 98 45 L98 550 Q98 569 111 582 L216 686 Q228 700 248 700 L393 700 Q412 700 425 687 L529 582 Q543 570 543 550 L543 45 Z M452 516 Q452 531 442 541 L384 599 Q374 609 359 609 L282 609 Q267 609 257 599 L199 541 Q189 531 189 516 L189 418 Q189 399 202 386 Q215 373 234 373 L407 373 Q426 373 439 386 Q452 399 452 418 L452 516 Z " />
<glyph glyph-name="Acircumflex" unicode="&#xc2;" horiz-adv-x="640" d="M255 821 Q250 815 242.5 812.5 Q235 810 227 810 Q210 810 198.5 821 Q187 832 187 849 Q187 866 199 878 L292 970 Q303 982 320 982 Q336 982 348 970 L441 878 Q452 867 452 849 Q452 832 441 821 Q430 810 413 810 Q395 810 384 821 L348 857 Q336 869 320 869 Q303 869 292 857 L255 821 Z M543 45 Q543 26 530 13 Q517 0 498 0 Q479 0 465.5 13 Q452 26 452 45 L452 237 Q452 256 439 269 Q426 282 407 282 L234 282 Q215 282 202 269 Q189 256 189 237 L189 45 Q189 26 175.5 13 Q162 0 143 0 Q124 0 111 13 Q98 26 98 45 L98 550 Q98 569 111 582 L216 686 Q228 700 248 700 L393 700 Q412 700 425 687 L529 582 Q543 570 543 550 L543 45 Z M452 516 Q452 531 442 541 L384 599 Q374 609 359 609 L282 609 Q267 609 257 599 L199 541 Q189 531 189 516 L189 418 Q189 399 202 386 Q215 373 234 373 L407 373 Q426 373 439 386 Q452 399 452 418 L452 516 Z " />
<glyph glyph-name="Atilde" unicode="&#xc3;" horiz-adv-x="640" d="M236 904 L236 872 Q236 856 225 845 Q214 834 198 834 Q183 834 172 845 Q161 856 161 872 L161 922 Q161 935 171 945 L211 985 Q221 995 234 995 L284 995 Q298 995 308 985 L348 945 Q357 935 357 922 L357 900 L373 885 L389 885 L404 900 L404 933 Q404 948 415 959 Q426 970 442 970 Q457 970 468 959 Q479 948 479 933 L479 883 Q479 869 470 860 L429 820 Q421 810 406 810 L356 810 Q342 810 332 820 L292 860 Q283 869 283 883 L283 904 L267 920 L251 920 L236 904 Z M543 45 Q543 26 530 13 Q517 0 498 0 Q479 0 465.5 13 Q452 26 452 45 L452 237 Q452 256 439 269 Q426 282 407 282 L234 282 Q215 282 202 269 Q189 256 189 237 L189 45 Q189 26 175.5 13 Q162 0 143 0 Q124 0 111 13 Q98 26 98 45 L98 550 Q98 569 111 582 L216 686 Q228 700 248 700 L393 700 Q412 700 425 687 L529 582 Q543 570 543 550 L543 45 Z M452 516 Q452 531 442 541 L384 599 Q374 609 359 609 L282 609 Q267 609 257 599 L199 541 Q189 531 189 516 L189 418 Q189 399 202 386 Q215 373 234 373 L407 373 Q426 373 439 386 Q452 399 452 418 L452 516 Z " />
<glyph glyph-name="Adieresis" unicode="&#xc4;" horiz-adv-x="640" d="M418 820 L398 820 Q379 820 366 833 Q353 846 353 865 L353 885 Q353 904 366 917 Q379 930 398 930 L418 930 Q437 930 450 917 Q463 904 463 885 L463 865 Q463 846 450 833 Q437 820 418 820 Z M243 820 L223 820 Q204 820 191 833 Q178 846 178 865 L178 885 Q178 904 191 917 Q204 930 223 930 L243 930 Q262 930 275 917 Q288 904 288 885 L288 865 Q288 846 275 833 Q262 820 243 820 Z M543 45 Q543 26 530 13 Q517 0 498 0 Q479 0 465.5 13 Q452 26 452 45 L452 237 Q452 256 439 269 Q426 282 407 282 L234 282 Q215 282 202 269 Q189 256 189 237 L189 45 Q189 26 175.5 13 Q162 0 143 0 Q124 0 111 13 Q98 26 98 45 L98 550 Q98 569 111 582 L216 686 Q228 700 248 700 L393 700 Q412 700 425 687 L529 582 Q543 570 543 550 L543 45 Z M452 516 Q452 531 442 541 L384 599 Q374 609 359 609 L282 609 Q267 609 257 599 L199 541 Q189 531 189 516 L189 418 Q189 399 202 386 Q215 373 234 373 L407 373 Q426 373 439 386 Q452 399 452 418 L452 516 Z " />
<glyph glyph-name="Aring" unicode="&#xc5;" horiz-adv-x="640" d="M209 911 Q209 923 217 931 L269 984 Q279 992 290 992 L350 992 Q363 992 371 984 L423 931 Q431 924 431 911 L431 850 Q431 838 423 830 L371 778 Q363 770 350 770 L290 770 Q279 770 269 778 L217 830 Q209 840 209 850 L209 911 Z M284 906 Q274 896 274 881 Q274 866 284 856 L295 845 Q305 835 320 835 Q335 835 345 845 L356 856 Q366 866 366 881 Q366 896 356 906 L345 917 Q335 927 320 927 Q305 927 295 917 L284 906 Z M543 45 Q543 26 530 13 Q517 0 498 0 Q479 0 465.5 13 Q452 26 452 45 L452 237 Q452 256 439 269 Q426 282 407 282 L234 282 Q215 282 202 269 Q189 256 189 237 L189 45 Q189 26 175.5 13 Q162 0 143 0 Q124 0 111 13 Q98 26 98 45 L98 550 Q98 569 111 582 L216 686 Q228 700 248 700 L393 700 Q412 700 425 687 L529 582 Q543 570 543 550 L543 45 Z M452 516 Q452 531 442 541 L384 599 Q374 609 359 609 L282 609 Q267 609 257 599 L199 541 Q189 531 189 516 L189 418 Q189 399 202 386 Q215 373 234 373 L407 373 Q426 373 439 386 Q452 399 452 418 L452 516 Z " />
<glyph glyph-name="Egrave" unicode="&#xc8;" horiz-adv-x="640" d="M247 905 Q234 918 234 937 Q234 956 247 969 Q260 982 279 982 Q299 982 312 969 L393 887 Q407 873 407 855 Q407 836 393.5 823 Q380 810 361 810 Q342 810 329 823 L247 905 Z M98 655 Q98 674 111 687 Q124 700 143 700 L498 700 Q517 700 530 687 Q543 674 543 655 Q543 636 530 622.5 Q517 609 498 609 L234 609 Q215 609 202 596 Q189 583 189 564 L189 441 Q189 422 202 408.5 Q215 395 234 395 L430 395 Q449 395 462.5 382 Q476 369 476 350 Q476 331 462.5 317.5 Q449 304 430 304 L234 304 Q215 304 202 290.5 Q189 277 189 258 L189 136 Q189 117 202 104 Q215 91 234 91 L498 91 Q517 91 530 77.5 Q543 64 543 45 Q543 26 530 13 Q517 0 498 0 L143 0 Q124 0 111 13 Q98 26 98 45 L98 655 Z " />
<glyph glyph-name="Eacute" unicode="&#xc9;" horiz-adv-x="640" d="M312 823 Q299 810 280 810 Q261 810 247.5 823 Q234 836 234 855 Q234 873 248 887 L329 969 Q342 982 361 982 Q380 982 393.5 969 Q407 956 407 937 Q407 917 393 905 L312 823 Z M98 655 Q98 674 111 687 Q124 700 143 700 L498 700 Q517 700 530 687 Q543 674 543 655 Q543 636 530 622.5 Q517 609 498 609 L234 609 Q215 609 202 596 Q189 583 189 564 L189 441 Q189 422 202 408.5 Q215 395 234 395 L430 395 Q449 395 462.5 382 Q476 369 476 350 Q476 331 462.5 317.5 Q449 304 430 304 L234 304 Q215 304 202 290.5 Q189 277 189 258 L189 136 Q189 117 202 104 Q215 91 234 91 L498 91 Q517 91 530 77.5 Q543 64 543 45 Q543 26 530 13 Q517 0 498 0 L143 0 Q124 0 111 13 Q98 26 98 45 L98 655 Z " />
<glyph glyph-name="Ecircumflex" unicode="&#xca;" horiz-adv-x="640" d="M255 821 Q250 815 242.5 812.5 Q235 810 227 810 Q210 810 198.5 821 Q187 832 187 849 Q187 866 199 878 L292 970 Q303 982 320 982 Q336 982 348 970 L441 878 Q452 867 452 849 Q452 832 441 821 Q430 810 413 810 Q395 810 384 821 L348 857 Q336 869 320 869 Q303 869 292 857 L255 821 Z M98 655 Q98 674 111 687 Q124 700 143 700 L498 700 Q517 700 530 687 Q543 674 543 655 Q543 636 530 622.5 Q517 609 498 609 L234 609 Q215 609 202 596 Q189 583 189 564 L189 441 Q189 422 202 408.5 Q215 395 234 395 L430 395 Q449 395 462.5 382 Q476 369 476 350 Q476 331 462.5 317.5 Q449 304 430 304 L234 304 Q215 304 202 290.5 Q189 277 189 258 L189 136 Q189 117 202 104 Q215 91 234 91 L498 91 Q517 91 530 77.5 Q543 64 543 45 Q543 26 530 13 Q517 0 498 0 L143 0 Q124 0 111 13 Q98 26 98 45 L98 655 Z " />
<glyph glyph-name="Edieresis" unicode="&#xcb;" horiz-adv-x="640" d="M398 820 Q379 820 366 833 Q353 846 353 865 L353 885 Q353 904 366 917 Q379 930 398 930 L418 930 Q437 930 450 917 Q463 904 463 885 L463 865 Q463 846 450 833 Q437 820 418 820 L398 820 Z M223 820 Q204 820 191 833 Q178 846 178 865 L178 885 Q178 904 191 917 Q204 930 223 930 L243 930 Q262 930 275 917 Q288 904 288 885 L288 865 Q288 846 275 833 Q262 820 243 820 L223 820 Z M98 655 Q98 674 111 687 Q124 700 143 700 L498 700 Q517 700 530 687 Q543 674 543 655 Q543 636 530 622.5 Q517 609 498 609 L234 609 Q215 609 202 596 Q189 583 189 564 L189 441 Q189 422 202 408.5 Q215 395 234 395 L430 395 Q449 395 462.5 382 Q476 369 476 350 Q476 331 462.5 317.5 Q449 304 430 304 L234 304 Q215 304 202 290.5 Q189 277 189 258 L189 136 Q189 117 202 104 Q215 91 234 91 L498 91 Q517 91 530 77.5 Q543 64 543 45 Q543 26 530 13 Q517 0 498 0 L143 0 Q124 0 111 13 Q98 26 98 45 L98 655 Z " />
<glyph glyph-name="Igrave" unicode="&#xcc;" horiz-adv-x="640" d="M247 905 Q234 918 234 937 Q234 956 247 969 Q260 982 279 982 Q299 982 312 969 L393 887 Q407 873 407 855 Q407 836 393.5 823 Q380 810 361 810 Q342 810 329 823 L247 905 Z M188 0 Q169 0 156 13 Q143 26 143 45 Q143 64 156 77.5 Q169 91 188 91 L230 91 Q249 91 262 104 Q275 117 275 136 L275 564 Q275 583 262 596 Q249 609 230 609 L188 609 Q169 609 156 622.5 Q143 636 143 655 Q143 674 156 687 Q169 700 188 700 L453 700 Q472 700 485 687 Q498 674 498 655 Q498 636 485 622.5 Q472 609 453 609 L411 609 Q392 609 379 596 Q366 583 366 564 L366 136 Q366 117 379 104 Q392 91 411 91 L453 91 Q472 91 485 77.5 Q498 64 498 45 Q498 26 485 13 Q472 0 453 0 L188 0 Z " />
<glyph glyph-name="Iacute" unicode="&#xcd;" horiz-adv-x="640" d="M312 823 Q299 810 280 810 Q261 810 247.5 823 Q234 836 234 855 Q234 873 248 887 L329 969 Q342 982 361 982 Q380 982 393.5 969 Q407 956 407 937 Q407 917 393 905 L312 823 Z M188 0 Q169 0 156 13 Q143 26 143 45 Q143 64 156 77.5 Q169 91 188 91 L230 91 Q249 91 262 104 Q275 117 275 136 L275 564 Q275 583 262 596 Q249 609 230 609 L188 609 Q169 609 156 622.5 Q143 636 143 655 Q143 674 156 687 Q169 700 188 700 L453 700 Q472 700 485 687 Q498 674 498 655 Q498 636 485 622.5 Q472 609 453 609 L411 609 Q392 609 379 596 Q366 583 366 564 L366 136 Q366 117 379 104 Q392 91 411 91 L453 91 Q472 91 485 77.5 Q498 64 498 45 Q498 26 485 13 Q472 0 453 0 L188 0 Z " />
<glyph glyph-name="Icircumflex" unicode="&#xce;" horiz-adv-x="640" d="M255 821 Q250 815 242.5 812.5 Q235 810 227 810 Q210 810 198.5 821 Q187 832 187 849 Q187 866 199 878 L292 970 Q303 982 320 982 Q336 982 348 970 L441 878 Q452 867 452 849 Q452 832 441 821 Q430 810 413 810 Q395 810 384 821 L348 857 Q336 869 320 869 Q303 869 292 857 L255 821 Z M188 0 Q169 0 156 13 Q143 26 143 45 Q143 64 156 77.5 Q169 91 188 91 L230 91 Q249 91 262 104 Q275 117 275 136 L275 564 Q275 583 262 596 Q249 609 230 609 L188 609 Q169 609 156 622.5 Q143 636 143 655 Q143 674 156 687 Q169 700 188 700 L453 700 Q472 700 485 687 Q498 674 498 655 Q498 636 485 622.5 Q472 609 453 609 L411 609 Q392 609 379 596 Q366 583 366 564 L366 136 Q366 117 379 104 Q392 91 411 91 L453 91 Q472 91 485 77.5 Q498 64 498 45 Q498 26 485 13 Q472 0 453 0 L188 0 Z " />
<glyph glyph-name="Idieresis" unicode="&#xcf;" horiz-adv-x="640" d="M398 820 Q379 820 366 833 Q353 846 353 865 L353 885 Q353 904 366 917 Q379 930 398 930 L418 930 Q437 930 450 917 Q463 904 463 885 L463 865 Q463 846 450 833 Q437 820 418 820 L398 820 Z M223 820 Q204 820 191 833 Q178 846 178 865 L178 885 Q178 904 191 917 Q204 930 223 930 L243 930 Q262 930 275 917 Q288 904 288 885 L288 865 Q288 846 275 833 Q262 820 243 820 L223 820 Z M188 0 Q169 0 156 13 Q143 26 143 45 Q143 64 156 77.5 Q169 91 188 91 L230 91 Q249 91 262 104 Q275 117 275 136 L275 564 Q275 583 262 596 Q249 609 230 609 L188 609 Q169 609 156 622.5 Q143 636 143 655 Q143 674 156 687 Q169 700 188 700 L453 700 Q472 700 485 687 Q498 674 498 655 Q498 636 485 622.5 Q472 609 453 609 L411 609 Q392 609 379 596 Q366 583 366 564 L366 136 Q366 117 379 104 Q392 91 411 91 L453 91 Q472 91 485 77.5 Q498 64 498 45 Q498 26 485 13 Q472 0 453 0 L188 0 Z " />
<glyph glyph-name="Ntilde" unicode="&#xd1;" horiz-adv-x="640" d="M236 904 L236 872 Q236 856 225 845 Q214 834 198 834 Q183 834 172 845 Q161 856 161 872 L161 922 Q161 935 171 945 L211 985 Q221 995 234 995 L284 995 Q298 995 308 985 L348 945 Q357 935 357 922 L357 900 L373 885 L389 885 L404 900 L404 933 Q404 948 415 959 Q426 970 442 970 Q457 970 468 959 Q479 948 479 933 L479 883 Q479 869 470 860 L429 820 Q421 810 406 810 L356 810 Q342 810 332 820 L292 860 Q283 869 283 883 L283 904 L267 920 L251 920 L236 904 Z M445 227 Q448 222 450 222 Q452 222 452 229 L452 655 Q452 674 465.5 687 Q479 700 498 700 Q517 700 530 687 Q543 674 543 655 L543 45 Q543 26 530 13 Q517 0 498 0 Q471 0 458 23 L196 474 Q194 479 191 479 Q189 479 189 472 L189 45 Q189 26 175.5 13 Q162 0 143 0 Q124 0 111 13 Q98 26 98 45 L98 655 Q98 674 111 687 Q124 700 143 700 Q170 700 183 677 L445 227 Z " />
<glyph glyph-name="Ograve" unicode="&#xd2;" horiz-adv-x="640" d="M247 905 Q234 918 234 937 Q234 956 247 969 Q260 982 279 982 Q299 982 312 969 L393 887 Q407 873 407 855 Q407 836 393.5 823 Q380 810 361 810 Q342 810 329 823 L247 905 Z M530 603 Q543 590 543 571 L543 129 Q543 110 530 97 L446 14 Q434 0 413 0 L227 0 Q207 0 195 14 L111 97 Q98 110 98 129 L98 571 Q98 590 111 603 L195 686 Q207 700 227 700 L413 700 Q434 700 446 686 L530 603 Z M442 138 Q452 148 452 163 L452 537 Q452 552 442 562 L405 599 Q395 609 380 609 L261 609 Q246 609 236 599 L199 562 Q189 552 189 537 L189 163 Q189 148 199 138 L236 101 Q246 91 261 91 L380 91 Q395 91 405 101 L442 138 Z " />
<glyph glyph-name="Oacute" unicode="&#xd3;" horiz-adv-x="640" d="M312 823 Q299 810 280 810 Q261 810 247.5 823 Q234 836 234 855 Q234 873 248 887 L329 969 Q342 982 361 982 Q380 982 393.5 969 Q407 956 407 937 Q407 917 393 905 L312 823 Z M530 603 Q543 590 543 571 L543 129 Q543 110 530 97 L446 14 Q434 0 413 0 L227 0 Q207 0 195 14 L111 97 Q98 110 98 129 L98 571 Q98 590 111 603 L195 686 Q207 700 227 700 L413 700 Q434 700 446 686 L530 603 Z M442 138 Q452 148 452 163 L452 537 Q452 552 442 562 L405 599 Q395 609 380 609 L261 609 Q246 609 236 599 L199 562 Q189 552 189 537 L189 163 Q189 148 199 138 L236 101 Q246 91 261 91 L380 91 Q395 91 405 101 L442 138 Z " />
<glyph glyph-name="Ocircumflex" unicode="&#xd4;" horiz-adv-x="640" d="M255 821 Q250 815 242.5 812.5 Q235 810 227 810 Q210 810 198.5 821 Q187 832 187 849 Q187 866 199 878 L292 970 Q303 982 320 982 Q336 982 348 970 L441 878 Q452 867 452 849 Q452 832 441 821 Q430 810 413 810 Q395 810 384 821 L348 857 Q336 869 320 869 Q303 869 292 857 L255 821 Z M530 603 Q543 590 543 571 L543 129 Q543 110 530 97 L446 14 Q434 0 413 0 L227 0 Q207 0 195 14 L111 97 Q98 110 98 129 L98 571 Q98 590 111 603 L195 686 Q207 700 227 700 L413 700 Q434 700 446 686 L530 603 Z M442 138 Q452 148 452 163 L452 537 Q452 552 442 562 L405 599 Q395 609 380 609 L261 609 Q246 609 236 599 L199 562 Q189 552 189 537 L189 163 Q189 148 199 138 L236 101 Q246 91 261 91 L380 91 Q395 91 405 101 L442 138 Z " />
<glyph glyph-name="Otilde" unicode="&#xd5;" horiz-adv-x="640" d="M236 904 L236 872 Q236 856 225 845 Q214 834 198 834 Q183 834 172 845 Q161 856 161 872 L161 922 Q161 935 171 945 L211 985 Q221 995 234 995 L284 995 Q298 995 308 985 L348 945 Q357 935 357 922 L357 900 L373 885 L389 885 L404 900 L404 933 Q404 948 415 959 Q426 970 442 970 Q457 970 468 959 Q479 948 479 933 L479 883 Q479 869 470 860 L429 820 Q421 810 406 810 L356 810 Q342 810 332 820 L292 860 Q283 869 283 883 L283 904 L267 920 L251 920 L236 904 Z M530 603 Q543 590 543 571 L543 129 Q543 110 530 97 L446 14 Q434 0 413 0 L227 0 Q207 0 195 14 L111 97 Q98 110 98 129 L98 571 Q98 590 111 603 L195 686 Q207 700 227 700 L413 700 Q434 700 446 686 L530 603 Z M442 138 Q452 148 452 163 L452 537 Q452 552 442 562 L405 599 Q395 609 380 609 L261 609 Q246 609 236 599 L199 562 Q189 552 189 537 L189 163 Q189 148 199 138 L236 101 Q246 91 261 91 L380 91 Q395 91 405 101 L442 138 Z " />
<glyph glyph-name="Odieresis" unicode="&#xd6;" horiz-adv-x="640" d="M398 820 Q379 820 366 833 Q353 846 353 865 L353 885 Q353 904 366 917 Q379 930 398 930 L418 930 Q437 930 450 917 Q463 904 463 885 L463 865 Q463 846 450 833 Q437 820 418 820 L398 820 Z M223 820 Q204 820 191 833 Q178 846 178 865 L178 885 Q178 904 191 917 Q204 930 223 930 L243 930 Q262 930 275 917 Q288 904 288 885 L288 865 Q288 846 275 833 Q262 820 243 820 L223 820 Z M530 603 Q543 590 543 571 L543 129 Q543 110 530 97 L446 14 Q434 0 413 0 L227 0 Q207 0 195 14 L111 97 Q98 110 98 129 L98 571 Q98 590 111 603 L195 686 Q207 700 227 700 L413 700 Q434 700 446 686 L530 603 Z M442 138 Q452 148 452 163 L452 537 Q452 552 442 562 L405 599 Q395 609 380 609 L261 609 Q246 609 236 599 L199 562 Q189 552 189 537 L189 163 Q189 148 199 138 L236 101 Q246 91 261 91 L380 91 Q395 91 405 101 L442 138 Z " />
<glyph glyph-name="Ugrave" unicode="&#xd9;" horiz-adv-x="640" d="M247 905 Q234 918 234 937 Q234 956 247 969 Q260 982 279 982 Q299 982 312 969 L393 887 Q407 873 407 855 Q407 836 393.5 823 Q380 810 361 810 Q342 810 329 823 L247 905 Z M189 163 Q189 148 199 138 L236 101 Q246 91 261 91 L380 91 Q395 91 405 101 L442 138 Q452 148 452 163 L452 655 Q452 674 465.5 687 Q479 700 498 700 Q517 700 530 687 Q543 674 543 655 L543 129 Q543 110 530 97 L446 14 Q434 0 413 0 L227 0 Q207 0 195 14 L111 97 Q98 110 98 129 L98 655 Q98 674 111 687 Q124 700 143 700 Q162 700 175.5 687 Q189 674 189 655 L189 163 Z " />
<glyph glyph-name="Uacute" unicode="&#xda;" horiz-adv-x="640" d="M312 823 Q299 810 280 810 Q261 810 247.5 823 Q234 836 234 855 Q234 873 248 887 L329 969 Q342 982 361 982 Q380 982 393.5 969 Q407 956 407 937 Q407 917 393 905 L312 823 Z M189 163 Q189 148 199 138 L236 101 Q246 91 261 91 L380 91 Q395 91 405 101 L442 138 Q452 148 452 163 L452 655 Q452 674 465.5 687 Q479 700 498 700 Q517 700 530 687 Q543 674 543 655 L543 129 Q543 110 530 97 L446 14 Q434 0 413 0 L227 0 Q207 0 195 14 L111 97 Q98 110 98 129 L98 655 Q98 674 111 687 Q124 700 143 700 Q162 700 175.5 687 Q189 674 189 655 L189 163 Z " />
<glyph glyph-name="Ucircumflex" unicode="&#xdb;" horiz-adv-x="640" d="M255 821 Q250 815 242.5 812.5 Q235 810 227 810 Q210 810 198.5 821 Q187 832 187 849 Q187 866 199 878 L292 970 Q303 982 320 982 Q336 982 348 970 L441 878 Q452 867 452 849 Q452 832 441 821 Q430 810 413 810 Q395 810 384 821 L348 857 Q336 869 320 869 Q303 869 292 857 L255 821 Z M189 163 Q189 148 199 138 L236 101 Q246 91 261 91 L380 91 Q395 91 405 101 L442 138 Q452 148 452 163 L452 655 Q452 674 465.5 687 Q479 700 498 700 Q517 700 530 687 Q543 674 543 655 L543 129 Q543 110 530 97 L446 14 Q434 0 413 0 L227 0 Q207 0 195 14 L111 97 Q98 110 98 129 L98 655 Q98 674 111 687 Q124 700 143 700 Q162 700 175.5 687 Q189 674 189 655 L189 163 Z " />
<glyph glyph-name="Udieresis" unicode="&#xdc;" horiz-adv-x="640" d="M418 820 L398 820 Q379 820 366 833 Q353 846 353 865 L353 885 Q353 904 366 917 Q379 930 398 930 L418 930 Q437 930 450 917 Q463 904 463 885 L463 865 Q463 846 450 833 Q437 820 418 820 Z M243 820 L223 820 Q204 820 191 833 Q178 846 178 865 L178 885 Q178 904 191 917 Q204 930 223 930 L243 930 Q262 930 275 917 Q288 904 288 885 L288 865 Q288 846 275 833 Q262 820 243 820 Z M189 163 Q189 148 199 138 L236 101 Q246 91 261 91 L380 91 Q395 91 405 101 L442 138 Q452 148 452 163 L452 655 Q452 674 465.5 687 Q479 700 498 700 Q517 700 530 687 Q543 674 543 655 L543 129 Q543 110 530 97 L446 14 Q434 0 413 0 L227 0 Q207 0 195 14 L111 97 Q98 110 98 129 L98 655 Q98 674 111 687 Q124 700 143 700 Q162 700 175.5 687 Q189 674 189 655 L189 163 Z " />
<glyph glyph-name="Yacute" unicode="&#xdd;" horiz-adv-x="640" d="M312 823 Q299 810 280 810 Q261 810 247.5 823 Q234 836 234 855 Q234 873 248 887 L329 969 Q342 982 361 982 Q380 982 393.5 969 Q407 956 407 937 Q407 917 393 905 L312 823 Z M112 453 Q98 467 98 486 L98 655 Q98 674 111 687 Q124 700 143 700 Q162 700 175.5 687 Q189 674 189 655 L189 520 Q189 505 199 495 L288 405 Q301 392 320 392 Q340 392 353 405 L442 495 Q452 505 452 520 L452 655 Q452 674 465.5 687 Q479 700 498 700 Q517 700 530 687 Q543 674 543 655 L543 486 Q543 467 529 453 L376 300 Q366 290 366 275 L366 45 Q366 26 353 13 Q340 0 320 0 Q301 0 288 13 Q275 26 275 45 L275 275 Q275 290 265 300 L112 453 Z " />
<glyph glyph-name="Amacron" unicode="&#x100;" horiz-adv-x="640" d="M226 820 Q207 820 194 833 Q181 846 181 865 Q181 884 194 897.5 Q207 911 226 911 L415 911 Q434 911 447 897.5 Q460 884 460 865 Q460 846 447 833 Q434 820 415 820 L226 820 Z M543 45 Q543 26 530 13 Q517 0 498 0 Q479 0 465.5 13 Q452 26 452 45 L452 237 Q452 256 439 269 Q426 282 407 282 L234 282 Q215 282 202 269 Q189 256 189 237 L189 45 Q189 26 175.5 13 Q162 0 143 0 Q124 0 111 13 Q98 26 98 45 L98 550 Q98 569 111 582 L216 686 Q228 700 248 700 L393 700 Q412 700 425 687 L529 582 Q543 570 543 550 L543 45 Z M452 516 Q452 531 442 541 L384 599 Q374 609 359 609 L282 609 Q267 609 257 599 L199 541 Q189 531 189 516 L189 418 Q189 399 202 386 Q215 373 234 373 L407 373 Q426 373 439 386 Q452 399 452 418 L452 516 Z " />
<glyph glyph-name="Abreve" unicode="&#x102;" horiz-adv-x="640" d="M266 935 Q266 920 276 910 L292 894 Q302 884 317 884 L322 884 Q337 884 347 894 L363 910 Q373 920 373 935 L373 945 Q373 960 383.5 971 Q394 982 410 982 Q426 982 436.5 971 Q447 960 447 945 L447 903 Q447 889 438 880 L378 819 Q369 810 354 810 L285 810 Q270 810 261 819 L201 880 Q192 889 192 903 L192 945 Q192 960 202.5 971 Q213 982 229 982 Q245 982 255.5 971 Q266 960 266 945 L266 935 Z M543 45 Q543 26 530 13 Q517 0 498 0 Q479 0 465.5 13 Q452 26 452 45 L452 237 Q452 256 439 269 Q426 282 407 282 L234 282 Q215 282 202 269 Q189 256 189 237 L189 45 Q189 26 175.5 13 Q162 0 143 0 Q124 0 111 13 Q98 26 98 45 L98 550 Q98 569 111 582 L216 686 Q228 700 248 700 L393 700 Q412 700 425 687 L529 582 Q543 570 543 550 L543 45 Z M452 516 Q452 531 442 541 L384 599 Q374 609 359 609 L282 609 Q267 609 257 599 L199 541 Q189 531 189 516 L189 418 Q189 399 202 386 Q215 373 234 373 L407 373 Q426 373 439 386 Q452 399 452 418 L452 516 Z " />
<glyph glyph-name="Cacute" unicode="&#x106;" horiz-adv-x="640" d="M312 823 Q299 810 280 810 Q261 810 247.5 823 Q234 836 234 855 Q234 873 248 887 L329 969 Q342 982 361 982 Q380 982 393.5 969 Q407 956 407 937 Q407 917 393 905 L312 823 Z M189 184 Q189 169 199 159 L257 101 Q267 91 282 91 L359 91 Q374 91 384 101 L442 159 Q452 169 452 184 L452 214 Q452 233 465.5 246.5 Q479 260 498 260 Q517 260 530 246.5 Q543 233 543 214 L543 150 Q543 130 529 118 L425 13 Q412 0 393 0 L248 0 Q229 0 215 14 L111 118 Q98 131 98 150 L98 550 Q98 569 111 582 L215 686 Q229 700 248 700 L393 700 Q412 700 425 687 L529 582 Q543 570 543 550 L543 486 Q543 467 530 453.5 Q517 440 498 440 Q479 440 465.5 453.5 Q452 467 452 486 L452 516 Q452 531 442 541 L384 599 Q374 609 359 609 L282 609 Q267 609 257 599 L199 541 Q189 531 189 516 L189 184 Z " />
</font>
</svg>
